<svg width="83" height="83" viewBox="0 0 83 83" fill="none" xmlns="http://www.w3.org/2000/svg">
<path d="M77.8125 68.8213H71.6173V22.6875H61.3681V68.8213H57.9988V40.111H47.7509V68.8213H44.3817V26.7078H34.1337V68.8213H30.7645V37.4304H20.5166V68.8213H14.2099V5.43909H11.6161V68.8213H5.1875V71.4059H11.6174V77.8125H14.2112V71.4059H24.3449V74.2526H26.9387V71.4059H37.9621V74.2526H40.5559V71.4059H51.5793V74.2526H54.1731V71.4059H65.1965V74.2526H67.7902V71.4059H77.8125V68.8213ZM63.9619 25.2722H69.0236V68.8213H63.9619V25.2722ZM50.3447 42.6957H55.4064V68.8213H50.3447V42.6957ZM36.7275 29.2925H41.7892V68.8213H36.7275V29.2925ZM23.1103 40.0151H28.172V68.8213H23.1103V40.0151ZM6.76061 7.82015H9.81864V10.8678H6.76061V7.82015ZM6.76061 13.979H9.81864V17.0267H6.76061V13.979Z" fill="#F1F4F8"/>
<path d="M6.76074 20.1379H9.81877V23.1855H6.76074V20.1379ZM6.76074 26.2967H9.81877V29.3444H6.76074V26.2967ZM6.76074 32.4569H9.81877V35.5045H6.76074V32.4569ZM6.76074 38.6157H9.81877V41.6634H6.76074V38.6157ZM6.76074 44.7759H9.81877V47.8236H6.76074V44.7759ZM6.76074 50.9348H9.81877V53.9824H6.76074V50.9348ZM6.76074 57.0949H9.81877V60.1426H6.76074V57.0949ZM6.76074 63.2538H9.81877V66.3014H6.76074V63.2538ZM25.6419 35.5357C26.7838 35.5364 27.8793 35.0841 28.6882 34.2782C29.497 33.4722 29.9532 32.3784 29.9566 31.2365C29.9566 30.3547 29.6869 29.535 29.2291 28.8516L37.5252 19.4337C38.0569 19.6671 38.6418 19.802 39.2591 19.802C39.8933 19.802 40.4912 19.658 41.0333 19.4129L49.1802 28.4975C48.7796 29.1554 48.5658 29.9099 48.5616 30.6802C48.5616 33.0522 50.4978 34.9806 52.8763 34.9806C55.2548 34.9806 57.191 33.0522 57.191 30.6802C57.1863 29.6576 56.8134 28.671 56.1406 27.901L65.3043 13.6003C65.6843 13.7106 66.0785 13.7871 66.4935 13.7871C68.872 13.7871 70.8082 11.8586 70.8082 9.48794C70.8082 7.11725 68.872 5.1875 66.4935 5.1875C64.115 5.1875 62.1788 7.11595 62.1788 9.48794C62.1788 10.506 62.5497 11.4294 63.145 12.166L53.9423 26.5302C53.5947 26.4358 53.2365 26.3857 52.8763 26.381C52.2447 26.381 51.6482 26.5237 51.1074 26.7688L42.9578 17.6803C43.3568 17.0233 43.5697 16.2702 43.5738 15.5015C43.5738 13.1309 41.6376 11.2024 39.2591 11.2024C36.8807 11.2024 34.9444 13.1309 34.9444 15.5028C34.9444 16.3173 35.1856 17.0721 35.5825 17.7205L27.1982 27.237C26.7026 27.0409 26.1749 26.9388 25.6419 26.9361C23.2635 26.9361 21.3272 28.8645 21.3272 31.2365C21.3272 33.6085 23.2622 35.5357 25.6419 35.5357ZM66.4935 7.77217C67.4415 7.77217 68.2145 8.54252 68.2145 9.48794C68.2145 9.94436 68.0331 10.3821 67.7104 10.7048C67.3877 11.0276 66.9499 11.2089 66.4935 11.2089C66.0371 11.2089 65.5993 11.0276 65.2766 10.7048C64.9539 10.3821 64.7725 9.94436 64.7725 9.48794C64.7725 8.54122 65.5442 7.77217 66.4935 7.77217ZM54.5973 30.6802C54.5973 31.1366 54.416 31.5743 54.0932 31.8971C53.7705 32.2198 53.3327 32.4011 52.8763 32.4011C52.4199 32.4011 51.9822 32.2198 51.6594 31.8971C51.3367 31.5743 51.1554 31.1366 51.1554 30.6802C51.1554 30.2237 51.3367 29.786 51.6594 29.4633C51.9822 29.1405 52.4199 28.9592 52.8763 28.9592C53.3327 28.9592 53.7705 29.1405 54.0932 29.4633C54.416 29.786 54.5973 30.2237 54.5973 30.6802ZM39.2591 13.7871C40.2071 13.7871 40.9801 14.5574 40.9801 15.5028C40.9801 15.9593 40.7988 16.397 40.476 16.7197C40.1533 17.0425 39.7156 17.2238 39.2591 17.2238C38.8027 17.2238 38.365 17.0425 38.0422 16.7197C37.7195 16.397 37.5382 15.9593 37.5382 15.5028C37.5382 14.5561 38.3098 13.7871 39.2591 13.7871ZM25.6419 29.5208C26.59 29.5208 27.3629 30.2911 27.3629 31.2365C27.3629 31.693 27.1816 32.1307 26.8588 32.4534C26.5361 32.7762 26.0984 32.9575 25.6419 32.9575C25.1855 32.9575 24.7478 32.7762 24.425 32.4534C24.1023 32.1307 23.921 31.693 23.921 31.2365C23.921 30.2898 24.6926 29.5208 25.6419 29.5208Z" fill="#F1F4F8"/>
</svg>
