<svg width="83" height="83" viewBox="0 0 83 83" fill="none" xmlns="http://www.w3.org/2000/svg">
<g clip-path="url(#clip0_935_237)">
<path fill-rule="evenodd" clip-rule="evenodd" d="M50.0758 46.5594C49.8952 46.5594 49.7144 46.5032 49.5604 46.3862C48.9296 45.9064 48.2558 45.4829 47.5554 45.1245C46.1945 44.4298 45.349 43.0395 45.349 41.4965C45.3491 39.9549 46.1945 38.5645 47.5554 37.8671C52.0572 35.5659 54.8529 31.0065 54.8529 25.9688L54.853 13.6453C54.853 13.1745 55.2349 12.7925 55.7058 12.7925C56.1768 12.7924 56.5588 13.1745 56.5588 13.6454L56.5589 25.9687C56.5589 31.6505 53.4061 36.792 48.3328 39.3865C47.5451 39.7892 47.0549 40.5978 47.0549 41.4966C47.055 42.3954 47.545 43.204 48.3314 43.6053C49.1207 44.0095 49.8818 44.4879 50.5925 45.0269C50.9672 45.3126 51.0398 45.8473 50.7554 46.2218C50.5882 46.4424 50.3334 46.5594 50.0758 46.5594ZM55.7059 70.1991C55.2349 70.1991 54.8529 69.8186 54.8529 69.3462L54.853 59.5594C54.853 59.0886 55.2349 58.7065 55.7058 58.7065C56.1768 58.7065 56.5588 59.0886 56.5588 59.5595L56.5589 69.3461C56.5589 69.8184 56.1767 70.1992 55.7059 70.1991ZM32.922 46.5609C32.6645 46.5609 32.4096 46.4439 32.2408 46.2233C31.9566 45.8486 32.029 45.3126 32.4052 45.0283C33.1146 44.4892 33.8756 44.011 34.6634 43.6082C35.4513 43.2038 35.9414 42.3954 35.9414 41.4981C35.9414 40.5976 35.4512 39.7906 34.6649 39.3879C29.5902 36.7934 26.4375 31.6521 26.4375 25.9702L26.4376 13.6467C26.4376 13.176 26.8196 12.7939 27.2905 12.7939C27.7615 12.7938 28.1434 13.176 28.1434 13.6469L28.1435 25.9701C28.1435 31.0093 30.9392 35.5688 35.4408 37.8685C36.8017 38.563 37.6472 39.9535 37.6472 41.498C37.6473 43.0395 36.8017 44.43 35.4408 45.126C34.7405 45.4842 34.0666 45.9078 33.4373 46.3861C33.2818 46.5031 33.1012 46.5609 32.922 46.5609ZM27.2905 70.2021C26.8196 70.2021 26.4375 69.82 26.4375 69.3492L26.4376 59.5594C26.4376 59.0886 26.8196 58.7065 27.2904 58.7065C27.7615 58.7065 28.1434 59.0886 28.1434 59.5595L28.1435 69.3492C28.1435 69.8199 27.7613 70.2021 27.2905 70.2021Z" fill="#F1F4F8"/>
<path fill-rule="evenodd" clip-rule="evenodd" d="M31.9253 21.6595C31.8156 21.6595 31.7267 21.7485 31.7267 21.8581L31.7268 25.9701C31.7268 29.3331 34.0472 32.6709 37.5019 34.2761C39.307 35.1156 40.7242 36.567 41.5001 38.338C42.2747 36.5668 43.6917 35.1157 45.4968 34.2761C48.9517 32.6709 51.272 29.3331 51.272 25.9702V21.8579C51.272 21.7484 51.1831 21.6596 51.0736 21.6596L31.9253 21.6595ZM41.5003 41.994C41.1211 41.994 40.7878 41.7438 40.6812 41.381L40.1985 39.7417C39.6936 38.0254 38.4482 36.598 36.7823 35.8236C32.6745 33.9147 30.0208 30.0469 30.0208 25.9702L30.0209 21.8579C30.0209 20.8081 30.8753 19.9537 31.9252 19.9537L51.0736 19.9536C52.1236 19.9536 52.9779 20.8081 52.9779 21.8581V25.9701C52.9779 30.0469 50.3243 33.9148 46.2165 35.8236C44.5507 36.5979 43.3053 38.0255 42.8003 39.7417L42.3176 41.3809C42.2109 41.7437 41.8777 41.9941 41.5003 41.994ZM53.0475 70.2005C52.67 70.2005 52.3249 69.9473 52.2227 69.5668C52.1916 69.4498 49.0567 58.0209 41.4972 56.7829C33.9392 58.0209 30.8028 69.4498 30.7717 69.5668C30.6503 70.0212 30.1838 70.2923 29.7292 70.1709C29.2731 70.0494 29.0036 69.583 29.1236 69.1269C29.2628 68.607 32.6124 56.3727 41.3728 55.0755C41.4558 55.0636 41.5401 55.0636 41.6231 55.0755C50.3836 56.3726 53.7331 68.6072 53.8723 69.1269C53.9923 69.5829 53.7213 70.0495 53.2667 70.1709C53.1927 70.19 53.12 70.2005 53.0475 70.2005ZM25.9961 14.5013C24.3257 14.5013 22.9678 13.1434 22.9678 11.4731L22.9678 9.37626C22.9678 8.90532 23.3498 8.52332 23.8207 8.52332C24.2918 8.52332 24.6737 8.90537 24.6737 9.37626L24.6737 11.473C24.6737 12.2032 25.266 12.7955 25.996 12.7955L56.9999 12.7954C57.7299 12.7954 58.3221 12.2032 58.3221 11.4731L58.3223 9.37628C58.3223 8.90534 58.7042 8.52333 59.1751 8.52333C59.646 8.52333 60.028 8.90538 60.028 9.37628L60.0282 11.473C60.0282 13.1434 58.6701 14.5014 56.9998 14.5014L25.9961 14.5013Z" fill="#F1F4F8"/>
<path fill-rule="evenodd" clip-rule="evenodd" d="M21.7714 5.95699V6.8041C21.7714 7.75186 22.5429 8.52334 23.4906 8.52334H59.5055C60.4533 8.52334 61.2232 7.75186 61.2232 6.80563L61.2233 5.95699L21.7714 5.95699ZM59.5055 10.2292H23.4906C21.6027 10.2292 20.0654 8.69365 20.0654 6.80415L20.0655 5.10405C20.0655 4.63325 20.4475 4.25119 20.9183 4.25119L62.0761 4.2511C62.3026 4.2511 62.5202 4.34008 62.6801 4.49999C62.8402 4.65991 62.9289 4.8776 62.9289 5.10414L62.929 6.80563C62.929 8.6936 61.3933 10.2292 59.5055 10.2292ZM59.1753 74.4726C58.7043 74.4726 58.3222 74.0907 58.3222 73.6197L58.3223 71.5214C58.3223 70.7928 57.7299 70.1991 56.9999 70.1991L25.9961 70.199C25.2662 70.199 24.6737 70.7929 24.6737 71.5215L24.6737 73.6197C24.6737 74.0906 24.2917 74.4727 23.8207 74.4727C23.35 74.4726 22.9678 74.0907 22.9678 73.6197L22.9678 71.5214C22.9678 69.8525 24.3257 68.4932 25.996 68.4932L56.9999 68.4931C58.6702 68.4931 60.028 69.8526 60.028 71.5215L60.0282 73.6197C60.0282 74.0906 59.646 74.4727 59.1753 74.4726Z" fill="#F1F4F8"/>
<path fill-rule="evenodd" clip-rule="evenodd" d="M21.7714 77.039H61.2232V76.1904C61.2232 75.2426 60.4531 74.4727 59.5054 74.4727L23.4906 74.4726C22.5429 74.4726 21.7713 75.2428 21.7713 76.1905L21.7714 77.039ZM62.0762 78.7449H20.9184C20.4475 78.7449 20.0654 78.3628 20.0654 77.892L20.0655 76.1904C20.0655 74.3024 21.6026 72.7669 23.4905 72.7669L59.5055 72.7668C61.3935 72.7668 62.929 74.3025 62.929 76.1905L62.9291 77.892C62.9291 78.1185 62.8401 78.3348 62.6802 78.4947C62.5203 78.6544 62.3026 78.7449 62.0762 78.7449ZM58.8939 41.1544C53.9095 41.1544 49.8549 45.2089 49.8549 50.1934C49.855 55.1777 53.9094 59.2322 58.8937 59.2322C63.8784 59.2322 67.9326 55.1778 67.9326 50.1934C67.9326 45.2089 63.8782 41.1545 58.8939 41.1544ZM58.8939 60.9381C52.9691 60.9381 48.1491 56.1181 48.1491 50.1934C48.1491 44.2686 52.9691 39.4486 58.8937 39.4486C64.8186 39.4485 69.6385 44.2686 69.6385 50.1934C69.6385 56.1179 64.8185 60.9381 58.8939 60.9381Z" fill="#F1F4F8"/>
<path fill-rule="evenodd" clip-rule="evenodd" d="M56.4875 54.5765C56.2684 54.5765 56.0506 54.4936 55.8833 54.3278L53.6355 52.0797C53.3023 51.7466 53.3022 51.2062 53.6354 50.873C53.9687 50.5398 54.5091 50.5398 54.8423 50.873L56.4875 52.5182L62.9454 46.0588C63.2786 45.7257 63.8189 45.7257 64.1521 46.0589C64.4854 46.392 64.4853 46.9326 64.1521 47.2658L57.0902 54.3277C56.923 54.4935 56.7051 54.5765 56.4875 54.5765ZM24.1022 41.1544C19.1178 41.1544 15.0633 45.2089 15.0633 50.1934C15.0633 55.1777 19.1177 59.2322 24.1022 59.2322C29.0866 59.2322 33.141 55.1778 33.141 50.1934C33.1411 45.2089 29.0865 41.1545 24.1022 41.1544ZM24.1022 60.9381C18.1776 60.9381 13.3574 56.1181 13.3574 50.1934C13.3574 44.2686 18.1774 39.4486 24.1022 39.4486C30.027 39.4485 34.8469 44.2686 34.8469 50.1934C34.847 56.1179 30.0268 60.9381 24.1022 60.9381Z" fill="#F1F4F8"/>
<path fill-rule="evenodd" clip-rule="evenodd" d="M21.6957 54.5765C21.4765 54.5765 21.2588 54.4936 21.0914 54.3278L18.8437 52.0797C18.5105 51.7466 18.5104 51.2062 18.8436 50.873C19.1769 50.5398 19.7172 50.5398 20.0504 50.873L21.6957 52.5182L28.1534 46.0588C28.4867 45.7256 29.0271 45.7257 29.3603 46.0589C29.6936 46.392 29.6935 46.9326 29.3603 47.2658L22.2983 54.3277C22.131 54.4935 21.9133 54.5765 21.6957 54.5765Z" fill="#F1F4F8"/>
</g>
<defs>
<clipPath id="clip0_935_237">
<rect width="83" height="83" fill="white"/>
</clipPath>
</defs>
</svg>
