<svg width="83" height="83" viewBox="0 0 83 83" fill="none" xmlns="http://www.w3.org/2000/svg">
<path d="M41.5004 23.3221C36.6809 23.3275 32.0604 25.2444 28.6526 28.6523C25.2447 32.0601 23.3278 36.6806 23.3224 41.5C24.3207 65.6156 58.6837 65.6086 59.6783 41.4999C59.6729 36.6805 57.756 32.06 54.3481 28.6522C50.9403 25.2444 46.3198 23.3275 41.5004 23.3221ZM25.9193 41.5C25.9161 38.5289 26.7634 35.6189 28.3611 33.1138C29.9588 30.6088 32.2401 28.6134 34.9356 27.3634C37.631 26.1134 40.6279 25.661 43.5722 26.0597C46.5165 26.4584 49.2852 27.6914 51.5512 29.6133L29.6136 51.5508C27.2274 48.7457 25.9178 45.1828 25.9193 41.5ZM41.5004 57.0812C37.8177 57.0826 34.2547 55.773 31.4496 53.3869L53.3872 31.4493C55.309 33.7152 56.5421 36.4839 56.9408 39.4282C57.3394 42.3725 56.8871 45.3694 55.6371 48.0648C54.387 50.7603 52.3916 53.0416 49.8866 54.6393C47.3816 56.237 44.4716 57.0843 41.5004 57.0812ZM41.5004 19.2417C42.5325 19.2406 43.522 18.8301 44.2518 18.1003C44.9816 17.3706 45.392 16.381 45.3931 15.349V9.03689C45.3816 8.01206 44.9664 7.03312 44.2376 6.3125C43.5088 5.59189 42.5252 5.18773 41.5003 5.18774C40.4754 5.18775 39.4919 5.59193 38.7631 6.31256C38.0344 7.03319 37.6192 8.01214 37.6076 9.03697V15.349C37.6087 16.381 38.0192 17.3706 38.749 18.1003C39.4788 18.8301 40.4683 19.2406 41.5004 19.2417ZM40.2045 9.03689C40.2111 8.69758 40.3506 8.3744 40.5929 8.13678C40.8352 7.89916 41.161 7.76606 41.5004 7.76607C41.8398 7.76608 42.1656 7.8992 42.4079 8.13683C42.6502 8.37446 42.7897 8.69765 42.7963 9.03697V15.349C42.7896 15.6883 42.6502 16.0115 42.4079 16.2491C42.1656 16.4867 41.8397 16.6198 41.5003 16.6198C41.161 16.6198 40.8351 16.4867 40.5928 16.249C40.3505 16.0114 40.2111 15.6882 40.2045 15.3489V9.03689ZM20.2564 25.7617C20.9893 26.4784 21.9752 26.8772 23.0003 26.8715C24.0253 26.8658 25.0067 26.456 25.7315 25.7312C26.4564 25.0063 26.8661 24.0249 26.8718 22.9998C26.8775 21.9748 26.4787 20.9889 25.7619 20.256L21.2974 15.7928C20.7464 15.2665 20.0543 14.9117 19.3053 14.7717C18.5563 14.6316 17.7827 14.7122 17.0788 15.0038C16.3748 15.2954 15.7707 15.7852 15.3401 16.4139C14.9094 17.0425 14.6708 17.7827 14.6532 18.5445C14.6517 19.0559 14.7517 19.5625 14.9474 20.035C15.143 20.5075 15.4305 20.9365 15.7931 21.2971L20.2564 25.7617ZM17.6291 17.6288C17.8722 17.3861 18.2017 17.2498 18.5452 17.2498C18.8888 17.2498 19.2182 17.3861 19.4614 17.6288L23.926 22.0922C24.1682 22.3355 24.3041 22.665 24.3037 23.0083C24.3033 23.3517 24.1667 23.6809 23.9239 23.9237C23.6812 24.1664 23.352 24.303 23.0086 24.3034C22.6653 24.3038 22.3358 24.1679 22.0924 23.9257L17.6291 19.4611C17.3867 19.2178 17.2506 18.8884 17.2506 18.5449C17.2506 18.2015 17.3867 17.8721 17.6291 17.6288ZM19.242 41.5C19.2409 40.468 18.8305 39.4785 18.1007 38.7487C17.3709 38.0189 16.3814 37.6084 15.3493 37.6073H9.03718C8.01225 37.6187 7.03316 38.0339 6.31243 38.7627C5.5917 39.4915 5.18748 40.4751 5.1875 41.5001C5.18752 42.5251 5.59179 43.5088 6.31255 44.2375C7.03331 44.9663 8.01241 45.3814 9.03735 45.3928H15.3492C16.3813 45.3917 17.3708 44.9812 18.1006 44.2514C18.8304 43.5216 19.2409 42.5321 19.242 41.5ZM9.03718 42.7959C8.69349 42.7959 8.36388 42.6594 8.12085 42.4164C7.87782 42.1734 7.74129 41.8437 7.74129 41.5C7.74129 41.1564 7.87782 40.8267 8.12085 40.5837C8.36388 40.3407 8.69349 40.2042 9.03718 40.2042H15.3493C15.693 40.2042 16.0226 40.3407 16.2656 40.5837C16.5086 40.8267 16.6452 41.1564 16.6452 41.5C16.6452 41.8437 16.5086 42.1734 16.2656 42.4164C16.0226 42.6594 15.693 42.7959 15.3493 42.7959H9.03718ZM20.2564 57.2384L15.7931 61.703C15.0765 62.4357 14.6778 63.4214 14.6835 64.4463C14.6892 65.4711 15.0989 66.4523 15.8236 67.1769C16.5482 67.9016 17.5295 68.3112 18.5543 68.3169C19.5791 68.3226 20.5648 67.9239 21.2975 67.2073L25.762 62.744C26.1246 62.3834 26.4121 61.9543 26.6078 61.4818C26.8034 61.0093 26.9034 60.5027 26.902 59.9912C26.8845 59.2292 26.646 58.4887 26.2153 57.8599C25.7846 57.231 25.1804 56.7409 24.4762 56.4492C23.7721 56.1575 22.9983 56.0768 22.2491 56.2169C21.4999 56.3571 20.8076 56.7119 20.2564 57.2384ZM23.926 60.908L19.4614 65.3713C19.2168 65.6063 18.8898 65.7361 18.5506 65.7327C18.2114 65.7293 17.8871 65.593 17.6472 65.3531C17.4074 65.1133 17.2711 64.7889 17.2678 64.4497C17.2644 64.1105 17.3942 63.7836 17.6292 63.539L22.0924 59.0745C22.3372 58.8392 22.6644 58.7093 23.0039 58.7127C23.3433 58.716 23.6679 58.8524 23.908 59.0924C24.148 59.3325 24.2844 59.6571 24.2877 59.9965C24.2911 60.336 24.1612 60.6632 23.926 60.908Z" fill="#F1F4F8"/>
<path d="M41.5002 63.7583C40.4681 63.7594 39.4786 64.1699 38.7488 64.8997C38.019 65.6295 37.6085 66.619 37.6074 67.6511V73.9632C37.619 74.988 38.0342 75.9669 38.763 76.6875C39.4918 77.4081 40.4753 77.8123 41.5002 77.8123C42.5251 77.8122 43.5087 77.4081 44.2374 76.6874C44.9662 75.9668 45.3814 74.9878 45.3929 73.963V67.6511C45.3918 66.619 44.9814 65.6295 44.2516 64.8997C43.5218 64.1699 42.5323 63.7594 41.5002 63.7583ZM42.7961 73.9632C42.7894 74.3025 42.65 74.6256 42.4077 74.8633C42.1654 75.1009 41.8395 75.234 41.5001 75.234C41.1607 75.234 40.8349 75.1008 40.5926 74.8632C40.3503 74.6256 40.2109 74.3024 40.2043 73.9631V67.6511C40.2109 67.3118 40.3503 66.9886 40.5927 66.751C40.835 66.5133 41.1608 66.3802 41.5002 66.3803C41.8396 66.3803 42.1654 66.5134 42.4077 66.751C42.65 66.9887 42.7894 67.3118 42.7961 67.6512V73.9632ZM62.7441 57.2383C62.0108 56.5236 61.0255 56.1265 60.0016 56.1331C58.9776 56.1396 57.9975 56.5493 57.2734 57.2734C56.5494 57.9975 56.1398 58.9776 56.1332 60.0016C56.1267 61.0255 56.5238 62.0108 57.2386 62.7441L61.7018 67.2086C62.4321 67.9378 63.4221 68.3472 64.4541 68.3468C65.4861 68.3464 66.4757 67.9362 67.2054 67.2065C67.9351 66.4767 68.3452 65.4871 68.3456 64.4551C68.346 63.4231 67.9365 62.4331 67.2073 61.7029L62.7441 57.2383ZM65.3714 65.3712C65.1279 65.6136 64.7983 65.7497 64.4546 65.7497C64.111 65.7497 63.7814 65.6136 63.5379 65.3712L59.0745 60.9079C58.8314 60.6647 58.6948 60.335 58.6948 59.9911C58.6948 59.6473 58.8314 59.3175 59.0745 59.0744C59.3177 58.8312 59.6475 58.6946 59.9913 58.6946C60.3352 58.6946 60.6649 58.8312 60.9081 59.0744L65.3714 63.539C65.6138 63.7822 65.7499 64.1117 65.7499 64.4551C65.7499 64.7985 65.6138 65.1279 65.3714 65.3712ZM73.9633 37.6072H67.6513C67.1395 37.6063 66.6325 37.7063 66.1594 37.9015C65.6863 38.0967 65.2563 38.3833 64.8941 38.7449C64.5318 39.1064 64.2445 39.5359 64.0484 40.0086C63.8523 40.4814 63.7514 40.9882 63.7514 41.5C63.7514 42.0118 63.8523 42.5186 64.0484 42.9913C64.2445 43.4641 64.5318 43.8935 64.8941 44.2551C65.2563 44.6166 65.6863 44.9032 66.1594 45.0984C66.6325 45.2937 67.1395 45.3937 67.6513 45.3927H73.9633C74.9883 45.3813 75.9674 44.9662 76.6881 44.2374C77.4089 43.5086 77.8131 42.525 77.8131 41.5C77.8131 40.475 77.4089 39.4913 76.6881 38.7625C75.9674 38.0338 74.9883 37.6186 73.9633 37.6072ZM73.9633 42.7959H67.6513C67.3118 42.7894 66.9885 42.6501 66.7507 42.4077C66.513 42.1654 66.3798 41.8394 66.3798 41.4999C66.3798 41.1605 66.513 40.8345 66.7508 40.5922C66.9885 40.3499 67.3119 40.2105 67.6513 40.2041H73.9633C74.3026 40.2107 74.6258 40.3502 74.8635 40.5925C75.1011 40.8348 75.2342 41.1606 75.2342 41.5C75.2342 41.8394 75.1011 42.1652 74.8635 42.4075C74.6258 42.6498 74.3026 42.7893 73.9633 42.7959ZM59.9913 26.9016C60.5027 26.903 61.0094 26.803 61.4819 26.6074C61.9544 26.4117 62.3834 26.1242 62.7441 25.7616L67.2075 21.297C67.9358 20.5666 68.3445 19.5769 68.3437 18.5454C68.3429 17.5139 67.9327 16.5249 67.2033 15.7956C66.4738 15.0663 65.4847 14.6563 64.4532 14.6558C63.4216 14.6552 62.4321 15.0641 61.7018 15.7926L57.2385 20.256C56.7062 20.805 56.3462 21.4978 56.2028 22.2489C56.0594 23 56.1389 23.7767 56.4316 24.4832C56.7242 25.1897 57.2172 25.7951 57.8497 26.2248C58.4823 26.6545 59.2267 26.8898 59.9913 26.9016ZM59.0745 22.0921L63.5379 17.63C63.7822 17.3945 64.1093 17.2642 64.4486 17.2673C64.788 17.2703 65.1126 17.4063 65.3527 17.6461C65.5929 17.886 65.7294 18.2104 65.7328 18.5498C65.7363 18.8891 65.6065 19.2163 65.3713 19.461L60.9081 23.9256C60.6633 24.1607 60.3361 24.2905 59.9967 24.2871C59.6573 24.2837 59.3328 24.1473 59.0928 23.9073C58.8528 23.6673 58.7165 23.3428 58.7131 23.0034C58.7096 22.664 58.8394 22.3368 59.0745 22.0921Z" fill="#F1F4F8"/>
</svg>
