<svg width="83" height="95" viewBox="0 0 83 95" fill="none" xmlns="http://www.w3.org/2000/svg">
<path d="M39.1198 57.7552C39.1198 57.4002 38.8321 57.1124 38.4772 57.1124C38.1224 57.1124 37.8346 57.4002 37.8346 57.7552C37.8346 59.5576 39.1418 61.0595 40.8573 61.3644V63.3384C40.8573 63.6935 41.145 63.9813 41.4998 63.9813C41.8547 63.9813 42.1424 63.6935 42.1424 63.3384V61.3644C43.8579 61.0595 45.165 59.5576 45.165 57.7552C45.165 55.9527 43.8579 54.4508 42.1424 54.1459V49.4166C43.1432 49.6982 43.8799 50.6171 43.8799 51.7072C43.8799 52.0623 44.1676 52.3501 44.5225 52.3501C44.8773 52.3501 45.165 52.0623 45.165 51.7072C45.165 49.9047 43.8579 48.4028 42.1424 48.0979V46.1239C42.1424 45.7689 41.8547 45.481 41.4998 45.481C41.145 45.481 40.8573 45.7689 40.8573 46.1239V48.0979C39.1418 48.4028 37.8346 49.9047 37.8346 51.7072C37.8346 53.5098 39.1418 55.0117 40.8573 55.3166V60.0457C39.8566 59.7642 39.1198 58.845 39.1198 57.7552ZM43.8799 57.7552C43.8799 58.8452 43.1432 59.7642 42.1424 60.0457V55.4647C43.1432 55.7462 43.8799 56.6651 43.8799 57.7552ZM39.1198 51.7071C39.1198 50.6171 39.8565 49.698 40.8573 49.4164V53.9976C39.8566 53.7162 39.1198 52.7971 39.1198 51.7071ZM26.5451 63.8288C26.1899 65.3255 25.7873 67.0218 27.0035 68.5433C29.3017 71.4175 40.2581 71.5005 41.4998 71.5005C42.7416 71.5005 53.698 71.4174 55.9961 68.5432C57.2125 67.0218 56.8099 65.3255 56.4546 63.8288C56.3173 63.2497 56.1875 62.703 56.1523 62.1926C56.0949 61.3615 56.2311 60.292 56.3891 59.0535C56.5752 57.5923 56.807 55.7738 56.807 53.6562C56.807 49.5825 55.2101 45.8311 52.3104 43.0928C51.0339 41.8875 49.5573 40.9272 47.9462 40.2318C47.8688 39.5184 47.5814 38.1022 46.5146 37.1745C46.3718 37.0503 46.2184 36.9381 46.0571 36.8365C46.3326 35.583 47.3976 34.6042 48.4334 33.6557C49.7851 32.418 51.1825 31.1383 50.6236 29.2783C50.3403 28.3351 49.6811 27.677 48.7175 27.3753C47.4551 26.9801 45.9485 27.3001 44.8719 27.8695C44.3445 26.9235 43.268 25.831 41.5 25.831C39.732 25.831 38.6555 26.9235 38.1281 27.8695C37.0517 27.2999 35.5447 26.9798 34.2827 27.3753C33.319 27.677 32.6597 28.3349 32.3764 29.2783C31.8175 31.1383 33.2151 32.418 34.5666 33.6557C35.6024 34.6042 36.6674 35.5831 36.9429 36.8365C36.7816 36.9381 36.6282 37.0503 36.4854 37.1745C35.4186 38.1022 35.1312 39.5184 35.0538 40.2318C33.4427 40.927 31.9661 41.8875 30.6896 43.0928C27.7899 45.8309 26.193 49.5825 26.193 53.6562C26.193 55.7738 26.4246 57.5923 26.6109 59.0535C26.7687 60.292 26.9051 61.3615 26.8477 62.1926C26.8122 62.703 26.6826 63.2497 26.5451 63.8288ZM35.4342 32.7073C34.0989 31.4846 33.2964 30.6826 33.607 29.6485C33.7666 29.1178 34.1131 28.7756 34.6663 28.6024C35.7524 28.2625 37.2512 28.7107 38.0173 29.3209C38.1853 29.4546 38.4089 29.4955 38.6138 29.4302C38.8183 29.3645 38.9765 29.201 39.0354 28.9944C39.0407 28.9755 39.5925 27.1169 41.4998 27.1169C43.3856 27.1169 43.9424 28.9209 43.9642 28.9944C44.0232 29.201 44.1814 29.3646 44.3859 29.4302C44.5904 29.4958 44.8144 29.4548 44.9824 29.3209C45.7486 28.7107 47.2474 28.2625 48.3334 28.6024C48.8866 28.7756 49.2331 29.1178 49.3926 29.6485C49.7033 30.6826 48.9008 31.4846 47.5655 32.7073C46.4903 33.6919 45.296 34.7899 44.867 36.297C44.3827 36.1423 43.8834 36.0439 43.4155 35.9814C43.6234 34.4948 44.166 33.1943 45.0343 32.1096C45.2561 31.8324 45.2115 31.4279 44.9344 31.2059C44.6574 30.984 44.2529 31.0287 44.0311 31.3059C43.0002 32.5937 42.3639 34.1308 42.1328 35.8805C41.8749 35.8726 41.6576 35.8726 41.4997 35.8726C41.3418 35.8726 41.1244 35.8727 40.8666 35.8805C40.6354 34.1309 39.9991 32.5935 38.9683 31.3059C38.7466 31.0288 38.3421 30.984 38.065 31.2059C37.7881 31.4279 37.7434 31.8324 37.9651 32.1096C38.8333 33.1943 39.376 34.4951 39.5837 35.9816C39.1159 36.0441 38.6166 36.1424 38.1325 36.297C37.7037 34.7899 36.5094 33.6919 35.4342 32.7073ZM37.3285 38.1451C38.0814 37.4903 39.4849 37.1585 41.5 37.1585C43.5151 37.1585 44.9186 37.4903 45.6715 38.1451C46.1633 38.5726 46.4174 39.1894 46.549 39.7071C44.9532 39.1928 43.2528 38.9226 41.5 38.9226C39.7472 38.9226 38.0469 39.1928 36.451 39.7071C36.5826 39.1894 36.8367 38.5726 37.3285 38.1451ZM27.8855 58.8908C27.6945 57.3915 27.4779 55.6922 27.4779 53.6562C27.4779 45.9897 33.506 40.2085 41.4998 40.2085C49.4937 40.2085 55.5218 45.9899 55.5218 53.6562C55.5218 55.6922 55.3052 57.3915 55.1142 58.8908C54.9478 60.1965 54.8042 61.3242 54.87 62.2811C54.9126 62.897 55.0609 63.5218 55.2042 64.1259C55.533 65.5118 55.8172 66.7086 54.9924 67.7401C53.3701 69.7691 44.7025 70.2144 41.4997 70.2148C38.2968 70.2144 29.6292 69.7691 28.0069 67.7402C27.1822 66.7086 27.4664 65.5118 27.7952 64.1259C27.9385 63.5218 28.0868 62.8971 28.1293 62.2811C28.1957 61.3242 28.0519 60.1965 27.8855 58.8908ZM32.4257 79.5804C37.309 82.1254 41.1673 83.2037 41.3291 83.2483C41.385 83.2638 41.4425 83.2715 41.4998 83.2715C41.5572 83.2715 41.6147 83.2638 41.6706 83.2483C41.8324 83.2037 45.6907 82.1254 50.574 79.5804C55.0922 77.2257 61.3448 73.1221 65.4738 66.9455C68.7899 61.9852 70.9297 53.7769 71.8336 42.5491C72.5037 34.2283 72.2063 27.2517 72.2033 27.1821C72.1883 26.8445 71.9147 26.5762 71.5771 26.5679C58.3278 26.2442 48.379 21.9173 42.0073 13.7072C41.8855 13.5504 41.6982 13.4586 41.4997 13.4586C41.3011 13.4586 41.1138 13.5504 40.9921 13.7072C34.6202 21.9173 24.6715 26.2444 11.4223 26.5679C11.0846 26.5762 10.811 26.8445 10.7961 27.1821C10.793 27.2517 10.4957 34.2282 11.1657 42.5491C12.0697 53.7769 14.2096 61.9852 17.5255 66.9455C21.6548 73.1222 27.9075 77.2257 32.4257 79.5804ZM12.0602 27.8358C18.5691 27.6162 24.3416 26.4372 29.2257 24.3288C34.1086 22.2211 38.2342 19.1292 41.5 15.1331C44.7658 19.1294 48.8914 22.2211 53.7743 24.3288C58.6584 26.4372 64.4309 27.6162 70.9398 27.8358C71.0561 31.9126 71.4145 55.7468 64.406 66.2308C57.2231 76.9758 43.2081 81.4472 41.4998 81.9589C39.7908 81.4477 25.7835 76.9853 18.594 66.2308C11.5855 55.7468 11.9439 31.9126 12.0602 27.8358ZM31.0471 83.7175C36.6875 86.6733 41.1414 87.9248 41.3283 87.9765C41.3845 87.9921 41.4422 88 41.5 88C41.5578 88 41.6155 87.9921 41.6717 87.9765C41.8586 87.9248 46.3125 86.6733 51.9529 83.7175C57.1698 80.9839 64.3885 76.2208 69.1535 69.0541C72.9796 63.2991 75.4492 53.7682 76.4937 40.7258C77.2683 31.0533 76.9245 22.9446 76.921 22.8638C76.906 22.5261 76.6325 22.2577 76.2948 22.2495C60.9354 21.8721 49.3997 16.8256 42.0086 7.24991C41.8868 7.09225 41.699 7 41.4998 7C41.3006 7 41.1129 7.09225 40.9912 7.24991C33.6003 16.8256 22.0646 21.8721 6.7052 22.2495C6.36754 22.2577 6.09396 22.5263 6.07902 22.8638C6.07549 22.9444 5.73172 31.0533 6.50633 40.7258C7.55066 53.7681 10.0204 63.2991 13.8465 69.0541C18.6115 76.2208 25.8302 80.9839 31.0471 83.7175ZM7.34247 23.5174C14.8994 23.2708 21.5976 21.9008 27.2607 19.4428C32.9331 16.9807 37.7199 13.3617 41.4998 8.67994C45.2797 13.3617 50.0665 16.9807 55.7389 19.4428C61.4019 21.9008 68.1003 23.2707 75.6572 23.5174C75.7884 27.9669 76.2672 56.0324 68.0833 68.3418C63.475 75.2729 56.4586 79.9015 51.3841 82.5639C46.469 85.1427 42.3747 86.4268 41.5003 86.6871C39.6439 86.1315 23.2927 80.94 14.9167 68.3418C6.73267 56.0325 7.21139 27.9669 7.34247 23.5174Z" fill="#F1F4F8"/>
</svg>
