<svg width="83" height="83" viewBox="0 0 83 83" fill="none" xmlns="http://www.w3.org/2000/svg">
<path d="M44.2566 42.4164C42.5094 39.5344 39.0149 39.4236 35.8481 40.3103C37.1585 36.0982 36.9401 30.2235 36.8309 29.3367C37.0493 28.0066 40.5438 20.6908 43.0554 19.3607C43.929 18.9173 43.2738 19.139 48.7339 23.9053C51.1363 26.1222 54.9584 25.6788 56.7056 23.0185C59.1081 19.2498 59.2173 10.4931 58.5621 9.38461C56.378 5.94842 47.4235 6.17011 45.3486 6.17011C36.8309 5.17251 33.9916 8.71954 30.7156 12.71C25.3647 19.3607 16.6285 24.6812 9.09362 43.1923C7.8924 44.0791 7.12798 45.2984 7.01878 46.7393C6.58197 51.9491 13.8985 58.8214 14.9905 59.819C28.6408 75.3373 74.9424 77 76.908 77C77.5632 77 78 76.4458 78 75.8916V47.1827C78 47.0719 65.2234 31.8861 44.2566 42.4164ZM75.816 74.7831C68.6086 74.3397 28.4223 71.7903 16.5193 58.1564C16.4101 58.0455 8.76601 51.0623 9.20282 46.8502C9.31202 46.0743 9.74883 45.4092 10.6224 44.855C10.8408 44.7441 10.95 44.5224 11.0593 44.3008C18.2666 26.1222 26.8935 21.0233 32.4628 14.1509C38.6873 6.3918 41.745 8.6087 45.4578 8.38701C49.4983 8.16532 55.6136 8.71954 56.8148 10.6039C56.924 10.7148 56.8148 18.8064 54.9584 21.7992C53.9756 23.3511 51.6824 23.5728 50.2627 22.2426C46.1131 18.9173 45.1302 15.7028 41.9634 17.4763C38.6873 19.3607 34.7561 27.5632 34.6469 29.2258V29.3367C34.7561 31.7753 34.7561 38.7585 32.8996 41.6405C32.6812 42.0839 32.6812 42.6381 33.0088 42.9706C33.3364 43.3032 33.8824 43.414 34.3193 43.1923C36.7217 41.973 40.7622 41.0863 42.291 43.414C40.2162 44.6333 35.0837 47.8478 32.026 51.6165C31.5892 52.0599 31.6984 52.8358 32.1352 53.1683C32.572 53.6117 33.3364 53.5009 33.664 53.0575C40.4346 44.7441 61.8381 33.2163 75.1608 47.9586C75.27 48.0695 75.4884 48.2912 75.7068 48.402V74.7831H75.816Z" fill="#F1F4F8"/>
</svg>
