<svg width="83" height="83" viewBox="0 0 83 83" fill="none" xmlns="http://www.w3.org/2000/svg">
<path d="M38.9062 54.4688C38.5623 54.4688 38.2324 54.6054 37.9892 54.8486C37.746 55.0918 37.6094 55.4217 37.6094 55.7656C37.6094 56.1096 37.746 56.4394 37.9892 56.6827C38.2324 56.9259 38.5623 57.0625 38.9062 57.0625C39.9381 57.0625 40.9277 57.4724 41.6573 58.202C42.387 58.9317 42.7969 59.9213 42.7969 60.9531C42.7969 61.2971 42.9335 61.6269 43.1767 61.8702C43.4199 62.1134 43.7498 62.25 44.0938 62.25C44.4377 62.25 44.7676 62.1134 45.0108 61.8702C45.254 61.6269 45.3906 61.2971 45.3906 60.9531C45.3886 59.234 44.7047 57.5859 43.4891 56.3703C42.2735 55.1546 40.6254 54.4708 38.9062 54.4688Z" fill="#F1F4F8"/>
<path d="M63.0036 6.3434C62.771 6.12288 62.4629 6 62.1427 6C61.8224 6 61.5143 6.12288 61.2817 6.3434L54.3926 13.2482C54.1643 13.4771 54.036 13.7875 54.036 14.1112C54.036 14.4348 54.1643 14.7452 54.3926 14.9741L55.2535 15.8371L54.6654 16.4278C51.8946 16.9436 49.3461 18.2923 47.3585 20.2946L43.6187 24.0504L41.5228 21.9497C40.3204 20.7381 38.8901 19.7776 37.3148 19.1237C35.7396 18.4698 34.0505 18.1356 32.3455 18.1403H29.1098L27.7446 16.772L28.6056 15.9091C28.8339 15.6802 28.9622 15.3698 28.9622 15.0461C28.9622 14.7225 28.8339 14.4121 28.6056 14.1832L21.7165 7.2747C21.4881 7.04588 21.1784 6.91733 20.8555 6.91733C20.5326 6.91733 20.2229 7.04588 19.9945 7.2747L5.35656 21.9461C5.12825 22.175 5 22.4854 5 22.809C5 23.1327 5.12825 23.4431 5.35656 23.672L12.2444 30.5768C12.4728 30.8056 12.7825 30.9342 13.1054 30.9342C13.4283 30.9342 13.738 30.8056 13.9664 30.5768L14.8274 29.7138L15.4168 30.3046C15.9327 33.0812 17.2781 35.6351 19.2748 37.6281L28.0698 46.4382V52.3678C28.0649 54.0767 28.3985 55.7695 29.0511 57.3483C29.7037 58.927 30.6625 60.3602 31.8718 61.5649L34.1588 63.8584V65.7942H32.941C32.618 65.7942 32.3083 65.9228 32.0799 66.1517C31.8515 66.3806 31.7232 66.6911 31.7232 67.0148V76.7794C31.7232 77.1031 31.8515 77.4136 32.0799 77.6425C32.3083 77.8714 32.618 78 32.941 78H53.6436C53.9666 78 54.2764 77.8714 54.5047 77.6425C54.7331 77.4136 54.8614 77.1031 54.8614 76.7794V67.0148C54.8614 66.6911 54.7331 66.3806 54.5047 66.1517C54.2764 65.9228 53.9666 65.7942 53.6436 65.7942H52.4258V64.9593C54.0181 62.6309 54.8674 59.8728 54.8614 57.05V49.6654C55.6555 49.5711 56.3952 49.2127 56.9621 48.6475L63.0036 42.5922C65.4298 40.1479 66.796 36.843 66.8056 33.3951V30.1533L68.1708 28.7838L69.0318 29.6479C69.2601 29.8768 69.5698 30.0053 69.8927 30.0053C70.2157 30.0053 70.5254 29.8768 70.7537 29.6479L77.6428 22.7431C77.7561 22.6298 77.8459 22.4951 77.9072 22.347C77.9685 22.1988 78 22.04 78 21.8796C78 21.7192 77.9685 21.5603 77.9072 21.4121C77.8459 21.264 77.7561 21.1294 77.6428 21.016L63.0036 6.3434ZM13.9664 27.125L13.1054 27.9879L7.93951 22.809L20.8555 9.86355L26.0227 15.0425L25.1629 15.9042L13.9664 27.125ZM20.9968 35.8973C19.2676 34.1715 18.1317 31.9386 17.7538 29.5222C17.7132 29.2679 17.5935 29.0329 17.4116 28.8509L16.5506 27.9879L21.2866 23.2411L26.0227 18.4943L27.7446 20.2202C27.973 20.4491 28.2827 20.5777 28.6056 20.5778H32.3455C33.7306 20.5738 35.1027 20.8452 36.3824 21.3763C37.6622 21.9075 38.8241 22.6877 39.8009 23.672L41.8967 25.7738L40.1735 27.4997L38.0777 25.3991C37.8493 25.1696 37.5394 25.0404 37.216 25.0399C36.8926 25.0395 36.5823 25.1678 36.3533 25.3967C36.1243 25.6255 35.9954 25.9362 35.9949 26.2603C35.9945 26.5844 36.1225 26.8955 36.3508 27.125L38.4467 29.2256L33.707 33.9761C33.3679 34.3146 33.0996 34.7175 32.9177 35.1612C32.7358 35.6049 32.6439 36.0804 32.6475 36.5601C32.6522 37.2752 32.8647 37.9735 33.259 38.5696C33.6532 39.1657 34.2122 39.6338 34.8675 39.9167C34.4103 40.6875 34.2606 41.6031 34.4486 42.4799L30.7088 38.7315C30.5964 38.6149 30.462 38.5219 30.3135 38.458C30.1649 38.394 30.0051 38.3603 29.8434 38.3589C29.6817 38.3575 29.5213 38.3884 29.3717 38.4498C29.222 38.5111 29.086 38.6018 28.9717 38.7164C28.8573 38.831 28.7669 38.9672 28.7057 39.1173C28.6445 39.2673 28.6136 39.428 28.615 39.5901C28.6165 39.7521 28.65 39.9123 28.7139 40.0612C28.7777 40.2101 28.8705 40.3448 28.9868 40.4574L33.7545 45.236C33.8662 45.348 33.9545 45.4813 34.0141 45.6281C34.0737 45.7748 34.1034 45.932 34.1015 46.0904C34.0984 46.4144 33.968 46.7241 33.7388 46.9525C33.5095 47.1809 33.1997 47.3097 32.8764 47.3109C32.7186 47.321 32.5605 47.295 32.4141 47.2349C32.2677 47.1749 32.1368 47.0824 32.0313 46.9643L20.9968 35.8973ZM52.4258 75.5588H34.1588V68.2354H52.4258V75.5588ZM52.4258 57.05C52.4314 59.4961 51.6593 61.8804 50.2216 63.8571C50.071 64.0655 49.9901 64.3163 49.9902 64.5736V65.7942H36.5944V63.353C36.5943 63.0293 36.466 62.7189 36.2376 62.4901L33.5937 59.839C32.6116 58.8602 31.833 57.6959 31.3029 56.4135C30.7728 55.131 30.5017 53.7559 30.5054 52.3678V48.8452C31.1606 49.4218 32.0009 49.7428 32.8728 49.7497H32.8923C33.8597 49.7449 34.7862 49.3575 35.4703 48.6719C36.1544 47.9862 36.5409 47.0576 36.5457 46.0879C36.5412 45.7023 36.475 45.3199 36.3496 44.9552C36.811 45.2003 37.32 45.3419 37.8414 45.3702C37.89 46.2698 38.2678 47.1199 38.9025 47.7579C39.5372 48.3959 40.3843 48.7769 41.2817 48.8281C41.3328 49.761 41.7367 50.6393 42.4111 51.2842C43.0856 51.9291 43.9799 52.2922 44.912 52.2995H44.9254C45.4018 52.3014 45.8739 52.2085 46.3142 52.026C46.7545 51.8435 47.1542 51.575 47.4901 51.2363L51.1045 47.6076C51.3967 48.2246 51.8541 48.7481 52.4258 49.1199V57.05ZM64.7256 28.7838C64.4972 29.0126 64.3689 29.323 64.3688 29.6467V33.3951C64.3606 36.1958 63.2509 38.8804 61.2805 40.8663L55.2389 46.9216C55.1286 47.0324 54.9974 47.1202 54.8529 47.1799C54.7085 47.2396 54.5537 47.2701 54.3974 47.2695C54.0754 47.2663 53.7675 47.1367 53.5398 46.9084C53.3121 46.6802 53.1828 46.3716 53.1796 46.0489C53.1776 45.8906 53.2072 45.7334 53.2666 45.5867C53.3259 45.44 53.414 45.3066 53.5255 45.1945L53.5328 45.1871L59.5682 39.1392C59.7901 38.909 59.9128 38.6006 59.91 38.2806C59.9073 37.9606 59.7792 37.6544 59.5534 37.4281C59.3276 37.2018 59.0222 37.0735 58.7029 37.0707C58.3835 37.0679 58.0759 37.1909 57.8462 37.4133L53.5413 41.728L51.812 43.4612L45.7778 49.5092C45.6673 49.6201 45.5359 49.708 45.3912 49.7677C45.2466 49.8274 45.0915 49.8578 44.9351 49.8571C44.6132 49.8536 44.3055 49.7239 44.0779 49.4957C43.8502 49.2676 43.7208 48.9591 43.7173 48.6365C43.7157 48.478 43.7456 48.3208 43.8055 48.1741C43.8653 48.0274 43.9537 47.8941 44.0656 47.7821L51.8291 40.0009C52.0509 39.7707 52.1737 39.4624 52.1709 39.1423C52.1681 38.8223 52.04 38.5162 51.8143 38.2899C51.5885 38.0636 51.283 37.9352 50.9637 37.9324C50.6444 37.9296 50.3368 38.0527 50.1071 38.275L42.3436 46.0562C42.2333 46.167 42.1021 46.2548 41.9576 46.3145C41.8132 46.3742 41.6584 46.4047 41.5021 46.4041C41.1803 46.4003 40.8728 46.2704 40.6452 46.0424C40.4176 45.8143 40.2881 45.506 40.2843 45.1835C40.2822 45.025 40.3118 44.8678 40.3714 44.721C40.431 44.5742 40.5194 44.441 40.6314 44.3291L48.3961 36.5479C48.5092 36.4345 48.5988 36.2999 48.66 36.1517C48.7212 36.0036 48.7526 35.8448 48.7526 35.6845C48.7525 35.5242 48.7209 35.3654 48.6597 35.2173C48.5984 35.0692 48.5086 34.9347 48.3955 34.8214C48.2824 34.708 48.148 34.6182 48.0002 34.5569C47.8524 34.4956 47.694 34.464 47.5341 34.4641C47.3741 34.4642 47.2157 34.4958 47.068 34.5572C46.9202 34.6186 46.786 34.7086 46.6729 34.822L38.879 42.6032C38.7689 42.7139 38.6378 42.8016 38.4936 42.8611C38.3493 42.9206 38.1947 42.9508 38.0387 42.9498H38.0314C37.7094 42.9466 37.4015 42.817 37.1738 42.5888C36.9461 42.3606 36.8168 42.052 36.8136 41.7292C36.8129 41.412 36.9377 41.1073 37.1607 40.8822L44.9242 33.0997C45.1525 32.8704 45.2806 32.5595 45.2802 32.2355C45.2799 31.9115 45.1512 31.6009 44.9223 31.372C44.809 31.2587 44.6746 31.1688 44.5266 31.1076C44.3787 31.0464 44.2201 31.0149 44.0601 31.0151C43.7368 31.0154 43.4269 31.1445 43.1985 31.3738L37.9522 36.6321L37.1595 37.4279C37.0489 37.5385 36.9177 37.6262 36.7733 37.6859C36.6289 37.7456 36.4741 37.7761 36.318 37.7758C35.996 37.7726 35.688 37.643 35.4603 37.4148C35.2326 37.1865 35.1033 36.8779 35.1001 36.5552C35.0978 36.3968 35.1273 36.2396 35.1867 36.0929C35.2461 35.9461 35.3343 35.8128 35.446 35.7008L49.0976 22.0193C50.819 20.2861 53.0464 19.1472 55.4569 18.7677C55.7107 18.7271 55.9452 18.607 56.1267 18.4247L56.9877 17.5618L66.461 27.0566L64.7256 28.7838ZM69.8915 27.0579L56.9755 14.1112L62.1427 8.93225L75.0599 21.8789L69.8915 27.0579Z" fill="#F1F4F8"/>
</svg>
