<svg width="83" height="83" viewBox="0 0 83 83" fill="none" xmlns="http://www.w3.org/2000/svg">
<path d="M58.7913 31.125H27.6663V24.2083C27.6653 19.5837 29.9758 15.2648 33.8231 12.6989C40.1779 8.46109 48.7648 10.177 53.0027 16.5317C54.2409 18.3624 55.0086 20.4701 55.2384 22.6682C55.3442 23.6154 56.1963 24.2986 57.1437 24.1958C58.0933 24.0928 58.7795 23.2396 58.6765 22.29C58.3886 19.5362 57.4257 16.8961 55.8734 14.6033C55.2444 13.6661 54.525 12.7929 53.7254 11.996C50.5016 8.72389 46.093 6.89235 41.4997 6.91662C31.9544 6.92781 24.2192 14.663 24.208 24.2083V31.125C18.4806 31.1313 13.8393 35.7725 13.833 41.5V65.7083C13.8393 71.4357 18.4806 76.077 24.208 76.0833H58.7913C64.5188 76.077 69.16 71.4357 69.1663 65.7083V41.5C69.16 35.7725 64.5188 31.1313 58.7913 31.125ZM65.708 65.7083C65.7032 69.5263 62.6094 72.6201 58.7913 72.625H24.208C20.39 72.6201 17.2962 69.5263 17.2913 65.7083V41.5C17.2962 37.6819 20.39 34.5881 24.208 34.5833H58.7913C62.6094 34.5881 65.7032 37.6819 65.708 41.5V65.7083ZM41.4997 44.9583C38.6347 44.9583 36.3122 47.2808 36.3122 50.1458C36.3122 52.4012 37.7604 54.3013 39.7705 55.0158V60.5227C39.7711 61.4772 40.5452 62.2506 41.4997 62.25C42.454 62.2493 43.2295 61.4753 43.2288 60.5208V55.0141C45.2377 54.2984 46.6846 52.3999 46.6872 50.1458C46.6872 47.2808 44.3647 44.9583 41.4997 44.9583ZM41.4997 51.875C40.5447 51.875 39.7705 51.1007 39.7705 50.1458C39.7705 49.1909 40.5447 48.4166 41.4997 48.4166C42.454 48.4185 43.2269 49.1915 43.2288 50.1458C43.2288 51.1007 42.4546 51.875 41.4997 51.875Z" fill="#F1F4F8"/>
</svg>
