<svg width="83" height="83" viewBox="0 0 83 83" fill="none" xmlns="http://www.w3.org/2000/svg">
<path d="M72.4252 5.17096C72.0803 4.94301 71.6204 4.94301 71.2755 5.17096C61.3887 10.8696 51.8467 10.8696 42.0748 5.17096C41.7299 4.94301 41.2701 4.94301 40.9252 5.17096C31.1533 10.8696 21.4963 10.8696 11.7245 5.17096C11.3796 5.05699 10.9197 5.05699 10.5748 5.17096C10.2299 5.39891 10 5.74083 10 6.19672V43.3521C10 61.1319 39.6606 77.2022 40.9252 77.886C41.1551 78 41.2701 78 41.5 78C41.7299 78 41.8449 78 42.0748 77.886C43.3394 77.2022 73 61.2459 73 43.3521V6.19672C73 5.74083 72.7701 5.39891 72.4252 5.17096ZM70.7007 43.3521C70.7007 58.6245 45.5237 73.4411 41.5 75.6066C37.4763 73.4411 12.2993 58.6245 12.2993 43.3521V8.0203C21.9562 13.0351 31.8431 12.9212 41.5 7.45043C51.1569 12.9212 61.0438 13.1491 70.7007 8.0203V43.3521Z" fill="#F1F4F8"/>
<path d="M20 40C20 51.5161 29.5941 61 41.5 61C53.2903 61 63 51.629 63 40C63 28.4839 53.4059 19 41.5 19C29.7097 19 20 28.4839 20 40ZM28.3226 53.5484C30.172 48.0161 35.4892 44.2903 41.5 44.2903C47.5108 44.2903 52.828 48.129 54.6774 53.5484C51.2097 56.7097 46.586 58.7419 41.5 58.7419C36.414 58.7419 31.6747 56.8226 28.3226 53.5484ZM60.6882 40C60.6882 44.5161 59.0699 48.5806 56.4113 51.8548C53.8683 46.0968 48.0887 42.1452 41.5 42.1452C34.9113 42.1452 29.0161 46.0968 26.5887 51.8548C23.9301 48.5806 22.3118 44.5161 22.3118 40C22.3118 29.6129 30.9812 21.2581 41.5 21.2581C52.1344 21.2581 60.6882 29.6129 60.6882 40Z" fill="#F1F4F8"/>
<path d="M35 34C35 37.7966 37.8644 41 41.5 41C45.0254 41 48 37.9153 48 34C48 30.2034 45.1356 27 41.5 27C37.9746 27 35 30.0847 35 34ZM45.7966 34C45.7966 36.6102 43.8136 38.6271 41.5 38.6271C39.0763 38.6271 37.2034 36.4915 37.2034 34C37.2034 31.3898 39.1864 29.3729 41.5 29.3729C43.9237 29.2542 45.7966 31.3898 45.7966 34Z" fill="#F1F4F8"/>
</svg>
