<svg width="61" height="61" viewBox="0 0 61 61" fill="none" xmlns="http://www.w3.org/2000/svg">
<path fill-rule="evenodd" clip-rule="evenodd" d="M20.6042 1.34863C20.6042 0.796348 21.0519 0.348633 21.6042 0.348633H39.472C40.0243 0.348633 40.472 0.796348 40.472 1.34863V7.8967H45.75C48.4079 7.8967 50.5625 10.0513 50.5625 12.7092V55.9175C50.5625 58.5754 48.4079 60.73 45.75 60.73H15.25C12.5921 60.73 10.4375 58.5754 10.4375 55.9175V12.7092C10.4375 10.0513 12.5921 7.8967 15.25 7.8967H20.6042V1.34863ZM38.472 7.8967H22.6042V2.34863H38.472V7.8967ZM21.5665 9.8967H15.25C13.6967 9.8967 12.4375 11.1559 12.4375 12.7092V55.9175C12.4375 57.4708 13.6967 58.73 15.25 58.73H45.75C47.3033 58.73 48.5625 57.4708 48.5625 55.9175V12.7092C48.5625 11.1559 47.3033 9.8967 45.75 9.8967H39.5097C39.4972 9.89716 39.4847 9.89739 39.472 9.89739H21.6042C21.5915 9.89739 21.579 9.89716 21.5665 9.8967ZM32.0432 19.372C32.4737 19.4938 32.7708 19.8868 32.7708 20.3342V30.7717H39.3958C39.7581 30.7717 40.0921 30.9676 40.2688 31.2839C40.4455 31.6001 40.4374 31.9872 40.2475 32.2958L30.0808 48.8166C29.8463 49.1977 29.3873 49.3766 28.9568 49.2547C28.5263 49.1329 28.2292 48.7399 28.2292 48.2925V37.855H21.6042C21.2419 37.855 20.9079 37.6591 20.7312 37.3428C20.5545 37.0266 20.5626 36.6395 20.7525 36.3309L30.9192 19.8101C31.1537 19.429 31.6127 19.2501 32.0432 19.372ZM23.3937 35.855H29.2292C29.7815 35.855 30.2292 36.3027 30.2292 36.855V44.7595L37.6063 32.7717H31.7708C31.2186 32.7717 30.7708 32.324 30.7708 31.7717V23.8672L23.3937 35.855Z" fill="#D0D5DB"/>
</svg>
