<svg width="61" height="61" viewBox="0 0 61 61" fill="none" xmlns="http://www.w3.org/2000/svg">
<path d="M41.9375 34.3125V30.5C41.9375 28.4667 40.1583 26.6875 38.125 26.6875H8.89583C5.84583 26.6875 3.8125 31.5167 3.8125 41.9375C3.8125 52.3583 5.84583 57.1875 8.89583 57.1875H38.125C40.1583 57.1875 41.9375 55.4083 41.9375 53.375V49.5625L57.1875 57.1875V26.6875L41.9375 34.3125Z" stroke="#D0D5DB" stroke-width="2" stroke-linecap="round" stroke-linejoin="round"/>
<path d="M20.5683 44.2443C20.1549 44.0723 19.7102 43.988 19.2625 43.9965H18.3761V34.4652C18.3761 32.9783 17.6232 32.7877 16.956 32.7877C16.828 32.7832 16.7005 32.8045 16.5809 32.8503C16.4614 32.8962 16.3523 32.9656 16.2602 33.0546C15.9119 33.4127 15.5931 33.7983 15.3071 34.2079L9.03551 42.6049L8.59708 43.1863C8.4827 43.3388 8.37151 43.4945 8.26348 43.6533C8.17791 43.7813 8.10754 43.9189 8.0538 44.0632C8.01609 44.1671 7.99674 44.2767 7.99661 44.3872C7.98412 44.5924 8.01692 44.7978 8.09269 44.9889C8.16846 45.18 8.28534 45.352 8.43505 45.4929C8.84552 45.7996 9.3541 45.9454 9.86473 45.9027H16.1839V48.4857C16.154 48.874 16.2657 49.26 16.4985 49.5722C16.5951 49.6859 16.7169 49.7752 16.8543 49.8332C16.9917 49.8911 17.1408 49.916 17.2896 49.9058C17.4364 49.9141 17.5832 49.8903 17.7199 49.836C17.8565 49.7816 17.9796 49.6981 18.0807 49.5913C18.3107 49.2744 18.419 48.8853 18.3857 48.4952V45.9027H19.4818C19.8772 45.94 20.2748 45.8604 20.6255 45.674C20.7299 45.5954 20.8115 45.4904 20.8618 45.3697C20.9121 45.2491 20.9292 45.1172 20.9114 44.9877C20.8924 44.3968 20.6255 44.2824 20.5683 44.2443ZM16.1744 43.9965H9.95051L16.1744 35.5804V43.9965ZM36.9049 46.8558L31.7008 39.4024L36.3235 35.018C36.496 34.883 36.6397 34.7147 36.7461 34.5232C36.8525 34.3316 36.9195 34.1207 36.943 33.9029C36.9463 33.7776 36.9225 33.6531 36.8732 33.5379C36.8238 33.4227 36.7501 33.3196 36.657 33.2357C36.5444 33.1358 36.4132 33.0591 36.2709 33.0101C36.1286 32.961 35.9781 32.9405 35.8278 32.9497C35.6178 32.9348 35.4082 32.9847 35.2274 33.0927C34.9532 33.3017 34.698 33.5345 34.4649 33.7885L26.573 41.9949V34.4652C26.6132 34.0345 26.4945 33.604 26.2394 33.2547C26.1286 33.1378 25.9935 33.0465 25.8437 32.9872C25.6939 32.928 25.5329 32.9022 25.3721 32.9116C25.2162 32.9005 25.0598 32.9248 24.9146 32.9826C24.7693 33.0403 24.639 33.1301 24.5333 33.2452C24.2814 33.5997 24.1632 34.0319 24.1997 34.4652V47.3896C24.1997 47.9233 24.1997 48.33 24.1997 48.6096C24.211 48.7942 24.2563 48.9751 24.3332 49.1433C24.4309 49.3196 24.5762 49.4649 24.7525 49.5627C24.9459 49.6749 25.1679 49.7279 25.3911 49.7152C25.5504 49.7233 25.7095 49.6968 25.8576 49.6375C26.0057 49.5783 26.1392 49.4878 26.2489 49.3721C26.5105 49.022 26.6328 48.5872 26.5921 48.1521V44.3396L30.1567 40.9274L34.7031 47.9233L35.2655 48.8765C35.4225 49.1375 35.6338 49.3618 35.885 49.5341C36.1489 49.693 36.4543 49.7694 36.7619 49.7533C37.0699 49.7756 37.3744 49.6763 37.6102 49.4769C37.6966 49.4046 37.7661 49.3142 37.8139 49.2121C37.8616 49.11 37.8864 48.9987 37.8866 48.886C37.8834 48.598 37.8149 48.3145 37.6864 48.0568C37.4606 47.6349 37.1991 47.2332 36.9049 46.8558Z" fill="#D0D5DB"/>
<path d="M15.25 21.6042C20.163 21.6042 24.1458 17.6214 24.1458 12.7083C24.1458 7.7953 20.163 3.8125 15.25 3.8125C10.3369 3.8125 6.35413 7.7953 6.35413 12.7083C6.35413 17.6214 10.3369 21.6042 15.25 21.6042Z" stroke="#D0D5DB" stroke-width="2" stroke-linecap="round" stroke-linejoin="round"/>
<path d="M33.0417 21.6042C37.9548 21.6042 41.9376 17.6214 41.9376 12.7083C41.9376 7.7953 37.9548 3.8125 33.0417 3.8125C28.1287 3.8125 24.1459 7.7953 24.1459 12.7083C24.1459 17.6214 28.1287 21.6042 33.0417 21.6042Z" stroke="#D0D5DB" stroke-width="2" stroke-linecap="round" stroke-linejoin="round"/>
</svg>
