<svg width="61" height="61" viewBox="0 0 61 61" fill="none" xmlns="http://www.w3.org/2000/svg">
<path fill-rule="evenodd" clip-rule="evenodd" d="M60.4776 25.3632C60.8023 25.5639 61 25.9184 61 26.3002V59.8984C61 60.2802 60.8023 60.6348 60.4776 60.8355C60.1528 61.0362 59.7473 61.0544 59.4058 60.8837L44.2009 53.2813V55.6986C44.2009 58.5469 41.7478 61 38.8995 61H6.70128C4.29121 61 2.62724 59.0609 1.6032 56.1716C0.561281 53.2319 0 48.8853 0 43.0993C0 37.3133 0.561281 32.9667 1.6032 30.027C2.62724 27.1378 4.29121 25.1986 6.70128 25.1986H38.8995C41.7478 25.1986 44.2009 27.6517 44.2009 30.5V32.9174L59.4058 25.3149C59.7473 25.1442 60.1528 25.1625 60.4776 25.3632ZM3.67979 30.763C2.76182 33.353 2.20316 37.406 2.20316 43.0993C2.20316 48.7927 2.76182 52.8456 3.67979 55.4356C4.61565 58.0761 5.75153 58.7968 6.70128 58.7968H38.8995C40.531 58.7968 41.9977 57.3301 41.9977 55.6986V51.4989C41.9977 51.1171 42.1954 50.7625 42.5202 50.5618C42.845 50.3611 43.2505 50.3429 43.592 50.5136L58.7968 58.116V28.0826L43.592 35.6851C43.2505 35.8558 42.845 35.8376 42.5202 35.6368C42.1954 35.4361 41.9977 35.0816 41.9977 34.6998V30.5C41.9977 28.8685 40.531 27.4018 38.8995 27.4018H6.70128C5.75153 27.4018 4.61565 28.1225 3.67979 30.763Z" fill="#D0D5DB"/>
<path d="M19.5595 45.6402C19.104 45.4508 18.6142 45.3578 18.121 45.3672H17.1446V34.8677C17.1446 33.2298 16.3151 33.0198 15.5802 33.0198C15.4392 33.0149 15.2987 33.0383 15.167 33.0888C15.0353 33.1393 14.9152 33.2159 14.8137 33.3138C14.43 33.7083 14.0789 34.1331 13.7638 34.5843L6.85516 43.8343L6.37219 44.4747C6.24619 44.6427 6.1237 44.8142 6.00471 44.9892C5.91044 45.1302 5.83292 45.2817 5.77372 45.4407C5.73218 45.5551 5.71087 45.6759 5.71072 45.7977C5.69696 46.0237 5.73309 46.2499 5.81656 46.4604C5.90003 46.6709 6.02878 46.8604 6.19369 47.0156C6.64587 47.3535 7.20611 47.5141 7.76861 47.4671H14.7297V50.3124C14.6967 50.7402 14.8198 51.1654 15.0762 51.5093C15.1826 51.6345 15.3169 51.7329 15.4682 51.7968C15.6196 51.8606 15.7838 51.888 15.9477 51.8768C16.1094 51.886 16.2711 51.8597 16.4217 51.7999C16.5722 51.74 16.7078 51.648 16.8191 51.5303C17.0725 51.1813 17.1918 50.7527 17.1551 50.3229V47.4671H18.3625C18.7981 47.5081 19.2362 47.4205 19.6225 47.2151C19.7375 47.1285 19.8274 47.0128 19.8828 46.8799C19.9381 46.747 19.957 46.6018 19.9374 46.4591C19.9164 45.8082 19.6225 45.6822 19.5595 45.6402ZM14.7192 45.3672H7.8631L14.7192 36.0962V45.3672ZM37.5555 48.517L31.8228 40.3065L36.915 35.4767C37.1051 35.3279 37.2634 35.1426 37.3806 34.9316C37.4979 34.7206 37.5716 34.4883 37.5975 34.2483C37.6012 34.1103 37.5749 33.9731 37.5206 33.8463C37.4662 33.7194 37.385 33.6058 37.2825 33.5133C37.1584 33.4033 37.0139 33.3188 36.8572 33.2648C36.7004 33.2107 36.5345 33.1881 36.369 33.1983C36.1376 33.1819 35.9068 33.2369 35.7076 33.3558C35.4055 33.586 35.1244 33.8425 34.8676 34.1223L26.1741 43.1623V34.8677C26.2184 34.3933 26.0877 33.9191 25.8066 33.5343C25.6845 33.4055 25.5357 33.3049 25.3707 33.2396C25.2057 33.1743 25.0283 33.1459 24.8512 33.1563C24.6794 33.1441 24.5072 33.1709 24.3472 33.2345C24.1872 33.2981 24.0437 33.397 23.9272 33.5238C23.6497 33.9143 23.5195 34.3904 23.5597 34.8677V49.105C23.5597 49.6929 23.5597 50.1409 23.5597 50.4489C23.5722 50.6523 23.622 50.8516 23.7067 51.0369C23.8145 51.2311 23.9745 51.3911 24.1687 51.4989C24.3817 51.6224 24.6263 51.6808 24.8722 51.6668C25.0476 51.6757 25.2229 51.6465 25.386 51.5813C25.5491 51.516 25.6962 51.4163 25.8171 51.2889C26.1053 50.9032 26.24 50.4243 26.1951 49.9449V45.7452L30.1219 41.9864L35.1301 49.6929L35.7496 50.7429C35.9225 51.0305 36.1553 51.2776 36.432 51.4674C36.7227 51.6424 37.0591 51.7265 37.398 51.7088C37.7373 51.7333 38.0727 51.624 38.3324 51.4044C38.4276 51.3247 38.5042 51.2251 38.5568 51.1126C38.6094 51.0002 38.6368 50.8775 38.6369 50.7534C38.6334 50.4362 38.558 50.1239 38.4164 49.8399C38.1676 49.3753 37.8796 48.9327 37.5555 48.517Z" fill="#D0D5DB"/>
<path fill-rule="evenodd" clip-rule="evenodd" d="M13.7009 2.20316C8.89719 2.20316 5.003 6.09734 5.003 10.9011C5.003 15.7048 8.89719 19.599 13.7009 19.599C18.5046 19.599 22.3988 15.7048 22.3988 10.9011C22.3988 6.09734 18.5046 2.20316 13.7009 2.20316ZM2.79984 10.9011C2.79984 4.88057 7.68042 0 13.7009 0C19.7214 0 24.602 4.88057 24.602 10.9011C24.602 16.9216 19.7214 21.8021 13.7009 21.8021C7.68042 21.8021 2.79984 16.9216 2.79984 10.9011Z" fill="#D0D5DB"/>
<path fill-rule="evenodd" clip-rule="evenodd" d="M33.2999 2.20316C28.4962 2.20316 24.602 6.09734 24.602 10.9011C24.602 15.7048 28.4962 19.599 33.2999 19.599C38.1036 19.599 41.9978 15.7048 41.9978 10.9011C41.9978 6.09734 38.1036 2.20316 33.2999 2.20316ZM22.3988 10.9011C22.3988 4.88057 27.2794 0 33.2999 0C39.3204 0 44.2009 4.88057 44.2009 10.9011C44.2009 16.9216 39.3204 21.8021 33.2999 21.8021C27.2794 21.8021 22.3988 16.9216 22.3988 10.9011Z" fill="#D0D5DB"/>
</svg>
