<svg width="61" height="61" viewBox="0 0 61 61" fill="none" xmlns="http://www.w3.org/2000/svg">
<path d="M7.70263 51.0219C7.70263 52.5281 8.92782 53.7532 10.434 53.7532H13.2018V59.1795H15.0227V53.7532H18.6644V59.1795H20.4853V53.7532H24.1271V59.1795H25.948V53.7532H29.5898V59.1795H31.4107V53.7532H35.052V59.1795H36.8729V53.7532H40.5147V59.1795H42.3356V53.7532H45.9774V59.1795H47.7983V53.7532H50.5661C52.0723 53.7532 53.2974 52.5281 53.2974 51.0219V47.7989H59.1789V45.978H53.2974V42.3362H59.1789V40.5153H53.2974V36.8735H59.1789V35.0526H53.2974V31.4108H59.1789V29.5899H53.2974V25.9481H59.1789V24.1272H53.2974V20.4855H59.1789V18.6646H53.2974V15.0228H59.1789V13.2019H53.2974V10.8893C53.2974 9.38316 52.0723 8.15797 50.5661 8.15797H47.7983V1.82129H45.9774V8.15797H42.3356V1.82129H40.5147V8.15797H36.8729V1.82129H35.052V8.15797H31.4107V1.82129H29.5898V8.15797H25.948V1.82129H24.1271V8.15797H20.4853V1.82129H18.6644V8.15797H15.0227V1.82129H13.2018V8.15797H10.434C8.92782 8.15797 7.70263 9.38316 7.70263 10.8893V13.2019H1.82117V15.0228H7.70262V18.6646H1.82117V20.4855H7.70262V24.1272H1.82117V25.9481H7.70262V29.5899H1.82117V31.4108H7.70262V35.0526H1.82117V36.8735H7.70262V40.5153H1.82117V42.3362H7.70262V45.978H1.82117V47.7989H7.70262L7.70263 51.0219ZM9.52352 10.8893C9.52352 10.3874 9.93207 9.97886 10.434 9.97886H50.5661C51.0765 9.97886 51.4766 10.379 51.4766 10.8893V51.0219C51.4766 51.5322 51.0765 51.9323 50.5661 51.9323H10.434C9.93207 51.9323 9.52352 51.5238 9.52352 51.0219V10.8893Z" fill="#D0D5DB"/>
<path d="M17.7175 46.4695H43.2825C44.7887 46.4695 46.0138 45.2443 46.0138 43.7382V18.1727C46.0138 16.6666 44.7887 15.4414 43.2825 15.4414H17.7175C16.2114 15.4414 14.9862 16.6666 14.9862 18.1727V43.7382C14.9862 45.2443 16.2114 46.4695 17.7175 46.4695ZM16.8071 18.1727C16.8071 17.6708 17.2156 17.2623 17.7175 17.2623H43.2825C43.7849 17.2623 44.193 17.6708 44.193 18.1727V43.7382C44.193 44.2401 43.7849 44.6486 43.2825 44.6486H17.7175C17.2156 44.6486 16.8071 44.2401 16.8071 43.7382V18.1727Z" fill="#D0D5DB"/>
<path d="M24.1567 35.4357C25.2154 35.4357 26.0417 35.2291 26.4549 35.0225L26.2226 34.1315C25.7705 34.3507 25.0734 34.4932 24.389 34.4932C22.2716 34.4932 21.0447 33.1243 21.0447 30.9938C21.0447 28.7086 22.4009 27.4045 24.4405 27.4045C25.1639 27.4045 25.7705 27.559 26.1963 27.7661L26.4675 26.8493C26.171 26.6943 25.4866 26.4619 24.4016 26.4619C21.7028 26.4619 19.8567 28.3081 19.8567 31.0327C19.8567 33.886 21.7028 35.4357 24.1567 35.4357ZM28.9897 31.8201C29.2473 31.8848 29.5574 31.8979 29.8939 31.8979C30.9904 31.8979 31.9597 31.5746 32.5527 30.9423C32.9922 30.4901 33.2246 29.8704 33.2246 29.083C33.2246 28.3081 32.9406 27.6757 32.4623 27.2625C31.9461 26.7973 31.1334 26.5392 30.0221 26.5392C29.119 26.5392 28.4083 26.6165 27.8658 26.7069V35.3064H28.9897V31.8201ZM28.9897 27.5206C29.1832 27.4691 29.5574 27.4302 30.0484 27.4302C31.288 27.4302 32.1017 27.9854 32.1017 29.1345C32.1017 30.3351 31.2754 30.9938 29.9191 30.9938C29.5448 30.9938 29.2347 30.968 28.9897 30.9034V27.5206ZM37.8505 35.4483C39.7355 35.4483 41.1433 34.3507 41.1433 31.6782V26.6038H40.0068V31.7555C40.0068 33.6794 39.1804 34.5315 37.8894 34.5315C36.7276 34.5315 35.8624 33.7052 35.8624 31.7555V26.6038H34.7259V31.7297C34.7259 34.4285 36.0684 35.4483 37.8505 35.4483Z" fill="#D0D5DB"/>
</svg>
