<svg width="61" height="61" viewBox="0 0 61 61" fill="none" xmlns="http://www.w3.org/2000/svg">
<path d="M41.5745 3.8125H19.4255C18.1621 3.81398 16.9508 4.31655 16.0574 5.20996C15.164 6.10336 14.6614 7.31466 14.6599 8.57812V52.4219C14.6614 53.6853 15.164 54.8966 16.0574 55.79C16.9508 56.6834 18.1621 57.186 19.4255 57.1875H41.5745C42.838 57.186 44.0493 56.6834 44.9427 55.79C45.8361 54.8966 46.3387 53.6853 46.3401 52.4219V8.57812C46.3387 7.31466 45.8361 6.10336 44.9427 5.20996C44.0493 4.31655 42.838 3.81398 41.5745 3.8125ZM37.6647 5.71875L36.4301 11.2793C36.4022 11.4672 36.3112 11.6401 36.1719 11.7693C36.0327 11.8986 35.8535 11.9766 35.6641 11.9904H25.336C25.1465 11.9766 24.9674 11.8986 24.8281 11.7693C24.6889 11.6401 24.5978 11.4672 24.57 11.2793L23.3354 5.71875H37.6647ZM44.4339 52.4219C44.4331 53.18 44.1316 53.9068 43.5955 54.4428C43.0595 54.9789 42.3327 55.2804 41.5746 55.2812H19.4255C18.6674 55.2804 17.9406 54.9789 17.4046 54.4428C16.8685 53.9068 16.567 53.18 16.5662 52.4219V8.57812C16.567 7.82003 16.8685 7.09321 17.4046 6.55716C17.9406 6.0211 18.6674 5.71958 19.4255 5.71875H21.3821L22.7084 11.6925C22.8279 12.3052 23.1541 12.8583 23.6323 13.2594C24.1105 13.6606 24.7119 13.8855 25.336 13.8966H35.6641C36.2882 13.8855 36.8896 13.6606 37.3678 13.2594C37.846 12.8583 38.1721 12.3052 38.2917 11.6925L39.618 5.71875H41.5745C42.3326 5.71958 43.0594 6.0211 43.5955 6.55716C44.1316 7.09321 44.4331 7.82003 44.4339 8.57812L44.4339 52.4219Z" fill="#D0D5DB"/>
<path d="M39.9391 16.9226C39.9069 16.794 39.8483 16.6735 39.7672 16.5687C39.686 16.4638 39.584 16.377 39.4675 16.3137C39.3511 16.2503 39.2228 16.2119 39.0907 16.2007C38.9586 16.1895 38.8256 16.2058 38.7002 16.2487L34.3599 17.7556C34.1258 17.842 33.9348 18.0169 33.8282 18.2425C33.7216 18.4682 33.7077 18.7267 33.7897 18.9625C33.8716 19.1983 34.0428 19.3925 34.2664 19.5034C34.49 19.6144 34.7482 19.6331 34.9855 19.5557L36.9999 18.8562L32.5887 26.9555C32.5282 27.0654 32.49 27.1862 32.4763 27.3109C32.4626 27.4357 32.4736 27.5619 32.5088 27.6823C32.544 27.8028 32.6027 27.9151 32.6814 28.0128C32.7601 28.1105 32.8573 28.1917 32.9675 28.2518C33.0777 28.3118 33.1986 28.3495 33.3234 28.3627C33.4482 28.3759 33.5743 28.3643 33.6946 28.3286C33.8149 28.2929 33.927 28.2338 34.0244 28.1547C34.1218 28.0756 34.2026 27.9781 34.2622 27.8676L38.673 19.7694L39.1787 21.8371C39.2426 22.0785 39.3986 22.2852 39.6133 22.4128C39.828 22.5403 40.0841 22.5786 40.3267 22.5193C40.5692 22.4601 40.7789 22.3081 40.9106 22.0959C41.0423 21.8837 41.0855 21.6284 41.0309 21.3847L39.9391 16.9226ZM28.8925 35.7468C28.7827 35.6867 28.662 35.6488 28.5375 35.6354C28.4131 35.622 28.2871 35.6334 28.167 35.6687C28.0469 35.7041 27.935 35.7628 27.8376 35.8415C27.7402 35.9203 27.6594 36.0175 27.5996 36.1275L22.326 45.8153L21.8213 43.7516C21.7573 43.5103 21.6012 43.3037 21.3866 43.1762C21.172 43.0488 20.9159 43.0105 20.6734 43.0698C20.4309 43.129 20.2213 43.281 20.0896 43.493C19.9579 43.7051 19.9146 43.9604 19.9691 44.204L21.0609 48.6671C21.0942 48.7954 21.1531 48.9157 21.234 49.0208C21.315 49.1259 21.4163 49.2136 21.5318 49.2786C21.6493 49.3394 21.7777 49.3762 21.9095 49.3869C22.0414 49.3976 22.174 49.382 22.2997 49.3409L26.64 47.8331C26.8742 47.7467 27.0651 47.5718 27.1717 47.3461C27.2783 47.1205 27.2922 46.8619 27.2102 46.6262C27.1283 46.3904 26.9572 46.1962 26.7335 46.0852C26.5099 45.9743 26.2517 45.9555 26.0144 46.033L23.9961 46.7338L29.2732 37.0397C29.3331 36.9298 29.3708 36.8092 29.3841 36.6847C29.3974 36.5603 29.386 36.4344 29.3507 36.3144C29.3153 36.1943 29.2567 36.0824 29.178 35.985C29.0994 35.8876 29.0024 35.8067 28.8925 35.7468Z" fill="#D0D5DB"/>
</svg>
