<svg width="63" height="61" viewBox="0 0 63 61" fill="none" xmlns="http://www.w3.org/2000/svg">
<path d="M16.6755 58.6882C16.5268 58.6882 16.3773 58.6452 16.2474 58.5571C15.943 58.3507 15.8352 57.958 15.9926 57.629L27.9589 32.6168H16.5298C16.2243 32.6168 15.9488 32.4356 15.8321 32.1576C15.7153 31.8798 15.7804 31.56 15.9966 31.3478L45.258 2.64162C45.5196 2.38488 45.9318 2.35223 46.2319 2.56466C46.5321 2.77697 46.6318 3.17192 46.4674 3.49765L34.801 26.6508H46.5877C46.8905 26.6508 47.1641 26.8288 47.2825 27.103C47.4011 27.3772 47.3415 27.6945 47.1314 27.9092L17.2196 58.4607C17.0727 58.6107 16.8749 58.6882 16.6755 58.6882ZM18.3564 31.1311H29.1489C29.4074 31.1311 29.6479 31.2612 29.7864 31.476C29.925 31.6908 29.9421 31.9602 29.8321 32.1904L19.3098 54.1844L44.8121 28.1366H33.584C33.323 28.1366 33.0803 28.0038 32.9425 27.7854C32.8047 27.567 32.7916 27.2941 32.9076 27.0638L43.0792 6.87707L18.3564 31.1311Z" fill="#D0D5DB"/>
</svg>
