<svg width="61" height="61" viewBox="0 0 61 61" fill="none" xmlns="http://www.w3.org/2000/svg">
<path d="M45.8739 7.38672H15.1356C13.0821 7.38924 11.1136 8.20676 9.66247 9.65969C8.21133 11.1126 7.39624 13.0821 7.39624 15.1356V45.8739C7.39624 47.9291 8.21264 49.9 9.66584 51.3532C11.119 52.8064 13.09 53.6228 15.1451 53.6228H45.8739C47.9274 53.6228 49.8969 52.8077 51.3498 51.3566C52.8028 49.9054 53.6203 47.9369 53.6228 45.8834V15.1356C53.6228 13.0805 52.8064 11.1095 51.3532 9.65632C49.9 8.20312 47.929 7.38672 45.8739 7.38672ZM51.7166 45.8739C51.7166 47.4218 51.1023 48.9065 50.0087 50.0019C48.915 51.0974 47.4313 51.714 45.8834 51.7166H15.1356C13.5893 51.714 12.1071 51.0987 11.0138 50.0053C9.92038 48.9119 9.30501 47.4297 9.30249 45.8834V15.1356C9.30502 13.5877 9.92169 12.1041 11.0171 11.0104C12.1126 9.91675 13.5972 9.3025 15.1451 9.3025H45.8739C47.4235 9.3025 48.9096 9.91806 50.0053 11.0138C51.101 12.1095 51.7166 13.5956 51.7166 15.1452V45.8739Z" fill="#D0D5DB"/>
<path d="M21.922 23.8855C21.7951 23.8807 21.6688 23.9039 21.5518 23.9533C21.4349 24.0027 21.3302 24.0771 21.2452 24.1714C21.0425 24.4457 20.9475 24.7849 20.9784 25.1246V28.9371H15.0023V25.1246C15.0359 24.7846 14.9406 24.4445 14.7354 24.1714C14.6438 24.0779 14.5339 24.0042 14.4125 23.955C14.2912 23.9058 14.161 23.8821 14.0301 23.8855C13.9023 23.8774 13.7744 23.8981 13.6556 23.9459C13.5369 23.9937 13.4303 24.0675 13.3438 24.1619C13.1468 24.4386 13.0555 24.7768 13.0865 25.115V34.7988C13.0583 35.1382 13.153 35.4765 13.3534 35.7519C13.439 35.848 13.5451 35.9236 13.6639 35.9731C13.7827 36.0226 13.9111 36.0447 14.0396 36.0378C14.1689 36.0399 14.2973 36.0156 14.4169 35.9664C14.5365 35.9173 14.6449 35.8443 14.7354 35.7519C14.944 35.4802 15.0427 35.1399 15.0118 34.7988V30.3763H20.9688V34.7988C20.9406 35.1382 21.0353 35.4765 21.2357 35.7519C21.3213 35.848 21.4275 35.9236 21.5462 35.9731C21.665 36.0226 21.7934 36.0447 21.922 36.0378C22.0513 36.0399 22.1796 36.0156 22.2992 35.9664C22.4189 35.9173 22.5272 35.8443 22.6177 35.7519C22.8264 35.4802 22.9251 35.1399 22.8941 34.7988V25.115C22.926 24.7738 22.8272 24.4331 22.6177 24.1619C22.5264 24.0712 22.4177 24 22.2981 23.9525C22.1785 23.905 22.0506 23.8822 21.922 23.8855ZM34.2459 25.1436C33.8089 24.7545 33.2865 24.4737 32.7209 24.3239C32.0341 24.161 31.3297 24.0842 30.624 24.0952H27.3738C27.2033 24.0574 27.026 24.0632 26.8583 24.1121C26.6906 24.161 26.538 24.2514 26.4145 24.3749C26.2909 24.4984 26.2006 24.651 26.1517 24.8187C26.1028 24.9864 26.097 25.1637 26.1348 25.3342V34.3127C26.1262 34.6143 26.1583 34.9156 26.2301 35.2086C26.2532 35.2955 26.2939 35.3766 26.3497 35.4471C26.4054 35.5176 26.475 35.5759 26.5541 35.6185C26.8282 35.7451 27.1298 35.8008 27.431 35.7805H30.6812C31.1756 35.7847 31.6696 35.7497 32.1585 35.6757C32.5711 35.6251 32.975 35.5193 33.3595 35.3611C33.728 35.1911 34.0687 34.9662 34.3698 34.6939C34.7521 34.3349 35.074 33.9165 35.3229 33.4549C35.5863 32.961 35.7758 32.4311 35.8852 31.8822C36.0162 31.236 36.0801 30.5781 36.0759 29.9188C36.1431 29.037 36.0139 28.1513 35.6974 27.3256C35.381 26.4998 34.8852 25.7546 34.2459 25.1436ZM32.7685 33.7217C32.55 33.9103 32.2977 34.0559 32.0251 34.1507C31.7666 34.2434 31.4977 34.3042 31.2245 34.3317H28.0506V25.4963H29.9568C30.6425 25.4822 31.3265 25.5689 31.987 25.7536C32.6345 25.9741 33.1754 26.43 33.5024 27.0308C33.9499 27.9145 34.1539 28.9015 34.0934 29.8902C34.122 31.7107 33.6645 33.0164 32.7685 33.7694V33.7217ZM47.5229 33.2071C47.2145 32.7047 46.8638 32.2295 46.4745 31.7869C46.1399 31.4019 45.7398 31.0792 45.2926 30.8338L44.6063 30.4716L45.3688 30.3096C46.1945 30.1746 46.9611 29.7962 47.5706 29.223C48.0583 28.6742 48.3085 27.9544 48.2663 27.2214C48.2697 26.821 48.1986 26.4235 48.0567 26.0491C47.9203 25.6932 47.7127 25.3689 47.4467 25.096C47.1754 24.8209 46.8511 24.6037 46.4935 24.4574C46.1909 24.3214 45.8696 24.2314 45.5404 24.1905C45.0751 24.1411 44.6072 24.1189 44.1393 24.1238H40.0313C39.8608 24.086 39.6835 24.0918 39.5158 24.1407C39.3481 24.1896 39.1955 24.2799 39.072 24.4035C38.9485 24.527 38.8581 24.6796 38.8092 24.8473C38.7603 25.015 38.7545 25.1923 38.7923 25.3628V34.8274C38.7638 35.1654 38.8549 35.5027 39.0496 35.7805C39.1377 35.8786 39.247 35.9554 39.3692 36.005C39.4915 36.0545 39.6234 36.0755 39.7549 36.0664C39.8825 36.0725 40.0098 36.051 40.1283 36.0033C40.2467 35.9555 40.3535 35.8828 40.4412 35.79C40.6439 35.5158 40.7389 35.1766 40.7081 34.8369V30.5669H41.9376C42.3469 30.5574 42.7544 30.6253 43.1385 30.7671C43.5081 30.9357 43.8342 31.1867 44.0917 31.501C44.4522 31.9509 44.7713 32.4326 45.0448 32.9402L45.9979 34.5986C46.2267 34.9799 46.4077 35.2753 46.5507 35.4755C46.6626 35.6433 46.8048 35.7888 46.9701 35.9044C47.1327 36.0056 47.322 36.0554 47.5134 36.0474C47.6815 36.0519 47.8482 36.016 47.9995 35.9425C48.1272 35.8803 48.2359 35.7848 48.314 35.6661C48.3829 35.5715 48.4226 35.4589 48.4284 35.3421C48.3897 35.0799 48.3093 34.8257 48.1901 34.5891C48.0011 34.113 47.7782 33.6511 47.5229 33.2071ZM43.2624 29.3469H40.7367V25.401H43.3196C43.9372 25.3645 44.5563 25.4354 45.1496 25.6106C45.4962 25.7499 45.7922 25.9914 45.9982 26.303C46.2042 26.6145 46.3105 26.9814 46.3029 27.3549C46.3313 27.8021 46.192 28.2439 45.9121 28.5939C45.6251 28.9059 45.2491 29.1222 44.8351 29.2135C44.315 29.3219 43.7838 29.3667 43.2529 29.3469H43.2624Z" fill="#D0D5DB"/>
</svg>
