<svg width="61" height="61" viewBox="0 0 61 61" fill="none" xmlns="http://www.w3.org/2000/svg">
<path d="M25.4166 30.5003C24.7148 30.5003 24.1458 31.0693 24.1458 31.7711V49.5628C24.1462 50.2643 24.7151 50.8341 25.4166 50.8336C26.118 50.8332 26.6879 50.2643 26.6874 49.5628V31.7711C26.6874 31.0693 26.1184 30.5003 25.4166 30.5003ZM15.25 38.1253C14.5481 38.1253 13.9791 38.6943 13.9791 39.3961V49.5628C13.9796 50.2643 14.5485 50.8341 15.25 50.8336C15.9513 50.8332 16.5213 50.2643 16.5208 49.5628V39.3961C16.5208 38.6943 15.9518 38.1253 15.25 38.1253ZM35.5833 20.3336C34.8815 20.3336 34.3124 20.9027 34.3124 21.6045V49.5628C34.3129 50.2643 34.8818 50.8341 35.5833 50.8336C36.2846 50.8332 36.8546 50.2643 36.8541 49.5628V21.6045C36.8541 20.9027 36.2851 20.3336 35.5833 20.3336ZM45.7499 10.167C45.0481 10.167 44.4791 10.736 44.4791 11.4378V49.5628C44.4796 50.2643 45.0484 50.8341 45.7499 50.8336C46.4513 50.8332 47.0212 50.2643 47.0208 49.5628V11.4378C47.0208 10.736 46.4517 10.167 45.7499 10.167Z" fill="#D0D5DB"/>
</svg>
