<svg width="61" height="61" viewBox="0 0 61 61" fill="none" xmlns="http://www.w3.org/2000/svg">
<path d="M35.4964 59.0942C37.3226 59.0942 38.8081 57.6086 38.8081 55.7824V47.7069H40.9387C43.2848 47.7069 45.1938 45.7979 45.1938 43.4518V22.148C45.1938 21.6216 44.767 21.1949 44.2407 21.1949H16.7592C16.2328 21.1949 15.8061 21.6216 15.8061 22.148V43.4518C15.8061 45.7979 17.7151 47.7069 20.0612 47.7069H21.9786V55.7824C21.9786 57.6086 23.4646 59.0942 25.2908 59.0942C27.117 59.0942 28.6025 57.6086 28.6025 55.7824V47.7069H32.1842V55.7824C32.1842 57.6086 33.6702 59.0942 35.4964 59.0942ZM27.6494 45.8007C27.123 45.8007 26.6963 46.2274 26.6963 46.7538V55.7824C26.6963 56.5573 26.0657 57.1879 25.2908 57.1879C24.5154 57.1879 23.8848 56.5573 23.8848 55.7824V46.7538C23.8848 46.2274 23.4581 45.8007 22.9317 45.8007H20.0612C18.766 45.8007 17.7123 44.747 17.7123 43.4518V23.1011H43.2875V43.4518C43.2875 44.747 42.2339 45.8007 40.9387 45.8007H37.855C37.3287 45.8007 36.9019 46.2274 36.9019 46.7538V55.7824C36.9019 56.5573 36.2713 57.1879 35.4964 57.1879C34.7211 57.1879 34.0904 56.5573 34.0904 55.7824V46.7538C34.0904 46.2274 33.6637 45.8007 33.1373 45.8007H27.6494ZM50.18 21.1949C48.2984 21.1949 46.7673 22.726 46.7673 24.6076V37.5479C46.7673 39.4294 48.2984 40.9606 50.18 40.9606H50.9414C52.823 40.9606 54.3541 39.4294 54.3541 37.5479V24.6076C54.3541 22.726 52.823 21.1949 50.9414 21.1949H50.18ZM52.4479 24.6076V37.5479C52.4479 38.3786 51.7721 39.0543 50.9414 39.0543H50.18C49.3493 39.0543 48.6735 38.3786 48.6735 37.5479V24.6076C48.6735 23.7769 49.3493 23.1011 50.18 23.1011H50.9414C51.7721 23.1011 52.4479 23.7769 52.4479 24.6076ZM10.0585 21.1949C8.1769 21.1949 6.64575 22.726 6.64575 24.6076V37.5479C6.64575 39.4294 8.1769 40.9606 10.0585 40.9606H10.8199C12.7014 40.9606 14.2326 39.4294 14.2326 37.5479V24.6076C14.2326 22.726 12.7014 21.1949 10.8199 21.1949H10.0585ZM12.3263 24.6076V37.5479C12.3263 38.3786 11.6506 39.0543 10.8199 39.0543H10.0585C9.22775 39.0543 8.552 38.3786 8.552 37.5479V24.6076C8.552 23.7769 9.22775 23.1011 10.0585 23.1011H10.8199C11.6506 23.1011 12.3263 23.7769 12.3263 24.6076ZM36.0256 11.2178C34.6875 11.2178 33.599 12.3063 33.599 13.6443C33.599 14.9823 34.6875 16.0709 36.0256 16.0709C37.3636 16.0709 38.4521 14.9823 38.4521 13.6443C38.4521 12.3063 37.3636 11.2178 36.0256 11.2178ZM36.0256 14.1646C35.7389 14.1646 35.5052 13.931 35.5052 13.6443C35.5052 13.3577 35.7389 13.124 36.0256 13.124C36.3122 13.124 36.5459 13.3577 36.5459 13.6443C36.5459 13.931 36.3122 14.1646 36.0256 14.1646ZM24.9743 11.2178C23.6363 11.2178 22.5478 12.3063 22.5478 13.6443C22.5478 14.9823 23.6363 16.0709 24.9743 16.0709C26.3123 16.0709 27.4009 14.9823 27.4009 13.6443C27.4009 12.3063 26.3123 11.2178 24.9743 11.2178ZM24.9743 14.1646C24.6876 14.1646 24.454 13.931 24.454 13.6443C24.454 13.3577 24.6876 13.124 24.9743 13.124C25.261 13.124 25.4946 13.3577 25.4946 13.6443C25.4946 13.931 25.261 14.1646 24.9743 14.1646Z" fill="#D0D5DB"/>
<path d="M45.1939 17.3228C45.1939 12.7767 42.3641 8.88639 38.3768 7.2994L42.1358 3.53321C42.5076 3.16043 42.5067 2.55681 42.1344 2.18496C41.7611 1.81265 41.1575 1.81358 40.7861 2.18636L36.2759 6.70527C35.666 6.59782 35.0421 6.53127 34.4019 6.53127H26.5982C25.9579 6.53127 25.334 6.59782 24.7241 6.70527L20.2139 2.18636C19.8416 1.81404 19.2389 1.81265 18.8656 2.18496C18.4933 2.55681 18.4924 3.16043 18.8643 3.53321L22.6232 7.2994C18.6359 8.88639 15.8062 12.7767 15.8062 17.3228V18.846C15.8062 19.3724 16.2329 19.7992 16.7593 19.7992H44.2407C44.7671 19.7992 45.1939 19.3724 45.1939 18.846V17.3228ZM43.2876 17.8929H17.7124V17.3228C17.7124 12.4236 21.6985 8.43752 26.5982 8.43752H34.4019C39.3015 8.43752 43.2876 12.4236 43.2876 17.3228V17.8929Z" fill="#D0D5DB"/>
</svg>
