<svg width="61" height="61" viewBox="0 0 61 61" fill="none" xmlns="http://www.w3.org/2000/svg">
<path d="M57.2471 14.3203H57.1875V10.4482C57.1875 9.95977 56.7824 9.55469 56.2939 9.55469C55.8055 9.55469 55.4004 9.95977 55.4004 10.4482V14.3322H51.4568V10.4482C51.4568 9.95977 51.0517 9.55469 50.5633 9.55469C50.0748 9.55469 49.6697 9.95977 49.6697 10.4482V14.3322H45.7262V10.4482C45.7262 9.95977 45.3211 9.55469 44.8326 9.55469C44.3441 9.55469 43.939 9.95977 43.939 10.4482V14.3322H39.9955V10.4482C39.9955 9.95977 39.5904 9.55469 39.1019 9.55469C38.6135 9.55469 38.2084 9.95977 38.2084 10.4482V14.3322H34.2648V10.4482C34.2648 9.95977 33.8598 9.55469 33.3713 9.55469C32.8828 9.55469 32.4777 9.95977 32.4777 10.4482V14.3322H28.5342V10.4482C28.5342 9.95977 28.1291 9.55469 27.6406 9.55469C27.1521 9.55469 26.7471 9.95977 26.7471 10.4482V14.3322H22.8035V10.4482C22.8035 9.95977 22.3984 9.55469 21.91 9.55469C21.4215 9.55469 21.0164 9.95977 21.0164 10.4482V14.3322H17.0728V10.4482C17.0728 9.95977 16.6678 9.55469 16.1793 9.55469C15.6908 9.55469 15.2857 9.95977 15.2857 10.4482V14.3322H11.3422V10.4482C11.3422 9.95977 10.9371 9.55469 10.4486 9.55469C9.96015 9.55469 9.55507 9.95977 9.55507 10.4482V14.3322H5.61152V10.4482C5.61152 9.95977 5.20644 9.55469 4.71797 9.55469C4.22949 9.55469 3.82441 9.95977 3.82441 10.4482V14.3322H3.76484C1.6918 14.3203 0 16.0121 0 18.0852V42.9141C0 44.9871 1.6918 46.667 3.75293 46.667H3.8125V50.551C3.8125 51.0395 4.21758 51.4445 4.70605 51.4445C5.19453 51.4445 5.59961 51.0395 5.59961 50.551V46.667H9.54316V50.551C9.54316 51.0395 9.94824 51.4445 10.4367 51.4445C10.9252 51.4445 11.3303 51.0395 11.3303 50.551V46.667H15.2738V50.551C15.2738 51.0395 15.6789 51.4445 16.1674 51.4445C16.6559 51.4445 17.0609 51.0395 17.0609 50.551V46.667H21.0045V50.551C21.0045 51.0395 21.4096 51.4445 21.898 51.4445C22.3865 51.4445 22.7916 51.0395 22.7916 50.551V46.667H26.7351V50.551C26.7351 51.0395 27.1402 51.4445 27.6287 51.4445C28.1172 51.4445 28.5223 51.0395 28.5223 50.551V46.667H32.4658V50.551C32.4658 51.0395 32.8709 51.4445 33.3594 51.4445C33.8478 51.4445 34.2529 51.0395 34.2529 50.551V46.667H38.1965V50.551C38.1965 51.0395 38.6016 51.4445 39.09 51.4445C39.5785 51.4445 39.9836 51.0395 39.9836 50.551V46.667H43.9271V50.551C43.9271 51.0395 44.3322 51.4445 44.8207 51.4445C45.3092 51.4445 45.7142 51.0395 45.7142 50.551V46.667H49.6578V50.551C49.6578 51.0395 50.0629 51.4445 50.5513 51.4445C51.0398 51.4445 51.4449 51.0395 51.4449 50.551V46.667H55.3885V50.551C55.3885 51.0395 55.7935 51.4445 56.282 51.4445C56.7705 51.4445 57.1756 51.0395 57.1756 50.551V46.667H57.2351C59.3082 46.667 60.9881 44.9752 60.9881 42.9141V18.0852C61 16.0121 59.3082 14.3203 57.2471 14.3203ZM1.78711 26.1033C3.05 27.1875 3.82441 28.7959 3.82441 30.4996C3.82441 32.2033 3.06191 33.8117 1.78711 34.8959V26.1033ZM59.2129 42.9141C59.2129 43.9982 58.3312 44.8799 57.2471 44.8799H3.75293C2.66875 44.8799 1.78711 43.9982 1.78711 42.9141V37.0762C4.12226 35.7299 5.61152 33.216 5.61152 30.4996C5.61152 27.7832 4.13418 25.2693 1.78711 23.923V18.0852C1.78711 17.001 2.66875 16.1193 3.75293 16.1193H57.2351C58.3193 16.1193 59.201 17.001 59.201 18.0852V23.923C56.8658 25.2693 55.3765 27.7832 55.3765 30.4996C55.3765 33.216 56.8539 35.7299 59.201 37.0762V42.9141H59.2129ZM59.2129 34.8959C57.95 33.8117 57.1756 32.2033 57.1756 30.4996C57.1756 28.7959 57.9381 27.1875 59.2129 26.1033V34.8959Z" fill="#D0D5DB"/>
<path d="M32.6803 24.0906C32.3705 22.8396 31.2506 21.9699 29.9638 21.9699H29.1299C27.8431 21.9699 26.7232 22.8396 26.4135 24.0906L22.9584 37.9229C22.8392 38.3994 23.1252 38.8879 23.6137 39.007C24.0902 39.1262 24.5787 38.8402 24.6978 38.3518L25.4842 35.2065H33.6453L34.4316 38.3518C34.5388 38.7568 34.8963 39.0309 35.3013 39.0309C35.3728 39.0309 35.4443 39.019 35.5158 39.007C35.9924 38.8879 36.2902 38.3994 36.1711 37.9229L32.6803 24.0906ZM25.9131 33.4313L28.141 24.5314C28.2601 24.0787 28.6652 23.757 29.1299 23.757H29.9638C30.4285 23.757 30.8336 24.0787 30.9527 24.5314L33.1806 33.4313H25.9131ZM49.5982 21.9699H49.3123C48.5379 21.9699 47.8349 22.4584 47.5728 23.1852L44.8803 30.5957C44.8683 30.6195 44.8683 30.6315 44.8207 30.6315C44.773 30.6315 44.773 30.6076 44.7611 30.5957L42.0685 23.1852C41.8064 22.4584 41.1035 21.9699 40.3291 21.9699H40.0431C39.0185 21.9699 38.1965 22.8039 38.1965 23.8166V38.1373C38.1965 38.6258 38.6015 39.0309 39.09 39.0309C39.5785 39.0309 39.9836 38.6258 39.9836 38.1373V23.8166C39.9836 23.7809 40.0074 23.757 40.0431 23.757H40.3291C40.3529 23.757 40.3767 23.7689 40.3887 23.7928L43.0812 31.2033C43.3553 31.942 44.0344 32.4186 44.8207 32.4186C45.607 32.4186 46.2861 31.942 46.5601 31.2033L49.2527 23.7928C49.2646 23.7689 49.2885 23.757 49.3123 23.757H49.5982C49.634 23.757 49.6578 23.7809 49.6578 23.8166V38.1373C49.6578 38.6258 50.0629 39.0309 50.5513 39.0309C51.0398 39.0309 51.4449 38.6258 51.4449 38.1373V23.8166C51.4449 22.792 50.6228 21.9699 49.5982 21.9699ZM21.8385 27.1525C21.8385 24.2932 19.5152 21.958 16.6439 21.958H11.4017C10.9133 21.958 10.5082 22.3631 10.5082 22.8516V38.1373C10.5082 38.6258 10.9133 39.0309 11.4017 39.0309C11.8902 39.0309 12.2953 38.6258 12.2953 38.1373V32.3471H15.6551L19.2174 38.5781C19.3842 38.8641 19.682 39.0309 19.9918 39.0309C20.1467 39.0309 20.2896 38.9951 20.4326 38.9117C20.8615 38.6615 21.0045 38.1254 20.7662 37.6965L17.6566 32.2518C20.0394 31.7752 21.8385 29.6783 21.8385 27.1525ZM16.6558 30.56H12.2953V23.757H16.6558C18.5383 23.757 20.0633 25.282 20.0633 27.1645C20.0633 29.0469 18.5263 30.56 16.6558 30.56Z" fill="#D0D5DB"/>
</svg>
