<svg width="61" height="61" viewBox="0 0 61 61" fill="none" xmlns="http://www.w3.org/2000/svg">
<path d="M55.9167 12.8354H45.8771L43.3354 6.48125C43.0812 5.97292 42.7 5.71875 42.1917 5.71875H18.8083C18.3 5.71875 17.7917 5.97292 17.6646 6.48125L15.1229 12.8354H5.08333C2.2875 12.8354 0 15.1229 0 17.9188V50.1979C0 52.9938 2.2875 55.2812 5.08333 55.2812H55.9167C58.7125 55.2812 61 52.9938 61 50.1979V17.9188C61 15.1229 58.7125 12.8354 55.9167 12.8354ZM5.08333 15.3771H15.8854C16.3938 15.3771 16.9021 15.1229 17.0292 14.6146L19.5708 8.26042H41.175L43.7167 14.6146C43.9708 15.1229 44.3521 15.3771 44.8604 15.3771H55.9167C57.3146 15.3771 58.4583 16.5208 58.4583 17.9188V24.5271H43.4625C40.5396 20.4604 35.8375 17.9188 30.5 17.9188C25.1625 17.9188 20.4604 20.5875 17.5375 24.5271H2.54167V17.9188C2.54167 16.5208 3.68542 15.3771 5.08333 15.3771ZM30.5 20.5875C37.9979 20.5875 44.0979 26.6875 44.0979 34.1854C44.0979 41.6833 37.9979 47.7833 30.5 47.7833C23.0021 47.7833 16.9021 41.6833 16.9021 34.1854C16.9021 26.5604 23.0021 20.5875 30.5 20.5875ZM55.9167 52.7396H5.08333C3.68542 52.7396 2.54167 51.5958 2.54167 50.1979V27.1958H16.0125C14.9958 29.3563 14.3604 31.6438 14.3604 34.1854C14.3604 43.0812 21.6042 50.325 30.5 50.325C39.3958 50.325 46.6396 43.0812 46.6396 34.1854C46.6396 31.6438 46.0042 29.3563 44.9875 27.1958H58.4583V50.1979C58.4583 51.5958 57.3146 52.7396 55.9167 52.7396Z" fill="#D0D5DB"/>
<path d="M30.5 45.1154C36.6 45.1154 41.5562 40.1591 41.5562 34.0591C41.5562 27.9591 36.6 23.0029 30.5 23.0029C24.4 23.0029 19.4437 27.9591 19.4437 34.0591C19.4437 40.1591 24.4 45.1154 30.5 45.1154ZM30.5 25.6716C32.184 25.6716 33.8302 26.171 35.2304 27.1066C36.6307 28.0422 37.722 29.372 38.3664 30.9278C39.0109 32.4837 39.1795 34.1957 38.851 35.8473C38.5224 37.499 37.7115 39.0161 36.5207 40.2069C35.3299 41.3977 33.8128 42.2087 32.1611 42.5372C30.5094 42.8657 28.7974 42.6971 27.2416 42.0527C25.6858 41.4082 24.356 40.3169 23.4204 38.9167C22.4848 37.5164 21.9854 35.8702 21.9854 34.1862C21.9854 29.357 25.7979 25.6716 30.5 25.6716ZM24.1458 13.2174H36.8542C37.6167 13.2174 38.125 12.7091 38.125 11.9466C38.125 11.1841 37.6167 10.6758 36.8542 10.6758H24.1458C23.3833 10.6758 22.875 11.1841 22.875 11.9466C22.875 12.582 23.5104 13.2174 24.1458 13.2174ZM49.6896 21.732H52.8667C53.6292 21.732 54.1375 21.2237 54.1375 20.4612C54.1375 19.6987 53.6292 19.1904 52.8667 19.1904H49.6896C48.9271 19.1904 48.4187 19.6987 48.4187 20.4612C48.4187 21.0966 49.0542 21.732 49.6896 21.732Z" fill="#D0D5DB"/>
</svg>
