<svg width="63" height="61" viewBox="0 0 63 61" fill="none" xmlns="http://www.w3.org/2000/svg">
<path d="M45.4021 57.9938C44.7166 57.9938 44.0298 57.7371 43.5081 57.2226L21.4098 35.4808C20.3652 34.453 20.3652 32.7804 21.4098 31.7526L32.7122 20.6313C33.2163 20.1353 33.8892 19.8613 34.6063 19.8613C35.3233 19.8613 35.9962 20.1341 36.5003 20.6313L58.5985 42.3731C59.6432 43.4009 59.6432 45.0734 58.5985 46.1012L47.2948 57.2213C46.7744 57.7371 46.0889 57.9938 45.4021 57.9938ZM22.3008 32.6292C21.7476 33.1735 21.7476 34.0599 22.3008 34.6042L44.399 56.346C44.9522 56.8903 45.8532 56.8903 46.4064 56.346L57.7101 45.2259C58.2633 44.6816 58.2633 43.7951 57.7101 43.2509L35.6106 21.5091C35.3447 21.2475 34.9881 21.1024 34.6075 21.1024C34.227 21.1024 33.8703 21.2462 33.6044 21.5091L22.3008 32.6292Z" fill="#D0D5DB"/>
<path d="M21.8912 32.7752C21.7299 32.7752 21.5686 32.7144 21.4451 32.5942C19.8258 31.001 18.9349 28.8833 18.9349 26.6318C18.9349 24.3802 19.8258 22.2613 21.4451 20.6694C24.7871 17.3813 30.2247 17.3813 33.5666 20.6694C33.8124 20.9112 33.8124 21.3042 33.5666 21.546C33.3209 21.7877 32.9214 21.7877 32.6757 21.546C29.8252 18.7414 25.1866 18.7414 22.3361 21.546C20.9549 22.9048 20.195 24.7113 20.195 26.6318C20.195 28.5535 20.9549 30.36 22.3361 31.7176C22.5818 31.9594 22.5818 32.3524 22.3361 32.5942C22.2138 32.7144 22.0525 32.7752 21.8912 32.7752ZM30.1629 39.8385C29.7307 39.8385 29.2972 39.6761 28.9683 39.3525L26.3862 36.8121C25.7272 36.1636 25.7272 35.1085 26.3862 34.4601L28.9683 31.9197C29.2871 31.606 29.7118 31.4337 30.1629 31.4337C30.6153 31.4337 31.04 31.606 31.3576 31.9197L33.9396 34.4601C34.5987 35.1085 34.5987 36.1636 33.9396 36.8121L31.3576 39.3525C31.0287 39.6773 30.5964 39.8385 30.1629 39.8385ZM27.2772 35.3367C27.1096 35.5016 27.1096 35.7706 27.2772 35.9355L29.8592 38.4759C30.0268 38.6408 30.3003 38.6408 30.4679 38.4759L33.05 35.9355C33.2176 35.7706 33.2176 35.5016 33.05 35.3367L30.4679 32.7962C30.3066 32.6375 30.0205 32.6375 29.8592 32.7962L27.2772 35.3367ZM36.6603 33.4459C36.2079 33.4459 35.7833 33.2736 35.4657 32.9599L32.8836 30.4195C32.2246 29.771 32.2246 28.7159 32.8836 28.0675L35.4657 25.5271C35.7845 25.2134 36.2079 25.0411 36.6603 25.0411C37.1127 25.0411 37.5374 25.2134 37.855 25.5271L40.437 28.0675C41.0961 28.7159 41.0961 29.771 40.437 30.4195L37.855 32.9599C37.5361 33.2736 37.1127 33.4459 36.6603 33.4459ZM33.7733 28.9453C33.6057 29.1102 33.6057 29.3792 33.7733 29.5441L36.3554 32.0846C36.5167 32.2433 36.8027 32.2433 36.964 32.0846L39.5461 29.5441C39.7137 29.3792 39.7137 29.1102 39.5461 28.9453L36.964 26.4049C36.8027 26.2462 36.5167 26.2462 36.3554 26.4049L33.7733 28.9453ZM36.7561 46.3254C36.3037 46.3254 35.879 46.153 35.5615 45.8393L32.9794 43.2989C32.3203 42.6505 32.3203 41.5954 32.9794 40.9469L35.5615 38.4065C35.8803 38.0928 36.3037 37.9205 36.7561 37.9205C37.2085 37.9205 37.6332 38.0928 37.9507 38.4065L40.5328 40.9469C41.1919 41.5954 41.1919 42.6505 40.5328 43.2989L37.9507 45.8393C37.6332 46.153 37.2085 46.3254 36.7561 46.3254ZM33.8703 41.8235C33.7027 41.9884 33.7027 42.2574 33.8703 42.4223L36.4524 44.9628C36.6137 45.1215 36.8998 45.1215 37.0611 44.9628L39.6431 42.4223C39.8107 42.2574 39.8107 41.9884 39.6431 41.8235L37.0611 39.2831C36.8998 39.1244 36.6137 39.1244 36.4524 39.2831L33.8703 41.8235ZM43.2535 39.9327C42.8011 39.9327 42.3764 39.7604 42.0589 39.4467L39.4768 36.9063C38.8177 36.2579 38.8177 35.2028 39.4768 34.5543L42.0589 32.0139C42.3777 31.7002 42.8011 31.5279 43.2535 31.5279C43.7059 31.5279 44.1306 31.7002 44.4481 32.0139L47.0302 34.5543C47.6893 35.2028 47.6893 36.2579 47.0302 36.9063L44.4481 39.4467C44.1293 39.7604 43.7059 39.9327 43.2535 39.9327ZM40.3677 35.4321C40.2001 35.597 40.2001 35.8661 40.3677 36.031L42.9498 38.5714C43.1111 38.7301 43.3972 38.7301 43.5585 38.5714L46.1405 36.031C46.3081 35.8661 46.3081 35.597 46.1405 35.4321L43.5585 32.8917C43.3972 32.733 43.1111 32.733 42.9498 32.8917L40.3677 35.4321ZM43.3493 52.8122C42.8969 52.8122 42.4722 52.6398 42.1546 52.3262L39.5726 49.7857C39.2537 49.4721 39.0786 49.0555 39.0786 48.6104C39.0786 48.1653 39.2537 47.7474 39.5726 47.435L42.1546 44.8946C42.4735 44.5809 42.8969 44.4086 43.3493 44.4086C43.8017 44.4086 44.2263 44.5809 44.5439 44.8946L47.126 47.435C47.785 48.0834 47.785 49.1385 47.126 49.787L44.5439 52.3274C44.2263 52.6398 43.8017 52.8122 43.3493 52.8122ZM43.3493 45.6484C43.2333 45.6484 43.1262 45.6918 43.0456 45.7711L40.4635 48.3116C40.3829 48.3909 40.3387 48.4963 40.3387 48.6104C40.3387 48.7244 40.3829 48.8298 40.4635 48.9092L43.0456 51.4496C43.2069 51.6083 43.4929 51.6083 43.6542 51.4496L46.2363 48.9092C46.4039 48.7443 46.4039 48.4752 46.2363 48.3103L43.6542 45.7699C43.5736 45.6918 43.4652 45.6484 43.3493 45.6484ZM49.8467 46.4208C49.3943 46.4208 48.9696 46.2485 48.652 45.9348L46.07 43.3944C45.7511 43.0807 45.576 42.6641 45.576 42.219C45.576 41.7739 45.7511 41.3561 46.07 41.0436L48.652 38.5032C48.9709 38.1895 49.3943 38.0172 49.8467 38.0172C50.2991 38.0172 50.7237 38.1895 51.0413 38.5032L53.6234 41.0436C54.2824 41.6921 54.2824 42.7472 53.6234 43.3956L51.0413 45.936C50.7237 46.2472 50.2991 46.4208 49.8467 46.4208ZM49.8467 39.2558C49.7307 39.2558 49.6236 39.2992 49.543 39.3785L46.9609 41.919C46.8802 41.9983 46.8361 42.1049 46.8361 42.2178C46.8361 42.3318 46.8802 42.4372 46.9609 42.5166L49.543 45.057C49.7043 45.2157 49.9903 45.2157 50.1516 45.057L52.7337 42.5166C52.9013 42.3517 52.9013 42.0826 52.7337 41.9177L50.1504 39.3785C50.0697 39.2992 49.9626 39.2558 49.8467 39.2558ZM4.31322 21.7468C4.3107 21.7468 4.30818 21.7468 4.30566 21.7468C3.95786 21.7431 3.67936 21.4616 3.68314 21.1195C3.74489 16.3548 5.66286 11.8765 9.08672 8.50783C12.5106 5.13919 17.0623 3.25216 21.9038 3.19141C21.9064 3.19141 21.9089 3.19141 21.9114 3.19141C22.2554 3.19141 22.5364 3.46417 22.5415 3.80389C22.5465 4.14608 22.268 4.42752 21.919 4.43124C17.4076 4.48704 13.1659 6.24637 9.97639 9.38439C6.78818 12.5224 5.00001 16.6957 4.94331 21.1343C4.93953 21.474 4.65725 21.7468 4.31322 21.7468ZM10.8711 21.7468C10.8673 21.7468 10.8623 21.7468 10.8585 21.7468C10.5107 21.7394 10.2347 21.4567 10.241 21.1145C10.3028 18.0757 11.5403 15.2191 13.7241 13.0704C15.908 10.9218 18.8114 9.70427 21.9 9.64352C22.2479 9.63856 22.5352 9.90885 22.5427 10.251C22.5503 10.5932 22.2731 10.8759 21.9253 10.8834C19.1642 10.9379 16.5683 12.0252 14.6151 13.947C12.6618 15.8687 11.5566 18.4228 11.5012 21.1393C11.4936 21.4778 11.2139 21.7468 10.8711 21.7468ZM17.4315 21.7468C17.4214 21.7468 17.4114 21.7468 17.4013 21.7456C17.0535 21.7295 16.7851 21.4381 16.8027 21.0971C16.8657 19.7891 17.4202 18.5592 18.3615 17.6318C19.3029 16.7056 20.5542 16.1601 21.8837 16.0981C22.2315 16.0808 22.5264 16.3461 22.5427 16.687C22.5591 17.0292 22.2907 17.3194 21.9442 17.3355C20.9285 17.3838 19.9733 17.7992 19.2537 18.5071C18.5342 19.2151 18.1107 20.1549 18.0629 21.1542C18.0452 21.4889 17.7655 21.7468 17.4315 21.7468Z" fill="#D0D5DB"/>
</svg>
