<svg width="61" height="61" viewBox="0 0 61 61" fill="none" xmlns="http://www.w3.org/2000/svg">
<path d="M48.2226 3.8125H23.5308C22.52 3.81366 21.5509 4.2157 20.8362 4.93043C20.1215 5.64516 19.7194 6.61422 19.7183 7.625V53.375C19.7194 54.3858 20.1215 55.3548 20.8362 56.0696C21.5509 56.7843 22.52 57.1863 23.5308 57.1875H48.2226C49.2334 57.1863 50.2025 56.7843 50.9172 56.0696C51.6319 55.3548 52.034 54.3858 52.0351 53.375V7.625C52.034 6.61422 51.6319 5.64516 50.9172 4.93043C50.2025 4.2157 49.2334 3.81366 48.2226 3.8125ZM41.0063 5.71875L40.0532 7.625H31.7003L30.7471 5.71875H41.0063ZM50.1289 53.375C50.1284 53.8804 49.9274 54.365 49.5701 54.7224C49.2127 55.0797 48.7281 55.2807 48.2227 55.2812H23.5308C23.0253 55.2807 22.5408 55.0797 22.1834 54.7224C21.826 54.365 21.625 53.8804 21.6245 53.375V7.625C21.625 7.11959 21.826 6.63502 22.1834 6.27764C22.5408 5.92025 23.0253 5.71925 23.5308 5.71875H28.6157L30.2585 9.00443C30.3377 9.16276 30.4594 9.29591 30.6099 9.38896C30.7605 9.48201 30.9341 9.53128 31.1111 9.53125H40.6423C40.8193 9.53129 40.9929 9.48202 41.1435 9.38897C41.2941 9.29592 41.4158 9.16276 41.4949 9.00443L43.1378 5.71875H48.2227C48.7281 5.71925 49.2127 5.92025 49.57 6.27764C49.9274 6.63502 50.1284 7.11959 50.1289 7.625L50.1289 53.375ZM15.3449 9.17756C15.5056 9.36866 15.7349 9.48908 15.9835 9.51293C16.232 9.53677 16.48 9.46215 16.6741 9.30509C16.8682 9.14804 16.9929 8.92109 17.0215 8.67304C17.05 8.42499 16.9801 8.17565 16.8267 7.97861L13.7426 4.1662C13.6501 4.06071 13.5362 3.97619 13.4084 3.91828C13.2806 3.86037 13.142 3.83042 13.0017 3.83042C12.8614 3.83042 12.7227 3.86037 12.595 3.91828C12.4672 3.97619 12.3533 4.06071 12.2608 4.1662L9.1771 7.97869C9.01891 8.17528 8.94514 8.42657 8.97195 8.67746C8.99877 8.92835 9.12399 9.15837 9.32015 9.31708C9.51632 9.47578 9.76741 9.55022 10.0184 9.52406C10.2693 9.49791 10.4997 9.3733 10.6589 9.17756L12.0486 7.45938V53.5406L10.6589 51.8224C10.4982 51.6315 10.269 51.5112 10.0205 51.4874C9.77202 51.4636 9.52413 51.5382 9.33008 51.6952C9.13603 51.8522 9.01131 52.079 8.98271 52.327C8.95412 52.575 9.02393 52.8243 9.17715 53.0213L12.2608 56.8338C12.3508 56.9432 12.4639 57.0313 12.592 57.0918C12.7201 57.1523 12.86 57.1836 13.0017 57.1836C13.1434 57.1836 13.2833 57.1522 13.4114 57.0918C13.5395 57.0313 13.6526 56.9431 13.7426 56.8337L16.8268 53.0213C16.9804 52.8243 17.0506 52.5748 17.0221 52.3266C16.9936 52.0784 16.8689 51.8512 16.6746 51.6941C16.4804 51.5369 16.2322 51.4623 15.9835 51.4863C15.7348 51.5104 15.5055 51.631 15.3449 51.8224L13.9548 53.5408V7.45916L15.3449 9.17756Z" fill="#D0D5DB"/>
</svg>
