<svg width="61" height="61" viewBox="0 0 61 61" fill="none" xmlns="http://www.w3.org/2000/svg">
<path d="M11.7711 38.1389V22.8889H25.0253C25.248 22.8893 25.4638 22.8117 25.6353 22.6696L34.5413 15.2925C34.5832 15.4507 34.6461 15.607 34.6461 15.7366V45.3597C34.6461 45.558 34.5851 45.68 34.5336 45.8058C34.019 45.3826 29.9663 42.0733 25.4408 38.3562C25.2701 38.2156 25.0558 38.1388 24.8346 38.1389H11.7711ZM43.5807 18.2319C42.6314 18.291 42.3455 19.551 43.1747 20.0162C45.0155 21.0784 46.5442 22.6065 47.607 24.447C48.6699 26.2874 49.2295 28.3752 49.2295 30.5005C49.2295 32.6258 48.6699 34.7136 47.607 36.5541C46.5442 38.3945 45.0155 39.9227 43.1747 40.9849C42.0061 41.6006 43.0107 43.3391 44.1278 42.6338C46.2576 41.4039 48.0263 39.6353 49.2563 37.5056C50.4863 35.3758 51.1343 32.9599 51.1352 30.5005C51.1346 28.0408 50.4868 25.6245 49.2568 23.4944C48.0268 21.3643 46.2579 19.5954 44.1278 18.3653C43.963 18.2668 43.7724 18.2203 43.5807 18.2319ZM41.1979 22.3608C40.2486 22.4199 39.9626 23.68 40.7919 24.1451C41.9083 24.7885 42.8356 25.7147 43.4804 26.8304C44.1251 27.9461 44.4646 29.2119 44.4646 30.5005C44.4646 31.7891 44.1251 33.055 43.4804 34.1707C42.8356 35.2864 41.9083 36.2125 40.7919 36.8559C39.6901 37.4907 40.6432 39.1434 41.745 38.5087C43.1505 37.6967 44.3177 36.5294 45.1294 35.1237C45.9412 33.7181 46.3688 32.1237 46.3696 30.5005C46.3692 28.877 45.9417 27.2822 45.1299 25.8762C44.3182 24.4702 43.1508 23.3025 41.745 22.4905C41.5798 22.3932 41.3891 22.3481 41.1979 22.3608ZM24.4972 40.0451C29.1714 43.8862 33.8893 47.7425 33.8893 47.7425C34.0598 47.882 34.2733 47.9581 34.4936 47.9579C35.1799 47.9579 35.7422 47.5386 36.0682 47.0525C36.3922 46.5683 36.5524 45.9869 36.5524 45.3597V15.7366C36.5524 15.1648 36.4189 14.6177 36.1787 14.1258C36.058 13.8638 35.8877 13.6276 35.6774 13.4301C35.5315 13.2919 35.3576 13.1867 35.1675 13.1216C34.9774 13.0565 34.7756 13.033 34.5756 13.0526C34.3217 13.0882 34.0827 13.1938 33.8855 13.3576L24.6821 20.9826H11.7711C10.7303 20.9826 9.86487 21.85 9.86487 22.8889V38.1389C9.86487 39.1797 10.7303 40.0451 11.7711 40.0451H24.4972ZM38.96 26.2401C38.0126 26.2991 37.7247 27.5592 38.5558 28.0243C38.991 28.2746 39.3525 28.6352 39.6039 29.0698C39.8552 29.5044 39.9876 29.9975 39.9876 30.4996C39.9876 31.0016 39.8552 31.4947 39.6039 31.9293C39.3525 32.3639 38.991 32.7245 38.5558 32.9748C37.4521 33.6115 38.4052 35.2642 39.509 34.6295C40.2328 34.2103 40.8337 33.6081 41.2515 32.8834C41.6693 32.1588 41.8891 31.337 41.8891 30.5005C41.8891 29.664 41.6693 28.8423 41.2515 28.1176C40.8337 27.3929 40.2328 26.7908 39.509 26.3716C39.3434 26.2733 39.152 26.2275 38.96 26.2401Z" fill="#D0D5DB"/>
</svg>
