<svg width="63" height="61" viewBox="0 0 63 61" fill="none" xmlns="http://www.w3.org/2000/svg">
<path fill-rule="evenodd" clip-rule="evenodd" d="M3.13281 8.33984C3.13281 7.78756 3.58053 7.33984 4.13281 7.33984H59.8359C60.3882 7.33984 60.8359 7.78756 60.8359 8.33984V41.6992C60.8359 42.2515 60.3882 42.6992 59.8359 42.6992H4.13281C3.58053 42.6992 3.13281 42.2515 3.13281 41.6992V8.33984ZM5.13281 9.33984V40.6992H58.8359V9.33984H5.13281ZM22.4609 14.01C22.7591 13.8285 23.1304 13.8158 23.4404 13.9763L42.1317 23.6549C42.4635 23.8267 42.6719 24.1693 42.6719 24.5429C42.6719 24.9166 42.4635 25.2591 42.1317 25.4309L23.4404 35.1096C23.1304 35.2701 22.7591 35.2573 22.4609 35.0759C22.1626 34.8945 21.9806 34.5707 21.9806 34.2216V14.8643C21.9806 14.5152 22.1626 14.1914 22.4609 14.01ZM23.9806 16.5082V32.5776L39.4971 24.5429L23.9806 16.5082ZM14.0312 48.8476C14.0312 48.2953 14.479 47.8476 15.0312 47.8476H49.0586C49.6109 47.8476 50.0586 48.2953 50.0586 48.8476C50.0586 49.3999 49.6109 49.8476 49.0586 49.8476H15.0312C14.479 49.8476 14.0312 49.3999 14.0312 48.8476ZM22.6289 53.6132C22.6289 53.061 23.0766 52.6132 23.6289 52.6132H40.4609C41.0132 52.6132 41.4609 53.061 41.4609 53.6132C41.4609 54.1655 41.0132 54.6132 40.4609 54.6132H23.6289C23.0766 54.6132 22.6289 54.1655 22.6289 53.6132Z" fill="#D0D5DB"/>
</svg>
