<svg width="61" height="61" viewBox="0 0 61 61" fill="none" xmlns="http://www.w3.org/2000/svg">
<path d="M31.4531 13.3866V9.84769H33.9551C35.0064 9.84769 35.8613 8.99273 35.8613 7.94144V4.76562C35.8613 4.51284 35.7609 4.27041 35.5822 4.09166C35.4034 3.91292 35.161 3.8125 34.9082 3.8125C34.6554 3.8125 34.413 3.91292 34.2342 4.09166C34.0555 4.27041 33.9551 4.51284 33.9551 4.76562V7.94144H31.4531C30.4018 7.94144 29.5469 8.79639 29.5469 9.84769V13.3866C17.8997 13.887 8.57812 23.5117 8.57812 35.2752C8.57812 47.3579 18.4125 57.1875 30.5 57.1875C42.5875 57.1875 52.4219 47.3579 52.4219 35.2752C52.4219 23.5117 43.1003 13.887 31.4531 13.3866ZM30.5 55.2812C19.4628 55.2812 10.4844 46.3066 10.4844 35.2752C10.4844 24.2437 19.4628 15.2691 30.5 15.2691C41.5372 15.2691 50.5156 24.2437 50.5156 35.2752C50.5156 46.3066 41.5372 55.2812 30.5 55.2812Z" fill="#D0D5DB"/>
<path d="M30.5 17.1738C20.5141 17.1738 12.3906 25.2945 12.3906 35.2756C12.3906 45.2567 20.5141 53.3773 30.5 53.3773C40.4859 53.3773 48.6094 45.2567 48.6094 35.2756C48.6094 25.2945 40.4859 17.1738 30.5 17.1738ZM30.5 51.4711C21.5654 51.4711 14.2969 44.2054 14.2969 35.2756C14.2969 26.3457 21.5654 19.0801 30.5 19.0801C39.4346 19.0801 46.7031 26.3448 46.7031 35.2756C46.7031 44.2064 39.4346 51.4711 30.5 51.4711Z" fill="#D0D5DB"/>
<path d="M35.869 32.3952L32.9296 32.3685L33.7569 24.7997C33.7861 24.5417 33.7263 24.2814 33.5872 24.0621C33.4482 23.8428 33.2383 23.6776 32.9925 23.594C32.7477 23.5084 32.481 23.5091 32.2366 23.5957C31.9922 23.6824 31.7848 23.8499 31.6486 24.0706L24.1713 36.0895C24.0639 36.2627 24.0047 36.4614 23.9997 36.6651C23.9948 36.8688 24.0443 37.0702 24.1432 37.2483C24.2421 37.4265 24.3868 37.5751 24.5623 37.6786C24.7378 37.7822 24.9378 37.8371 25.1416 37.8375H28.1668L27.1794 45.7322C27.145 45.992 27.2015 46.2556 27.3395 46.4784C27.4775 46.7011 27.6883 46.8692 27.9361 46.9541C28.1827 47.0424 28.4523 47.0425 28.699 46.9546C28.9457 46.8667 29.1544 46.6961 29.2896 46.4719L36.8345 34.1346C37.049 33.7839 37.0576 33.3435 36.8584 32.9842C36.76 32.8075 36.6167 32.6599 36.443 32.5565C36.2692 32.453 36.0712 32.3974 35.869 32.3952ZM29.5088 42.4583L30.1645 37.218C30.1845 37.0571 30.1701 36.8938 30.1223 36.7389C30.0744 36.584 29.9942 36.441 29.887 36.3193C29.7798 36.1977 29.648 36.1002 29.5003 36.0333C29.3527 35.9664 29.1925 35.9316 29.0303 35.9313H26.5141L31.497 27.9221L30.9423 32.9966C30.9244 33.1556 30.9401 33.3166 30.9884 33.4691C31.0367 33.6217 31.1164 33.7624 31.2226 33.8822C31.3287 34.0019 31.4587 34.0981 31.6044 34.1644C31.75 34.2307 31.9079 34.2657 32.0679 34.2671L34.5051 34.289L29.5088 42.4573V42.4583Z" fill="#D0D5DB"/>
</svg>
