<svg width="104" height="104" viewBox="0 0 104 104" fill="none" xmlns="http://www.w3.org/2000/svg">
<path fill-rule="evenodd" clip-rule="evenodd" d="M104 51.999C104 80.7178 80.7187 103.999 51.9999 103.999C23.2811 103.999 -6.10352e-05 80.7178 -6.10352e-05 51.999C-6.10352e-05 23.2802 23.2811 -0.000976562 51.9999 -0.000976562C80.7187 -0.000976562 104 23.2802 104 51.999ZM51.9999 101.999C79.6142 101.999 102 79.6133 102 51.999C102 24.3848 79.6142 1.99902 51.9999 1.99902C24.3857 1.99902 1.99994 24.3848 1.99994 51.999C1.99994 79.6133 24.3857 101.999 51.9999 101.999Z" fill="#F1F4F8"/>
<path d="M52.5003 94.6557C52.7859 94.6538 53.0267 94.7067 53.2228 94.8144C53.4152 94.9258 53.5628 95.0958 53.6658 95.3243C53.765 95.5566 53.8158 95.8475 53.8181 96.1969C53.8205 96.5463 53.7735 96.8359 53.6774 97.0658C53.5775 97.2957 53.4302 97.4676 53.2356 97.5816C53.0372 97.6957 52.7933 97.7536 52.504 97.7556C52.3011 97.7569 52.1262 97.7318 51.9794 97.6801C51.8287 97.6285 51.7042 97.5523 51.6059 97.4515C51.5075 97.3507 51.4353 97.2291 51.3893 97.0866C51.3395 96.9442 51.314 96.7809 51.3127 96.5968L51.8143 96.5935C51.8155 96.7663 51.8408 96.907 51.8904 97.0157C51.9362 97.1281 52.0101 97.2103 52.1118 97.2622C52.2137 97.3179 52.3472 97.3452 52.5126 97.3441C52.6779 97.343 52.8204 97.3044 52.9401 97.2285C53.0599 97.1563 53.1512 97.0411 53.214 96.8829C53.2768 96.7246 53.3074 96.5159 53.3057 96.2567L53.3049 96.1383C53.3032 95.8941 53.2718 95.6914 53.2107 95.5302C53.1457 95.3691 53.0529 95.2514 52.9321 95.177C52.8114 95.1027 52.6646 95.0661 52.4918 95.0672C52.3227 95.0683 52.1877 95.0993 52.0866 95.1601C51.9818 95.2209 51.9072 95.3078 51.8629 95.4208C51.8148 95.5339 51.7913 95.6693 51.7923 95.8271L51.3076 95.8303C51.3065 95.665 51.3299 95.5108 51.3778 95.3677C51.422 95.2246 51.4925 95.1002 51.5895 94.9943C51.6865 94.8884 51.81 94.805 51.9598 94.7439C52.1098 94.6865 52.2899 94.6571 52.5003 94.6557Z" fill="#F1F4F8"/>
<path d="M46.9812 93.997L46.6834 97.8518L46.1496 97.8105L46.4114 94.4221L44.4952 94.2741L44.5312 93.8077L46.9812 93.997Z" fill="#F1F4F8"/>
<path d="M43.4983 93.628L42.8645 97.442L40.1625 96.993L40.2383 96.5371L42.4121 96.8983L42.6154 95.6752L40.6361 95.3463L40.7109 94.8959L42.6902 95.2248L42.9701 93.5402L43.4983 93.628Z" fill="#F1F4F8"/>
<path d="M38.9582 96.3201L38.8265 96.8565L38.3448 96.7382L38.4765 96.2018L38.9582 96.3201ZM39.7982 92.8992L39.0912 95.7782L38.6096 95.6599L39.3166 92.7809L39.7982 92.8992Z" fill="#F1F4F8"/>
<path d="M36.9991 92.5803L36.8194 93.0486L35.4882 92.5377L35.6679 92.0694L36.9991 92.5803Z" fill="#F1F4F8"/>
<path d="M30.8962 88.2118C31.2403 88.4048 31.4971 88.6306 31.6665 88.8893C31.834 89.1513 31.91 89.4459 31.8945 89.7732C31.8738 90.1019 31.7523 90.4646 31.53 90.8611C31.201 91.4477 30.8131 91.8053 30.3663 91.9338C29.9194 92.0623 29.442 91.9841 28.934 91.6993C28.6457 91.5375 28.4167 91.3467 28.2471 91.1267C28.0757 90.9099 27.9811 90.6716 27.9631 90.4117C27.9401 90.1532 28.0085 89.8814 28.1684 89.5963L28.6403 89.861C28.53 90.0576 28.4817 90.2437 28.4952 90.4193C28.5054 90.593 28.5685 90.7533 28.6843 90.9001C28.7983 91.0502 28.9569 91.1822 29.1601 91.2962C29.3961 91.4285 29.625 91.4965 29.8468 91.5004C30.0687 91.5042 30.2781 91.4342 30.475 91.2905C30.6701 91.15 30.8522 90.929 31.0212 90.6275L31.0791 90.5243C31.2464 90.2261 31.339 89.9571 31.3572 89.7174C31.3734 89.481 31.3228 89.2717 31.2053 89.0895C31.0845 88.9054 30.9045 88.7463 30.6652 88.6121C30.4555 88.4945 30.2578 88.4246 30.0721 88.4023C29.8832 88.3782 29.7119 88.4071 29.5583 88.4889C29.3996 88.5723 29.2651 88.7122 29.1548 88.9089L28.6977 88.6525C28.8612 88.3608 29.0609 88.1583 29.2968 88.045C29.5293 87.9299 29.7828 87.889 30.0571 87.9222C30.3314 87.9554 30.6111 88.0519 30.8962 88.2118Z" fill="#F1F4F8"/>
<path d="M27.3598 85.8952C27.6893 86.1255 27.9307 86.3836 28.0839 86.6694C28.234 86.9532 28.2886 87.2619 28.2479 87.5956C28.2041 87.9271 28.0541 88.2761 27.798 88.6426C27.5397 89.0121 27.2634 89.2729 26.9693 89.4248C26.6699 89.5777 26.3612 89.6324 26.0432 89.5889C25.7221 89.5432 25.3968 89.4052 25.0673 89.1749C24.7378 88.9446 24.498 88.6875 24.3479 88.4038C24.1947 88.118 24.14 87.8093 24.1838 87.4778C24.2224 87.1471 24.3708 86.7971 24.6291 86.4275C24.8853 86.061 25.1631 85.8014 25.4625 85.6485C25.7588 85.4935 26.0675 85.4388 26.3886 85.4844C26.7066 85.5279 27.0303 85.6648 27.3598 85.8952ZM27.0951 86.274C26.9226 86.1534 26.7509 86.0678 26.5801 86.0171C26.4061 85.9643 26.237 85.9538 26.0726 85.9856C25.903 86.0183 25.7393 86.0919 25.5815 86.2062C25.4215 86.3236 25.2683 86.487 25.122 86.6964L25.0541 86.7934C24.9056 87.0059 24.8048 87.2058 24.7517 87.3933C24.6964 87.5839 24.6836 87.7629 24.7132 87.9303C24.7377 88.0987 24.8046 88.2555 24.9139 88.4007C25.0202 88.5438 25.1596 88.6756 25.3321 88.7961C25.5076 88.9188 25.6808 89.0055 25.8517 89.0562C26.0225 89.1069 26.1928 89.1158 26.3623 89.0831C26.5298 89.0534 26.6935 88.9799 26.8535 88.8625C27.0082 88.7461 27.1599 88.5816 27.3084 88.3691L27.3762 88.2721C27.5226 88.0627 27.6249 87.8638 27.6833 87.6753C27.7364 87.4878 27.7492 87.3088 27.7217 87.1383C27.6921 86.9709 27.6241 86.8157 27.5178 86.6726C27.4115 86.5295 27.2706 86.3967 27.0951 86.274Z" fill="#F1F4F8"/>
<path d="M25.402 84.4545L22.9071 87.4081L22.498 87.0626L24.6911 84.4664L23.2229 83.2262L23.5248 82.8688L25.402 84.4545Z" fill="#F1F4F8"/>
<path d="M22.787 82.1107L20.0537 84.8452L19.675 84.4667L22.0776 82.0631L20.7183 80.7044L21.049 80.3736L22.787 82.1107Z" fill="#F1F4F8"/>
<path d="M20.6675 79.9064L16.7239 81.2213L16.2711 80.6816L18.2477 77.0222L18.6208 77.4669L18.1295 78.372L19.3394 79.8141L20.3125 79.4833L20.6675 79.9064ZM18.8774 79.9737L17.8957 78.8036L17.2681 79.9408C17.2494 79.9712 17.2243 80.0143 17.1927 80.0702C17.1611 80.1261 17.1265 80.1871 17.0887 80.2531C17.048 80.3216 17.0074 80.39 16.9667 80.4585C16.9232 80.5293 16.8842 80.5939 16.8497 80.6523L16.8715 80.6782C16.9459 80.65 17.0315 80.6175 17.128 80.5806C17.2246 80.5437 17.3197 80.508 17.4134 80.4736C17.5042 80.4415 17.5814 80.4136 17.6448 80.3898L18.8774 79.9737Z" fill="#F1F4F8"/>
<path d="M17.4657 75.7824L14.6737 77.7201L15.4288 78.8082L15.0445 79.0749L13.2225 76.4496L13.6068 76.1829L14.3684 77.2803L17.1604 75.3426L17.4657 75.7824Z" fill="#F1F4F8"/>
<path d="M15.9138 73.3512L12.5496 75.2566L11.0831 72.6673L11.4852 72.4396L12.6879 74.563L13.7275 73.9742L12.6471 72.0665L13.0492 71.8387L14.1297 73.7464L15.2478 73.1131L14.0284 70.9602L14.4306 70.7325L15.9138 73.3512Z" fill="#F1F4F8"/>
<path d="M14.1246 69.9742L10.5946 71.5513L9.76466 69.6937C9.65737 69.4536 9.61307 69.2347 9.63176 69.037C9.64549 68.8375 9.71363 68.663 9.83618 68.5136C9.95531 68.3657 10.1161 68.2466 10.3185 68.1561C10.562 68.0473 10.7958 68.0087 11.0198 68.0403C11.2438 68.0719 11.4365 68.1669 11.5978 68.3253L12.759 66.9176L12.9981 67.4528L11.9014 68.7699L12.5014 70.113L13.9062 69.4854L14.1246 69.9742ZM12.0846 70.2992L11.4937 68.9767C11.4064 68.7812 11.2781 68.6554 11.109 68.5992C10.9384 68.5397 10.7484 68.5566 10.5392 68.6501C10.4088 68.7084 10.3098 68.7814 10.242 68.8693C10.1743 68.9572 10.1371 69.0582 10.1305 69.1722C10.1204 69.2879 10.146 69.4143 10.2073 69.5515L10.7981 70.8739L12.0846 70.2992Z" fill="#F1F4F8"/>
<path d="M12.6839 66.5502L8.53228 66.3374L8.30733 65.6698L11.4817 62.9825L11.6671 63.5326L10.8797 64.1964L11.4808 65.9803L12.5075 66.0268L12.6839 66.5502ZM10.9924 65.9605L10.5047 64.5131L9.50573 65.3433C9.47728 65.3648 9.43818 65.3958 9.3884 65.4363C9.33863 65.4769 9.28412 65.521 9.22486 65.5688C9.16205 65.6177 9.09924 65.6666 9.03642 65.7155C8.97005 65.7656 8.91019 65.8116 8.85686 65.8533L8.86766 65.8854C8.94727 65.8863 9.03876 65.8872 9.14214 65.8881C9.24551 65.8889 9.3471 65.8904 9.44692 65.8924C9.54317 65.8957 9.62516 65.8978 9.69289 65.8987L10.9924 65.9605Z" fill="#F1F4F8"/>
<path d="M11.4247 62.4546L7.66687 63.364L7.54093 62.8436L10.8441 62.0442L10.392 60.1763L10.8467 60.0663L11.4247 62.4546Z" fill="#F1F4F8"/>
<path d="M10.2675 55.5544L6.88247 55.8564L7.00016 57.1756L6.53423 57.2172L6.25027 54.0342L6.7162 53.9926L6.8349 55.3231L10.2199 55.0211L10.2675 55.5544Z" fill="#F1F4F8"/>
<path d="M10.1977 50.9475C10.1952 51.3496 10.1198 51.6948 9.97146 51.9832C9.82316 52.2678 9.60011 52.4881 9.30231 52.6441C9.00453 52.7963 8.63209 52.871 8.18497 52.8682C7.7341 52.8655 7.36261 52.7861 7.0705 52.6303C6.77466 52.4706 6.55435 52.2476 6.40959 51.9611C6.26485 51.6709 6.19372 51.3248 6.19621 50.9228C6.1987 50.5207 6.2741 50.1774 6.4224 49.8927C6.57072 49.6043 6.79378 49.384 7.09155 49.2318C7.3856 49.0758 7.75805 48.9992 8.20892 49.002C8.65603 49.0048 9.02751 49.086 9.32336 49.2457C9.61923 49.4015 9.83953 49.6246 9.98427 49.9148C10.129 50.2013 10.2002 50.5455 10.1977 50.9475ZM9.73554 50.9447C9.73684 50.7343 9.70984 50.5444 9.65453 50.3749C9.59924 50.2017 9.51184 50.0565 9.39233 49.9393C9.26909 49.8183 9.11561 49.7253 8.9319 49.6603C8.74443 49.5953 8.52295 49.562 8.26746 49.5604L8.14911 49.5596C7.88986 49.558 7.66798 49.5886 7.48348 49.6513C7.29522 49.714 7.1406 49.8051 7.01963 49.9246C6.89492 50.0403 6.80385 50.1844 6.74642 50.3569C6.68901 50.5256 6.65966 50.7152 6.65835 50.9256C6.65703 51.1398 6.68402 51.3316 6.73933 51.501C6.79464 51.6704 6.88392 51.8156 7.00716 51.9366C7.12665 52.0576 7.28013 52.1506 7.4676 52.2157C7.65133 52.2769 7.87282 52.3083 8.13207 52.3099L8.25042 52.3107C8.50592 52.3123 8.72778 52.2836 8.91602 52.2246C9.10052 52.1619 9.25513 52.0708 9.37987 51.9513C9.50085 51.8318 9.59004 51.6877 9.64744 51.519C9.70485 51.3503 9.73421 51.1588 9.73554 50.9447Z" fill="#F1F4F8"/>
<path d="M10.2686 48.5265L6.42218 48.1353L6.47636 47.6026L8.51172 47.8097L6.6754 45.6458L6.74269 44.9841L8.13017 46.6038L10.5943 45.3249L10.5298 45.9585L8.47381 47.0127L9.1341 47.873L10.3228 47.9939L10.2686 48.5265Z" fill="#F1F4F8"/>
<path d="M10.7668 44.7287L6.97212 43.9881L7.5421 41.0674L7.99569 41.1559L7.52827 43.5511L8.70097 43.78L9.1209 41.6282L9.57449 41.7167L9.15457 43.8685L10.4158 44.1146L10.8897 41.6862L11.3433 41.7748L10.7668 44.7287Z" fill="#F1F4F8"/>
<path d="M11.6041 40.9995L7.89693 39.9017L8.04416 39.4045L11.0197 38.3283C11.0466 38.3167 11.086 38.3029 11.1377 38.2869C11.1895 38.2708 11.2413 38.2548 11.293 38.2388C11.3412 38.2217 11.3842 38.209 11.4219 38.2006L11.4283 38.1789C11.3707 38.1619 11.3148 38.1453 11.2608 38.1293C11.2032 38.1123 11.1473 38.0957 11.0933 38.0797L8.65066 37.3564L8.79949 36.8538L12.5066 37.9516L12.3674 38.4218L9.34228 39.5068C9.29518 39.5203 9.22814 39.5416 9.14115 39.5707C9.05523 39.5962 8.98585 39.6187 8.93301 39.6384L8.92501 39.6654C8.98266 39.6824 9.0403 39.6995 9.09794 39.7166C9.15198 39.7326 9.20782 39.7491 9.26547 39.7662L11.7513 40.5023L11.6041 40.9995Z" fill="#F1F4F8"/>
<path d="M12.6414 34.3721L12.186 34.1618L12.7838 32.8672L13.2392 33.0775L12.6414 34.3721Z" fill="#F1F4F8"/>
<path d="M17.0735 29.0731C16.9195 29.3136 16.7439 29.4867 16.5468 29.5925C16.3485 29.6931 16.1255 29.7243 15.8778 29.6861C15.6289 29.6427 15.3574 29.5268 15.0631 29.3384C14.7688 29.1499 14.5516 28.9528 14.4112 28.7469C14.2729 28.5379 14.209 28.3207 14.2194 28.0954C14.2319 27.8669 14.3162 27.6308 14.4722 27.3872C14.5816 27.2163 14.698 27.0834 14.8213 26.9883C14.9467 26.8901 15.0784 26.8273 15.2165 26.7997C15.3546 26.7722 15.496 26.7779 15.6405 26.8169C15.7871 26.8528 15.9379 26.9204 16.0929 27.0197L15.8224 27.4421C15.6769 27.3489 15.5451 27.2934 15.427 27.2758C15.3077 27.253 15.1986 27.2701 15.0996 27.3272C14.9974 27.3822 14.9017 27.4793 14.8126 27.6186C14.7234 27.7578 14.6781 27.8983 14.6765 28.0401C14.6718 28.1798 14.7186 28.3191 14.8171 28.458C14.9155 28.5969 15.0739 28.7363 15.2922 28.8761L15.3919 28.9399C15.5976 29.0716 15.7846 29.1557 15.9531 29.1922C16.1236 29.2256 16.2729 29.2119 16.4011 29.1512C16.5292 29.0904 16.6399 28.9873 16.7331 28.8418C16.8243 28.6994 16.8719 28.5693 16.876 28.4514C16.8821 28.3304 16.8498 28.2205 16.7792 28.1217C16.7106 28.0198 16.6099 27.9263 16.477 27.8412L16.7384 27.433C16.8776 27.5222 16.9942 27.6258 17.0881 27.744C17.184 27.8589 17.2499 27.9859 17.2858 28.1249C17.3217 28.2639 17.3245 28.4129 17.2941 28.5719C17.2605 28.7289 17.1869 28.8959 17.0735 29.0731Z" fill="#F1F4F8"/>
<path d="M18.4398 27.0051L15.3697 24.655L15.6952 24.2299L18.3938 26.2956L19.562 24.7696L19.9334 25.0539L18.4398 27.0051Z" fill="#F1F4F8"/>
<path d="M20.6471 24.2859L17.7943 21.6763L19.6431 19.6553L19.9841 19.9672L18.4967 21.5932L19.4116 22.4301L20.7658 20.9496L21.1026 21.2578L19.7484 22.7382L21.0084 23.8908L20.6471 24.2859Z" fill="#F1F4F8"/>
<path d="M20.8637 19.0121L20.4857 18.6094L20.8473 18.2699L21.2253 18.6727L20.8637 19.0121ZM23.2744 21.5804L21.2455 19.4189L21.6071 19.0795L23.636 21.241L23.2744 21.5804Z" fill="#F1F4F8"/>
<path d="M26.305 17.3783L26.0103 16.9725L27.164 16.1346L27.4588 16.5404L26.305 17.3783Z" fill="#F1F4F8"/>
<path d="M33.2934 14.6415C32.9441 14.8249 32.6149 14.9171 32.3056 14.9182C31.9947 14.9159 31.7062 14.8191 31.4402 14.6278C31.1758 14.4313 30.938 14.1319 30.7266 13.7293C30.414 13.1338 30.3255 12.6138 30.4613 12.1691C30.597 11.7244 30.9227 11.3666 31.4383 11.0959C31.731 10.9422 32.0159 10.8542 32.2927 10.8319C32.5678 10.8063 32.8193 10.8568 33.047 10.9834C33.2763 11.1049 33.4669 11.3103 33.6188 11.5998L33.1398 11.8513C33.035 11.6517 32.9053 11.5097 32.7507 11.4254C32.5994 11.3393 32.4307 11.3048 32.2444 11.322C32.0565 11.3358 31.8594 11.3968 31.6531 11.5051C31.4136 11.6309 31.2318 11.7857 31.1077 11.9697C30.9836 12.1537 30.9282 12.3674 30.9414 12.6108C30.9529 12.8509 31.039 13.124 31.1997 13.43L31.2547 13.5348C31.4136 13.8376 31.5887 14.0618 31.7798 14.2076C31.9692 14.3501 32.1723 14.4217 32.3891 14.4224C32.6092 14.4214 32.8407 14.3572 33.0836 14.2297C33.2965 14.1179 33.4629 13.9902 33.5827 13.8467C33.7059 13.7014 33.775 13.542 33.79 13.3686C33.8067 13.1901 33.7626 13.0011 33.6578 12.8015L34.1219 12.5578C34.2773 12.8539 34.3383 13.1317 34.3048 13.3912C34.2746 13.6489 34.1708 13.8837 33.9935 14.0957C33.8162 14.3076 33.5828 14.4895 33.2934 14.6415Z" fill="#F1F4F8"/>
<path d="M37.1629 12.9384C36.7902 13.0892 36.4423 13.1509 36.1191 13.1236C35.7995 13.0949 35.5108 12.9725 35.2532 12.7565C34.9991 12.5392 34.7881 12.2232 34.6204 11.8088C34.4513 11.3908 34.3832 11.0171 34.4161 10.6876C34.451 10.3533 34.5734 10.0646 34.7831 9.8217C34.9963 9.57734 35.2893 9.37977 35.662 9.22897C36.0346 9.07817 36.3808 9.01714 36.7005 9.04587C37.0237 9.07319 37.3123 9.19554 37.5664 9.41291C37.8226 9.62539 38.0353 9.94062 38.2044 10.3586C38.3721 10.7731 38.4385 11.1475 38.4036 11.4818C38.3721 11.8148 38.2498 12.1034 38.0365 12.3478C37.8268 12.5907 37.5356 12.7876 37.1629 12.9384ZM36.9895 12.51C37.1846 12.431 37.3499 12.3337 37.4855 12.2181C37.6246 12.101 37.7256 11.9649 37.7884 11.8098C37.8534 11.6497 37.8809 11.4724 37.8711 11.2778C37.8598 11.0796 37.8063 10.8622 37.7105 10.6253L37.6661 10.5156C37.5688 10.2753 37.4561 10.0818 37.3278 9.93506C37.1981 9.78487 37.055 9.67659 36.8985 9.61024C36.744 9.53899 36.5761 9.50965 36.3947 9.52224C36.2168 9.53341 36.0304 9.57846 35.8353 9.65738C35.6368 9.73771 35.4697 9.83571 35.3341 9.95137C35.1985 10.067 35.0983 10.2049 35.0333 10.3649C34.9669 10.5215 34.9394 10.6988 34.9507 10.8969C34.964 11.0901 35.0193 11.3069 35.1165 11.5472L35.1609 11.6569C35.2567 11.8938 35.3677 12.088 35.4939 12.2396C35.6222 12.3863 35.7653 12.4946 35.9233 12.5644C36.0798 12.6308 36.2471 12.6584 36.4249 12.6472C36.6028 12.636 36.791 12.5903 36.9895 12.51Z" fill="#F1F4F8"/>
<path d="M39.4377 12.0818L38.3206 8.38042L38.8331 8.22572L39.8151 11.4793L41.655 10.9239L41.7902 11.3718L39.4377 12.0818Z" fill="#F1F4F8"/>
<path d="M42.8276 11.166L42.024 7.38414L42.5478 7.27285L43.2541 10.5971L45.134 10.1977L45.2313 10.6552L42.8276 11.166Z" fill="#F1F4F8"/>
<path d="M45.831 10.59L46.8772 6.56674L47.5765 6.48113L49.568 10.1325L48.9917 10.203L48.5005 9.29789L46.632 9.52664L46.3792 10.5229L45.831 10.59ZM46.75 9.05227L48.266 8.86668L47.6545 7.72076C47.6392 7.68857 47.6167 7.644 47.587 7.58707C47.5573 7.53014 47.5251 7.46784 47.4903 7.40018C47.455 7.32878 47.4198 7.25739 47.3846 7.186C47.3489 7.11087 47.316 7.04298 47.2858 6.98232L47.2523 6.98643C47.2353 7.06421 47.216 7.15364 47.1943 7.25472C47.1726 7.3558 47.1506 7.45501 47.1285 7.55235C47.1059 7.64597 47.0873 7.72585 47.0727 7.79199L46.75 9.05227Z" fill="#F1F4F8"/>
<path d="M51.0336 10.1523L50.9301 6.7554L49.6063 6.79573L49.592 6.32816L52.7861 6.23085L52.8004 6.69842L51.4653 6.73909L51.5687 10.136L51.0336 10.1523Z" fill="#F1F4F8"/>
<path d="M53.9179 10.1755L54.1532 6.31638L57.1235 6.49752L57.0954 6.95881L54.6595 6.81026L54.5868 8.00287L56.7751 8.13633L56.747 8.59762L54.5587 8.46417L54.4804 9.74679L56.95 9.8974L56.9219 10.3587L53.9179 10.1755Z" fill="#F1F4F8"/>
<path d="M57.7245 10.5154L58.3255 6.69615L60.3353 7.01242C60.5951 7.0533 60.8028 7.13543 60.9584 7.2588C61.1182 7.37904 61.2274 7.53125 61.2859 7.71541C61.345 7.89587 61.3573 8.09559 61.3228 8.31458C61.2814 8.57811 61.1864 8.79518 61.0378 8.96578C60.8892 9.13638 60.7046 9.24616 60.4839 9.29511L61.0315 11.0358L60.4525 10.9447L59.9457 9.3074L58.4926 9.07874L58.2534 10.5987L57.7245 10.5154ZM58.5635 8.62778L59.9944 8.85293C60.2059 8.88622 60.3813 8.84726 60.5205 8.73604C60.6635 8.62541 60.7527 8.45689 60.7884 8.23048C60.8106 8.08943 60.8033 7.96657 60.7665 7.86189C60.7297 7.75721 60.6653 7.67101 60.5733 7.60327C60.4818 7.53183 60.3618 7.48443 60.2134 7.46106L58.7825 7.23591L58.5635 8.62778Z" fill="#F1F4F8"/>
<path d="M61.3805 11.173L63.8211 7.80787L64.5035 7.98302L65.0272 12.109L64.4649 11.9647L64.3373 10.9428L62.514 10.4748L61.9155 11.3104L61.3805 11.173ZM62.7967 10.0761L64.2761 10.4558L64.1243 9.16579C64.1218 9.13023 64.1171 9.08054 64.1102 9.0167C64.1033 8.95287 64.096 8.88311 64.0883 8.80742C64.0815 8.7281 64.0747 8.64877 64.0679 8.56944C64.062 8.48648 64.0561 8.41126 64.0502 8.34379L64.0174 8.33538C63.9733 8.40163 63.9227 8.47786 63.8656 8.56407C63.8086 8.65029 63.752 8.73469 63.6959 8.81726C63.6407 8.8962 63.5943 8.9638 63.5566 9.02007L62.7967 10.0761Z" fill="#F1F4F8"/>
<path d="M65.5008 12.3489L66.7858 8.70242L67.2908 8.88037L66.1613 12.0857L67.9739 12.7244L67.8184 13.1656L65.5008 12.3489Z" fill="#F1F4F8"/>
<path d="M71.9171 15.1384L73.5083 12.1355L72.338 11.5153L72.5571 11.102L75.3807 12.5982L75.1617 13.0116L73.9814 12.3862L72.3902 15.3891L71.9171 15.1384Z" fill="#F1F4F8"/>
<path d="M75.8182 17.5899C75.4825 17.3688 75.2341 17.1175 75.0731 16.8359C74.9152 16.5565 74.852 16.2494 74.8835 15.9147C74.9181 15.5821 75.0584 15.2291 75.3044 14.8557C75.5524 14.4791 75.8213 14.2109 76.1112 14.0509C76.4062 13.8898 76.7133 13.8266 77.0324 13.8613C77.3546 13.8981 77.6836 14.027 78.0193 14.2482C78.3551 14.4693 78.6019 14.7196 78.7597 14.999C78.9208 15.2806 78.9839 15.5876 78.9493 15.9203C78.9199 16.2518 78.7812 16.6059 78.5332 16.9824C78.2872 17.3558 78.0167 17.623 77.7217 17.7841C77.4297 17.9473 77.1227 18.0105 76.8004 17.9737C76.4814 17.939 76.154 17.8111 75.8182 17.5899ZM76.0724 17.204C76.2481 17.3197 76.4221 17.4006 76.5943 17.4465C76.7696 17.4945 76.939 17.5003 77.1024 17.464C77.271 17.4266 77.4327 17.3486 77.5873 17.2299C77.7439 17.1082 77.8926 16.9406 78.0331 16.7273L78.0982 16.6284C78.2408 16.4119 78.3361 16.2092 78.384 16.0203C78.434 15.8283 78.4419 15.649 78.4076 15.4825C78.3785 15.3148 78.3073 15.16 78.194 15.0178C78.0838 14.8778 77.9408 14.7498 77.7651 14.6341C77.5863 14.5163 77.4107 14.4344 77.2385 14.3885C77.0663 14.3426 76.8959 14.3383 76.7273 14.3757C76.5607 14.41 76.3991 14.488 76.2424 14.6097C76.091 14.7304 75.9439 14.899 75.8013 15.1155L75.7362 15.2144C75.5957 15.4277 75.4988 15.6294 75.4457 15.8194C75.3978 16.0083 75.3899 16.1875 75.4221 16.3572C75.4564 16.5238 75.5286 16.6771 75.6388 16.8172C75.749 16.9572 75.8936 17.0862 76.0724 17.204Z" fill="#F1F4F8"/>
<path d="M77.8094 18.9684L80.2333 15.9563L80.6505 16.2919L79.3678 17.8858L82.1829 17.5251L82.701 17.942L80.5868 18.2229L80.3166 20.9859L79.8204 20.5867L80.0567 18.2883L78.9756 18.3732L78.2265 19.304L77.8094 18.9684Z" fill="#F1F4F8"/>
<path d="M80.7228 21.456L83.4114 18.6776L85.5499 20.747L85.2285 21.0791L83.4748 19.3821L82.6439 20.2407L84.2194 21.7653L83.898 22.0974L82.3225 20.5728L81.4289 21.4962L83.2069 23.2168L82.8855 23.5489L80.7228 21.456Z" fill="#F1F4F8"/>
<path d="M83.3933 24.1898L86.3338 21.6794L86.6704 22.0738L85.9515 25.1552C85.9466 25.1841 85.9367 25.2247 85.922 25.2768C85.9072 25.3289 85.8924 25.3811 85.8776 25.4332C85.8657 25.4829 85.853 25.5259 85.8395 25.5621L85.8541 25.5793C85.8998 25.5402 85.9441 25.5024 85.987 25.4658C86.0327 25.4268 86.077 25.389 86.1199 25.3524L88.0573 23.6983L88.3977 24.097L85.4572 26.6073L85.1388 26.2344L85.8773 23.1066C85.8917 23.0597 85.9104 22.9919 85.9334 22.9031C85.9588 22.8172 85.9777 22.7467 85.99 22.6917L85.9717 22.6703C85.926 22.7093 85.8803 22.7483 85.8346 22.7874C85.7917 22.824 85.7474 22.8618 85.7017 22.9008L83.7299 24.5841L83.3933 24.1898Z" fill="#F1F4F8"/>
<path d="M88.3855 28.6711L88.81 28.4038L89.5698 29.6104L89.1454 29.8777L88.3855 28.6711Z" fill="#F1F4F8"/>
<path d="M90.4135 35.2744C90.2958 35.0143 90.2463 34.7727 90.265 34.5498C90.2887 34.3288 90.384 34.1248 90.551 33.9379C90.723 33.7528 90.9681 33.5883 91.2865 33.4442C91.6049 33.3001 91.8886 33.2254 92.1377 33.2199C92.3883 33.2178 92.6052 33.2825 92.7885 33.4141C92.9733 33.549 93.1253 33.7483 93.2446 34.0119C93.3282 34.1967 93.3763 34.3668 93.3888 34.5219C93.4028 34.6806 93.3838 34.8253 93.3316 34.9561C93.2795 35.0869 93.1977 35.2023 93.0862 35.3023C92.9762 35.4056 92.8374 35.4952 92.6696 35.5712L92.4628 35.1142C92.6203 35.0429 92.7386 34.9626 92.8177 34.8731C92.9018 34.7856 92.947 34.6848 92.9531 34.5707C92.9626 34.455 92.9333 34.3219 92.8651 34.1712C92.7969 34.0206 92.7038 33.906 92.5858 33.8275C92.4712 33.7474 92.3289 33.7107 92.1587 33.7176C91.9886 33.7245 91.7855 33.7813 91.5493 33.8882L91.4415 33.937C91.219 34.0377 91.0465 34.1487 90.9241 34.2701C90.8032 34.3949 90.7333 34.5276 90.7145 34.6681C90.6956 34.8086 90.7217 34.9576 90.793 35.1151C90.8627 35.2691 90.9458 35.38 91.0424 35.4476C91.1406 35.5187 91.2503 35.5515 91.3716 35.5461C91.4944 35.5441 91.6277 35.5106 91.7715 35.4456L91.9713 35.8872C91.8207 35.9553 91.6703 35.9966 91.5201 36.0109C91.3714 36.0287 91.229 36.0148 91.0929 35.9692C90.9567 35.9235 90.8303 35.8447 90.7136 35.7325C90.6003 35.6188 90.5003 35.4661 90.4135 35.2744Z" fill="#F1F4F8"/>
<path d="M91.4033 37.5472L95.0467 36.2535L95.2259 36.758L92.0233 37.8952L92.6664 39.7063L92.2255 39.8628L91.4033 37.5472Z" fill="#F1F4F8"/>
<path d="M92.4808 40.8796L96.2234 39.9094L96.9107 42.5609L96.4634 42.6769L95.9104 40.5437L94.7102 40.8548L95.2136 42.797L94.7717 42.9116L94.2683 40.9694L92.6152 41.3979L92.4808 40.8796Z" fill="#F1F4F8"/>
<path d="M96.7849 43.935L97.3285 43.8375L97.4161 44.3256L96.8725 44.4232L96.7849 43.935ZM93.3177 44.5569L96.2357 44.0335L96.3233 44.5217L93.4053 45.0451L93.3177 44.5569Z" fill="#F1F4F8"/>
<path d="M95.1897 49.3876L95.6906 49.3616L95.7645 50.7856L95.2636 50.8116L95.1897 49.3876Z" fill="#F1F4F8"/>
<path d="M93.6769 56.7387C93.7134 56.3458 93.8155 56.0195 93.9831 55.7596C94.1544 55.5001 94.3927 55.311 94.6981 55.1922C95.0069 55.0775 95.3876 55.0413 95.8403 55.0834C96.51 55.1457 96.9943 55.3549 97.2932 55.711C97.5921 56.0671 97.7146 56.5351 97.6607 57.115C97.63 57.4442 97.5486 57.731 97.4165 57.9753C97.2881 58.22 97.1087 58.4033 96.8785 58.5252C96.6517 58.6513 96.3755 58.6992 96.0501 58.6689L96.1002 58.1302C96.3247 58.1511 96.5144 58.1197 96.6693 58.036C96.8239 57.956 96.9448 57.8333 97.0319 57.6678C97.1227 57.5027 97.1789 57.3042 97.2005 57.0722C97.2256 56.8028 97.1948 56.566 97.1081 56.3617C97.0215 56.1574 96.8725 55.9945 96.6612 55.873C96.4536 55.7518 96.1777 55.6752 95.8335 55.6431L95.7157 55.6322C95.3752 55.6005 95.0918 55.6251 94.8654 55.7059C94.6428 55.787 94.4721 55.9183 94.3533 56.0997C94.2342 56.2849 94.1619 56.514 94.1365 56.7871C94.1142 57.0265 94.1306 57.2356 94.1857 57.4143C94.2404 57.5968 94.3364 57.7415 94.4736 57.8486C94.6142 57.9598 94.7967 58.0259 95.0212 58.0468L94.9726 58.5687C94.6396 58.5377 94.3735 58.4374 94.1742 58.268C93.9745 58.1022 93.8341 57.8873 93.7531 57.6231C93.672 57.359 93.6466 57.0642 93.6769 56.7387Z" fill="#F1F4F8"/>
<path d="M92.9964 60.9112C93.073 60.5165 93.2108 60.1912 93.4098 59.9351C93.6081 59.6827 93.868 59.5073 94.1894 59.409C94.5102 59.3143 94.89 59.3096 95.3289 59.3948C95.7715 59.4807 96.122 59.6272 96.3804 59.8343C96.6417 60.0458 96.817 60.3057 96.9065 60.6139C96.9952 60.9259 97.0012 61.2792 96.9246 61.6738C96.848 62.0685 96.7105 62.392 96.5123 62.6444C96.3133 62.9005 96.0534 63.0759 95.7327 63.1705C95.4149 63.2696 95.0347 63.2762 94.5921 63.1902C94.1531 63.105 93.803 62.9567 93.5417 62.7452C93.2797 62.5374 93.1043 62.2775 93.0156 61.9656C92.9262 61.6573 92.9198 61.3059 92.9964 60.9112ZM93.4501 60.9993C93.41 61.2058 93.4015 61.3975 93.4246 61.5742C93.447 61.7546 93.5061 61.9134 93.6019 62.0507C93.7007 62.1923 93.8344 62.3121 94.003 62.4099C94.1752 62.5084 94.3867 62.582 94.6376 62.6307L94.7537 62.6532C95.0082 62.7026 95.2319 62.7135 95.4249 62.6859C95.6214 62.659 95.7902 62.598 95.9312 62.5029C96.0751 62.4122 96.1912 62.2874 96.2794 62.1284C96.367 61.9732 96.4308 61.7923 96.4709 61.5858C96.5117 61.3755 96.5206 61.182 96.4975 61.0053C96.4744 60.8286 96.4134 60.6694 96.3146 60.5277C96.2195 60.3868 96.0858 60.2671 95.9136 60.1686C95.7443 60.0745 95.5324 60.0027 95.2779 59.9533L95.1617 59.9307C94.9109 59.882 94.6876 59.8693 94.4917 59.8925C94.2988 59.9201 94.13 59.9811 93.9854 60.0755C93.8444 60.1706 93.7302 60.2958 93.6426 60.451C93.5551 60.6063 93.4909 60.789 93.4501 60.9993Z" fill="#F1F4F8"/>
<path d="M92.4753 63.2853L96.1877 64.3654L96.0381 64.8795L92.7749 63.9301L92.238 65.7755L91.7888 65.6448L92.4753 63.2853Z" fill="#F1F4F8"/>
<path d="M91.396 66.627L95.005 68.0138L94.813 68.5136L91.6406 67.2946L90.9512 69.0886L90.5146 68.9208L91.396 66.627Z" fill="#F1F4F8"/>
<path d="M90.2426 69.4591L93.046 72.5285L92.7368 73.1615L88.59 72.8418L88.8448 72.3202L89.8714 72.4015L90.6977 70.7102L90.0001 69.9554L90.2426 69.4591ZM91.0312 71.0675L90.3608 72.4399L91.6549 72.5514C91.6902 72.5562 91.7398 72.5616 91.8037 72.5677C91.8677 72.5739 91.9374 72.5808 92.0131 72.5885C92.0922 72.5978 92.1713 72.6072 92.2503 72.6165C92.3328 72.6275 92.4076 72.6369 92.4749 72.6447L92.4898 72.6143C92.4338 72.5577 92.3693 72.4928 92.2964 72.4195C92.2235 72.3462 92.1522 72.2738 92.0827 72.2022C92.0165 72.1322 91.9597 72.0731 91.9122 72.0248L91.0312 71.0675Z" fill="#F1F4F8"/>
<path d="M87.7748 74.0601L90.6796 75.8243L91.3671 74.6922L91.7669 74.9351L90.1081 77.6664L89.7082 77.4236L90.4016 76.2819L87.4969 74.5178L87.7748 74.0601Z" fill="#F1F4F8"/>
<path d="M86.1835 76.4658L89.2912 78.7659L87.5208 81.1578L87.1493 80.8829L88.6012 78.9214L87.6408 78.2105L86.3365 79.9728L85.965 79.6978L87.2693 77.9356L86.2364 77.1711L84.7645 79.1599L84.393 78.8849L86.1835 76.4658Z" fill="#F1F4F8"/>
<path d="M83.8243 79.4726L86.6994 82.0576L85.339 83.5706C85.1632 83.7662 84.9812 83.8955 84.793 83.9588C84.605 84.0273 84.4179 84.0359 84.2316 83.9846C84.0481 83.9358 83.8739 83.8373 83.7091 83.6891C83.5107 83.5107 83.3805 83.3128 83.3184 83.0952C83.2563 82.8777 83.2648 82.6631 83.344 82.4514L81.586 81.9621L81.9779 81.5262L83.627 81.9933L84.6105 80.8995L83.4663 79.8708L83.8243 79.4726ZM84.95 81.2047L83.9815 82.2818C83.8383 82.4411 83.7754 82.6094 83.7928 82.7867C83.8077 82.9668 83.9004 83.1335 84.0708 83.2867C84.177 83.3822 84.284 83.443 84.3918 83.4692C84.4996 83.4954 84.607 83.4884 84.714 83.4481C84.8237 83.4104 84.9288 83.3356 85.0293 83.2239L85.9977 82.1468L84.95 81.2047Z" fill="#F1F4F8"/>
<path d="M81.2808 82.18L82.7727 86.0601L82.254 86.5368L78.509 84.7277L78.9364 84.3349L79.8628 84.7847L81.2487 83.5109L80.8742 82.5537L81.2808 82.18ZM81.429 83.9652L80.3045 84.9988L81.4689 85.5744C81.5001 85.5916 81.5443 85.6148 81.6016 85.6438C81.6589 85.6728 81.7214 85.7047 81.789 85.7394C81.8592 85.777 81.9295 85.8145 81.9997 85.852C82.0724 85.8923 82.1387 85.9283 82.1986 85.9601L82.2235 85.9372C82.192 85.8641 82.1556 85.7801 82.1144 85.6853C82.0732 85.5905 82.0333 85.4971 81.9946 85.4051C81.9585 85.3158 81.9271 85.24 81.9005 85.1777L81.429 83.9652Z" fill="#F1F4F8"/>
<path d="M78.0499 84.994L80.4074 88.0584L79.983 88.3849L77.9108 85.6913L76.3875 86.8631L76.1023 86.4924L78.0499 84.994Z" fill="#F1F4F8"/>
<path d="M72.2148 88.8545L73.8658 91.825L75.0235 91.1816L75.2507 91.5905L72.4575 93.1429L72.2303 92.734L73.3978 92.0851L71.7468 89.1146L72.2148 88.8545Z" fill="#F1F4F8"/>
<path d="M68.0334 90.7896C68.4017 90.6286 68.7478 90.5573 69.0716 90.5756C69.392 90.5955 69.6839 90.7099 69.9474 90.9186C70.2074 91.1289 70.427 91.4389 70.6061 91.8486C70.7867 92.2617 70.8651 92.6334 70.8413 92.9636C70.8156 93.2988 70.7013 93.5907 70.4983 93.8394C70.2919 94.0895 70.0045 94.2951 69.6361 94.4561C69.2678 94.6172 68.9234 94.6877 68.6031 94.6679C68.2793 94.6495 67.9874 94.5351 67.7273 94.3249C67.4653 94.1195 67.2441 93.8103 67.0635 93.3972C66.8844 92.9875 66.8077 92.615 66.8334 92.2799C66.8556 91.9462 66.97 91.6543 67.1764 91.4041C67.3793 91.1555 67.665 90.9506 68.0334 90.7896ZM68.2185 91.2131C68.0257 91.2973 67.8631 91.3992 67.7308 91.5185C67.595 91.6394 67.4978 91.7782 67.4392 91.9351C67.3787 92.0968 67.3561 92.2749 67.3713 92.4691C67.388 92.6669 67.4475 92.8828 67.5499 93.1169L67.5973 93.2253C67.7011 93.4629 67.8192 93.6532 67.9514 93.7963C68.0852 93.9429 68.2313 94.0472 68.3896 94.1092C68.546 94.1761 68.7147 94.2008 68.8956 94.1832C69.0731 94.1671 69.2582 94.117 69.451 94.0327C69.6473 93.9469 69.8116 93.8443 69.9439 93.725C70.0763 93.6056 70.1727 93.465 70.2332 93.3033C70.2952 93.1449 70.3179 92.9669 70.3011 92.7692C70.2825 92.5764 70.2212 92.3613 70.1174 92.1237L70.07 92.0153C69.9676 91.7812 69.8513 91.5901 69.721 91.442C69.5887 91.2989 69.4427 91.1946 69.2828 91.1292C69.1245 91.0672 68.9566 91.0442 68.7791 91.0603C68.6016 91.0764 68.4147 91.1273 68.2185 91.2131Z" fill="#F1F4F8"/>
<path d="M65.7925 91.708L66.9974 95.3818L66.4887 95.5486L65.8511 93.6047L64.6197 96.1616L63.9878 96.3689L64.9042 94.4431L62.7346 92.711L63.3398 92.5125L65.1382 93.963L65.6561 93.0102L65.2837 91.8749L65.7925 91.708Z" fill="#F1F4F8"/>
<path d="M62.1194 92.7957L62.9842 96.564L60.0837 97.2296L59.9804 96.7792L62.3589 96.2333L62.0917 95.0688L59.9548 95.5591L59.8515 95.1087L61.9883 94.6183L61.7009 93.3659L59.2894 93.9193L59.186 93.4688L62.1194 92.7957Z" fill="#F1F4F8"/>
<path d="M58.3719 93.5453L58.8746 97.3788L58.3605 97.4462L56.1684 95.1644C56.1469 95.1445 56.1183 95.1141 56.0826 95.0733C56.0469 95.0326 56.0113 94.9918 55.9756 94.951C55.9404 94.9139 55.9113 94.8798 55.8883 94.8487L55.8659 94.8517C55.8737 94.9113 55.8813 94.969 55.8886 95.0249C55.8965 95.0845 55.904 95.1422 55.9114 95.1981L56.2426 97.724L55.7229 97.7921L55.2202 93.9587L55.7064 93.8949L57.9267 96.2185C57.9581 96.256 58.0048 96.3086 58.0667 96.3763C58.1249 96.4445 58.1737 96.4987 58.2131 96.539L58.2411 96.5353C58.2332 96.4757 58.2254 96.4161 58.2176 96.3565C58.2103 96.3006 58.2027 96.2429 58.1949 96.1833L57.8578 93.6127L58.3719 93.5453Z" fill="#F1F4F8"/>
<path d="M49.5186 95.3567L49.5114 95.8583L48.0857 95.838L48.0928 95.3364L49.5186 95.3567Z" fill="#F1F4F8"/>
<path fill-rule="evenodd" clip-rule="evenodd" d="M51.9999 88.0503C71.9105 88.0503 88.0512 71.9096 88.0512 51.999C88.0512 32.0884 71.9105 15.9477 51.9999 15.9477C32.0894 15.9477 15.9487 32.0884 15.9487 51.999C15.9487 71.9096 32.0894 88.0503 51.9999 88.0503ZM51.9999 88.999C72.4345 88.999 88.9999 72.4336 88.9999 51.999C88.9999 31.5645 72.4345 14.999 51.9999 14.999C31.5654 14.999 14.9999 31.5645 14.9999 51.999C14.9999 72.4336 31.5654 88.999 51.9999 88.999Z" fill="#F1F4F8"/>
<path d="M65.2442 46.2979L65.2185 46.2851C64.9427 46.141 64.6155 46.2851 64.5124 46.5809C64.3114 47.1624 63.8991 47.6822 63.2729 48.009L53.1969 53.2836C52.4496 53.6773 51.5554 53.6773 50.8055 53.2836L40.7296 48.009C40.1034 47.6822 39.6911 47.1624 39.4901 46.5809C39.3896 46.2876 39.0597 46.141 38.784 46.2851L38.7582 46.2979C37.7506 46.8254 37.7506 48.2637 38.7582 48.7912L51.3441 55.3806C51.7538 55.5942 52.2435 55.5942 52.6532 55.3806L65.2417 48.7912C66.2493 48.2637 66.2493 46.8254 65.2417 46.2979H65.2442Z" fill="#F1F4F8"/>
<path d="M65.2442 41.5713L65.2185 41.5585C64.9427 41.4144 64.6155 41.5585 64.5124 41.8544C64.3114 42.4359 63.8991 42.9556 63.2729 43.2824L53.1969 48.5571C52.4496 48.9507 51.5554 48.9507 50.8055 48.5571L40.727 43.2824C40.1008 42.9556 39.6885 42.4359 39.4875 41.8544C39.387 41.5611 39.0571 41.4144 38.7814 41.5585L38.7556 41.5713C37.748 42.0988 37.748 43.5371 38.7556 44.0646L51.3415 50.6541C51.7513 50.8676 52.2409 50.8676 52.6506 50.6541L65.2391 44.0646C66.2467 43.5371 66.2467 42.0988 65.2391 41.5713H65.2442Z" fill="#F1F4F8"/>
<path d="M38.7576 39.2393L39.6415 39.6999L41.0511 40.4384L43.775 41.8612L45.5067 42.7695L51.6476 45.9806C51.8692 46.0964 52.1346 46.0964 52.3563 45.9806L54.289 44.9694C55.2966 44.442 55.2966 43.0037 54.289 42.4762L48.4444 39.4169L48.0965 39.2342C47.1276 38.7247 47.0915 37.3739 47.9883 36.8053C48.0218 36.7821 48.0605 36.7615 48.0965 36.741L55.3842 32.9277C55.9279 32.6421 55.9279 31.8651 55.3842 31.5821L52.6552 30.1592C52.2454 29.9456 51.7558 29.9456 51.3461 30.1592L38.7576 36.7461C37.75 37.271 37.75 38.7119 38.7576 39.2393Z" fill="#F1F4F8"/>
<path d="M53.6273 36.7443C53.1067 37.017 52.8542 37.5342 52.8748 38.0437C52.8929 38.5145 53.1428 38.9751 53.6196 39.2324C53.6221 39.2324 53.6247 39.235 53.6273 39.2376L58.7786 41.9341C58.7786 41.9341 58.7838 41.9341 58.7864 41.9366C59.191 42.1502 59.6754 42.1502 60.0826 41.9366C60.0826 41.9366 60.0877 41.9366 60.0903 41.9341L60.2269 41.862L62.9507 40.434L65.2442 39.2376C65.2442 39.2376 65.2494 39.235 65.252 39.2324C66.2518 38.7024 66.2493 37.2692 65.2442 36.7443L60.0903 34.0452C60.0723 34.0375 60.0568 34.0272 60.0362 34.0195C60.0285 34.0143 60.0207 34.0118 60.013 34.0066C59.6522 33.8162 59.2193 33.8162 58.8585 34.0066C58.8585 34.0066 58.8405 34.0143 58.8353 34.0195C58.8173 34.0272 58.7993 34.0375 58.7812 34.0452L53.6299 36.7443H53.6273Z" fill="#F1F4F8"/>
<path d="M43.4604 73.143C42.8284 73.143 42.3004 73.027 41.8764 72.795C41.4524 72.555 41.1324 72.191 40.9164 71.703C40.7084 71.215 40.6044 70.595 40.6044 69.843C40.6044 69.091 40.7124 68.475 40.9284 67.995C41.1444 67.507 41.4644 67.143 41.8884 66.903C42.3204 66.663 42.8484 66.543 43.4724 66.543C43.9044 66.543 44.2804 66.599 44.6004 66.711C44.9204 66.815 45.1924 66.975 45.4164 67.191C45.6404 67.399 45.8044 67.659 45.9084 67.971C46.0204 68.283 46.0764 68.639 46.0764 69.039H44.8164C44.8164 68.703 44.7684 68.427 44.6724 68.211C44.5764 67.995 44.4284 67.835 44.2284 67.731C44.0284 67.619 43.7684 67.563 43.4484 67.563C43.1124 67.563 42.8284 67.643 42.5964 67.803C42.3644 67.955 42.1884 68.191 42.0684 68.511C41.9484 68.823 41.8884 69.235 41.8884 69.747V69.951C41.8884 70.439 41.9444 70.847 42.0564 71.175C42.1764 71.495 42.3524 71.735 42.5844 71.895C42.8244 72.047 43.1284 72.123 43.4964 72.123C43.8164 72.123 44.0724 72.067 44.2644 71.955C44.4644 71.835 44.6124 71.667 44.7084 71.451C44.8124 71.227 44.8644 70.959 44.8644 70.647H46.0764C46.0764 71.023 46.0204 71.363 45.9084 71.667C45.8044 71.971 45.6404 72.235 45.4164 72.459C45.2004 72.675 44.9284 72.843 44.6004 72.963C44.2724 73.083 43.8924 73.143 43.4604 73.143Z" fill="#F1F4F8"/>
<path d="M48.0071 72.999V64.767H49.3511V71.835H53.4551V72.999H48.0071Z" fill="#F1F4F8"/>
<path d="M55.1282 72.999V64.767H61.0082V65.919H56.4722V68.355H60.5762V69.495H56.4722V72.999H55.1282Z" fill="#F1F4F8"/>
<path d="M62.7961 65.595V64.323H64.0441V65.595H62.7961ZM62.7961 72.999V66.687H64.0441V72.999H62.7961Z" fill="#F1F4F8"/>
</svg>
