<svg width="509" height="539" viewBox="0 0 509 539" fill="none" xmlns="http://www.w3.org/2000/svg">
<path fill-rule="evenodd" clip-rule="evenodd" d="M459 269.5C459 382.442 367.442 474 254.5 474C141.558 474 50 382.442 50 269.5C50 156.558 141.558 65 254.5 65C367.442 65 459 156.558 459 269.5ZM254.5 466.135C363.098 466.135 451.135 378.098 451.135 269.5C451.135 160.902 363.098 72.8654 254.5 72.8654C145.902 72.8654 57.8654 160.902 57.8654 269.5C57.8654 378.098 145.902 466.135 254.5 466.135Z" fill="#04FCA3"/>
<path d="M256.468 437.256C257.591 437.248 258.538 437.456 259.309 437.88C260.066 438.318 260.646 438.986 261.051 439.885C261.442 440.799 261.641 441.942 261.65 443.317C261.66 444.691 261.475 445.83 261.097 446.734C260.704 447.638 260.125 448.314 259.359 448.762C258.579 449.211 257.62 449.439 256.482 449.446C255.684 449.452 254.997 449.353 254.419 449.15C253.827 448.947 253.337 448.647 252.95 448.251C252.563 447.854 252.279 447.376 252.098 446.816C251.903 446.255 251.802 445.613 251.797 444.889L253.77 444.876C253.775 445.556 253.874 446.109 254.069 446.537C254.249 446.979 254.54 447.302 254.94 447.506C255.341 447.725 255.866 447.832 256.516 447.828C257.166 447.824 257.727 447.672 258.197 447.374C258.668 447.09 259.027 446.637 259.275 446.014C259.522 445.392 259.642 444.571 259.635 443.552L259.632 443.086C259.626 442.126 259.502 441.329 259.261 440.695C259.006 440.061 258.641 439.598 258.166 439.306C257.691 439.013 257.114 438.869 256.434 438.874C255.769 438.878 255.238 439 254.841 439.239C254.429 439.478 254.135 439.82 253.961 440.265C253.772 440.709 253.679 441.242 253.684 441.862L251.777 441.875C251.773 441.225 251.865 440.618 252.053 440.056C252.227 439.493 252.505 439.003 252.886 438.587C253.267 438.171 253.753 437.843 254.342 437.602C254.932 437.377 255.64 437.261 256.468 437.256Z" fill="#04FCA3"/>
<path d="M234.763 434.665L233.592 449.825L231.492 449.663L232.522 436.337L224.986 435.755L225.128 433.921L234.763 434.665Z" fill="#04FCA3"/>
<path d="M221.066 433.214L218.573 448.213L207.947 446.447L208.245 444.654L216.794 446.075L217.593 441.265L209.81 439.971L210.104 438.2L217.888 439.494L218.988 432.869L221.066 433.214Z" fill="#04FCA3"/>
<path d="M203.211 443.801L202.693 445.91L200.799 445.445L201.317 443.336L203.211 443.801ZM206.514 430.348L203.734 441.67L201.84 441.205L204.62 429.883L206.514 430.348Z" fill="#04FCA3"/>
<path d="M195.506 429.094L194.8 430.935L189.564 428.926L190.271 427.085L195.506 429.094Z" fill="#04FCA3"/>
<path d="M171.505 411.914C172.859 412.673 173.868 413.561 174.535 414.578C175.194 415.608 175.493 416.767 175.431 418.054C175.35 419.347 174.872 420.773 173.998 422.333C172.704 424.64 171.179 426.046 169.421 426.551C167.664 427.057 165.787 426.749 163.789 425.629C162.655 424.993 161.754 424.242 161.087 423.377C160.413 422.525 160.041 421.587 159.971 420.565C159.88 419.549 160.149 418.48 160.778 417.359L162.634 418.399C162.2 419.173 162.01 419.905 162.063 420.595C162.103 421.278 162.351 421.909 162.807 422.486C163.255 423.076 163.879 423.595 164.678 424.044C165.606 424.564 166.506 424.832 167.379 424.847C168.251 424.862 169.075 424.586 169.849 424.021C170.616 423.469 171.332 422.6 171.997 421.414L172.225 421.008C172.883 419.835 173.247 418.777 173.318 417.835C173.382 416.905 173.183 416.082 172.721 415.365C172.246 414.641 171.538 414.016 170.597 413.488C169.772 413.026 168.995 412.751 168.265 412.663C167.522 412.568 166.848 412.682 166.244 413.004C165.62 413.331 165.091 413.882 164.657 414.655L162.859 413.647C163.503 412.5 164.288 411.703 165.215 411.258C166.13 410.805 167.127 410.644 168.205 410.775C169.284 410.905 170.384 411.285 171.505 411.914Z" fill="#04FCA3"/>
<path d="M157.598 402.803C158.894 403.709 159.843 404.724 160.445 405.848C161.036 406.964 161.251 408.178 161.091 409.49C160.918 410.794 160.329 412.167 159.321 413.608C158.305 415.061 157.219 416.087 156.062 416.684C154.885 417.285 153.671 417.5 152.42 417.329C151.157 417.15 149.878 416.607 148.582 415.701C147.286 414.795 146.343 413.785 145.753 412.669C145.151 411.545 144.935 410.331 145.108 409.027C145.259 407.727 145.843 406.35 146.859 404.897C147.866 403.455 148.959 402.434 150.136 401.833C151.302 401.223 152.516 401.008 153.778 401.188C155.029 401.359 156.302 401.897 157.598 402.803ZM156.557 404.293C155.879 403.819 155.203 403.482 154.531 403.283C153.847 403.075 153.182 403.034 152.536 403.159C151.869 403.288 151.225 403.577 150.604 404.026C149.975 404.488 149.373 405.13 148.797 405.954L148.531 406.335C147.946 407.171 147.55 407.958 147.341 408.695C147.124 409.444 147.073 410.148 147.19 410.807C147.286 411.469 147.549 412.086 147.979 412.657C148.397 413.219 148.945 413.738 149.623 414.212C150.314 414.694 150.995 415.035 151.667 415.234C152.339 415.434 153.008 415.469 153.675 415.34C154.334 415.224 154.977 414.934 155.607 414.473C156.215 414.015 156.812 413.368 157.396 412.532L157.662 412.151C158.238 411.327 158.641 410.545 158.87 409.804C159.079 409.067 159.129 408.363 159.021 407.692C158.905 407.034 158.637 406.423 158.219 405.861C157.801 405.298 157.247 404.775 156.557 404.293Z" fill="#04FCA3"/>
<path d="M149.898 397.137L140.087 408.753L138.478 407.394L147.103 397.184L141.329 392.307L142.516 390.901L149.898 397.137Z" fill="#04FCA3"/>
<path d="M139.614 387.92L128.865 398.674L127.376 397.185L136.825 387.733L131.479 382.389L132.78 381.088L139.614 387.92Z" fill="#04FCA3"/>
<path d="M131.279 379.251L115.77 384.422L113.989 382.3L121.763 367.908L123.23 369.657L121.298 373.217L126.056 378.888L129.883 377.587L131.279 379.251ZM124.239 379.516L120.378 374.914L117.91 379.386C117.837 379.506 117.738 379.675 117.614 379.895C117.49 380.115 117.353 380.355 117.205 380.615C117.045 380.884 116.885 381.153 116.725 381.422C116.554 381.701 116.4 381.955 116.265 382.184L116.35 382.286C116.643 382.176 116.98 382.048 117.359 381.903C117.739 381.758 118.113 381.617 118.482 381.482C118.839 381.356 119.142 381.246 119.392 381.152L124.239 379.516Z" fill="#04FCA3"/>
<path d="M118.687 363.033L107.707 370.653L110.677 374.932L109.166 375.981L102 365.657L103.512 364.608L106.507 368.923L117.487 361.303L118.687 363.033Z" fill="#04FCA3"/>
<path d="M112.584 353.472L99.3541 360.965L93.5866 350.782L95.168 349.886L99.8978 358.237L103.986 355.921L99.7373 348.419L101.319 347.523L105.568 355.026L109.965 352.535L105.17 344.069L106.751 343.173L112.584 353.472Z" fill="#04FCA3"/>
<path d="M105.548 340.191L91.6655 346.393L88.4016 339.088C87.9797 338.143 87.8055 337.282 87.879 336.505C87.933 335.72 88.201 335.034 88.6829 334.447C89.1514 333.865 89.7836 333.397 90.5796 333.041C91.5375 332.613 92.4569 332.461 93.3378 332.585C94.2187 332.71 94.9764 333.083 95.6107 333.706L100.177 328.17L101.118 330.275L96.8046 335.455L99.1644 340.737L104.689 338.268L105.548 340.191ZM97.5252 341.469L95.2016 336.268C94.858 335.499 94.3537 335.004 93.6886 334.783C93.0175 334.549 92.2705 334.616 91.4476 334.984C90.9349 335.213 90.5454 335.5 90.279 335.846C90.0126 336.191 89.8663 336.588 89.8402 337.037C89.8006 337.492 89.9013 337.989 90.1424 338.528L92.466 343.729L97.5252 341.469Z" fill="#04FCA3"/>
<path d="M99.882 326.725L83.5551 325.888L82.6704 323.263L95.1543 312.695L95.8833 314.858L92.7867 317.469L95.1506 324.484L99.1884 324.667L99.882 326.725ZM93.2298 324.406L91.3119 318.714L87.3834 321.979C87.2715 322.063 87.1177 322.185 86.9219 322.345C86.7262 322.504 86.5118 322.678 86.2788 322.866C86.0318 323.058 85.7847 323.25 85.5377 323.443C85.2767 323.64 85.0413 323.821 84.8315 323.985L84.874 324.111C85.1871 324.114 85.5469 324.118 85.9535 324.121C86.36 324.125 86.7595 324.13 87.1521 324.138C87.5306 324.151 87.853 324.16 88.1194 324.163L93.2298 324.406Z" fill="#04FCA3"/>
<path d="M94.93 310.619L80.1517 314.195L79.6564 312.149L92.6466 309.005L90.8688 301.659L92.6569 301.226L94.93 310.619Z" fill="#04FCA3"/>
<path d="M90.3793 283.482L77.0669 284.67L77.5297 289.858L75.6973 290.021L74.5806 277.504L76.413 277.34L76.8798 282.573L90.1922 281.385L90.3793 283.482Z" fill="#04FCA3"/>
<path d="M90.1046 265.365C90.0948 266.946 89.7982 268.303 89.2149 269.438C88.6317 270.557 87.7545 271.423 86.5834 272.037C85.4123 272.635 83.9476 272.929 82.1892 272.918C80.4161 272.907 78.9551 272.595 77.8063 271.982C76.6429 271.355 75.7765 270.477 75.2072 269.351C74.638 268.21 74.3582 266.848 74.368 265.267C74.3778 263.686 74.6743 262.336 75.2576 261.217C75.8409 260.082 76.7181 259.216 77.8891 258.617C79.0455 258.004 80.5103 257.703 82.2834 257.714C84.0418 257.725 85.5027 258.044 86.6661 258.672C87.8297 259.285 88.6961 260.162 89.2653 261.303C89.8346 262.43 90.1144 263.784 90.1046 265.365ZM88.2871 265.354C88.2923 264.526 88.1861 263.779 87.9685 263.113C87.7511 262.432 87.4074 261.861 86.9374 261.4C86.4527 260.924 85.8491 260.558 85.1267 260.303C84.3894 260.047 83.5184 259.916 82.5136 259.91L82.0482 259.907C81.0286 259.9 80.156 260.021 79.4305 260.267C78.6901 260.514 78.082 260.872 77.6063 261.342C77.1158 261.797 76.7577 262.364 76.5318 263.042C76.3061 263.706 76.1906 264.451 76.1855 265.279C76.1803 266.121 76.2864 266.875 76.504 267.541C76.7215 268.208 77.0726 268.779 77.5573 269.255C78.0272 269.73 78.6307 270.096 79.368 270.352C80.0906 270.593 80.9616 270.716 81.9812 270.723L82.4466 270.726C83.4514 270.732 84.3239 270.619 85.0642 270.387C85.7898 270.141 86.3978 269.782 86.8884 269.312C87.3641 268.843 87.7149 268.276 87.9407 267.612C88.1664 266.949 88.2819 266.196 88.2871 265.354Z" fill="#04FCA3"/>
<path d="M90.3835 255.844L75.2567 254.305L75.4698 252.21L83.4742 253.025L76.2525 244.515L76.5172 241.913L81.9737 248.282L91.6642 243.253L91.4108 245.745L83.3251 249.89L85.9218 253.273L90.5966 253.749L90.3835 255.844Z" fill="#04FCA3"/>
<path d="M92.3428 240.908L77.4194 237.996L79.661 226.509L81.4448 226.857L79.6066 236.277L84.2185 237.177L85.8699 228.715L87.6538 229.063L86.0023 237.525L90.9623 238.493L92.826 228.943L94.6098 229.291L92.3428 240.908Z" fill="#04FCA3"/>
<path d="M95.6356 226.242L81.0564 221.925L81.6354 219.97L93.3372 215.737C93.4432 215.692 93.598 215.637 93.8015 215.574C94.0051 215.511 94.2087 215.448 94.4123 215.385C94.6017 215.318 94.7707 215.268 94.9192 215.235L94.9443 215.15C94.7176 215.083 94.498 215.018 94.2855 214.955C94.0588 214.888 93.8392 214.823 93.6267 214.76L84.0206 211.915L84.6059 209.939L99.185 214.256L98.6375 216.105L86.7406 220.372C86.5553 220.425 86.2917 220.509 85.9496 220.623C85.6117 220.723 85.3388 220.812 85.131 220.889L85.0996 220.996C85.3263 221.063 85.553 221.13 85.7796 221.197C85.9922 221.26 86.2118 221.325 86.4385 221.392L96.2146 224.287L95.6356 226.242Z" fill="#04FCA3"/>
<path d="M99.7152 200.179L97.9242 199.352L100.275 194.261L102.066 195.087L99.7152 200.179Z" fill="#04FCA3"/>
<path d="M117.145 179.34C116.539 180.285 115.849 180.966 115.074 181.382C114.294 181.778 113.417 181.9 112.443 181.75C111.464 181.58 110.396 181.124 109.239 180.383C108.082 179.642 107.227 178.866 106.675 178.057C106.131 177.234 105.88 176.38 105.921 175.494C105.97 174.596 106.301 173.667 106.915 172.709C107.345 172.037 107.803 171.514 108.288 171.141C108.781 170.755 109.299 170.507 109.842 170.399C110.385 170.291 110.941 170.313 111.51 170.467C112.086 170.608 112.679 170.873 113.289 171.264L112.225 172.925C111.653 172.558 111.134 172.341 110.67 172.271C110.201 172.181 109.772 172.249 109.382 172.473C108.98 172.69 108.604 173.072 108.254 173.619C107.903 174.167 107.725 174.719 107.718 175.277C107.7 175.826 107.884 176.374 108.271 176.92C108.658 177.467 109.281 178.015 110.14 178.565L110.532 178.816C111.341 179.334 112.076 179.664 112.739 179.808C113.41 179.939 113.997 179.885 114.501 179.646C115.004 179.408 115.44 179.002 115.806 178.43C116.165 177.87 116.352 177.358 116.368 176.894C116.392 176.419 116.265 175.986 115.988 175.598C115.718 175.197 115.322 174.829 114.799 174.495L115.827 172.89C116.375 173.24 116.833 173.648 117.202 174.112C117.58 174.564 117.839 175.064 117.98 175.611C118.121 176.157 118.132 176.743 118.012 177.368C117.88 177.986 117.591 178.643 117.145 179.34Z" fill="#04FCA3"/>
<path d="M122.518 171.207L110.445 161.964L111.725 160.292L122.337 168.417L126.932 162.415L128.392 163.533L122.518 171.207Z" fill="#04FCA3"/>
<path d="M131.199 160.513L119.98 150.25L127.25 142.302L128.591 143.529L122.742 149.923L126.34 153.214L131.666 147.392L132.99 148.604L127.665 154.426L132.62 158.959L131.199 160.513Z" fill="#04FCA3"/>
<path d="M132.051 139.773L130.564 138.189L131.986 136.854L133.473 138.438L132.051 139.773ZM141.531 149.873L133.552 141.372L134.974 140.038L142.953 148.538L141.531 149.873Z" fill="#04FCA3"/>
<path d="M153.45 133.347L152.291 131.751L156.828 128.456L157.987 130.052L153.45 133.347Z" fill="#04FCA3"/>
<path d="M180.933 122.584C179.559 123.305 178.264 123.668 177.048 123.672C175.825 123.664 174.691 123.283 173.645 122.53C172.605 121.758 171.67 120.58 170.839 118.997C169.609 116.655 169.261 114.61 169.795 112.861C170.329 111.112 171.61 109.705 173.637 108.641C174.789 108.036 175.909 107.69 176.998 107.602C178.08 107.502 179.068 107.7 179.964 108.198C180.866 108.676 181.615 109.484 182.213 110.622L180.329 111.611C179.917 110.826 179.407 110.268 178.799 109.936C178.204 109.598 177.54 109.462 176.808 109.53C176.069 109.584 175.293 109.824 174.482 110.25C173.54 110.744 172.825 111.353 172.337 112.077C171.849 112.8 171.631 113.641 171.683 114.598C171.729 115.542 172.067 116.616 172.699 117.82L172.915 118.232C173.54 119.423 174.229 120.305 174.98 120.878C175.725 121.438 176.524 121.72 177.377 121.723C178.242 121.719 179.153 121.466 180.108 120.965C180.945 120.525 181.599 120.023 182.071 119.459C182.555 118.887 182.827 118.26 182.886 117.578C182.951 116.877 182.778 116.133 182.366 115.348L184.191 114.39C184.802 115.554 185.042 116.647 184.91 117.667C184.792 118.681 184.384 119.604 183.686 120.438C182.989 121.271 182.071 121.987 180.933 122.584Z" fill="#04FCA3"/>
<path d="M196.15 115.886C194.685 116.479 193.317 116.722 192.046 116.615C190.789 116.502 189.653 116.021 188.64 115.171C187.641 114.317 186.811 113.074 186.152 111.444C185.487 109.8 185.219 108.331 185.348 107.035C185.485 105.72 185.967 104.585 186.791 103.63C187.63 102.669 188.782 101.892 190.248 101.299C191.713 100.706 193.075 100.465 194.332 100.578C195.603 100.686 196.738 101.167 197.737 102.022C198.745 102.858 199.581 104.097 200.247 105.741C200.906 107.371 201.167 108.843 201.03 110.158C200.906 111.468 200.425 112.603 199.586 113.564C198.761 114.519 197.616 115.293 196.15 115.886ZM195.469 114.202C196.236 113.891 196.886 113.509 197.419 113.054C197.966 112.593 198.363 112.058 198.611 111.448C198.866 110.819 198.974 110.121 198.936 109.356C198.891 108.577 198.681 107.721 198.304 106.79L198.129 106.359C197.747 105.413 197.303 104.652 196.799 104.075C196.289 103.485 195.726 103.059 195.111 102.798C194.503 102.518 193.843 102.402 193.129 102.452C192.43 102.496 191.697 102.673 190.929 102.983C190.149 103.299 189.492 103.685 188.958 104.14C188.425 104.594 188.031 105.137 187.775 105.766C187.514 106.382 187.406 107.079 187.45 107.858C187.503 108.618 187.72 109.47 188.103 110.416L188.277 110.847C188.654 111.778 189.091 112.542 189.587 113.138C190.091 113.715 190.654 114.141 191.275 114.416C191.891 114.677 192.549 114.785 193.248 114.741C193.948 114.698 194.688 114.518 195.469 114.202Z" fill="#04FCA3"/>
<path d="M205.097 112.518L200.703 97.9615L202.719 97.3531L206.581 110.148L213.817 107.964L214.348 109.726L205.097 112.518Z" fill="#04FCA3"/>
<path d="M218.428 108.916L215.268 94.0434L217.328 93.6057L220.105 106.679L227.499 105.108L227.881 106.908L218.428 108.916Z" fill="#04FCA3"/>
<path d="M230.24 106.651L234.354 90.8288L237.104 90.4921L244.936 104.852L242.67 105.129L240.738 101.57L233.39 102.469L232.396 106.387L230.24 106.651ZM233.854 100.604L239.816 99.8737L237.411 95.3672C237.35 95.2406 237.262 95.0654 237.145 94.8415C237.028 94.6176 236.902 94.3726 236.765 94.1065C236.626 93.8257 236.488 93.5449 236.349 93.2642C236.209 92.9687 236.079 92.7017 235.961 92.4632L235.829 92.4793C235.762 92.7852 235.686 93.1369 235.601 93.5344C235.515 93.9319 235.429 94.3221 235.342 94.7049C235.253 95.0731 235.18 95.3872 235.123 95.6473L233.854 100.604Z" fill="#04FCA3"/>
<path d="M250.7 104.93L250.293 91.5707L245.086 91.7293L245.03 89.8905L257.592 89.5079L257.648 91.3467L252.397 91.5066L252.804 104.866L250.7 104.93Z" fill="#04FCA3"/>
<path d="M262.043 105.021L262.968 89.8442L274.649 90.5566L274.539 92.3707L264.959 91.7865L264.673 96.4767L273.279 97.0015L273.169 98.8156L264.563 98.2908L264.255 103.335L273.967 103.927L273.857 105.741L262.043 105.021Z" fill="#04FCA3"/>
<path d="M277.013 106.358L279.376 91.3377L287.281 92.5815C288.302 92.7423 289.119 93.0653 289.731 93.5505C290.359 94.0233 290.789 94.6219 291.019 95.3462C291.251 96.0559 291.3 96.8413 291.164 97.7025C291.001 98.7389 290.627 99.5926 290.043 100.263C289.459 100.934 288.733 101.366 287.865 101.559L290.019 108.404L287.741 108.046L285.748 101.607L280.033 100.708L279.093 106.685L277.013 106.358ZM280.313 98.9342L285.94 99.8197C286.772 99.9506 287.461 99.7974 288.009 99.36C288.571 98.9249 288.922 98.2622 289.062 97.3718C289.149 96.8171 289.121 96.3339 288.976 95.9222C288.831 95.5106 288.578 95.1716 288.216 94.9052C287.857 94.6242 287.385 94.4378 286.801 94.3459L281.174 93.4604L280.313 98.9342Z" fill="#04FCA3"/>
<path d="M291.391 108.944L300.989 95.7098L303.673 96.3986L305.732 112.625L303.521 112.057L303.019 108.038L295.849 106.198L293.495 109.484L291.391 108.944ZM296.961 104.63L302.779 106.123L302.181 101.05C302.171 100.91 302.153 100.715 302.126 100.464C302.099 100.213 302.07 99.9384 302.04 99.6407C302.013 99.3288 301.986 99.0168 301.96 98.7048C301.936 98.3785 301.913 98.0827 301.89 97.8174L301.761 97.7843C301.587 98.0449 301.388 98.3446 301.164 98.6837C300.94 99.0228 300.717 99.3547 300.497 99.6794C300.28 99.9899 300.097 100.256 299.949 100.477L296.961 104.63Z" fill="#04FCA3"/>
<path d="M307.595 113.568L312.648 99.2278L314.634 99.9276L310.192 112.533L317.321 115.045L316.709 116.78L307.595 113.568Z" fill="#04FCA3"/>
<path d="M332.828 124.539L339.086 112.729L334.483 110.29L335.345 108.665L346.449 114.549L345.588 116.174L340.946 113.715L334.689 125.524L332.828 124.539Z" fill="#04FCA3"/>
<path d="M348.17 134.18C346.85 133.31 345.873 132.322 345.24 131.214C344.619 130.115 344.37 128.908 344.494 127.592C344.63 126.283 345.182 124.895 346.149 123.427C347.124 121.946 348.182 120.891 349.322 120.262C350.482 119.628 351.69 119.38 352.945 119.516C354.212 119.661 355.506 120.168 356.826 121.037C358.147 121.907 359.117 122.891 359.738 123.99C360.371 125.098 360.62 126.305 360.484 127.613C360.368 128.917 359.822 130.31 358.847 131.79C357.88 133.259 356.816 134.31 355.656 134.943C354.508 135.585 353.3 135.833 352.033 135.689C350.778 135.552 349.49 135.049 348.17 134.18ZM349.17 132.662C349.861 133.117 350.545 133.435 351.222 133.616C351.912 133.804 352.578 133.827 353.22 133.684C353.883 133.537 354.519 133.23 355.127 132.764C355.743 132.285 356.328 131.626 356.88 130.787L357.136 130.398C357.697 129.547 358.072 128.75 358.26 128.007C358.457 127.252 358.488 126.547 358.353 125.892C358.239 125.232 357.959 124.623 357.513 124.064C357.08 123.513 356.518 123.01 355.826 122.555C355.123 122.092 354.433 121.77 353.756 121.589C353.078 121.409 352.408 121.392 351.745 121.539C351.09 121.674 350.455 121.981 349.838 122.459C349.243 122.934 348.664 123.597 348.104 124.449L347.847 124.837C347.295 125.676 346.914 126.47 346.705 127.217C346.517 127.959 346.486 128.664 346.612 129.332C346.747 129.987 347.031 130.59 347.464 131.141C347.898 131.691 348.466 132.199 349.17 132.662Z" fill="#04FCA3"/>
<path d="M356.001 139.601L365.533 127.755L367.174 129.075L362.129 135.343L373.2 133.925L375.238 135.564L366.923 136.669L365.861 147.535L363.909 145.965L364.839 136.926L360.587 137.26L357.641 140.921L356.001 139.601Z" fill="#04FCA3"/>
<path d="M367.458 149.384L378.032 138.457L386.442 146.595L385.178 147.901L378.281 141.228L375.013 144.604L381.209 150.6L379.945 151.906L373.749 145.91L370.235 149.542L377.227 156.308L375.964 157.614L367.458 149.384Z" fill="#04FCA3"/>
<path d="M377.96 160.135L389.524 150.262L390.848 151.813L388.021 163.932C388.002 164.045 387.963 164.205 387.905 164.41C387.847 164.615 387.789 164.82 387.731 165.025C387.684 165.22 387.634 165.389 387.58 165.532L387.638 165.599C387.818 165.446 387.992 165.297 388.161 165.153C388.34 165 388.515 164.851 388.683 164.707L396.303 158.202L397.641 159.77L386.077 169.642L384.825 168.176L387.729 155.875C387.786 155.691 387.859 155.424 387.95 155.075C388.05 154.737 388.124 154.46 388.173 154.243L388.101 154.159C387.921 154.313 387.741 154.466 387.561 154.62C387.393 154.763 387.218 154.912 387.039 155.066L379.284 161.686L377.96 160.135Z" fill="#04FCA3"/>
<path d="M397.593 177.758L399.263 176.707L402.251 181.452L400.582 182.504L397.593 177.758Z" fill="#04FCA3"/>
<path d="M405.569 203.727C405.106 202.704 404.911 201.754 404.985 200.878C405.078 200.008 405.453 199.206 406.11 198.471C406.786 197.743 407.75 197.096 409.002 196.53C410.254 195.963 411.37 195.669 412.349 195.647C413.335 195.639 414.188 195.894 414.909 196.411C415.636 196.942 416.233 197.726 416.702 198.762C417.031 199.489 417.22 200.158 417.27 200.768C417.325 201.392 417.25 201.961 417.045 202.475C416.84 202.99 416.518 203.444 416.079 203.837C415.647 204.243 415.101 204.596 414.441 204.894L413.628 203.097C414.247 202.817 414.713 202.501 415.024 202.149C415.355 201.805 415.532 201.408 415.556 200.96C415.593 200.505 415.478 199.981 415.21 199.389C414.942 198.796 414.576 198.346 414.112 198.037C413.661 197.722 413.101 197.578 412.432 197.605C411.763 197.632 410.964 197.855 410.035 198.276L409.611 198.468C408.736 198.864 408.058 199.3 407.577 199.778C407.101 200.268 406.827 200.79 406.752 201.343C406.678 201.895 406.781 202.481 407.061 203.101C407.335 203.706 407.662 204.142 408.042 204.408C408.428 204.688 408.86 204.817 409.337 204.796C409.82 204.788 410.344 204.656 410.909 204.4L411.695 206.137C411.103 206.405 410.511 206.567 409.92 206.624C409.336 206.694 408.776 206.639 408.24 206.46C407.705 206.28 407.208 205.97 406.749 205.529C406.303 205.082 405.91 204.481 405.569 203.727Z" fill="#04FCA3"/>
<path d="M409.461 212.665L423.79 207.578L424.494 209.562L411.899 214.034L414.429 221.156L412.695 221.772L409.461 212.665Z" fill="#04FCA3"/>
<path d="M413.699 225.771L428.417 221.955L431.12 232.383L429.361 232.839L427.186 224.45L422.466 225.673L424.446 233.311L422.708 233.762L420.728 226.124L414.227 227.809L413.699 225.771Z" fill="#04FCA3"/>
<path d="M430.625 237.787L432.763 237.403L433.108 239.323L430.97 239.706L430.625 237.787ZM416.99 240.233L428.466 238.174L428.81 240.094L417.335 242.152L416.99 240.233Z" fill="#04FCA3"/>
<path d="M424.352 259.23L426.322 259.128L426.613 264.728L424.643 264.83L424.352 259.23Z" fill="#04FCA3"/>
<path d="M418.403 288.14C418.546 286.595 418.948 285.311 419.607 284.289C420.28 283.269 421.218 282.525 422.419 282.058C423.633 281.607 425.13 281.464 426.911 281.63C429.544 281.875 431.449 282.698 432.625 284.098C433.8 285.499 434.282 287.339 434.07 289.62C433.949 290.914 433.629 292.042 433.109 293.003C432.604 293.965 431.899 294.686 430.994 295.166C430.102 295.661 429.016 295.85 427.736 295.731L427.933 293.612C428.816 293.694 429.562 293.571 430.171 293.241C430.779 292.927 431.254 292.444 431.597 291.794C431.954 291.144 432.175 290.363 432.26 289.451C432.359 288.392 432.237 287.461 431.897 286.657C431.556 285.854 430.97 285.213 430.139 284.735C429.323 284.258 428.238 283.957 426.884 283.831L426.42 283.788C425.082 283.663 423.967 283.76 423.077 284.078C422.201 284.397 421.53 284.913 421.063 285.627C420.594 286.355 420.31 287.256 420.21 288.33C420.123 289.272 420.187 290.094 420.404 290.797C420.619 291.514 420.996 292.084 421.536 292.505C422.089 292.942 422.806 293.202 423.689 293.284L423.498 295.336C422.189 295.215 421.142 294.82 420.358 294.154C419.573 293.502 419.021 292.657 418.702 291.618C418.383 290.579 418.283 289.42 418.403 288.14Z" fill="#04FCA3"/>
<path d="M415.726 304.549C416.028 302.997 416.57 301.717 417.352 300.71C418.132 299.717 419.154 299.028 420.418 298.641C421.68 298.269 423.173 298.25 424.9 298.585C426.64 298.923 428.019 299.499 429.035 300.314C430.062 301.146 430.752 302.168 431.104 303.38C431.452 304.607 431.476 305.996 431.175 307.548C430.874 309.1 430.333 310.372 429.553 311.365C428.771 312.372 427.749 313.062 426.487 313.434C425.238 313.824 423.742 313.849 422.002 313.512C420.276 313.176 418.899 312.593 417.871 311.761C416.841 310.944 416.151 309.922 415.802 308.695C415.45 307.483 415.425 306.101 415.726 304.549ZM417.511 304.895C417.353 305.708 417.32 306.461 417.41 307.156C417.498 307.866 417.731 308.49 418.108 309.03C418.496 309.587 419.022 310.058 419.685 310.443C420.362 310.83 421.194 311.12 422.181 311.311L422.638 311.4C423.638 311.594 424.518 311.637 425.277 311.528C426.05 311.422 426.714 311.183 427.268 310.809C427.834 310.452 428.291 309.961 428.638 309.336C428.982 308.725 429.233 308.014 429.391 307.202C429.551 306.375 429.586 305.614 429.495 304.919C429.404 304.224 429.165 303.598 428.776 303.041C428.402 302.487 427.876 302.016 427.199 301.628C426.533 301.258 425.7 300.976 424.699 300.782L424.242 300.693C423.256 300.501 422.377 300.451 421.607 300.543C420.848 300.651 420.185 300.891 419.616 301.262C419.062 301.636 418.612 302.129 418.268 302.739C417.924 303.35 417.671 304.068 417.511 304.895Z" fill="#04FCA3"/>
<path d="M413.677 313.886L428.277 318.133L427.688 320.155L414.855 316.421L412.744 323.678L410.978 323.165L413.677 313.886Z" fill="#04FCA3"/>
<path d="M409.433 327.027L423.626 332.481L422.87 334.447L410.395 329.653L407.683 336.708L405.966 336.048L409.433 327.027Z" fill="#04FCA3"/>
<path d="M404.896 338.165L415.922 350.236L414.706 352.726L398.397 351.468L399.4 349.417L403.437 349.737L406.686 343.085L403.943 340.117L404.896 338.165ZM407.998 344.491L405.361 349.888L410.451 350.326C410.59 350.345 410.785 350.366 411.036 350.39C411.287 350.414 411.562 350.442 411.86 350.472C412.171 350.509 412.481 350.546 412.792 350.582C413.117 350.626 413.411 350.663 413.676 350.693L413.734 350.574C413.514 350.351 413.26 350.096 412.974 349.807C412.687 349.519 412.407 349.234 412.133 348.953C411.873 348.678 411.649 348.445 411.462 348.255L407.998 344.491Z" fill="#04FCA3"/>
<path d="M395.192 356.26L406.615 363.197L409.319 358.745L410.891 359.7L404.368 370.442L402.795 369.487L405.522 364.997L394.099 358.059L395.192 356.26Z" fill="#04FCA3"/>
<path d="M388.933 365.72L401.155 374.766L394.193 384.173L392.732 383.091L398.441 375.377L394.664 372.582L389.535 379.512L388.074 378.431L393.204 371.501L389.142 368.494L383.353 376.315L381.892 375.234L388.933 365.72Z" fill="#04FCA3"/>
<path d="M379.656 377.545L390.962 387.711L385.612 393.661C384.921 394.43 384.205 394.939 383.465 395.188C382.726 395.457 381.99 395.491 381.257 395.289C380.536 395.097 379.851 394.71 379.202 394.127C378.422 393.426 377.91 392.647 377.666 391.792C377.421 390.936 377.455 390.092 377.767 389.26L370.853 387.335L372.394 385.621L378.879 387.458L382.747 383.157L378.248 379.111L379.656 377.545ZM384.082 384.357L380.274 388.593C379.711 389.219 379.463 389.881 379.532 390.578C379.59 391.287 379.955 391.942 380.625 392.545C381.043 392.92 381.463 393.16 381.887 393.263C382.311 393.366 382.734 393.338 383.154 393.18C383.586 393.031 383.999 392.737 384.394 392.298L388.203 388.062L384.082 384.357Z" fill="#04FCA3"/>
<path d="M369.653 388.192L375.52 403.452L373.48 405.327L358.752 398.212L360.433 396.667L364.076 398.436L369.526 393.426L368.054 389.662L369.653 388.192ZM370.235 395.213L365.813 399.278L370.392 401.541C370.515 401.609 370.689 401.7 370.914 401.814C371.139 401.929 371.385 402.054 371.651 402.191C371.927 402.338 372.204 402.486 372.48 402.633C372.766 402.792 373.027 402.934 373.262 403.058L373.36 402.968C373.236 402.681 373.093 402.351 372.931 401.978C372.769 401.605 372.612 401.238 372.46 400.876C372.318 400.525 372.194 400.227 372.09 399.982L370.235 395.213Z" fill="#04FCA3"/>
<path d="M356.947 399.259L366.218 411.311L364.549 412.594L356.399 402.001L350.409 406.61L349.287 405.152L356.947 399.259Z" fill="#04FCA3"/>
<path d="M333.999 414.441L340.492 426.123L345.044 423.593L345.938 425.201L334.953 431.306L334.06 429.698L338.651 427.146L332.158 415.464L333.999 414.441Z" fill="#04FCA3"/>
<path d="M317.555 422.051C319.003 421.418 320.364 421.138 321.638 421.21C322.897 421.288 324.045 421.738 325.082 422.559C326.104 423.386 326.968 424.605 327.672 426.216C328.382 427.841 328.691 429.302 328.597 430.601C328.496 431.919 328.047 433.067 327.248 434.045C326.437 435.029 325.306 435.838 323.858 436.471C322.409 437.104 321.055 437.382 319.795 437.303C318.522 437.231 317.374 436.781 316.351 435.954C315.321 435.147 314.45 433.931 313.74 432.306C313.036 430.695 312.734 429.23 312.835 427.912C312.923 426.6 313.373 425.452 314.184 424.468C314.982 423.49 316.106 422.685 317.555 422.051ZM318.283 423.717C317.524 424.048 316.885 424.449 316.365 424.918C315.83 425.393 315.448 425.939 315.218 426.556C314.98 427.192 314.891 427.892 314.951 428.657C315.017 429.434 315.251 430.283 315.653 431.204L315.84 431.63C316.248 432.565 316.712 433.313 317.232 433.876C317.758 434.452 318.333 434.862 318.956 435.106C319.571 435.37 320.234 435.467 320.945 435.397C321.643 435.334 322.372 435.137 323.13 434.805C323.902 434.468 324.548 434.065 325.068 433.595C325.589 433.126 325.968 432.573 326.206 431.937C326.45 431.314 326.539 430.614 326.473 429.837C326.4 429.078 326.159 428.232 325.75 427.298L325.564 426.872C325.161 425.951 324.704 425.199 324.191 424.617C323.671 424.054 323.097 423.644 322.468 423.387C321.846 423.143 321.185 423.053 320.487 423.116C319.789 423.179 319.054 423.379 318.283 423.717Z" fill="#04FCA3"/>
<path d="M308.742 425.663L313.481 440.111L311.48 440.767L308.972 433.122L304.13 443.178L301.644 443.993L305.249 436.42L296.716 429.608L299.096 428.827L306.169 434.532L308.206 430.784L306.741 426.32L308.742 425.663Z" fill="#04FCA3"/>
<path d="M294.297 429.941L297.698 444.76L286.291 447.378L285.885 445.606L295.239 443.46L294.188 438.88L285.784 440.809L285.378 439.037L293.781 437.109L292.651 432.183L283.167 434.359L282.761 432.588L294.297 429.941Z" fill="#04FCA3"/>
<path d="M279.559 432.889L281.536 447.965L279.514 448.23L270.893 439.256C270.809 439.178 270.696 439.059 270.556 438.898C270.416 438.738 270.275 438.577 270.135 438.417C269.997 438.271 269.882 438.137 269.792 438.015L269.704 438.026C269.735 438.261 269.764 438.488 269.793 438.707C269.824 438.942 269.854 439.169 269.882 439.389L271.185 449.322L269.141 449.59L267.164 434.514L269.076 434.264L277.808 443.401C277.932 443.549 278.115 443.756 278.359 444.022C278.588 444.29 278.78 444.504 278.935 444.662L279.044 444.648C279.014 444.413 278.983 444.179 278.952 443.944C278.923 443.725 278.894 443.498 278.863 443.263L277.537 433.154L279.559 432.889Z" fill="#04FCA3"/>
<path d="M244.742 440.013L244.714 441.985L239.106 441.905L239.135 439.933L244.742 440.013Z" fill="#04FCA3"/>
<path fill-rule="evenodd" clip-rule="evenodd" d="M254.5 411.279C332.802 411.279 396.279 347.802 396.279 269.5C396.279 191.198 332.802 127.721 254.5 127.721C176.198 127.721 112.721 191.198 112.721 269.5C112.721 347.802 176.198 411.279 254.5 411.279ZM254.5 415.01C334.863 415.01 400.01 349.863 400.01 269.5C400.01 189.137 334.863 123.99 254.5 123.99C174.137 123.99 108.99 189.137 108.99 269.5C108.99 349.863 174.137 415.01 254.5 415.01Z" fill="#04FCA3"/>
<path d="M306.586 247.079L306.484 247.029C305.4 246.462 304.113 247.029 303.708 248.192C302.917 250.479 301.296 252.523 298.833 253.808L259.207 274.552C256.268 276.1 252.752 276.1 249.803 274.552L210.177 253.808C207.714 252.523 206.093 250.479 205.302 248.192C204.907 247.039 203.61 246.462 202.526 247.029L202.424 247.079C198.462 249.154 198.462 254.81 202.424 256.884L251.921 282.799C253.532 283.639 255.458 283.639 257.069 282.799L306.576 256.884C310.538 254.81 310.538 249.154 306.576 247.079H306.586Z" fill="#04FCA3"/>
<path d="M306.586 228.491L306.484 228.441C305.4 227.874 304.113 228.441 303.708 229.604C302.917 231.891 301.296 233.935 298.833 235.22L259.207 255.964C256.268 257.512 252.752 257.512 249.803 255.964L210.167 235.22C207.704 233.935 206.083 231.891 205.292 229.604C204.897 228.451 203.6 227.874 202.516 228.441L202.414 228.491C198.452 230.566 198.452 236.222 202.414 238.296L251.911 264.211C253.522 265.051 255.448 265.051 257.059 264.211L306.566 238.296C310.528 236.222 310.528 230.566 306.566 228.491H306.586Z" fill="#04FCA3"/>
<path d="M202.422 219.32L205.898 221.131L211.442 224.036L222.154 229.631L228.964 233.203L253.114 245.832C253.986 246.287 255.03 246.287 255.901 245.832L263.502 241.855C267.465 239.78 267.465 234.124 263.502 232.05L240.517 220.018L239.149 219.3C235.339 217.296 235.197 211.984 238.723 209.748C238.855 209.657 239.007 209.576 239.149 209.495L267.809 194.499C269.948 193.375 269.948 190.319 267.809 189.206L257.077 183.611C255.465 182.771 253.54 182.771 251.929 183.611L202.422 209.515C198.459 211.579 198.459 217.246 202.422 219.32Z" fill="#04FCA3"/>
<path d="M260.9 209.508C258.853 210.58 257.86 212.614 257.941 214.618C258.012 216.47 258.995 218.281 260.869 219.293C260.88 219.293 260.89 219.303 260.9 219.313L281.159 229.918C281.159 229.918 281.179 229.918 281.189 229.928C282.78 230.768 284.685 230.768 286.287 229.928C286.287 229.928 286.307 229.928 286.317 229.918L286.854 229.634L297.566 224.018L306.586 219.313C306.586 219.313 306.606 219.303 306.616 219.293C310.548 217.208 310.538 211.572 306.586 209.508L286.317 198.893C286.246 198.863 286.185 198.822 286.104 198.792C286.074 198.772 286.043 198.762 286.013 198.741C284.594 197.993 282.892 197.993 281.473 198.741C281.473 198.741 281.402 198.772 281.382 198.792C281.311 198.822 281.24 198.863 281.169 198.893L260.91 209.508H260.9Z" fill="#04FCA3"/>
<path d="M220.917 352.653C218.431 352.653 216.355 352.197 214.687 351.284C213.02 350.34 211.761 348.909 210.912 346.99C210.094 345.071 209.685 342.632 209.685 339.675C209.685 336.718 210.109 334.295 210.959 332.407C211.808 330.488 213.067 329.057 214.734 328.113C216.433 327.169 218.51 326.697 220.964 326.697C222.663 326.697 224.141 326.917 225.4 327.358C226.658 327.767 227.728 328.396 228.609 329.245C229.49 330.063 230.135 331.086 230.544 332.313C230.984 333.54 231.204 334.94 231.204 336.513H226.249C226.249 335.192 226.06 334.106 225.683 333.257C225.305 332.407 224.723 331.778 223.937 331.369C223.15 330.929 222.128 330.708 220.869 330.708C219.548 330.708 218.431 331.023 217.519 331.652C216.606 332.25 215.914 333.178 215.442 334.437C214.97 335.664 214.734 337.284 214.734 339.297V340.1C214.734 342.019 214.955 343.623 215.395 344.913C215.867 346.172 216.559 347.116 217.471 347.745C218.415 348.343 219.611 348.641 221.058 348.641C222.317 348.641 223.323 348.421 224.078 347.981C224.865 347.509 225.447 346.848 225.825 345.999C226.234 345.118 226.438 344.064 226.438 342.837H231.204C231.204 344.316 230.984 345.653 230.544 346.848C230.135 348.044 229.49 349.082 228.609 349.963C227.759 350.812 226.69 351.473 225.4 351.945C224.11 352.417 222.615 352.653 220.917 352.653Z" fill="#04FCA3"/>
<path d="M238.797 352.087V319.713H244.083V347.509H260.223V352.087H238.797Z" fill="#04FCA3"/>
<path d="M266.802 352.087V319.713H289.927V324.243H272.088V333.823H288.228V338.306H272.088V352.087H266.802Z" fill="#04FCA3"/>
<path d="M296.958 322.969V317.966H301.866V322.969H296.958ZM296.958 352.087V327.263H301.866V352.087H296.958Z" fill="#04FCA3"/>
</svg>
