<svg width="36" height="36" viewBox="0 0 36 36" fill="none" xmlns="http://www.w3.org/2000/svg">
<path d="M12.177 20.6129C12.33 19.5119 12.654 18.4409 13.134 17.4389V17.4359C13.17 17.3579 13.209 17.2829 13.248 17.2049C14.598 14.5589 16.974 12.5819 19.821 11.7329C20.16 11.6309 20.517 11.8259 20.616 12.1649C20.619 12.1769 20.622 12.1859 20.625 12.1979C20.865 13.2029 21.873 13.8239 22.878 13.5839C23.016 13.5509 23.151 13.5029 23.28 13.4369C23.127 9.95094 21.198 6.77994 18.168 5.03994C18.096 4.99794 18.021 4.95594 17.949 4.91694C17.874 4.87794 17.802 4.83894 17.727 4.79994C17.652 4.76094 17.577 4.72494 17.502 4.68894C17.313 4.59894 17.124 4.51494 16.932 4.43694C16.854 4.40694 16.779 4.37694 16.701 4.34694C16.47 4.25994 16.236 4.18194 15.999 4.10994C15.921 4.08594 15.84 4.06494 15.762 4.04394C15.405 3.94794 15.045 3.87294 14.682 3.81294L14.439 3.77694C13.995 3.71694 13.545 3.68994 13.098 3.68994C12.855 3.68994 12.609 3.69894 12.366 3.71694C12.285 3.72294 12.204 3.72894 12.123 3.73794L12 3.74994C11.919 3.75894 11.838 3.76794 11.757 3.77994L11.637 3.79794C11.556 3.80994 11.475 3.82194 11.394 3.83694C11.355 3.84294 11.313 3.85194 11.274 3.85794L11.184 3.87594L11.004 3.91194L10.914 3.92994C10.833 3.94794 10.755 3.96594 10.674 3.98694C10.596 4.00494 10.515 4.02594 10.437 4.04694L10.317 4.07994C10.236 4.10094 10.158 4.12494 10.08 4.14894C9.96303 4.18494 9.84603 4.22394 9.72903 4.26594C9.65103 4.29294 9.57303 4.32294 9.49503 4.34994C9.41703 4.37694 9.34203 4.40994 9.26403 4.43994C9.18603 4.46994 9.11103 4.50294 9.03603 4.53594C8.96103 4.56894 8.88303 4.60194 8.80803 4.63794L8.69403 4.69194C8.61903 4.72794 8.54403 4.76394 8.46903 4.80294C8.39403 4.84194 8.32203 4.88094 8.24703 4.91994L8.15703 4.96794C8.10603 4.99794 8.05203 5.02494 8.00103 5.05494C7.97403 5.06994 7.95003 5.08494 7.92303 5.09994C7.87203 5.12994 7.82103 5.15994 7.77003 5.19294C7.71903 5.22294 7.66803 5.25594 7.61703 5.28894C7.51503 5.35494 7.41603 5.42094 7.31703 5.48994C7.19403 5.57694 7.07103 5.66394 6.94803 5.75694C6.92103 5.77794 6.89103 5.79894 6.86403 5.81994C6.83103 5.84694 6.79503 5.87394 6.76203 5.89794C6.69603 5.95194 6.62703 6.00594 6.56103 6.05994C6.49503 6.11694 6.42903 6.17094 6.36303 6.22794C6.29703 6.28494 6.23403 6.34494 6.16803 6.40194C6.07203 6.49194 5.97903 6.58194 5.88603 6.67494C1.90803 10.6529 1.90803 17.1029 5.88603 21.0809C6.10503 21.2999 6.32703 21.5039 6.56103 21.6989C6.62703 21.7529 6.69303 21.8099 6.76203 21.8609C6.79503 21.8879 6.82803 21.9149 6.86403 21.9419C6.88803 21.9629 6.91503 21.9809 6.93903 22.0019C7.01703 22.0589 7.09203 22.1159 7.17003 22.1729C7.23903 22.2209 7.30803 22.2719 7.38003 22.3199C7.45203 22.3679 7.52103 22.4129 7.59303 22.4609L7.67403 22.5119C7.75503 22.5629 7.83603 22.6109 7.91703 22.6589C8.02503 22.7219 8.13603 22.7849 8.24403 22.8449C8.31903 22.8839 8.39103 22.9229 8.46603 22.9619C9.16503 23.3189 9.90303 23.5919 10.668 23.7779C10.749 23.7989 10.827 23.8169 10.908 23.8319C11.343 23.9279 11.787 23.9939 12.231 24.0299C12.036 22.9019 12.015 21.7469 12.177 20.6129ZM16.584 8.48394C16.935 8.13594 17.499 8.13594 17.85 8.48394C18.198 8.83494 18.198 9.39894 17.85 9.74994C17.502 10.0979 16.935 10.0979 16.584 9.74994C16.233 9.40194 16.233 8.83494 16.584 8.48394C16.581 8.48394 16.581 8.48394 16.584 8.48394ZM7.39803 20.7059L7.23903 20.5679C7.20903 20.5409 7.17303 20.5109 7.14003 20.4809L7.03203 20.3759C6.95703 20.3009 6.87303 20.2199 6.78003 20.1269C6.68703 20.0339 6.60003 19.9289 6.50103 19.8179C6.45003 19.7639 6.40203 19.7039 6.35403 19.6409L6.20103 19.4489C6.17403 19.4159 6.14703 19.3829 6.12303 19.3499C6.09903 19.3169 6.07503 19.2809 6.04803 19.2449L5.89203 19.0259L5.85303 18.9689C5.84103 18.9479 5.82903 18.9299 5.81703 18.9089L5.74203 18.7889L5.58603 18.5399L5.43903 18.2729C5.41503 18.2279 5.38803 18.1829 5.36403 18.1349C5.34003 18.0899 5.31603 18.0419 5.29503 17.9939L5.15703 17.7029C5.11203 17.6039 5.07303 17.5019 5.02803 17.3969L4.96203 17.2409C4.94103 17.1869 4.92303 17.1359 4.90503 17.0819C4.86603 16.9739 4.83003 16.8659 4.79103 16.7579C4.75803 16.6469 4.72503 16.5329 4.69203 16.4219L4.66803 16.3379C4.65903 16.3109 4.65303 16.2809 4.64403 16.2509C4.62903 16.1939 4.61703 16.1339 4.60203 16.0769C4.58703 16.0199 4.57503 15.9599 4.56003 15.9029L4.53903 15.8159L4.52103 15.7259C4.50003 15.6059 4.47903 15.4859 4.45503 15.3659C4.38003 14.8769 4.34103 14.3849 4.33803 13.8899C4.34103 13.3949 4.38303 12.9029 4.45503 12.4139C4.47603 12.2939 4.50003 12.1739 4.52103 12.0539L4.53903 11.9639L4.56003 11.8769C4.57503 11.8169 4.58703 11.7599 4.60203 11.7029C4.65303 11.4689 4.72503 11.2439 4.79103 11.0219C4.83003 10.9139 4.86903 10.8029 4.90503 10.6949C4.92303 10.6409 4.94103 10.5869 4.96203 10.5359C4.98303 10.4849 5.00403 10.4309 5.02803 10.3799C5.07003 10.2779 5.11203 10.1759 5.15703 10.0769C5.20203 9.97794 5.25003 9.88194 5.29503 9.78594C5.31903 9.73794 5.34003 9.68994 5.36403 9.64494C5.38803 9.59994 5.41503 9.55494 5.43903 9.50994C5.49003 9.41994 5.53803 9.32994 5.58603 9.24294L5.73903 8.99394L5.81403 8.87394L5.85303 8.81394L5.89203 8.75694L6.04803 8.53494C6.07503 8.49894 6.09903 8.46294 6.12303 8.42994C6.14703 8.39694 6.17703 8.36394 6.20103 8.33094L6.35403 8.13894C6.40203 8.07594 6.45003 8.01594 6.50103 7.96194C6.60003 7.85094 6.69303 7.74594 6.78003 7.65294C6.87003 7.55994 6.95403 7.47894 7.03203 7.40394L7.14003 7.29894C7.17603 7.26594 7.20903 7.23894 7.23903 7.21194L7.39803 7.07394L7.53003 6.95994L7.42503 7.09794L7.29603 7.26594L7.21503 7.37094C7.18803 7.40994 7.15803 7.44894 7.12803 7.49094L6.92403 7.76994C6.85503 7.87494 6.78003 7.98894 6.69903 8.10894C6.65703 8.16894 6.62103 8.23194 6.57903 8.30094L6.45603 8.50494C6.43503 8.54094 6.41403 8.57394 6.39303 8.60994L6.33303 8.72094L6.20703 8.94894L6.17703 9.00594L6.14703 9.06594C6.12603 9.10494 6.10803 9.14694 6.08703 9.18894L5.96403 9.44094C5.92503 9.52794 5.88603 9.61794 5.84703 9.70794L5.78703 9.84594C5.76603 9.89094 5.75103 9.93894 5.73303 9.98694C5.69703 10.0799 5.66103 10.1759 5.62203 10.2719C5.58603 10.3679 5.55603 10.4699 5.52003 10.5689L5.46903 10.7189C5.45103 10.7699 5.43903 10.8209 5.42403 10.8719L5.33403 11.1839C5.30703 11.2889 5.28303 11.3969 5.25603 11.5049L5.23503 11.5859C5.22603 11.6129 5.22303 11.6399 5.21703 11.6669C5.20503 11.7209 5.19603 11.7779 5.18403 11.8319C5.13603 12.0509 5.10603 12.2789 5.07003 12.5039C5.01303 12.9629 4.98003 13.4279 4.97703 13.8899C4.98003 14.3519 5.01003 14.8169 5.06703 15.2759C5.10303 15.5009 5.13303 15.7289 5.18103 15.9479L5.21403 16.1129L5.23203 16.1939L5.25303 16.2749C5.28003 16.3829 5.30403 16.4909 5.33103 16.5959L5.42103 16.9079C5.43603 16.9589 5.45103 17.0129 5.46603 17.0609C5.48103 17.1089 5.49903 17.1629 5.51703 17.2109C5.55003 17.3099 5.58303 17.4119 5.61903 17.5079C5.65503 17.6039 5.69403 17.6999 5.73003 17.7929C5.74803 17.8409 5.76603 17.8889 5.78403 17.9339C5.80203 17.9789 5.82303 18.0239 5.84403 18.0689C5.88303 18.1589 5.92203 18.2489 5.96103 18.3359L6.08403 18.5879C6.10503 18.6299 6.12303 18.6689 6.14403 18.7109L6.17403 18.7709C6.18603 18.7919 6.19503 18.8099 6.20703 18.8309L6.33303 19.0589L6.39303 19.1699C6.41403 19.2059 6.43503 19.2419 6.45603 19.2749L6.57903 19.4789C6.61803 19.5449 6.65703 19.6109 6.69603 19.6679C6.77703 19.7879 6.85203 19.9019 6.92103 20.0069L7.12503 20.2889C7.15503 20.3309 7.18503 20.3729 7.21203 20.4089L7.29303 20.5139L7.42203 20.6789L7.52703 20.8169L7.39803 20.7059ZM7.71003 13.2509C7.35003 13.6109 6.76503 13.6109 6.40503 13.2509C6.04503 12.8909 6.04503 12.3059 6.40503 11.9459C6.76503 11.5859 7.35003 11.5859 7.71003 11.9459C8.07003 12.3059 8.07003 12.8909 7.71003 13.2509ZM14.937 12.7109C15.351 13.1249 15.351 13.7999 14.937 14.2139C14.523 14.6279 13.848 14.6279 13.434 14.2139C13.02 13.7999 13.02 13.1249 13.434 12.7109C13.848 12.2969 14.523 12.2969 14.937 12.7109ZM10.251 20.0639C9.89103 20.4239 9.30903 20.4239 8.95203 20.0639C8.59203 19.7039 8.59203 19.1219 8.95203 18.7649C9.31203 18.4049 9.89403 18.4049 10.251 18.7649C10.611 19.1219 10.611 19.7039 10.251 20.0639ZM10.68 15.6899C10.437 15.9329 10.044 15.9329 9.80103 15.6899C9.55803 15.4469 9.55803 15.0539 9.80103 14.8109C10.044 14.5679 10.437 14.5679 10.68 14.8109C10.92 15.0539 10.92 15.4469 10.68 15.6899ZM11.148 7.98294C11.682 7.44894 12.546 7.44894 13.08 7.98294C13.614 8.51694 13.614 9.38094 13.08 9.91494C12.546 10.4489 11.682 10.4489 11.148 9.91494C10.644 9.38994 10.671 8.53494 11.148 7.98294Z" fill="#04FCA3"/>
<path d="M28.374 13.5239C28.365 13.5419 28.353 13.5599 28.344 13.5749L28.317 13.6199C28.308 13.6349 28.296 13.6499 28.287 13.6679C28.278 13.6859 28.263 13.7039 28.251 13.7219C28.242 13.7339 28.236 13.7459 28.227 13.7549C28.215 13.7699 28.203 13.7879 28.191 13.8029C28.176 13.8239 28.158 13.8479 28.14 13.8689L28.086 13.9319C28.068 13.9529 28.05 13.9739 28.032 13.9919C28.014 14.0099 27.993 14.0309 27.975 14.0519C27.957 14.0729 27.945 14.0819 27.93 14.0969C27.918 14.1089 27.909 14.1179 27.897 14.1269C27.885 14.1359 27.87 14.1509 27.858 14.1629L27.795 14.2169C27.774 14.2349 27.753 14.2529 27.732 14.2679C27.711 14.2829 27.687 14.3009 27.666 14.3159C27.645 14.3309 27.621 14.3489 27.6 14.3639C27.579 14.3789 27.555 14.3939 27.531 14.4089C27.507 14.4239 27.486 14.4389 27.462 14.4509C27.438 14.4629 27.414 14.4779 27.39 14.4929C27.12 14.6399 26.826 14.7389 26.523 14.7809C26.496 14.7839 26.469 14.7869 26.445 14.7899C25.512 14.8859 24.603 14.4539 24.087 13.6679C24.045 13.7039 24.003 13.7399 23.958 13.7729L23.931 13.7909C23.88 13.8269 23.829 13.8629 23.778 13.8959C23.748 13.9139 23.715 13.9349 23.682 13.9529C23.649 13.9709 23.616 13.9889 23.586 14.0039C23.556 14.0189 23.52 14.0369 23.487 14.0519C23.421 14.0819 23.355 14.1089 23.289 14.1329C23.265 14.1419 23.238 14.1509 23.214 14.1599C23.19 14.1689 23.166 14.1749 23.139 14.1839C22.917 14.2469 22.686 14.2799 22.455 14.2799C21.291 14.2799 20.28 13.4819 20.007 12.3479C19.74 12.4289 19.479 12.5189 19.221 12.6179C14.625 14.4059 11.964 19.2239 12.903 24.0659C12.945 24.2819 12.996 24.4949 13.05 24.7079C14.064 28.5599 17.298 31.6199 21.489 32.2079C21.549 32.2169 21.609 32.2229 21.669 32.2319C21.729 32.2409 21.789 32.2469 21.849 32.2529L21.939 32.2619C21.999 32.2679 22.059 32.2739 22.119 32.2769C22.179 32.2799 22.239 32.2859 22.299 32.2889C22.359 32.2919 22.419 32.2949 22.476 32.2979C22.623 32.3039 22.773 32.3069 22.92 32.3069C27.918 32.3069 32.28 28.6259 32.997 23.5349C33.009 23.4449 33.021 23.3549 33.03 23.2649L33.048 23.0849C33.054 23.0249 33.06 22.9649 33.063 22.9049C33.066 22.8449 33.072 22.7909 33.075 22.7309V22.7219C33.078 22.6649 33.081 22.6049 33.084 22.5479C33.237 18.8429 31.368 15.4349 28.374 13.5239ZM18.204 25.6859C18.309 24.9389 18.999 24.4169 19.746 24.5219C20.493 24.6269 21.015 25.3169 20.91 26.0639C20.805 26.8109 20.115 27.3329 19.368 27.2279C18.618 27.1229 18.096 26.4329 18.204 25.6859C18.201 25.6859 18.201 25.6859 18.204 25.6859ZM20.859 21.3569C20.94 20.7749 21.477 20.3699 22.059 20.4509C22.641 20.5319 23.046 21.0689 22.965 21.6509C22.884 22.2329 22.347 22.6379 21.765 22.5569C21.183 22.4759 20.778 21.9389 20.859 21.3569ZM20.238 17.6669C20.424 18.0839 20.322 18.5699 19.986 18.8789C19.773 19.0739 19.491 19.1729 19.2 19.1549C19.173 19.1549 19.146 19.1519 19.119 19.1459C18.54 19.0649 18.135 18.5279 18.216 17.9489C18.297 17.3699 18.834 16.9649 19.413 17.0459C19.779 17.0969 20.088 17.3309 20.238 17.6669ZM16.743 20.8139C17.232 20.8859 17.571 21.3389 17.499 21.8279C17.427 22.3139 16.98 22.6499 16.494 22.5839L16.464 22.5779C15.978 22.4909 15.654 22.0229 15.744 21.5369C15.828 21.0689 16.269 20.7479 16.743 20.8139ZM23.493 31.3679L23.283 31.3829C23.241 31.3859 23.199 31.3889 23.151 31.3919L23.001 31.3949C22.896 31.3949 22.776 31.3979 22.647 31.3979C22.518 31.3919 22.38 31.3829 22.233 31.3769C22.158 31.3739 22.083 31.3649 22.002 31.3559L21.759 31.3289C21.717 31.3229 21.675 31.3199 21.633 31.3139L21.504 31.2929L21.237 31.2479L21.168 31.2359L21.099 31.2209L20.961 31.1879L20.676 31.1219L20.385 31.0379L20.235 30.9929C20.184 30.9779 20.136 30.9599 20.085 30.9419L19.782 30.8339C19.68 30.7949 19.578 30.7529 19.476 30.7109L19.32 30.6449C19.269 30.6239 19.218 30.5969 19.167 30.5729L18.855 30.4229C18.753 30.3689 18.651 30.3119 18.546 30.2549L18.468 30.2129C18.441 30.1979 18.417 30.1829 18.39 30.1679L18.237 30.0749C18.186 30.0449 18.135 30.0119 18.084 29.9819L18.006 29.9339L17.931 29.8829L17.631 29.6759C16.827 29.0969 16.125 28.3919 15.543 27.5879L15.336 27.2879L15.285 27.2129L15.237 27.1349C15.207 27.0839 15.174 27.0329 15.144 26.9819C15.015 26.7809 14.907 26.5709 14.796 26.3669C14.745 26.2619 14.697 26.1599 14.646 26.0549C14.622 26.0039 14.595 25.9529 14.574 25.9019C14.553 25.8509 14.532 25.7969 14.511 25.7459C14.469 25.6409 14.424 25.5419 14.388 25.4399C14.352 25.3379 14.316 25.2359 14.28 25.1369C14.262 25.0859 14.244 25.0379 14.229 24.9869C14.214 24.9359 14.199 24.8879 14.184 24.8369C14.166 24.7799 14.151 24.7199 14.133 24.6629C14.121 24.6239 14.109 24.5819 14.1 24.5429C14.076 24.4469 14.055 24.3509 14.034 24.2579C14.022 24.2099 14.013 24.1649 14.001 24.1199L13.986 24.0509C13.986 24.0449 13.983 24.0389 13.983 24.0329L13.974 23.9819C13.959 23.8919 13.944 23.8019 13.929 23.7149C13.92 23.6699 13.914 23.6279 13.908 23.5859C13.902 23.5439 13.896 23.5019 13.893 23.4599C13.884 23.3759 13.875 23.2949 13.866 23.2169C13.857 23.1389 13.848 23.0609 13.845 22.9859C13.836 22.8359 13.83 22.6979 13.824 22.5719V22.0679C13.824 22.0199 13.83 21.9779 13.833 21.9359C13.839 21.8549 13.845 21.7859 13.848 21.7289C13.857 21.6149 13.863 21.5549 13.863 21.5549C13.863 21.5549 13.872 21.6149 13.887 21.7259C13.893 21.7829 13.902 21.8519 13.911 21.9329C13.917 21.9749 13.923 22.0169 13.926 22.0649C13.929 22.1129 13.941 22.1609 13.95 22.2119C13.968 22.3139 13.986 22.4279 14.004 22.5539C14.031 22.6769 14.058 22.8119 14.085 22.9529C14.097 23.0249 14.118 23.0969 14.136 23.1719C14.154 23.2469 14.172 23.3219 14.193 23.4029C14.202 23.4419 14.211 23.4839 14.223 23.5229C14.235 23.5619 14.247 23.6039 14.259 23.6429C14.283 23.7239 14.307 23.8079 14.331 23.8919L14.349 23.9549C14.352 23.9669 14.358 23.9789 14.361 23.9909L14.37 24.0179L14.415 24.1469C14.445 24.2339 14.475 24.3239 14.505 24.4139L14.58 24.6089L14.61 24.6869L14.664 24.8249C14.682 24.8699 14.703 24.9149 14.724 24.9629C14.766 25.0559 14.805 25.1489 14.847 25.2419C14.889 25.3349 14.937 25.4279 14.985 25.5239L15.057 25.6679C15.081 25.7159 15.108 25.7609 15.132 25.8089L15.288 26.0939C15.345 26.1869 15.402 26.2829 15.462 26.3759L15.504 26.4479L15.549 26.5199L15.642 26.6609C15.762 26.8499 15.903 27.0299 16.038 27.2159C16.602 27.9539 17.262 28.6109 17.997 29.1749C18.183 29.3099 18.363 29.4479 18.552 29.5679L18.693 29.6609L18.765 29.7059L18.837 29.7479C18.933 29.8049 19.026 29.8619 19.119 29.9189L19.404 30.0749C19.452 30.0989 19.497 30.1289 19.545 30.1499L19.689 30.2219C19.785 30.2669 19.878 30.3179 19.971 30.3599L20.25 30.4829C20.295 30.5039 20.34 30.5249 20.388 30.5429L20.526 30.5969L20.796 30.7019L21.063 30.7919L21.192 30.8369L21.255 30.8579L21.318 30.8759L21.567 30.9479L21.687 30.9839C21.726 30.9959 21.768 31.0049 21.807 31.0139C21.885 31.0349 21.963 31.0529 22.038 31.0709C22.113 31.0889 22.185 31.1099 22.257 31.1219C22.398 31.1519 22.533 31.1759 22.656 31.2029L22.998 31.2569L23.145 31.2809L23.274 31.2959L23.481 31.3199L23.655 31.3439L23.493 31.3679ZM26.424 27.8429C26.352 28.3469 25.887 28.6979 25.383 28.6289C24.879 28.5599 24.528 28.0919 24.597 27.5879C24.669 27.0839 25.134 26.7329 25.638 26.8019C26.142 26.8739 26.496 27.3389 26.424 27.8429ZM25.098 23.4929C25.146 23.1539 25.461 22.9169 25.8 22.9649C26.139 23.0129 26.376 23.3279 26.328 23.6669C26.28 24.0059 25.965 24.2429 25.626 24.1949C25.287 24.1469 25.053 23.8319 25.098 23.4929ZM26.679 18.8399C26.574 19.5809 25.89 20.0969 25.152 19.9919C24.411 19.8869 23.895 19.2029 24 18.4649C24.105 17.7239 24.789 17.2079 25.527 17.3129C26.268 17.4149 26.784 18.0989 26.679 18.8399ZM30.333 21.7079C30.264 22.2119 29.799 22.5599 29.295 22.4909C28.791 22.4219 28.443 21.9569 28.512 21.4529C28.581 20.9519 29.046 20.6009 29.55 20.6699C30.054 20.7419 30.402 21.2069 30.333 21.7079Z" fill="#04FCA3"/>
</svg>
