<svg width="36" height="36" viewBox="0 0 36 36" fill="none" xmlns="http://www.w3.org/2000/svg">
<path d="M12.1771 20.6129C12.3301 19.5119 12.6541 18.4409 13.1341 17.4389V17.4359C13.1701 17.3579 13.2091 17.2829 13.2481 17.2049C14.5981 14.5589 16.9741 12.5819 19.8211 11.7329C20.1601 11.6309 20.5171 11.8259 20.6161 12.1649C20.6191 12.1769 20.6221 12.1859 20.6251 12.1979C20.8651 13.2029 21.8731 13.8239 22.8781 13.5839C23.0161 13.5509 23.1511 13.5029 23.2801 13.4369C23.1271 9.95094 21.1981 6.77994 18.1681 5.03994C18.0961 4.99794 18.0211 4.95594 17.9491 4.91694C17.8741 4.87794 17.8021 4.83894 17.7271 4.79994C17.6521 4.76094 17.5771 4.72494 17.5021 4.68894C17.3131 4.59894 17.1241 4.51494 16.9321 4.43694C16.8541 4.40694 16.7791 4.37694 16.7011 4.34694C16.4701 4.25994 16.2361 4.18194 15.9991 4.10994C15.9211 4.08594 15.8401 4.06494 15.7621 4.04394C15.4051 3.94794 15.0451 3.87294 14.6821 3.81294L14.4391 3.77694C13.9951 3.71694 13.5451 3.68994 13.0981 3.68994C12.8551 3.68994 12.6091 3.69894 12.3661 3.71694C12.2851 3.72294 12.2041 3.72894 12.1231 3.73794L12.0001 3.74994C11.9191 3.75894 11.8381 3.76794 11.7571 3.77994L11.6371 3.79794C11.5561 3.80994 11.4751 3.82194 11.3941 3.83694C11.3551 3.84294 11.3131 3.85194 11.2741 3.85794L11.1841 3.87594L11.0041 3.91194L10.9141 3.92994C10.8331 3.94794 10.7551 3.96594 10.6741 3.98694C10.5961 4.00494 10.5151 4.02594 10.4371 4.04694L10.3171 4.07994C10.2361 4.10094 10.1581 4.12494 10.0801 4.14894C9.96309 4.18494 9.84609 4.22394 9.72909 4.26594C9.65109 4.29294 9.57309 4.32294 9.49509 4.34994C9.41709 4.37694 9.34209 4.40994 9.26409 4.43994C9.18609 4.46994 9.11109 4.50294 9.03609 4.53594C8.96109 4.56894 8.88309 4.60194 8.80809 4.63794L8.69409 4.69194C8.61909 4.72794 8.54409 4.76394 8.46909 4.80294C8.39409 4.84194 8.32209 4.88094 8.24709 4.91994L8.15709 4.96794C8.10609 4.99794 8.05209 5.02494 8.00109 5.05494C7.97409 5.06994 7.95009 5.08494 7.92309 5.09994C7.87209 5.12994 7.82109 5.15994 7.77009 5.19294C7.71909 5.22294 7.66809 5.25594 7.61709 5.28894C7.51509 5.35494 7.41609 5.42094 7.31709 5.48994C7.19409 5.57694 7.07109 5.66394 6.94809 5.75694C6.92109 5.77794 6.89109 5.79894 6.86409 5.81994C6.83109 5.84694 6.79509 5.87394 6.76209 5.89794C6.69609 5.95194 6.62709 6.00594 6.56109 6.05994C6.49509 6.11694 6.42909 6.17094 6.36309 6.22794C6.29709 6.28494 6.23409 6.34494 6.16809 6.40194C6.07209 6.49194 5.97909 6.58194 5.88609 6.67494C1.90809 10.6529 1.90809 17.1029 5.88609 21.0809C6.10509 21.2999 6.32709 21.5039 6.56109 21.6989C6.62709 21.7529 6.69309 21.8099 6.76209 21.8609C6.79509 21.8879 6.82809 21.9149 6.86409 21.9419C6.88809 21.9629 6.91509 21.9809 6.93909 22.0019C7.01709 22.0589 7.09209 22.1159 7.17009 22.1729C7.23909 22.2209 7.30809 22.2719 7.38009 22.3199C7.45209 22.3679 7.52109 22.4129 7.59309 22.4609L7.67409 22.5119C7.75509 22.5629 7.83609 22.6109 7.91709 22.6589C8.02509 22.7219 8.13609 22.7849 8.24409 22.8449C8.31909 22.8839 8.39109 22.9229 8.46609 22.9619C9.16509 23.3189 9.90309 23.5919 10.6681 23.7779C10.7491 23.7989 10.8271 23.8169 10.9081 23.8319C11.3431 23.9279 11.7871 23.9939 12.2311 24.0299C12.0361 22.9019 12.0151 21.7469 12.1771 20.6129ZM16.5841 8.48394C16.9351 8.13594 17.4991 8.13594 17.8501 8.48394C18.1981 8.83494 18.1981 9.39894 17.8501 9.74994C17.5021 10.0979 16.9351 10.0979 16.5841 9.74994C16.2331 9.40194 16.2331 8.83494 16.5841 8.48394C16.5811 8.48394 16.5811 8.48394 16.5841 8.48394ZM7.39809 20.7059L7.23909 20.5679C7.20909 20.5409 7.17309 20.5109 7.14009 20.4809L7.03209 20.3759C6.95709 20.3009 6.87309 20.2199 6.78009 20.1269C6.68709 20.0339 6.60009 19.9289 6.50109 19.8179C6.45009 19.7639 6.40209 19.7039 6.35409 19.6409L6.20109 19.4489C6.17409 19.4159 6.14709 19.3829 6.12309 19.3499C6.09909 19.3169 6.07509 19.2809 6.04809 19.2449L5.89209 19.0259L5.85309 18.9689C5.84109 18.9479 5.82909 18.9299 5.81709 18.9089L5.74209 18.7889L5.58609 18.5399L5.43909 18.2729C5.41509 18.2279 5.38809 18.1829 5.36409 18.1349C5.34009 18.0899 5.31609 18.0419 5.29509 17.9939L5.15709 17.7029C5.11209 17.6039 5.07309 17.5019 5.02809 17.3969L4.96209 17.2409C4.94109 17.1869 4.92309 17.1359 4.90509 17.0819C4.86609 16.9739 4.83009 16.8659 4.79109 16.7579C4.75809 16.6469 4.72509 16.5329 4.69209 16.4219L4.66809 16.3379C4.65909 16.3109 4.65309 16.2809 4.64409 16.2509C4.62909 16.1939 4.61709 16.1339 4.60209 16.0769C4.58709 16.0199 4.57509 15.9599 4.56009 15.9029L4.53909 15.8159L4.52109 15.7259C4.50009 15.6059 4.47909 15.4859 4.45509 15.3659C4.38009 14.8769 4.34109 14.3849 4.33809 13.8899C4.34109 13.3949 4.38309 12.9029 4.45509 12.4139C4.47609 12.2939 4.50009 12.1739 4.52109 12.0539L4.53909 11.9639L4.56009 11.8769C4.57509 11.8169 4.58709 11.7599 4.60209 11.7029C4.65309 11.4689 4.72509 11.2439 4.79109 11.0219C4.83009 10.9139 4.86909 10.8029 4.90509 10.6949C4.92309 10.6409 4.94109 10.5869 4.96209 10.5359C4.98309 10.4849 5.00409 10.4309 5.02809 10.3799C5.07009 10.2779 5.11209 10.1759 5.15709 10.0769C5.20209 9.97794 5.25009 9.88194 5.29509 9.78594C5.31909 9.73794 5.34009 9.68994 5.36409 9.64494C5.38809 9.59994 5.41509 9.55494 5.43909 9.50994C5.49009 9.41994 5.53809 9.32994 5.58609 9.24294L5.73909 8.99394L5.81409 8.87394L5.85309 8.81394L5.89209 8.75694L6.04809 8.53494C6.07509 8.49894 6.09909 8.46294 6.12309 8.42994C6.14709 8.39694 6.17709 8.36394 6.20109 8.33094L6.35409 8.13894C6.40209 8.07594 6.45009 8.01594 6.50109 7.96194C6.60009 7.85094 6.69309 7.74594 6.78009 7.65294C6.87009 7.55994 6.95409 7.47894 7.03209 7.40394L7.14009 7.29894C7.17609 7.26594 7.20909 7.23894 7.23909 7.21194L7.39809 7.07394L7.53009 6.95994L7.42509 7.09794L7.29609 7.26594L7.21509 7.37094C7.18809 7.40994 7.15809 7.44894 7.12809 7.49094L6.92409 7.76994C6.85509 7.87494 6.78009 7.98894 6.69909 8.10894C6.65709 8.16894 6.62109 8.23194 6.57909 8.30094L6.45609 8.50494C6.43509 8.54094 6.41409 8.57394 6.39309 8.60994L6.33309 8.72094L6.20709 8.94894L6.17709 9.00594L6.14709 9.06594C6.12609 9.10494 6.10809 9.14694 6.08709 9.18894L5.96409 9.44094C5.92509 9.52794 5.88609 9.61794 5.84709 9.70794L5.78709 9.84594C5.76609 9.89094 5.75109 9.93894 5.73309 9.98694C5.69709 10.0799 5.66109 10.1759 5.62209 10.2719C5.58609 10.3679 5.55609 10.4699 5.52009 10.5689L5.46909 10.7189C5.45109 10.7699 5.43909 10.8209 5.42409 10.8719L5.33409 11.1839C5.30709 11.2889 5.28309 11.3969 5.25609 11.5049L5.23509 11.5859C5.22609 11.6129 5.22309 11.6399 5.21709 11.6669C5.20509 11.7209 5.19609 11.7779 5.18409 11.8319C5.13609 12.0509 5.10609 12.2789 5.07009 12.5039C5.01309 12.9629 4.98009 13.4279 4.97709 13.8899C4.98009 14.3519 5.01009 14.8169 5.06709 15.2759C5.10309 15.5009 5.13309 15.7289 5.18109 15.9479L5.21409 16.1129L5.23209 16.1939L5.25309 16.2749C5.28009 16.3829 5.30409 16.4909 5.33109 16.5959L5.42109 16.9079C5.43609 16.9589 5.45109 17.0129 5.46609 17.0609C5.48109 17.1089 5.49909 17.1629 5.51709 17.2109C5.55009 17.3099 5.58309 17.4119 5.61909 17.5079C5.65509 17.6039 5.69409 17.6999 5.73009 17.7929C5.74809 17.8409 5.76609 17.8889 5.78409 17.9339C5.80209 17.9789 5.82309 18.0239 5.84409 18.0689C5.88309 18.1589 5.92209 18.2489 5.96109 18.3359L6.08409 18.5879C6.10509 18.6299 6.12309 18.6689 6.14409 18.7109L6.17409 18.7709C6.18609 18.7919 6.19509 18.8099 6.20709 18.8309L6.33309 19.0589L6.39309 19.1699C6.41409 19.2059 6.43509 19.2419 6.45609 19.2749L6.57909 19.4789C6.61809 19.5449 6.65709 19.6109 6.69609 19.6679C6.77709 19.7879 6.85209 19.9019 6.92109 20.0069L7.12509 20.2889C7.15509 20.3309 7.18509 20.3729 7.21209 20.4089L7.29309 20.5139L7.42209 20.6789L7.52709 20.8169L7.39809 20.7059ZM7.71009 13.2509C7.35009 13.6109 6.76509 13.6109 6.40509 13.2509C6.04509 12.8909 6.04509 12.3059 6.40509 11.9459C6.76509 11.5859 7.35009 11.5859 7.71009 11.9459C8.07009 12.3059 8.07009 12.8909 7.71009 13.2509ZM14.9371 12.7109C15.3511 13.1249 15.3511 13.7999 14.9371 14.2139C14.5231 14.6279 13.8481 14.6279 13.4341 14.2139C13.0201 13.7999 13.0201 13.1249 13.4341 12.7109C13.8481 12.2969 14.5231 12.2969 14.9371 12.7109ZM10.2511 20.0639C9.89109 20.4239 9.30909 20.4239 8.95209 20.0639C8.59209 19.7039 8.59209 19.1219 8.95209 18.7649C9.31209 18.4049 9.89409 18.4049 10.2511 18.7649C10.6111 19.1219 10.6111 19.7039 10.2511 20.0639ZM10.6801 15.6899C10.4371 15.9329 10.0441 15.9329 9.80109 15.6899C9.55809 15.4469 9.55809 15.0539 9.80109 14.8109C10.0441 14.5679 10.4371 14.5679 10.6801 14.8109C10.9201 15.0539 10.9201 15.4469 10.6801 15.6899ZM11.1481 7.98294C11.6821 7.44894 12.5461 7.44894 13.0801 7.98294C13.6141 8.51694 13.6141 9.38094 13.0801 9.91494C12.5461 10.4489 11.6821 10.4489 11.1481 9.91494C10.6441 9.38994 10.6711 8.53494 11.1481 7.98294Z" fill="#72F4FA"/>
<path d="M28.3739 13.5239C28.3649 13.5419 28.3529 13.5599 28.3439 13.5749L28.3169 13.6199C28.3079 13.6349 28.2959 13.6499 28.2869 13.6679C28.2779 13.6859 28.2629 13.7039 28.2509 13.7219C28.2419 13.7339 28.2359 13.7459 28.2269 13.7549C28.2149 13.7699 28.2029 13.7879 28.1909 13.8029C28.1759 13.8239 28.1579 13.8479 28.1399 13.8689L28.0859 13.9319C28.0679 13.9529 28.0499 13.9739 28.0319 13.9919C28.0139 14.0099 27.9929 14.0309 27.9749 14.0519C27.9569 14.0729 27.9449 14.0819 27.9299 14.0969C27.9179 14.1089 27.9089 14.1179 27.8969 14.1269C27.8849 14.1359 27.8699 14.1509 27.8579 14.1629L27.7949 14.2169C27.7739 14.2349 27.7529 14.2529 27.7319 14.2679C27.7109 14.2829 27.6869 14.3009 27.6659 14.3159C27.6449 14.3309 27.6209 14.3489 27.5999 14.3639C27.5789 14.3789 27.5549 14.3939 27.5309 14.4089C27.5069 14.4239 27.4859 14.4389 27.4619 14.4509C27.4379 14.4629 27.4139 14.4779 27.3899 14.4929C27.1199 14.6399 26.8259 14.7389 26.5229 14.7809C26.4959 14.7839 26.4689 14.7869 26.4449 14.7899C25.5119 14.8859 24.6029 14.4539 24.0869 13.6679C24.0449 13.7039 24.0029 13.7399 23.9579 13.7729L23.9309 13.7909C23.8799 13.8269 23.8289 13.8629 23.7779 13.8959C23.7479 13.9139 23.7149 13.9349 23.6819 13.9529C23.6489 13.9709 23.6159 13.9889 23.5859 14.0039C23.5559 14.0189 23.5199 14.0369 23.4869 14.0519C23.4209 14.0819 23.3549 14.1089 23.2889 14.1329C23.2649 14.1419 23.2379 14.1509 23.2139 14.1599C23.1899 14.1689 23.1659 14.1749 23.1389 14.1839C22.9169 14.2469 22.6859 14.2799 22.4549 14.2799C21.2909 14.2799 20.2799 13.4819 20.0069 12.3479C19.7399 12.4289 19.4789 12.5189 19.2209 12.6179C14.6249 14.4059 11.9639 19.2239 12.9029 24.0659C12.9449 24.2819 12.9959 24.4949 13.0499 24.7079C14.0639 28.5599 17.2979 31.6199 21.4889 32.2079C21.5489 32.2169 21.6089 32.2229 21.6689 32.2319C21.7289 32.2409 21.7889 32.2469 21.8489 32.2529L21.9389 32.2619C21.9989 32.2679 22.0589 32.2739 22.1189 32.2769C22.1789 32.2799 22.2389 32.2859 22.2989 32.2889C22.3589 32.2919 22.4189 32.2949 22.4759 32.2979C22.6229 32.3039 22.7729 32.3069 22.9199 32.3069C27.9179 32.3069 32.2799 28.6259 32.9969 23.5349C33.0089 23.4449 33.0209 23.3549 33.0299 23.2649L33.0479 23.0849C33.0539 23.0249 33.0599 22.9649 33.0629 22.9049C33.0659 22.8449 33.0719 22.7909 33.0749 22.7309V22.7219C33.0779 22.6649 33.0809 22.6049 33.0839 22.5479C33.2369 18.8429 31.3679 15.4349 28.3739 13.5239ZM18.2039 25.6859C18.3089 24.9389 18.9989 24.4169 19.7459 24.5219C20.4929 24.6269 21.0149 25.3169 20.9099 26.0639C20.8049 26.8109 20.1149 27.3329 19.3679 27.2279C18.6179 27.1229 18.0959 26.4329 18.2039 25.6859C18.2009 25.6859 18.2009 25.6859 18.2039 25.6859ZM20.8589 21.3569C20.9399 20.7749 21.4769 20.3699 22.0589 20.4509C22.6409 20.5319 23.0459 21.0689 22.9649 21.6509C22.8839 22.2329 22.3469 22.6379 21.7649 22.5569C21.1829 22.4759 20.7779 21.9389 20.8589 21.3569ZM20.2379 17.6669C20.4239 18.0839 20.3219 18.5699 19.9859 18.8789C19.7729 19.0739 19.4909 19.1729 19.1999 19.1549C19.1729 19.1549 19.1459 19.1519 19.1189 19.1459C18.5399 19.0649 18.1349 18.5279 18.2159 17.9489C18.2969 17.3699 18.8339 16.9649 19.4129 17.0459C19.7789 17.0969 20.0879 17.3309 20.2379 17.6669ZM16.7429 20.8139C17.2319 20.8859 17.5709 21.3389 17.4989 21.8279C17.4269 22.3139 16.9799 22.6499 16.4939 22.5839L16.4639 22.5779C15.9779 22.4909 15.6539 22.0229 15.7439 21.5369C15.8279 21.0689 16.2689 20.7479 16.7429 20.8139ZM23.4929 31.3679L23.2829 31.3829C23.2409 31.3859 23.1989 31.3889 23.1509 31.3919L23.0009 31.3949C22.8959 31.3949 22.7759 31.3979 22.6469 31.3979C22.5179 31.3919 22.3799 31.3829 22.2329 31.3769C22.1579 31.3739 22.0829 31.3649 22.0019 31.3559L21.7589 31.3289C21.7169 31.3229 21.6749 31.3199 21.6329 31.3139L21.5039 31.2929L21.2369 31.2479L21.1679 31.2359L21.0989 31.2209L20.9609 31.1879L20.6759 31.1219L20.3849 31.0379L20.2349 30.9929C20.1839 30.9779 20.1359 30.9599 20.0849 30.9419L19.7819 30.8339C19.6799 30.7949 19.5779 30.7529 19.4759 30.7109L19.3199 30.6449C19.2689 30.6239 19.2179 30.5969 19.1669 30.5729L18.8549 30.4229C18.7529 30.3689 18.6509 30.3119 18.5459 30.2549L18.4679 30.2129C18.4409 30.1979 18.4169 30.1829 18.3899 30.1679L18.2369 30.0749C18.1859 30.0449 18.1349 30.0119 18.0839 29.9819L18.0059 29.9339L17.9309 29.8829L17.6309 29.6759C16.8269 29.0969 16.1249 28.3919 15.5429 27.5879L15.3359 27.2879L15.2849 27.2129L15.2369 27.1349C15.2069 27.0839 15.1739 27.0329 15.1439 26.9819C15.0149 26.7809 14.9069 26.5709 14.7959 26.3669C14.7449 26.2619 14.6969 26.1599 14.6459 26.0549C14.6219 26.0039 14.5949 25.9529 14.5739 25.9019C14.5529 25.8509 14.5319 25.7969 14.5109 25.7459C14.4689 25.6409 14.4239 25.5419 14.3879 25.4399C14.3519 25.3379 14.3159 25.2359 14.2799 25.1369C14.2619 25.0859 14.2439 25.0379 14.2289 24.9869C14.2139 24.9359 14.1989 24.8879 14.1839 24.8369C14.1659 24.7799 14.1509 24.7199 14.1329 24.6629C14.1209 24.6239 14.1089 24.5819 14.0999 24.5429C14.0759 24.4469 14.0549 24.3509 14.0339 24.2579C14.0219 24.2099 14.0129 24.1649 14.0009 24.1199L13.9859 24.0509C13.9859 24.0449 13.9829 24.0389 13.9829 24.0329L13.9739 23.9819C13.9589 23.8919 13.9439 23.8019 13.9289 23.7149C13.9199 23.6699 13.9139 23.6279 13.9079 23.5859C13.9019 23.5439 13.8959 23.5019 13.8929 23.4599C13.8839 23.3759 13.8749 23.2949 13.8659 23.2169C13.8569 23.1389 13.8479 23.0609 13.8449 22.9859C13.8359 22.8359 13.8299 22.6979 13.8239 22.5719V22.0679C13.8239 22.0199 13.8299 21.9779 13.8329 21.9359C13.8389 21.8549 13.8449 21.7859 13.8479 21.7289C13.8569 21.6149 13.8629 21.5549 13.8629 21.5549C13.8629 21.5549 13.8719 21.6149 13.8869 21.7259C13.8929 21.7829 13.9019 21.8519 13.9109 21.9329C13.9169 21.9749 13.9229 22.0169 13.9259 22.0649C13.9289 22.1129 13.9409 22.1609 13.9499 22.2119C13.9679 22.3139 13.9859 22.4279 14.0039 22.5539C14.0309 22.6769 14.0579 22.8119 14.0849 22.9529C14.0969 23.0249 14.1179 23.0969 14.1359 23.1719C14.1539 23.2469 14.1719 23.3219 14.1929 23.4029C14.2019 23.4419 14.2109 23.4839 14.2229 23.5229C14.2349 23.5619 14.2469 23.6039 14.2589 23.6429C14.2829 23.7239 14.3069 23.8079 14.3309 23.8919L14.3489 23.9549C14.3519 23.9669 14.3579 23.9789 14.3609 23.9909L14.3699 24.0179L14.4149 24.1469C14.4449 24.2339 14.4749 24.3239 14.5049 24.4139L14.5799 24.6089L14.6099 24.6869L14.6639 24.8249C14.6819 24.8699 14.7029 24.9149 14.7239 24.9629C14.7659 25.0559 14.8049 25.1489 14.8469 25.2419C14.8889 25.3349 14.9369 25.4279 14.9849 25.5239L15.0569 25.6679C15.0809 25.7159 15.1079 25.7609 15.1319 25.8089L15.2879 26.0939C15.3449 26.1869 15.4019 26.2829 15.4619 26.3759L15.5039 26.4479L15.5489 26.5199L15.6419 26.6609C15.7619 26.8499 15.9029 27.0299 16.0379 27.2159C16.6019 27.9539 17.2619 28.6109 17.9969 29.1749C18.1829 29.3099 18.3629 29.4479 18.5519 29.5679L18.6929 29.6609L18.7649 29.7059L18.8369 29.7479C18.9329 29.8049 19.0259 29.8619 19.1189 29.9189L19.4039 30.0749C19.4519 30.0989 19.4969 30.1289 19.5449 30.1499L19.6889 30.2219C19.7849 30.2669 19.8779 30.3179 19.9709 30.3599L20.2499 30.4829C20.2949 30.5039 20.3399 30.5249 20.3879 30.5429L20.5259 30.5969L20.7959 30.7019L21.0629 30.7919L21.1919 30.8369L21.2549 30.8579L21.3179 30.8759L21.5669 30.9479L21.6869 30.9839C21.7259 30.9959 21.7679 31.0049 21.8069 31.0139C21.8849 31.0349 21.9629 31.0529 22.0379 31.0709C22.1129 31.0889 22.1849 31.1099 22.2569 31.1219C22.3979 31.1519 22.5329 31.1759 22.6559 31.2029L22.9979 31.2569L23.1449 31.2809L23.2739 31.2959L23.4809 31.3199L23.6549 31.3439L23.4929 31.3679ZM26.4239 27.8429C26.3519 28.3469 25.8869 28.6979 25.3829 28.6289C24.8789 28.5599 24.5279 28.0919 24.5969 27.5879C24.6689 27.0839 25.1339 26.7329 25.6379 26.8019C26.1419 26.8739 26.4959 27.3389 26.4239 27.8429ZM25.0979 23.4929C25.1459 23.1539 25.4609 22.9169 25.7999 22.9649C26.1389 23.0129 26.3759 23.3279 26.3279 23.6669C26.2799 24.0059 25.9649 24.2429 25.6259 24.1949C25.2869 24.1469 25.0529 23.8319 25.0979 23.4929ZM26.6789 18.8399C26.5739 19.5809 25.8899 20.0969 25.1519 19.9919C24.4109 19.8869 23.8949 19.2029 23.9999 18.4649C24.1049 17.7239 24.7889 17.2079 25.5269 17.3129C26.2679 17.4149 26.7839 18.0989 26.6789 18.8399ZM30.3329 21.7079C30.2639 22.2119 29.7989 22.5599 29.2949 22.4909C28.7909 22.4219 28.4429 21.9569 28.5119 21.4529C28.5809 20.9519 29.0459 20.6009 29.5499 20.6699C30.0539 20.7419 30.4019 21.2069 30.3329 21.7079Z" fill="#72F4FA"/>
</svg>
