<svg width="486" height="140" viewBox="0 0 486 140" fill="none" xmlns="http://www.w3.org/2000/svg">
<path d="M33.9148 112.836C27.0794 112.836 21.1622 111.306 16.1632 108.245C11.1641 105.185 7.33836 100.543 4.68581 94.3196C2.03327 88.0963 0.707002 80.1387 0.707002 70.4467C0.707002 60.9588 2.03327 53.1542 4.68581 47.0329C7.44038 40.8097 11.2662 36.1677 16.1632 33.1071C21.0602 30.0465 26.8243 28.5162 33.4557 28.5162C36.6183 28.5162 39.628 28.8732 42.4845 29.5874C45.4431 30.3015 48.0447 31.4237 50.2891 32.9541C52.6356 34.4844 54.625 36.3718 56.2573 38.6162H57.1755V0.205369H82.2727V111H61.7665L59.9301 99.8287H58.8589C56.1043 104.216 52.5846 107.48 48.2997 109.623C44.0148 111.765 39.2199 112.836 33.9148 112.836ZM41.7194 93.2484C45.3921 93.2484 48.3507 92.4322 50.5952 90.7999C52.9417 89.0655 54.625 86.668 55.6452 83.6074C56.7675 80.4448 57.3286 76.772 57.3286 72.5892V68.9164C57.3286 65.8558 57.0225 63.0502 56.4104 60.4997C55.7983 57.9492 54.8801 55.7557 53.6558 53.9193C52.4316 52.083 50.7992 50.6547 48.7588 49.6345C46.8204 48.6143 44.4739 48.1042 41.7194 48.1042C37.9446 48.1042 34.884 48.8693 32.5375 50.3996C30.293 51.9299 28.6607 54.1744 27.6405 57.133C26.6203 60.0916 26.1102 63.7644 26.1102 68.1512V73.5073C26.1102 77.7922 26.6203 81.414 27.6405 84.3726C28.6607 87.3312 30.293 89.5756 32.5375 91.1059C34.884 92.5342 37.9446 93.2484 41.7194 93.2484ZM93.7576 111L133.24 5.86753H166.141L205.623 111H176.395L170.12 92.7893H128.19L121.915 111H93.7576ZM134.77 72.2831H163.387L155.888 50.0936C155.48 48.9713 154.97 47.5941 154.358 45.9617C153.848 44.2274 153.287 42.442 152.675 40.6056C152.165 38.6672 151.654 36.7288 151.144 34.7904C150.634 32.852 150.124 31.1687 149.614 29.7404H148.543C148.135 31.6788 147.523 33.8722 146.706 36.3207C145.992 38.7692 145.227 41.2177 144.411 43.6662C143.697 46.1147 143.034 48.2572 142.422 50.0936L134.77 72.2831ZM216.998 139.464V30.3525H237.505L239.647 41.5238H240.718C243.473 36.9329 246.942 33.6172 251.124 31.5768C255.409 29.5364 260.153 28.5162 265.356 28.5162C272.192 28.5162 278.058 30.0465 282.955 33.1071C287.954 36.1677 291.78 40.8097 294.432 47.0329C297.085 53.2562 298.411 61.1628 298.411 70.7528C298.411 80.2407 297.085 88.0963 294.432 94.3196C291.78 100.543 288.005 105.185 283.108 108.245C278.211 111.306 272.447 112.836 265.815 112.836C262.551 112.836 259.49 112.479 256.634 111.765C253.777 111.051 251.175 109.929 248.829 108.398C246.584 106.868 244.646 104.981 243.014 102.736H242.096V139.464H216.998ZM257.552 93.2484C261.326 93.2484 264.336 92.4832 266.581 90.9529C268.927 89.4226 270.61 87.1781 271.631 84.2195C272.651 81.2609 273.161 77.6392 273.161 73.3543V67.9982C273.161 63.7133 272.651 60.0916 271.631 57.133C270.61 54.0724 268.927 51.8279 266.581 50.3996C264.336 48.8693 261.326 48.1042 257.552 48.1042C253.879 48.1042 250.869 48.9713 248.523 50.7057C246.278 52.338 244.595 54.7355 243.473 57.8982C242.453 60.9588 241.943 64.5805 241.943 68.7634V72.4361C241.943 75.4967 242.198 78.3023 242.708 80.8528C243.32 83.4034 244.238 85.5968 245.462 87.4332C246.789 89.2696 248.421 90.6979 250.359 91.7181C252.4 92.7383 254.797 93.2484 257.552 93.2484ZM314.487 139.464V30.3525H334.993L337.136 41.5238H338.207C340.961 36.9329 344.43 33.6172 348.613 31.5768C352.898 29.5364 357.642 28.5162 362.845 28.5162C369.68 28.5162 375.546 30.0465 380.443 33.1071C385.442 36.1677 389.268 40.8097 391.921 47.0329C394.573 53.2562 395.9 61.1628 395.9 70.7528C395.9 80.2407 394.573 88.0963 391.921 94.3196C389.268 100.543 385.493 105.185 380.596 108.245C375.699 111.306 369.935 112.836 363.304 112.836C360.039 112.836 356.979 112.479 354.122 111.765C351.265 111.051 348.664 109.929 346.317 108.398C344.073 106.868 342.135 104.981 340.502 102.736H339.584V139.464H314.487ZM355.04 93.2484C358.815 93.2484 361.825 92.4832 364.069 90.9529C366.416 89.4226 368.099 87.1781 369.119 84.2195C370.139 81.2609 370.649 77.6392 370.649 73.3543V67.9982C370.649 63.7133 370.139 60.0916 369.119 57.133C368.099 54.0724 366.416 51.8279 364.069 50.3996C361.825 48.8693 358.815 48.1042 355.04 48.1042C351.368 48.1042 348.358 48.9713 346.011 50.7057C343.767 52.338 342.084 54.7355 340.961 57.8982C339.941 60.9588 339.431 64.5805 339.431 68.7634V72.4361C339.431 75.4967 339.686 78.3023 340.196 80.8528C340.808 83.4034 341.727 85.5968 342.951 87.4332C344.277 89.2696 345.909 90.6979 347.848 91.7181C349.888 92.7383 352.286 93.2484 355.04 93.2484ZM446.408 112.836C441.102 112.836 436.103 112.275 431.41 111.153C426.82 110.031 422.739 108.398 419.168 106.256C415.699 104.114 412.945 101.461 410.904 98.2984C408.966 95.1358 407.997 91.463 407.997 87.2802C407.997 86.8721 407.997 86.515 407.997 86.2089C407.997 85.8009 408.048 85.4438 408.15 85.1377H431.87C431.87 85.3418 431.87 85.5968 431.87 85.9029C431.87 86.1069 431.87 86.311 431.87 86.515C431.972 88.7595 432.686 90.6468 434.012 92.1772C435.44 93.6054 437.277 94.6767 439.521 95.3908C441.766 96.0029 444.214 96.309 446.867 96.309C448.805 96.309 450.845 96.105 452.988 95.6969C455.232 95.2888 457.12 94.5746 458.65 93.5544C460.18 92.5342 460.946 91.0549 460.946 89.1165C460.946 86.9741 459.976 85.3418 458.038 84.2195C456.202 83.0973 453.702 82.1791 450.539 81.465C447.479 80.6488 444.163 79.8836 440.592 79.1695C437.022 78.3533 433.4 77.4351 429.727 76.4149C426.156 75.3947 422.841 74.0174 419.78 72.2831C416.821 70.4467 414.424 68.1002 412.588 65.2437C410.751 62.3871 409.833 58.7653 409.833 54.3784C409.833 49.6855 410.802 45.7067 412.741 42.442C414.781 39.0753 417.536 36.3718 421.004 34.3313C424.473 32.2909 428.452 30.8116 432.941 29.8934C437.532 28.9752 442.378 28.5162 447.479 28.5162C452.172 28.5162 456.61 28.9752 460.792 29.8934C465.077 30.8116 468.903 32.2399 472.27 34.1783C475.739 36.0147 478.442 38.4122 480.38 41.3708C482.319 44.2274 483.288 47.594 483.288 51.4708C483.288 51.9809 483.237 52.5421 483.135 53.1542C483.135 53.6643 483.135 54.0214 483.135 54.2254H459.568V53.0012C459.568 51.2668 459.007 49.8385 457.885 48.7163C456.763 47.5941 455.232 46.7269 453.294 46.1147C451.356 45.4006 449.213 45.0435 446.867 45.0435C445.336 45.0435 443.806 45.1966 442.276 45.5026C440.847 45.7067 439.521 46.0637 438.297 46.5738C437.073 46.9819 436.052 47.594 435.236 48.4102C434.522 49.2264 434.165 50.2466 434.165 51.4708C434.165 53.0012 434.828 54.2764 436.154 55.2966C437.481 56.2148 439.266 56.98 441.511 57.5921C443.857 58.2042 446.408 58.8674 449.162 59.5815C452.937 60.3977 456.916 61.2648 461.099 62.183C465.281 62.9992 469.209 64.2234 472.882 65.8558C476.657 67.3861 479.666 69.7326 481.911 72.8952C484.257 75.9558 485.431 80.1897 485.431 85.5968C485.431 90.6979 484.41 95.0337 482.37 98.6045C480.329 102.073 477.524 104.879 473.953 107.021C470.382 109.062 466.251 110.541 461.558 111.459C456.865 112.377 451.815 112.836 446.408 112.836Z" fill="white"/>
</svg>
