<svg width="763" height="85" viewBox="0 0 763 85" fill="none" xmlns="http://www.w3.org/2000/svg">
<path d="M0.207095 83V1.934H67.1131V18.454H21.3291V33.676H61.3311V49.842H21.3291V66.48H67.9391V83H0.207095ZM120.267 84.416C111.535 84.416 104.101 82.9213 97.9649 79.932C91.9076 76.864 87.3056 72.2227 84.1589 66.008C81.0122 59.7933 79.4389 51.9267 79.4389 42.408C79.4389 28.4053 82.9396 17.9427 89.9409 11.02C97.0209 4.01866 107.13 0.517993 120.267 0.517993C127.583 0.517993 134.073 1.77666 139.737 4.29399C145.401 6.73266 149.806 10.43 152.953 15.386C156.178 20.2633 157.791 26.36 157.791 33.676H137.141C137.141 30.2147 136.433 27.2647 135.017 24.826C133.68 22.3087 131.752 20.3813 129.235 19.044C126.796 17.7067 123.807 17.038 120.267 17.038C115.862 17.038 112.243 17.9427 109.411 19.752C106.579 21.5613 104.494 24.1573 103.157 27.54C101.82 30.9227 101.151 35.0133 101.151 39.812V45.122C101.151 49.9207 101.82 54.0507 103.157 57.512C104.494 60.8947 106.54 63.4907 109.293 65.3C112.125 67.0307 115.744 67.896 120.149 67.896C123.925 67.896 127.111 67.2667 129.707 66.008C132.382 64.7493 134.388 62.9007 135.725 60.462C137.141 57.9447 137.849 54.9553 137.849 51.494H157.791C157.791 58.81 156.218 64.9067 153.071 69.784C150.003 74.6613 145.637 78.3193 139.973 80.758C134.388 83.1967 127.819 84.416 120.267 84.416ZM211.149 84.416C202.26 84.416 194.629 82.882 188.257 79.814C181.964 76.6673 177.126 71.9867 173.743 65.772C170.361 59.5573 168.669 51.7693 168.669 42.408C168.669 33.0467 170.361 25.298 173.743 19.162C177.126 12.9473 181.964 8.306 188.257 5.238C194.629 2.09133 202.26 0.517993 211.149 0.517993C220.039 0.517993 227.63 2.09133 233.923 5.238C240.295 8.306 245.173 12.9473 248.555 19.162C251.938 25.298 253.629 33.0467 253.629 42.408C253.629 51.7693 251.938 59.5573 248.555 65.772C245.173 71.9867 240.295 76.6673 233.923 79.814C227.63 82.882 220.039 84.416 211.149 84.416ZM211.149 67.896C214.532 67.896 217.521 67.3847 220.117 66.362C222.713 65.3393 224.877 63.8447 226.607 61.878C228.417 59.9113 229.754 57.512 230.619 54.68C231.485 51.848 231.917 48.662 231.917 45.122V39.93C231.917 36.3113 231.485 33.086 230.619 30.254C229.754 27.422 228.417 25.0227 226.607 23.056C224.877 21.0893 222.713 19.5947 220.117 18.572C217.521 17.5493 214.532 17.038 211.149 17.038C207.688 17.038 204.659 17.5493 202.063 18.572C199.467 19.5947 197.304 21.0893 195.573 23.056C193.843 25.0227 192.545 27.422 191.679 30.254C190.814 33.086 190.381 36.3113 190.381 39.93V45.122C190.381 48.662 190.814 51.848 191.679 54.68C192.545 57.512 193.843 59.9113 195.573 61.878C197.304 63.8447 199.467 65.3393 202.063 66.362C204.659 67.3847 207.688 67.896 211.149 67.896ZM301.869 84.416C296.755 84.416 291.957 83.944 287.473 83C282.989 82.1347 279.016 80.6793 275.555 78.634C272.172 76.5887 269.497 73.914 267.531 70.61C265.564 67.2273 264.581 63.0973 264.581 58.22C264.581 57.9053 264.581 57.5513 264.581 57.158C264.581 56.7647 264.62 56.45 264.699 56.214H285.113C285.113 56.45 285.073 56.7647 284.995 57.158C284.995 57.4727 284.995 57.748 284.995 57.984C284.995 60.5013 285.624 62.5467 286.883 64.12C288.22 65.6147 290.069 66.716 292.429 67.424C294.789 68.0533 297.542 68.368 300.689 68.368C302.419 68.368 304.032 68.2893 305.527 68.132C307.021 67.9747 308.359 67.6993 309.539 67.306C310.719 66.9127 311.741 66.4407 312.607 65.89C313.551 65.2607 314.219 64.5527 314.613 63.766C315.085 62.9007 315.321 61.9173 315.321 60.816C315.321 59.0067 314.613 57.512 313.197 56.332C311.859 55.152 310.011 54.1687 307.651 53.382C305.369 52.5953 302.773 51.848 299.863 51.14C296.952 50.432 293.923 49.6847 290.777 48.898C287.63 48.1113 284.601 47.128 281.691 45.948C278.78 44.768 276.145 43.2733 273.785 41.464C271.503 39.6547 269.655 37.4127 268.239 34.738C266.901 31.9847 266.233 28.6807 266.233 24.826C266.233 20.578 267.137 16.92 268.947 13.852C270.756 10.7053 273.234 8.14866 276.381 6.182C279.606 4.21533 283.303 2.79933 287.473 1.934C291.642 0.989994 296.087 0.517993 300.807 0.517993C305.448 0.517993 309.775 0.989994 313.787 1.934C317.877 2.878 321.496 4.37266 324.643 6.41799C327.789 8.38466 330.228 10.902 331.959 13.97C333.768 16.9593 334.712 20.578 334.791 24.826V26.242H314.495V25.416C314.495 23.6067 313.983 22.0333 312.961 20.696C312.017 19.28 310.561 18.1787 308.595 17.392C306.628 16.5267 304.189 16.094 301.279 16.094C298.368 16.094 295.89 16.3693 293.845 16.92C291.878 17.4707 290.344 18.2573 289.243 19.28C288.22 20.3027 287.709 21.522 287.709 22.938C287.709 24.6687 288.377 26.0847 289.715 27.186C291.131 28.2873 293.019 29.2313 295.379 30.018C297.739 30.8047 300.374 31.552 303.285 32.26C306.195 32.8893 309.185 33.5973 312.253 34.384C315.399 35.092 318.428 36.036 321.339 37.216C324.249 38.3173 326.885 39.7727 329.245 41.582C331.605 43.3127 333.453 45.476 334.791 48.072C336.207 50.668 336.915 53.8147 336.915 57.512C336.915 63.9627 335.381 69.1547 332.313 73.088C329.323 77.0213 325.154 79.8927 319.805 81.702C314.534 83.5113 308.555 84.416 301.869 84.416ZM368.86 83V50.904L337.118 1.934H361.544L379.716 32.26H380.306L398.36 1.934H421.488L390.1 50.904V83H368.86ZM459.587 84.416C454.474 84.416 449.675 83.944 445.191 83C440.707 82.1347 436.735 80.6793 433.273 78.634C429.891 76.5887 427.216 73.914 425.249 70.61C423.283 67.2273 422.299 63.0973 422.299 58.22C422.299 57.9053 422.299 57.5513 422.299 57.158C422.299 56.7647 422.339 56.45 422.417 56.214H442.831C442.831 56.45 442.792 56.7647 442.713 57.158C442.713 57.4727 442.713 57.748 442.713 57.984C442.713 60.5013 443.343 62.5467 444.601 64.12C445.939 65.6147 447.787 66.716 450.147 67.424C452.507 68.0533 455.261 68.368 458.407 68.368C460.138 68.368 461.751 68.2893 463.245 68.132C464.74 67.9747 466.077 67.6993 467.257 67.306C468.437 66.9127 469.46 66.4407 470.325 65.89C471.269 65.2607 471.938 64.5527 472.331 63.766C472.803 62.9007 473.039 61.9173 473.039 60.816C473.039 59.0067 472.331 57.512 470.915 56.332C469.578 55.152 467.729 54.1687 465.369 53.382C463.088 52.5953 460.492 51.848 457.581 51.14C454.671 50.432 451.642 49.6847 448.495 48.898C445.349 48.1113 442.32 47.128 439.409 45.948C436.499 44.768 433.863 43.2733 431.503 41.464C429.222 39.6547 427.373 37.4127 425.957 34.738C424.62 31.9847 423.951 28.6807 423.951 24.826C423.951 20.578 424.856 16.92 426.665 13.852C428.475 10.7053 430.953 8.14866 434.099 6.182C437.325 4.21533 441.022 2.79933 445.191 1.934C449.361 0.989994 453.805 0.517993 458.525 0.517993C463.167 0.517993 467.493 0.989994 471.505 1.934C475.596 2.878 479.215 4.37266 482.361 6.41799C485.508 8.38466 487.947 10.902 489.677 13.97C491.487 16.9593 492.431 20.578 492.509 24.826V26.242H472.213V25.416C472.213 23.6067 471.702 22.0333 470.679 20.696C469.735 19.28 468.28 18.1787 466.313 17.392C464.347 16.5267 461.908 16.094 458.997 16.094C456.087 16.094 453.609 16.3693 451.563 16.92C449.597 17.4707 448.063 18.2573 446.961 19.28C445.939 20.3027 445.427 21.522 445.427 22.938C445.427 24.6687 446.096 26.0847 447.433 27.186C448.849 28.2873 450.737 29.2313 453.097 30.018C455.457 30.8047 458.093 31.552 461.003 32.26C463.914 32.8893 466.903 33.5973 469.971 34.384C473.118 35.092 476.147 36.036 479.057 37.216C481.968 38.3173 484.603 39.7727 486.963 41.582C489.323 43.3127 491.172 45.476 492.509 48.072C493.925 50.668 494.633 53.8147 494.633 57.512C494.633 63.9627 493.099 69.1547 490.031 73.088C487.042 77.0213 482.873 79.8927 477.523 81.702C472.253 83.5113 466.274 84.416 459.587 84.416ZM529.031 83V19.28H502.717V1.934H576.467V19.28H550.153V83H529.031ZM589.098 83V1.934H656.004V18.454H610.22V33.676H650.222V49.842H610.22V66.48H656.83V83H589.098ZM671.87 83V1.934H702.668L712.462 38.042C712.855 39.3007 713.327 41.0313 713.878 43.234C714.428 45.358 714.979 47.6 715.53 49.96C716.08 52.32 716.552 54.444 716.946 56.332H717.89C718.204 54.8373 718.598 53.0673 719.07 51.022C719.542 48.898 720.053 46.6953 720.604 44.414C721.154 42.054 721.666 39.8907 722.138 37.924L732.05 1.934H762.022V83H741.49V48.426C741.49 45.0433 741.49 41.6213 741.49 38.16C741.568 34.6987 741.647 31.552 741.726 28.72C741.804 25.888 741.844 23.8427 741.844 22.584H740.9C740.664 23.764 740.27 25.4947 739.72 27.776C739.248 29.9787 738.697 32.2993 738.068 34.738C737.517 37.098 737.006 39.1433 736.534 40.874L724.734 83H707.742L695.824 40.874C695.43 39.3007 694.958 37.4127 694.408 35.21C693.857 33.0073 693.306 30.7653 692.756 28.484C692.284 26.2027 691.851 24.2753 691.458 22.702H690.514C690.592 24.7473 690.671 27.2647 690.75 30.254C690.828 33.1647 690.907 36.2327 690.986 39.458C691.064 42.6047 691.104 45.594 691.104 48.426V83H671.87Z" fill="#F1F4F8"/>
</svg>
