<svg width="104" height="104" viewBox="0 0 104 104" fill="none" xmlns="http://www.w3.org/2000/svg">
<path fill-rule="evenodd" clip-rule="evenodd" d="M104 52C104 80.7188 80.7188 104 52 104C23.2812 104 0 80.7188 0 52C0 23.2812 23.2812 0 52 0C80.7188 0 104 23.2812 104 52ZM52 102C79.6142 102 102 79.6142 102 52C102 24.3858 79.6142 2 52 2C24.3858 2 2 24.3858 2 52C2 79.6142 24.3858 102 52 102Z" fill="#04FCA3"/>
<path fill-rule="evenodd" clip-rule="evenodd" d="M52 90C72.9868 90 90 72.9868 90 52C90 31.0132 72.9868 14 52 14C31.0132 14 14 31.0132 14 52C14 72.9868 31.0132 90 52 90ZM52 91C73.5391 91 91 73.5391 91 52C91 30.4609 73.5391 13 52 13C30.4609 13 13 30.4609 13 52C13 73.5391 30.4609 91 52 91Z" fill="#04FCA3"/>
<path d="M70.0574 57.1773L70.0224 57.1598C69.6473 56.9637 69.2021 57.1598 69.0619 57.5623C68.7884 58.3533 68.2275 59.0604 67.3757 59.5049L53.6689 66.6803C52.6523 67.2158 51.4358 67.2158 50.4157 66.6803L36.7089 59.5049C35.857 59.0604 35.2962 58.3533 35.0227 57.5623C34.886 57.1633 34.4373 56.9637 34.0622 57.1598L34.0271 57.1773C32.6565 57.8948 32.6565 59.8514 34.0271 60.5689L51.1484 69.533C51.7058 69.8235 52.3718 69.8235 52.9292 69.533L70.0539 60.5689C71.4246 59.8514 71.4246 57.8948 70.0539 57.1773H70.0574Z" fill="#04FCA3"/>
<path d="M70.0574 50.7474L70.0224 50.7299C69.6473 50.5339 69.2021 50.7299 69.0619 51.1324C68.7884 51.9235 68.2275 52.6305 67.3757 53.075L53.6689 60.2505C52.6523 60.786 51.4358 60.786 50.4157 60.2505L36.7054 53.075C35.8535 52.6305 35.2926 51.9235 35.0192 51.1324C34.8825 50.7334 34.4338 50.5339 34.0587 50.7299L34.0236 50.7474C32.6529 51.465 32.6529 53.4216 34.0236 54.1391L51.1449 63.1031C51.7023 63.3936 52.3683 63.3936 52.9257 63.1031L70.0504 54.1391C71.4211 53.4216 71.4211 51.465 70.0504 50.7474H70.0574Z" fill="#04FCA3"/>
<path d="M34.0263 47.5751L35.2287 48.2016L37.1463 49.2062L40.8517 51.1418L43.2074 52.3774L51.5612 56.7456C51.8627 56.9031 52.2238 56.9031 52.5253 56.7456L55.1544 55.37C56.5251 54.6525 56.5251 52.6959 55.1544 51.9784L47.2038 47.8166L46.7305 47.5681C45.4124 46.8751 45.3634 45.0375 46.5833 44.2639C46.6194 44.239 46.6598 44.2163 46.6994 44.194C46.7099 44.1881 46.7203 44.1823 46.7305 44.1764L56.6443 38.9891C57.384 38.6006 57.384 37.5435 56.6443 37.1585L52.9319 35.2229C52.3745 34.9324 51.7085 34.9324 51.1511 35.2229L34.0263 44.1834C32.6557 44.8974 32.6557 46.8576 34.0263 47.5751Z" fill="#04FCA3"/>
<path d="M54.2543 44.181C53.5462 44.552 53.2026 45.2556 53.2307 45.9486C53.2552 46.5892 53.5953 47.2157 54.2438 47.5657C54.2473 47.5657 54.2508 47.5692 54.2543 47.5727L61.262 51.2409C61.262 51.2409 61.269 51.2409 61.2725 51.2444C61.8229 51.5349 62.4819 51.5349 63.0358 51.2444C63.0358 51.2444 63.0428 51.2444 63.0463 51.2409L63.2321 51.1429L66.9375 49.2003L70.0574 47.5727C70.0574 47.5727 70.0601 47.5714 70.063 47.5696C70.0647 47.5684 70.068 47.5657 70.068 47.5657C71.4281 46.8447 71.4246 44.8951 70.0574 44.181L63.0463 40.5093C63.0218 40.4988 63.0007 40.4848 62.9727 40.4743C62.9674 40.4708 62.9622 40.4682 62.9569 40.4656C62.9516 40.4629 62.9464 40.4603 62.9411 40.4568C62.4503 40.1978 61.8614 40.1978 61.3706 40.4568C61.3706 40.4568 61.3461 40.4673 61.3391 40.4743C61.3268 40.4796 61.3145 40.4857 61.3023 40.4918C61.29 40.4979 61.2777 40.5041 61.2655 40.5093L54.2578 44.181H54.2543Z" fill="#04FCA3"/>
<path fill-rule="evenodd" clip-rule="evenodd" d="M70.0574 57.1773L70.0224 57.1598C69.6473 56.9637 69.2021 57.1598 69.0619 57.5623C68.7884 58.3533 68.2275 59.0604 67.3757 59.5049L53.6689 66.6803C52.6523 67.2158 51.4358 67.2158 50.4157 66.6803L36.7089 59.5049C35.857 59.0604 35.2962 58.3533 35.0227 57.5623C34.886 57.1633 34.4373 56.9637 34.0622 57.1598L34.0271 57.1773C32.6565 57.8948 32.6565 59.8514 34.0271 60.5689L51.1484 69.533C51.7058 69.8235 52.3718 69.8235 52.9292 69.533L70.0539 60.5689C71.4246 59.8514 71.4246 57.8948 70.0539 57.1773H70.0574ZM70.0574 50.7474L70.0224 50.7299C69.6473 50.5339 69.2021 50.7299 69.0619 51.1324C68.7884 51.9235 68.2275 52.6305 67.3757 53.075L53.6689 60.2505C52.6523 60.786 51.4358 60.786 50.4157 60.2505L36.7054 53.075C35.8535 52.6305 35.2926 51.9235 35.0192 51.1324C34.8825 50.7334 34.4338 50.5339 34.0587 50.7299L34.0236 50.7474C32.6529 51.465 32.6529 53.4216 34.0236 54.1391L51.1449 63.1031C51.7023 63.3936 52.3683 63.3936 52.9257 63.1031L70.0504 54.1391C71.4211 53.4216 71.4211 51.465 70.0504 50.7474H70.0574ZM34.0263 47.5751L35.2287 48.2016L37.1463 49.2062L40.8517 51.1418L43.2074 52.3774L51.5612 56.7456C51.8627 56.9031 52.2238 56.9031 52.5253 56.7456L55.1544 55.37C56.5251 54.6525 56.5251 52.6959 55.1544 51.9784L47.2038 47.8166L46.7305 47.5681C45.4124 46.8751 45.3634 45.0375 46.5833 44.2639C46.6194 44.239 46.6598 44.2163 46.6994 44.194C46.7099 44.1881 46.7203 44.1823 46.7305 44.1764L56.6443 38.9891C57.384 38.6006 57.384 37.5435 56.6443 37.1585L52.9319 35.2229C52.3745 34.9324 51.7085 34.9324 51.1511 35.2229L34.0263 44.1834C32.6557 44.8974 32.6557 46.8576 34.0263 47.5751ZM54.2543 44.181C53.5462 44.552 53.2026 45.2556 53.2307 45.9486C53.2552 46.5892 53.5953 47.2157 54.2438 47.5657C54.2473 47.5657 54.2508 47.5692 54.2543 47.5727L61.262 51.2409C61.262 51.2409 61.269 51.2409 61.2725 51.2444C61.8229 51.5349 62.4819 51.5349 63.0358 51.2444C63.0358 51.2444 63.0428 51.2444 63.0463 51.2409L63.2321 51.1429L66.9375 49.2003L70.0574 47.5727C70.0574 47.5727 70.0601 47.5714 70.063 47.5696C70.0647 47.5684 70.068 47.5657 70.068 47.5657C71.4281 46.8447 71.4246 44.8951 70.0574 44.181L63.0463 40.5093C63.0218 40.4988 63.0007 40.4848 62.9727 40.4743C62.9674 40.4708 62.9622 40.4682 62.9569 40.4656C62.9516 40.4629 62.9464 40.4603 62.9411 40.4568C62.4503 40.1978 61.8614 40.1978 61.3706 40.4568C61.3706 40.4568 61.3461 40.4673 61.3391 40.4743C61.3268 40.4796 61.3145 40.4857 61.3023 40.4918C61.29 40.4979 61.2777 40.5041 61.2655 40.5093L54.2578 44.181H54.2543Z" fill="#04FCA3"/>
</svg>
