<svg width="104" height="104" viewBox="0 0 104 104" fill="none" xmlns="http://www.w3.org/2000/svg">
<path fill-rule="evenodd" clip-rule="evenodd" d="M104 52C104 80.7188 80.7188 104 52 104C23.2812 104 0 80.7188 0 52C0 23.2812 23.2812 0 52 0C80.7188 0 104 23.2812 104 52ZM52 102C79.6142 102 102 79.6142 102 52C102 24.3858 79.6142 2 52 2C24.3858 2 2 24.3858 2 52C2 79.6142 24.3858 102 52 102Z" fill="#F1F4F8"/>
<path fill-rule="evenodd" clip-rule="evenodd" d="M52 88.0513C71.9106 88.0513 88.0513 71.9106 88.0513 52C88.0513 32.0894 71.9106 15.9487 52 15.9487C32.0894 15.9487 15.9487 32.0894 15.9487 52C15.9487 71.9106 32.0894 88.0513 52 88.0513ZM52 89C72.4345 89 89 72.4345 89 52C89 31.5655 72.4345 15 52 15C31.5655 15 15 31.5655 15 52C15 72.4345 31.5655 89 52 89Z" fill="#F1F4F8"/>
<path d="M66.2682 47.5097L66.2405 47.4959C65.9443 47.3411 65.5927 47.4959 65.4819 47.8138C65.266 48.4385 64.8231 48.9968 64.1503 49.3479L53.3259 55.0144C52.5231 55.4373 51.5624 55.4373 50.7568 55.0144L39.9324 49.3479C39.2597 48.9968 38.8168 48.4385 38.6008 47.8138C38.4929 47.4987 38.1385 47.3411 37.8423 47.4959L37.8146 47.5097C36.7322 48.0764 36.7322 49.6215 37.8146 50.1882L51.3354 57.2672C51.7756 57.4966 52.3016 57.4966 52.7418 57.2672L66.2654 50.1882C67.3478 49.6215 67.3478 48.0764 66.2654 47.5097H66.2682Z" fill="#F1F4F8"/>
<path d="M66.2682 42.432L66.2405 42.4182C65.9443 42.2634 65.5927 42.4182 65.4819 42.736C65.266 43.3607 64.8231 43.9191 64.1504 44.2701L53.3259 49.9367C52.5231 50.3596 51.5625 50.3596 50.7569 49.9367L39.9297 44.2701C39.2569 43.9191 38.814 43.3607 38.5981 42.736C38.4901 42.4209 38.1357 42.2634 37.8395 42.4182L37.8118 42.432C36.7294 42.9986 36.7294 44.5438 37.8118 45.1105L51.3327 52.1894C51.7729 52.4189 52.2988 52.4189 52.739 52.1894L66.2626 45.1105C67.3451 44.5438 67.3451 42.9986 66.2626 42.432H66.2682Z" fill="#F1F4F8"/>
<path d="M37.8138 39.9268L38.7634 40.4215L40.2777 41.2148L43.2039 42.7434L45.0642 43.7192L51.6613 47.1688C51.8994 47.2932 52.1846 47.2932 52.4226 47.1688L54.4989 46.0825C55.5814 45.5159 55.5814 43.9707 54.4989 43.404L48.2202 40.1175L47.8465 39.9212C46.8056 39.3739 46.7668 37.9227 47.7302 37.3119C47.7662 37.287 47.8077 37.2649 47.8465 37.2428L55.6755 33.1463C56.2596 32.8395 56.2596 32.0047 55.6755 31.7006L52.7438 30.1721C52.3036 29.9426 51.7776 29.9426 51.3374 30.1721L37.8138 37.2483C36.7314 37.8122 36.7314 39.3601 37.8138 39.9268Z" fill="#F1F4F8"/>
<path d="M53.7882 37.2463C53.229 37.5393 52.9577 38.0949 52.9799 38.6422C52.9992 39.148 53.2678 39.6428 53.7799 39.9192C53.7827 39.9192 53.7855 39.922 53.7882 39.9248L59.3223 42.8216C59.3223 42.8216 59.3278 42.8216 59.3306 42.8243C59.7652 43.0538 60.2857 43.0538 60.7231 42.8243C60.7231 42.8243 60.7286 42.8243 60.7314 42.8216L60.8781 42.7442L63.8043 41.2101L66.2682 39.9248C66.2682 39.9248 66.2737 39.922 66.2765 39.9192C67.3506 39.3498 67.3478 37.8102 66.2682 37.2463L60.7314 34.3467C60.712 34.3384 60.6954 34.3273 60.6732 34.319C60.6649 34.3135 60.6566 34.3108 60.6483 34.3052C60.2607 34.1007 59.7957 34.1007 59.4081 34.3052C59.4081 34.3052 59.3887 34.3135 59.3832 34.319C59.3638 34.3273 59.3444 34.3384 59.325 34.3467L53.791 37.2463H53.7882Z" fill="#F1F4F8"/>
<path d="M44.1431 73.4292V65.1972H45.4871V72.2652H49.5911V73.4292H44.1431Z" fill="#F1F4F8"/>
<path d="M51.2642 73.4292V65.1972H57.1442V66.3492H52.6082V68.7852H56.7122V69.9252H52.6082V73.4292H51.2642Z" fill="#F1F4F8"/>
<path d="M58.9322 66.0252V64.7532H60.1802V66.0252H58.9322ZM58.9322 73.4292V67.1172H60.1802V73.4292H58.9322Z" fill="#F1F4F8"/>
<path d="M48.9139 95.4832L48.8889 96.186L46.8911 96.1151L46.916 95.4123L48.9139 95.4832Z" fill="#F1F4F8"/>
<path d="M44.6375 92.5699L43.555 97.8813L42.8194 97.7314L43.7709 93.0627L41.1307 92.5246L41.2617 91.8819L44.6375 92.5699Z" fill="#F1F4F8"/>
<path d="M40.3594 91.5397L38.6906 96.697L35.0369 95.5148L35.2364 94.8983L38.1759 95.8495L38.7111 94.1955L36.0347 93.3295L36.2317 92.7205L38.9081 93.5866L39.6452 91.3086L40.3594 91.5397Z" fill="#F1F4F8"/>
<path d="M33.968 94.4538L33.6615 95.165L33.0229 94.8898L33.3294 94.1786L33.968 94.4538ZM35.9227 89.9186L34.2776 93.7355L33.6391 93.4602L35.2841 89.6433L35.9227 89.9186Z" fill="#F1F4F8"/>
<path d="M29.9633 88.8628L29.5929 89.4607L27.8935 88.4079L28.2638 87.81L29.9633 88.8628Z" fill="#F1F4F8"/>
<path d="M25.584 83.5417L21.9724 87.5839L21.4303 87.0995L21.8477 82.683C21.8492 82.6419 21.8552 82.5837 21.8659 82.5085C21.8766 82.4333 21.8873 82.3581 21.898 82.2829C21.9051 82.2116 21.9147 82.1495 21.9267 82.0966L21.9031 82.0755C21.8469 82.1384 21.7925 82.1993 21.7399 82.2582C21.6837 82.321 21.6293 82.3819 21.5767 82.4408L19.1971 85.1042L18.6491 84.6146L22.2606 80.5724L22.7733 81.0304L22.3373 85.5151C22.3262 85.5829 22.313 85.6807 22.2978 85.8084C22.2787 85.9326 22.2657 86.034 22.259 86.1127L22.2884 86.1391C22.3446 86.0762 22.4007 86.0134 22.4569 85.9505C22.5096 85.8916 22.564 85.8307 22.6201 85.7678L25.0418 83.0573L25.584 83.5417Z" fill="#F1F4F8"/>
<path d="M22.2771 80.4458L16.7826 82.3898L16.1341 81.6448L18.8114 76.4646L19.3458 77.0785L18.6802 78.3598L20.4131 80.3504L21.7687 79.8617L22.2771 80.4458ZM19.7695 80.5859L18.3635 78.9708L17.5127 80.5809C17.4873 80.6239 17.4532 80.685 17.4104 80.7642C17.3676 80.8434 17.3206 80.9298 17.2693 81.0233C17.214 81.1203 17.1588 81.2173 17.1035 81.3143C17.0443 81.4147 16.9913 81.5063 16.9445 81.5889L16.9756 81.6246C17.0793 81.5833 17.1983 81.5355 17.3328 81.4813C17.4672 81.4272 17.5997 81.3747 17.7301 81.324C17.8566 81.2768 17.964 81.2357 18.0523 81.2007L19.7695 80.5859Z" fill="#F1F4F8"/>
<path d="M17.8762 74.8576L13.9315 77.53L14.973 79.0673L14.43 79.4352L11.9171 75.7259L12.4601 75.3581L13.5105 76.9085L17.4552 74.2361L17.8762 74.8576Z" fill="#F1F4F8"/>
<path d="M16.062 71.8452L11.2972 74.4295L10.9393 73.7697L15.7041 71.1853L16.062 71.8452Z" fill="#F1F4F8"/>
<path d="M14.0568 67.6255L9.84589 71.5932L9.53007 70.8431L12.5297 68.0712C12.5854 68.0135 12.6508 67.9516 12.726 67.8857C12.8011 67.8198 12.8738 67.7549 12.9441 67.691C13.0143 67.6271 13.0759 67.5697 13.1288 67.5189L13.1104 67.4752C13.044 67.4803 12.9634 67.4857 12.8686 67.4913C12.7738 67.4969 12.679 67.5025 12.5842 67.5081C12.4845 67.5158 12.3897 67.5214 12.2998 67.525L8.22691 67.7481L7.92028 67.0198L13.7041 66.788L14.0568 67.6255Z" fill="#F1F4F8"/>
<path d="M12.9121 64.4799L7.69918 65.9658L6.55554 61.9535L7.17867 61.7759L8.11654 65.0663L9.72754 64.6071L8.88497 61.6511L9.50809 61.4734L10.3507 64.4295L12.0833 63.9356L11.1324 60.5996L11.7555 60.422L12.9121 64.4799Z" fill="#F1F4F8"/>
<path d="M11.1462 55.2262L6.3988 55.6318L6.55684 57.4819L5.90337 57.5377L5.52205 53.0737L6.17552 53.0179L6.33491 54.8838L11.0824 54.4783L11.1462 55.2262Z" fill="#F1F4F8"/>
<path d="M11.2051 49.3734C11.1825 49.9366 11.0604 50.4167 10.8389 50.8138C10.6175 51.2056 10.2945 51.5037 9.86983 51.708C9.44535 51.9072 8.91992 51.9942 8.29356 51.969C7.66193 51.9437 7.14516 51.8149 6.74326 51.5826C6.33631 51.3448 6.03822 51.0218 5.84899 50.6135C5.65998 50.2 5.57677 49.7116 5.59937 49.1484C5.62197 48.5852 5.74393 48.1077 5.96527 47.7159C6.18681 47.3189 6.50982 47.0208 6.9343 46.8217C7.35374 46.6171 7.87927 46.5274 8.5109 46.5528C9.13726 46.5779 9.65392 46.7094 10.0609 46.9471C10.468 47.1796 10.7661 47.5026 10.9551 47.9162C11.1444 48.3244 11.2277 48.8102 11.2051 49.3734ZM10.5577 49.3474C10.5695 49.0526 10.5407 48.7852 10.4712 48.5452C10.402 48.2999 10.2864 48.0923 10.1245 47.9224C9.95761 47.747 9.74697 47.6094 9.49265 47.5095C9.23306 47.4095 8.9243 47.3523 8.56638 47.3379L8.40058 47.3313C8.03739 47.3167 7.72504 47.349 7.46354 47.4281C7.19677 47.507 6.97579 47.6273 6.80059 47.789C6.62035 47.9452 6.48589 48.1428 6.39722 48.3817C6.30876 48.6154 6.25862 48.8797 6.24679 49.1744C6.23475 49.4744 6.26345 49.7445 6.3329 49.9845C6.40235 50.2245 6.52055 50.4322 6.68749 50.6076C6.84916 50.7828 7.05979 50.9205 7.31938 51.0205C7.57392 51.1151 7.88278 51.1696 8.24597 51.1842L8.41177 51.1909C8.7697 51.2052 9.08194 51.1756 9.3485 51.1019C9.61 51.0228 9.83098 50.9025 10.0114 50.741C10.1866 50.5794 10.3185 50.3817 10.4069 50.148C10.4954 49.9143 10.5456 49.6474 10.5577 49.3474Z" fill="#F1F4F8"/>
<path d="M11.4432 46.2696L6.09658 45.377L6.22019 44.6366L9.04936 45.1089L6.67431 41.9165L6.82785 40.9969L8.62376 43.3876L12.1861 41.8193L12.0391 42.7L9.06786 43.9905L9.91448 45.2534L11.5668 45.5292L11.4432 46.2696Z" fill="#F1F4F8"/>
<path d="M12.3914 41.5963L7.19138 40.0657L8.36948 36.0633L8.99106 36.2463L8.02492 39.5285L9.63192 40.0015L10.4999 37.0528L11.1214 37.2358L10.2535 40.1845L11.9818 40.6932L12.9613 37.3655L13.5829 37.5485L12.3914 41.5963Z" fill="#F1F4F8"/>
<path d="M14.0209 36.7097L9.05303 34.5411L9.34387 33.8749L13.6699 32.8922C13.7094 32.8807 13.7665 32.8683 13.8413 32.855C13.9161 32.8416 13.9909 32.8283 14.0657 32.815C14.1357 32.7995 14.1976 32.7892 14.2516 32.784L14.2643 32.7551C14.187 32.7214 14.1122 32.6887 14.0398 32.6571C13.9625 32.6234 13.8877 32.5907 13.8153 32.5591L10.542 31.1302L10.836 30.4567L15.8039 32.6253L15.5288 33.2553L11.1323 34.2417C11.0644 34.2523 10.9674 34.2703 10.8414 34.2958C10.7174 34.3164 10.617 34.3358 10.5401 34.3539L10.5243 34.3901C10.6015 34.4239 10.6788 34.4576 10.756 34.4913C10.8284 34.5229 10.9033 34.5556 10.9805 34.5893L14.3118 36.0435L14.0209 36.7097Z" fill="#F1F4F8"/>
<path d="M16.1419 28.8081L15.556 28.4191L16.6618 26.7536L17.2477 27.1426L16.1419 28.8081Z" fill="#F1F4F8"/>
<path d="M21.6253 24.5824L17.6655 20.8806L18.1782 20.3322L21.6588 23.5861L23.4989 21.6178L23.978 22.0657L21.6253 24.5824Z" fill="#F1F4F8"/>
<path d="M24.7417 21.4757L21.2201 17.3549L24.1395 14.86L24.5604 15.3526L22.2117 17.3598L23.3411 18.6813L25.4796 16.8538L25.8954 17.3403L23.7569 19.1679L25.3124 20.988L24.7417 21.4757Z" fill="#F1F4F8"/>
<path d="M25.603 14.5044L25.1574 13.8711L25.726 13.471L26.1717 14.1043L25.603 14.5044ZM28.445 18.5433L26.0532 15.1442L26.6218 14.744L29.0136 18.1432L28.445 18.5433Z" fill="#F1F4F8"/>
<path d="M32.4628 14.0173L32.1472 13.3889L33.9336 12.4916L34.2493 13.12L32.4628 14.0173Z" fill="#F1F4F8"/>
<path d="M39.2891 13.0699L37.7343 7.87708L38.4307 7.66856L41.9758 10.3353C42.0101 10.358 42.0565 10.3936 42.1151 10.4421C42.1736 10.4906 42.2321 10.5391 42.2906 10.5875C42.3476 10.6309 42.3955 10.6716 42.4343 10.7095L42.4646 10.7004C42.4404 10.6196 42.417 10.5414 42.3943 10.4657C42.3701 10.385 42.3467 10.3068 42.3241 10.2311L41.2996 6.80956L42.0036 6.59878L43.5584 11.7916L42.8998 11.9888L39.3063 9.27052C39.2543 9.22559 39.1779 9.16323 39.077 9.08346C38.9812 9.00217 38.9015 8.93805 38.838 8.89109L38.8001 8.90242C38.8243 8.98317 38.8485 9.06391 38.8727 9.14465C38.8953 9.22035 38.9187 9.29857 38.9429 9.37931L39.9855 12.8614L39.2891 13.0699Z" fill="#F1F4F8"/>
<path d="M43.6576 11.8716L44.8761 6.17215L45.8503 6.00933L48.8638 11.0015L48.061 11.1356L47.3174 9.89798L44.7143 10.333L44.4214 11.7439L43.6576 11.8716ZM44.8504 9.66137L46.9625 9.30838L46.0356 7.74086C46.0122 7.69671 45.9779 7.63567 45.9329 7.55774C45.8878 7.47982 45.8388 7.39454 45.786 7.3019C45.7322 7.20406 45.6785 7.10623 45.6247 7.00839C45.5701 6.90536 45.5199 6.81228 45.4739 6.72917L45.4272 6.73698C45.4082 6.84697 45.3866 6.97342 45.3624 7.11633C45.3382 7.25923 45.3136 7.39954 45.2885 7.53725C45.2626 7.66976 45.2414 7.78279 45.225 7.87633L44.8504 9.66137Z" fill="#F1F4F8"/>
<path d="M50.7225 11.0457L50.5093 6.28576L48.6542 6.36884L48.6249 5.71365L53.1007 5.5132L53.13 6.16838L51.2592 6.25217L51.4724 11.0121L50.7225 11.0457Z" fill="#F1F4F8"/>
<path d="M54.239 11.076L54.5299 5.6632L55.2795 5.7035L54.9885 11.1163L54.239 11.076Z" fill="#F1F4F8"/>
<path d="M58.8841 11.5753L57.7064 5.91074L58.5108 6.03411L59.3033 10.0408C59.3234 10.1185 59.3419 10.2066 59.3587 10.3051C59.3756 10.4036 59.3929 10.4995 59.4105 10.5928C59.4282 10.6861 59.4449 10.7686 59.4605 10.8403L59.5074 10.8475C59.5378 10.7882 59.5754 10.7167 59.6202 10.633C59.665 10.5493 59.7099 10.4655 59.7547 10.3818C59.8003 10.2929 59.8451 10.2091 59.8891 10.1306L61.8303 6.54318L62.6113 6.66296L59.7823 11.7131L58.8841 11.5753Z" fill="#F1F4F8"/>
<path d="M62.1636 12.2459L63.6252 7.02606L67.6428 8.15102L67.4681 8.77496L64.1734 7.85241L63.7217 9.46553L66.6816 10.2943L66.5069 10.9183L63.547 10.0895L63.0612 11.8243L66.4016 12.7597L66.2269 13.3836L62.1636 12.2459Z" fill="#F1F4F8"/>
<path d="M70.9733 15.5831L73.112 11.3253L71.4526 10.4918L71.747 9.90576L75.7506 11.9167L75.4562 12.5028L73.7828 11.6622L71.6441 15.92L70.9733 15.5831Z" fill="#F1F4F8"/>
<path d="M75.9301 18.6959C75.462 18.382 75.1167 18.0267 74.8942 17.6301C74.6762 17.2365 74.5912 16.8053 74.6393 16.3364C74.6917 15.8705 74.8925 15.3772 75.2417 14.8566C75.5938 14.3316 75.974 13.9586 76.3822 13.7377C76.7978 13.5153 77.229 13.4303 77.6759 13.4827C78.1272 13.538 78.587 13.7227 79.0551 14.0366C79.5232 14.3506 79.8663 14.7044 80.0843 15.098C80.3068 15.4946 80.3918 15.9258 80.3393 16.3918C80.2942 16.8562 80.0956 17.351 79.7435 17.876C79.3943 18.3966 79.0119 18.7681 78.5964 18.9905C78.1852 19.2158 77.7539 19.3008 77.3026 19.2455C76.8557 19.1931 76.3982 19.0099 75.9301 18.6959ZM76.291 18.1578C76.536 18.3221 76.7789 18.4375 77.0198 18.5039C77.2651 18.5733 77.5025 18.5834 77.732 18.5344C77.9688 18.4839 78.1963 18.3764 78.4145 18.212C78.6355 18.0431 78.8458 17.8099 79.0454 17.5124L79.1378 17.3746C79.3403 17.0727 79.4762 16.7897 79.5456 16.5254C79.618 16.2568 79.6311 16.0055 79.585 15.7716C79.5462 15.5363 79.4482 15.3183 79.2909 15.1177C79.1381 14.9201 78.9392 14.7391 78.6942 14.5748C78.4448 14.4075 78.1997 14.2907 77.9588 14.2242C77.7179 14.1578 77.479 14.1499 77.2422 14.2003C77.0083 14.2464 76.7808 14.3539 76.5597 14.5228C76.346 14.6902 76.1378 14.9248 75.9354 15.2267L75.8429 15.3645C75.6434 15.662 75.5053 15.9436 75.4286 16.2093C75.3592 16.4736 75.346 16.7248 75.3892 16.9631C75.4353 17.197 75.5348 17.4128 75.6876 17.6104C75.8405 17.8081 76.0416 17.9906 76.291 18.1578Z" fill="#F1F4F8"/>
<path d="M78.4505 20.523L82.0089 16.4339L82.5752 16.9267L80.6922 19.0904L84.6555 18.737L85.3588 19.3491L82.3818 19.6285L81.8541 23.4849L81.1805 22.8987L81.6357 19.6915L80.1165 19.7521L79.0168 21.0158L78.4505 20.523Z" fill="#F1F4F8"/>
<path d="M81.9367 23.7763L85.962 20.146L88.7562 23.2442L88.275 23.6782L85.9836 21.1374L84.7396 22.2593L86.7982 24.5419L86.317 24.9758L84.2584 22.6932L82.9206 23.8998L85.2438 26.4758L84.7626 26.9097L81.9367 23.7763Z" fill="#F1F4F8"/>
<path d="M85.2481 27.7221L89.6957 24.6234L90.1113 25.2198L88.685 29.4205C88.6741 29.4602 88.6548 29.5154 88.627 29.5861C88.5992 29.6568 88.5715 29.7275 88.5437 29.7982C88.5202 29.8659 88.4966 29.9241 88.4727 29.9729L88.4908 29.9988C88.56 29.9506 88.627 29.9039 88.6918 29.8588C88.7609 29.8106 88.8279 29.7639 88.8928 29.7187L91.8232 27.677L92.2433 28.28L87.7958 31.3787L87.4028 30.8146L88.8629 26.5519C88.8893 26.4885 88.9247 26.3965 88.969 26.2757C89.0163 26.1593 89.0523 26.0636 89.0771 25.9885L89.0545 25.9561C88.9853 26.0043 88.9162 26.0525 88.847 26.1007C88.7822 26.1458 88.7152 26.1925 88.646 26.2407L85.6637 28.3185L85.2481 27.7221Z" fill="#F1F4F8"/>
<path d="M90.8717 33.6642L91.5098 33.3685L92.3504 35.1823L91.7123 35.478L90.8717 33.6642Z" fill="#F1F4F8"/>
<path d="M91.6036 40.548L96.8302 39.1107L97.0292 39.8345L92.435 41.0979L93.1495 43.696L92.5171 43.8699L91.6036 40.548Z" fill="#F1F4F8"/>
<path d="M92.6201 44.8295L97.9745 43.9848L98.5729 47.7781L97.9329 47.8791L97.4514 44.8273L95.7343 45.0982L96.1727 47.8768L95.5405 47.9766L95.1021 45.1979L92.7371 45.571L92.6201 44.8295Z" fill="#F1F4F8"/>
<path d="M98.1103 49.2114L98.8831 49.163L98.9265 49.857L98.1537 49.9054L98.1103 49.2114ZM93.1813 49.5198L97.3295 49.2602L97.3729 49.9542L93.2247 50.2138L93.1813 49.5198Z" fill="#F1F4F8"/>
<path d="M94.9358 55.312L95.6365 55.3719L95.4664 57.3637L94.7657 57.3039L94.9358 55.312Z" fill="#F1F4F8"/>
<path d="M92.1712 61.6248L97.4099 63.0171L97.2232 63.7197L93.0956 65.3453C93.0582 65.3626 93.0036 65.3836 92.9317 65.4081C92.8598 65.4325 92.7879 65.457 92.716 65.4815C92.6491 65.5074 92.5894 65.5269 92.5368 65.5402L92.5287 65.5708C92.6102 65.5924 92.6891 65.6134 92.7654 65.6337C92.8469 65.6553 92.9258 65.6763 93.0022 65.6966L96.4539 66.614L96.2652 67.3242L91.0265 65.9319L91.203 65.2675L95.3999 63.6276C95.4653 63.6068 95.5584 63.5743 95.6792 63.5301C95.7986 63.491 95.895 63.4566 95.9682 63.4271L95.9784 63.3889C95.8969 63.3672 95.8155 63.3456 95.734 63.3239C95.6577 63.3036 95.5787 63.2827 95.4973 63.261L91.9844 62.3274L92.1712 61.6248Z" fill="#F1F4F8"/>
<path d="M90.9061 65.9743L95.1254 69.995L94.7543 70.9104L88.9234 70.8661L89.2291 70.1118L90.6729 70.1257L91.6643 67.6798L90.6153 66.6919L90.9061 65.9743ZM92.1654 68.1473L91.361 70.1318L93.1819 70.1622C93.2317 70.1653 93.3017 70.1681 93.3917 70.1705C93.4816 70.1728 93.5799 70.1757 93.6865 70.1792C93.798 70.1846 93.9095 70.19 94.021 70.1954C94.1374 70.2027 94.243 70.2086 94.3379 70.213L94.3557 70.169C94.2719 70.0953 94.1755 70.0107 94.0663 69.9153C93.9572 69.8199 93.8505 69.7255 93.7463 69.6321C93.6469 69.5407 93.5617 69.4635 93.4906 69.4006L92.1654 68.1473Z" fill="#F1F4F8"/>
<path d="M87.9133 72.4271L92.0811 74.7362L92.981 73.112L93.5547 73.4298L91.3835 77.3488L90.8098 77.031L91.7174 75.3929L87.5495 73.0838L87.9133 72.4271Z" fill="#F1F4F8"/>
<path d="M86.0474 75.4078L90.5077 78.4881L90.0811 79.1058L85.6208 76.0255L86.0474 75.4078Z" fill="#F1F4F8"/>
<path d="M83.1912 79.1052L88.6347 81.0656L88.1086 81.6866L84.2795 80.2654C84.2028 80.2418 84.1181 80.2115 84.0253 80.1743C83.9325 80.1371 83.8417 80.1016 83.753 80.0679C83.6642 80.0341 83.5852 80.0051 83.5159 79.9809L83.4853 80.0171C83.5199 80.0741 83.5611 80.1435 83.609 80.2255C83.6569 80.3075 83.7048 80.3895 83.7527 80.4715C83.8047 80.557 83.8526 80.639 83.8964 80.7176L85.9378 84.2489L85.427 84.8518L82.6038 79.7985L83.1912 79.1052Z" fill="#F1F4F8"/>
<path d="M80.9037 81.5489L84.587 85.5258L81.526 88.3608L81.0858 87.8854L83.596 85.5605L82.4577 84.3315L80.2026 86.4202L79.7623 85.9448L82.0174 83.8561L80.7932 82.5344L78.2482 84.8915L77.8079 84.4161L80.9037 81.5489Z" fill="#F1F4F8"/>
<path d="M73.4499 87.3098L75.9591 91.3603L77.5377 90.3824L77.8831 90.9399L74.0744 93.2994L73.729 92.7418L75.321 91.7556L72.8117 87.7051L73.4499 87.3098Z" fill="#F1F4F8"/>
<path d="M68.2036 89.9049C68.7161 89.6702 69.1995 89.5619 69.6538 89.5799C70.1033 89.6 70.5153 89.7533 70.8897 90.0396C71.2593 90.328 71.5746 90.7573 71.8355 91.3273C72.0987 91.902 72.2175 92.4212 72.1922 92.8847C72.1642 93.3552 72.011 93.7671 71.7325 94.1206C71.4492 94.4762 71.0513 94.7713 70.5388 95.006C70.0263 95.2406 69.5453 95.3478 69.0957 95.3277C68.6414 95.3097 68.2295 95.1565 67.8598 94.868C67.4876 94.5865 67.17 94.1583 66.9069 93.5836C66.6459 93.0136 66.5294 92.4934 66.5574 92.0229C66.5805 91.5546 66.7337 91.1426 67.017 90.787C67.2955 90.4335 67.6911 90.1395 68.2036 89.9049ZM68.4733 90.494C68.205 90.6168 67.9796 90.7635 67.797 90.934C67.6095 91.1067 67.4766 91.3037 67.3983 91.5249C67.3174 91.7531 67.29 92.0032 67.316 92.2752C67.3442 92.552 67.4328 92.8532 67.582 93.1789L67.651 93.3298C67.8023 93.6603 67.9724 93.9243 68.1613 94.1217C68.3523 94.3239 68.5596 94.4665 68.783 94.5497C69.0039 94.6397 69.2409 94.6703 69.4941 94.6413C69.7426 94.6144 70.0009 94.5396 70.2691 94.4168C70.5421 94.2918 70.77 94.1441 70.9526 93.9736C71.1353 93.8031 71.267 93.6037 71.348 93.3755C71.4311 93.152 71.4585 92.9019 71.4303 92.6251C71.3995 92.3554 71.3084 92.0552 71.1571 91.7247L71.0881 91.5738C70.939 91.2481 70.7713 90.9831 70.585 90.7787C70.3961 90.5813 70.1889 90.4386 69.9632 90.3507C69.7398 90.2676 69.5039 90.2395 69.2554 90.2663C69.007 90.2931 68.7463 90.369 68.4733 90.494Z" fill="#F1F4F8"/>
<path d="M65.3277 91.0967L66.9503 96.2688L66.2341 96.4935L65.3755 93.7567L63.6028 97.3189L62.7132 97.5981L64.0329 94.9149L61.0227 92.4473L61.8747 92.18L64.3696 94.2461L65.1129 92.9198L64.6115 91.3214L65.3277 91.0967Z" fill="#F1F4F8"/>
<path d="M60.7311 92.3652L61.7184 97.6951L57.616 98.455L57.498 97.8179L60.8622 97.1947L60.5571 95.5476L57.5348 96.1074L57.4168 95.4703L60.4391 94.9105L60.111 93.139L56.7002 93.7708L56.5822 93.1337L60.7311 92.3652Z" fill="#F1F4F8"/>
<path d="M55.6359 93.1224L55.9492 98.5339L55.2234 98.5759L52.3901 95.1624C52.362 95.1324 52.3251 95.087 52.2794 95.0263C52.2336 94.9657 52.1879 94.905 52.1422 94.8443C52.0968 94.7889 52.0595 94.7383 52.0305 94.6925L51.9989 94.6943C52.0038 94.7785 52.0085 94.86 52.0131 94.9389C52.018 95.023 52.0227 95.1045 52.0273 95.1834L52.2337 98.749L51.5001 98.7915L51.1868 93.38L51.8731 93.3402L54.7416 96.815C54.7817 96.8708 54.8417 96.9491 54.9214 97.05C54.9959 97.1512 55.0586 97.232 55.1096 97.2924L55.149 97.2901C55.1441 97.2059 55.1393 97.1218 55.1344 97.0377C55.1298 96.9588 55.1251 96.8773 55.1202 96.7931L54.9101 93.1644L55.6359 93.1224Z" fill="#F1F4F8"/>
</svg>
