<svg width="509" height="539" viewBox="0 0 509 539" fill="none" xmlns="http://www.w3.org/2000/svg">
<path fill-rule="evenodd" clip-rule="evenodd" d="M459 269.5C459 382.442 367.442 474 254.5 474C141.558 474 50 382.442 50 269.5C50 156.558 141.558 65 254.5 65C367.442 65 459 156.558 459 269.5ZM254.5 466.135C363.098 466.135 451.135 378.098 451.135 269.5C451.135 160.902 363.098 72.8654 254.5 72.8654C145.902 72.8654 57.8654 160.902 57.8654 269.5C57.8654 378.098 145.902 466.135 254.5 466.135Z" fill="#04FCA3"/>
<path fill-rule="evenodd" clip-rule="evenodd" d="M254.5 411.279C332.802 411.279 396.279 347.802 396.279 269.5C396.279 191.198 332.802 127.721 254.5 127.721C176.198 127.721 112.721 191.198 112.721 269.5C112.721 347.802 176.198 411.279 254.5 411.279ZM254.5 415.01C334.863 415.01 400.01 349.863 400.01 269.5C400.01 189.137 334.863 123.99 254.5 123.99C174.137 123.99 108.99 189.137 108.99 269.5C108.99 349.863 174.137 415.01 254.5 415.01Z" fill="#04FCA3"/>
<path d="M310.612 251.841L310.503 251.787C309.338 251.178 307.956 251.787 307.52 253.037C306.671 255.494 304.929 257.69 302.284 259.07L259.714 281.355C256.557 283.018 252.779 283.018 249.611 281.355L207.042 259.07C204.396 257.69 202.654 255.494 201.805 253.037C201.381 251.798 199.987 251.178 198.822 251.787L198.713 251.841C194.456 254.07 194.456 260.146 198.713 262.375L251.886 290.214C253.618 291.116 255.686 291.116 257.417 290.214L310.601 262.375C314.858 260.146 314.858 254.07 310.601 251.841H310.612Z" fill="#04FCA3"/>
<path d="M310.612 231.872L310.503 231.818C309.339 231.209 307.956 231.818 307.52 233.068C306.671 235.524 304.929 237.72 302.284 239.101L259.714 261.385C256.557 263.049 252.779 263.049 249.611 261.385L207.031 239.101C204.385 237.72 202.643 235.524 201.794 233.068C201.37 231.828 199.976 231.209 198.811 231.818L198.702 231.872C194.445 234.1 194.445 240.177 198.702 242.406L251.876 270.245C253.607 271.147 255.675 271.147 257.406 270.245L310.591 242.406C314.847 240.177 314.847 234.1 310.591 231.872H310.612Z" fill="#04FCA3"/>
<path d="M198.71 222.02L202.444 223.965L208.4 227.085L219.908 233.097L227.224 236.934L253.168 250.5C254.104 250.99 255.226 250.99 256.162 250.5L264.328 246.228C268.584 244 268.584 237.923 264.328 235.695L239.635 222.77L238.165 221.998C234.072 219.846 233.919 214.138 237.708 211.736C237.85 211.638 238.013 211.551 238.165 211.464L268.955 195.354C271.252 194.148 271.252 190.865 268.955 189.669L257.425 183.657C255.694 182.755 253.625 182.755 251.894 183.657L198.71 211.486C194.453 213.704 194.453 219.791 198.71 222.02Z" fill="#04FCA3"/>
<path d="M261.533 211.478C259.333 212.63 258.266 214.815 258.354 216.968C258.43 218.957 259.486 220.903 261.5 221.99C261.511 221.99 261.522 222.001 261.533 222.012L283.296 233.404C283.296 233.404 283.318 233.404 283.329 233.415C285.038 234.317 287.085 234.317 288.805 233.415C288.805 233.415 288.827 233.415 288.838 233.404L289.415 233.1L300.923 227.067L310.612 222.012C310.612 222.012 310.634 222.001 310.645 221.99C314.869 219.751 314.858 213.696 310.612 211.478L288.838 200.075C288.762 200.042 288.696 199.999 288.609 199.966C288.577 199.945 288.544 199.934 288.511 199.912C286.987 199.107 285.158 199.107 283.634 199.912C283.634 199.912 283.557 199.945 283.536 199.966C283.459 199.999 283.383 200.042 283.307 200.075L261.543 211.478H261.533Z" fill="#04FCA3"/>
<path d="M223.601 353.774V321.401H228.887V349.197H245.027V353.774H223.601Z" fill="#04FCA3"/>
<path d="M251.606 353.774V321.401H274.731V325.931H256.892V335.511H273.032V339.994H256.892V353.774H251.606Z" fill="#04FCA3"/>
<path d="M281.762 324.657V319.654H286.67V324.657H281.762ZM281.762 353.774V328.951H286.67V353.774H281.762Z" fill="#04FCA3"/>
<path d="M242.363 440.506L242.265 443.27L234.408 442.991L234.506 440.227L242.363 440.506Z" fill="#04FCA3"/>
<path d="M225.545 429.049L221.288 449.937L218.396 449.348L222.138 430.987L211.755 428.871L212.27 426.343L225.545 429.049Z" fill="#04FCA3"/>
<path d="M208.721 424.998L202.158 445.28L187.789 440.63L188.574 438.206L200.134 441.946L202.239 435.442L191.713 432.036L192.488 429.641L203.014 433.047L205.912 424.089L208.721 424.998Z" fill="#04FCA3"/>
<path d="M183.586 436.458L182.38 439.255L179.869 438.172L181.074 435.376L183.586 436.458ZM191.273 418.622L184.803 433.633L182.292 432.55L188.762 417.54L191.273 418.622Z" fill="#04FCA3"/>
<path d="M167.836 414.47L166.38 416.821L159.697 412.681L161.153 410.33L167.836 414.47Z" fill="#04FCA3"/>
<path d="M150.614 393.544L136.411 409.44L134.279 407.536L135.92 390.167C135.926 390.005 135.95 389.776 135.992 389.481C136.034 389.185 136.076 388.889 136.118 388.593C136.146 388.313 136.184 388.069 136.231 387.861L136.138 387.778C135.917 388.025 135.703 388.264 135.496 388.496C135.275 388.743 135.061 388.983 134.854 389.214L125.496 399.689L123.341 397.763L137.544 381.866L139.56 383.668L137.846 401.305C137.802 401.571 137.75 401.956 137.69 402.458C137.615 402.946 137.564 403.345 137.538 403.655L137.654 403.758C137.874 403.511 138.095 403.264 138.316 403.017C138.523 402.785 138.737 402.546 138.958 402.299L148.482 391.639L150.614 393.544Z" fill="#04FCA3"/>
<path d="M137.609 381.369L116.001 389.014L113.45 386.084L123.979 365.712L126.081 368.126L123.464 373.165L130.278 380.993L135.609 379.072L137.609 381.369ZM127.747 381.919L122.218 375.568L118.872 381.9C118.772 382.069 118.638 382.309 118.47 382.621C118.301 382.932 118.116 383.272 117.915 383.64C117.697 384.021 117.48 384.403 117.263 384.784C117.03 385.179 116.821 385.539 116.637 385.864L116.76 386.005C117.168 385.842 117.636 385.654 118.165 385.441C118.693 385.228 119.214 385.022 119.727 384.822C120.225 384.637 120.647 384.475 120.994 384.337L127.747 381.919Z" fill="#04FCA3"/>
<path d="M120.302 359.392L104.788 369.902L108.884 375.947L106.749 377.394L96.8665 362.807L99.0018 361.36L103.133 367.457L118.646 356.948L120.302 359.392Z" fill="#04FCA3"/>
<path d="M113.167 347.545L94.4283 357.708L93.0208 355.113L111.759 344.95L113.167 347.545Z" fill="#04FCA3"/>
<path d="M105.281 330.95L88.7209 346.554L87.4788 343.604L99.2755 332.703C99.4946 332.476 99.7519 332.233 100.047 331.974C100.343 331.714 100.629 331.459 100.905 331.208C101.181 330.957 101.424 330.731 101.632 330.531L101.559 330.359C101.298 330.379 100.981 330.4 100.608 330.422C100.235 330.445 99.8624 330.467 99.4896 330.489C99.0977 330.519 98.7249 330.541 98.3711 330.555L82.3539 331.432L81.148 328.568L103.894 327.656L105.281 330.95Z" fill="#04FCA3"/>
<path d="M100.779 318.58L80.2785 324.423L75.7809 308.644L78.2315 307.946L81.9198 320.886L88.2554 319.08L84.9419 307.455L87.3924 306.756L90.706 318.381L97.5197 316.439L93.7802 303.32L96.2308 302.621L100.779 318.58Z" fill="#04FCA3"/>
<path d="M93.8348 282.188L75.1645 283.783L75.786 291.059L73.2162 291.278L71.7165 273.723L74.2864 273.503L74.9132 280.841L93.5835 279.246L93.8348 282.188Z" fill="#04FCA3"/>
<path d="M94.0662 259.17C93.9773 261.385 93.4972 263.273 92.6259 264.835C91.7555 266.376 90.4852 267.548 88.815 268.352C87.1456 269.135 85.0793 269.477 82.616 269.378C80.132 269.278 78.0997 268.772 76.5192 267.858C74.9188 266.923 73.7465 265.653 73.0023 264.047C72.2589 262.421 71.9317 260.501 72.0206 258.286C72.1095 256.071 72.5891 254.193 73.4596 252.652C74.3308 251.091 75.6011 249.918 77.2705 249.135C78.92 248.331 80.9867 247.978 83.4707 248.078C85.934 248.177 87.9659 248.694 89.5663 249.629C91.1676 250.543 92.3399 251.813 93.0832 253.44C93.8274 255.045 94.155 256.955 94.0662 259.17ZM91.52 259.068C91.5666 257.909 91.4533 256.857 91.1801 255.913C90.9078 254.949 90.4534 254.132 89.8167 253.464C89.1602 252.774 88.3318 252.233 87.3317 251.84C86.3108 251.447 85.0965 251.222 83.6889 251.165L83.0369 251.139C81.6086 251.082 80.3802 251.209 79.3518 251.52C78.3027 251.83 77.4336 252.304 76.7446 252.939C76.0358 253.554 75.507 254.331 75.1583 255.27C74.8104 256.19 74.6132 257.229 74.5667 258.388C74.5193 259.568 74.6322 260.63 74.9054 261.574C75.1785 262.518 75.6433 263.334 76.2998 264.024C76.9356 264.713 77.764 265.254 78.7849 265.648C79.7859 266.02 81.0006 266.234 82.4289 266.292L83.0809 266.318C84.4885 266.374 85.7165 266.258 86.7648 265.968C87.7932 265.657 88.6622 265.184 89.3719 264.549C90.0609 263.913 90.5793 263.136 90.9272 262.217C91.2751 261.298 91.4727 260.248 91.52 259.068Z" fill="#04FCA3"/>
<path d="M95.0025 246.964L73.976 243.454L74.4621 240.542L85.5884 242.4L76.248 229.845L76.8518 226.228L83.9146 235.63L97.9244 229.463L97.3461 232.926L85.6611 238.001L88.9906 242.968L95.4886 244.052L95.0025 246.964Z" fill="#04FCA3"/>
<path d="M98.7315 228.585L78.2815 222.566L82.9146 206.826L85.3591 207.546L81.5596 220.453L87.8794 222.314L91.2928 210.717L93.7372 211.437L90.3238 223.033L97.1206 225.034L100.973 211.947L103.417 212.667L98.7315 228.585Z" fill="#04FCA3"/>
<path d="M105.14 209.368L85.6028 200.84L86.7466 198.219L103.759 194.355C103.915 194.31 104.139 194.261 104.434 194.208C104.728 194.156 105.022 194.104 105.316 194.051C105.591 193.99 105.835 193.95 106.047 193.93L106.097 193.816C105.793 193.683 105.499 193.555 105.214 193.43C104.91 193.298 104.616 193.169 104.331 193.045L91.4583 187.426L92.6145 184.777L112.152 193.305L111.07 195.783L93.7797 199.662C93.5129 199.704 93.1316 199.775 92.6358 199.875C92.1483 199.956 91.7534 200.032 91.4509 200.103L91.3888 200.246C91.6926 200.378 91.9963 200.511 92.3001 200.644C92.5849 200.768 92.8792 200.896 93.183 201.029L106.284 206.748L105.14 209.368Z" fill="#04FCA3"/>
<path d="M113.481 178.293L111.177 176.763L115.526 170.214L117.83 171.744L113.481 178.293Z" fill="#04FCA3"/>
<path d="M135.045 161.675L119.473 147.117L121.489 144.96L135.177 157.757L142.414 150.016L144.298 151.778L135.045 161.675Z" fill="#04FCA3"/>
<path d="M147.302 149.457L133.452 133.251L144.933 123.44L146.589 125.377L137.352 133.271L141.793 138.468L150.203 131.281L151.839 133.194L143.429 140.381L149.546 147.539L147.302 149.457Z" fill="#04FCA3"/>
<path d="M150.689 122.041L148.936 119.551L151.173 117.977L152.925 120.468L150.689 122.041ZM161.865 137.925L152.459 124.557L154.695 122.984L164.102 136.351L161.865 137.925Z" fill="#04FCA3"/>
<path d="M177.666 120.126L176.425 117.654L183.45 114.125L184.692 116.597L177.666 120.126Z" fill="#04FCA3"/>
<path d="M204.512 116.4L198.397 95.9781L201.136 95.1581L215.078 105.646C215.213 105.735 215.395 105.875 215.626 106.066C215.856 106.256 216.086 106.447 216.316 106.637C216.54 106.808 216.728 106.968 216.881 107.117L217 107.081C216.905 106.764 216.813 106.456 216.724 106.158C216.629 105.841 216.537 105.533 216.447 105.236L212.419 91.7799L215.187 90.951L221.302 111.373L218.712 112.148L204.579 101.458C204.375 101.281 204.075 101.036 203.678 100.722C203.301 100.403 202.988 100.151 202.738 99.9659L202.589 100.01C202.684 100.328 202.779 100.646 202.874 100.963C202.963 101.261 203.055 101.568 203.15 101.886L207.251 115.58L204.512 116.4Z" fill="#04FCA3"/>
<path d="M221.692 111.687L226.484 89.2732L230.315 88.6328L242.166 108.265L239.009 108.793L236.085 103.926L225.848 105.637L224.696 111.185L221.692 111.687ZM226.383 102.995L234.689 101.607L231.044 95.4424C230.952 95.2688 230.817 95.0287 230.64 94.7223C230.463 94.4158 230.27 94.0805 230.062 93.7161C229.851 93.3314 229.639 92.9466 229.428 92.5618C229.213 92.1566 229.016 91.7906 228.835 91.4637L228.651 91.4945C228.576 91.927 228.491 92.4243 228.396 92.9863C228.301 93.5483 228.204 94.1001 228.106 94.6417C228.004 95.1628 227.921 95.6073 227.856 95.9752L226.383 102.995Z" fill="#04FCA3"/>
<path d="M249.476 108.439L248.637 89.72L241.342 90.0467L241.227 87.47L258.829 86.6817L258.944 89.2584L251.587 89.5879L252.425 108.307L249.476 108.439Z" fill="#04FCA3"/>
<path d="M263.305 108.558L264.449 87.2716L267.397 87.4301L266.253 108.717L263.305 108.558Z" fill="#04FCA3"/>
<path d="M281.573 110.522L276.941 88.2451L280.105 88.7303L283.222 104.487C283.301 104.793 283.373 105.139 283.44 105.527C283.506 105.914 283.574 106.291 283.643 106.658C283.713 107.025 283.778 107.35 283.84 107.632L284.024 107.66C284.144 107.427 284.292 107.146 284.468 106.816C284.644 106.487 284.821 106.158 284.997 105.828C285.176 105.479 285.352 105.149 285.526 104.841L293.159 90.7323L296.231 91.2034L285.106 111.064L281.573 110.522Z" fill="#04FCA3"/>
<path d="M294.47 113.159L300.219 92.6313L316.018 97.0554L315.331 99.5092L302.374 95.8811L300.598 102.225L312.238 105.484L311.551 107.938L299.911 104.679L298 111.501L311.137 115.18L310.45 117.634L294.47 113.159Z" fill="#04FCA3"/>
<path d="M329.116 126.284L337.527 109.539L331.001 106.261L332.159 103.956L347.904 111.865L346.746 114.17L340.165 110.864L331.754 127.609L329.116 126.284Z" fill="#04FCA3"/>
<path d="M348.61 138.525C346.769 137.291 345.411 135.893 344.536 134.334C343.678 132.786 343.344 131.09 343.533 129.246C343.739 127.414 344.529 125.474 345.902 123.426C347.287 121.362 348.782 119.895 350.388 119.026C352.022 118.152 353.718 117.817 355.476 118.023C357.25 118.241 359.058 118.967 360.899 120.202C362.74 121.437 364.089 122.828 364.947 124.376C365.822 125.935 366.156 127.631 365.95 129.464C365.772 131.29 364.991 133.236 363.607 135.301C362.233 137.348 360.73 138.809 359.095 139.684C357.478 140.57 355.782 140.904 354.007 140.686C352.25 140.48 350.451 139.76 348.61 138.525ZM350.029 136.409C350.992 137.055 351.948 137.509 352.895 137.77C353.86 138.043 354.793 138.083 355.696 137.89C356.627 137.692 357.522 137.269 358.38 136.622C359.249 135.958 360.076 135.041 360.861 133.871L361.225 133.329C362.021 132.142 362.555 131.029 362.828 129.989C363.113 128.933 363.165 127.945 362.983 127.025C362.831 126.099 362.445 125.242 361.827 124.453C361.226 123.676 360.443 122.964 359.48 122.318C358.499 121.66 357.535 121.201 356.588 120.94C355.641 120.678 354.701 120.647 353.77 120.846C352.85 121.027 351.955 121.45 351.086 122.114C350.245 122.772 349.427 123.695 348.63 124.882L348.267 125.424C347.482 126.594 346.939 127.701 346.637 128.746C346.364 129.785 346.313 130.774 346.483 131.711C346.664 132.63 347.055 133.479 347.656 134.256C348.257 135.034 349.048 135.751 350.029 136.409Z" fill="#04FCA3"/>
<path d="M358.522 145.711L372.516 129.629L374.743 131.567L367.338 140.077L382.924 138.687L385.69 141.094L373.982 142.193L371.907 157.359L369.258 155.054L371.048 142.44L365.073 142.679L360.749 147.649L358.522 145.711Z" fill="#04FCA3"/>
<path d="M372.232 158.505L388.062 144.228L399.051 156.412L397.159 158.119L388.147 148.127L383.255 152.539L391.351 161.516L389.458 163.222L381.363 154.245L376.101 158.99L385.237 169.121L383.345 170.828L372.232 158.505Z" fill="#04FCA3"/>
<path d="M385.255 174.022L402.746 161.836L404.38 164.182L398.771 180.702C398.728 180.858 398.652 181.075 398.543 181.353C398.434 181.631 398.324 181.909 398.215 182.187C398.123 182.454 398.03 182.682 397.936 182.874L398.007 182.976C398.279 182.787 398.543 182.603 398.798 182.425C399.069 182.236 399.333 182.052 399.588 181.875L411.113 173.845L412.765 176.216L395.274 188.403L393.728 186.184L399.47 169.42C399.574 169.171 399.713 168.809 399.888 168.334C400.074 167.877 400.215 167.5 400.313 167.205L400.224 167.077C399.952 167.267 399.68 167.456 399.408 167.646C399.153 167.824 398.89 168.007 398.618 168.197L386.889 176.368L385.255 174.022Z" fill="#04FCA3"/>
<path d="M407.371 197.391L409.88 196.228L413.186 203.361L410.676 204.524L407.371 197.391Z" fill="#04FCA3"/>
<path d="M410.249 224.463L430.803 218.811L431.586 221.657L413.519 226.626L416.328 236.843L413.841 237.527L410.249 224.463Z" fill="#04FCA3"/>
<path d="M414.246 241.301L435.304 237.979L437.657 252.897L435.14 253.294L433.247 241.292L426.494 242.357L428.218 253.285L425.731 253.677L424.007 242.749L414.707 244.217L414.246 241.301Z" fill="#04FCA3"/>
<path d="M435.837 258.533L438.877 258.343L439.048 261.072L436.008 261.262L435.837 258.533ZM416.453 259.746L432.767 258.725L432.938 261.455L416.624 262.475L416.453 259.746Z" fill="#04FCA3"/>
<path d="M423.353 282.525L426.109 282.76L425.44 290.594L422.684 290.359L423.353 282.525Z" fill="#04FCA3"/>
<path d="M412.481 307.351L433.083 312.827L432.349 315.59L416.116 321.983C415.969 322.051 415.755 322.133 415.472 322.23C415.189 322.326 414.906 322.422 414.623 322.519C414.36 322.62 414.126 322.697 413.919 322.749L413.887 322.87C414.207 322.955 414.518 323.037 414.818 323.117C415.138 323.202 415.449 323.285 415.749 323.364L429.324 326.972L428.581 329.765L407.979 324.29L408.673 321.677L425.178 315.228C425.436 315.146 425.802 315.018 426.277 314.844C426.747 314.691 427.125 314.555 427.414 314.439L427.453 314.289C427.133 314.204 426.813 314.119 426.492 314.033C426.192 313.954 425.882 313.871 425.561 313.786L411.746 310.114L412.481 307.351Z" fill="#04FCA3"/>
<path d="M407.506 324.456L424.099 340.269L422.64 343.869L399.708 343.694L400.911 340.728L406.589 340.783L410.487 331.164L406.362 327.279L407.506 324.456ZM412.458 333.002L409.295 340.807L416.456 340.926C416.652 340.939 416.927 340.95 417.281 340.959C417.635 340.968 418.021 340.98 418.44 340.993C418.879 341.014 419.317 341.036 419.756 341.057C420.213 341.086 420.629 341.109 421.002 341.126L421.072 340.953C420.742 340.663 420.363 340.331 419.934 339.955C419.505 339.58 419.085 339.209 418.675 338.842C418.285 338.482 417.949 338.179 417.67 337.931L412.458 333.002Z" fill="#04FCA3"/>
<path d="M395.736 349.834L412.127 358.915L415.666 352.527L417.922 353.777L409.383 369.189L407.127 367.939L410.696 361.497L394.305 352.416L395.736 349.834Z" fill="#04FCA3"/>
<path d="M388.398 361.556L405.939 373.67L404.261 376.099L386.72 363.985L388.398 361.556Z" fill="#04FCA3"/>
<path d="M377.165 376.096L398.573 383.806L396.504 386.248L381.445 380.659C381.144 380.566 380.81 380.447 380.446 380.301C380.081 380.155 379.724 380.015 379.375 379.882C379.026 379.749 378.715 379.636 378.442 379.54L378.322 379.683C378.458 379.907 378.62 380.18 378.809 380.502C378.997 380.825 379.185 381.147 379.374 381.47C379.578 381.806 379.766 382.128 379.939 382.437L387.967 396.325L385.958 398.696L374.855 378.823L377.165 376.096Z" fill="#04FCA3"/>
<path d="M368.169 385.707L382.655 401.347L370.617 412.496L368.885 410.626L378.757 401.483L374.281 396.65L365.412 404.864L363.68 402.994L372.549 394.78L367.735 389.582L357.726 398.852L355.995 396.983L368.169 385.707Z" fill="#04FCA3"/>
<path d="M338.856 408.363L348.724 424.292L354.932 420.446L356.29 422.639L341.312 431.918L339.954 429.725L346.214 425.847L336.346 409.917L338.856 408.363Z" fill="#04FCA3"/>
<path d="M318.224 418.568C320.239 417.645 322.14 417.219 323.927 417.29C325.695 417.369 327.315 417.972 328.787 419.098C330.241 420.232 331.481 421.92 332.507 424.162C333.542 426.422 334.009 428.464 333.91 430.287C333.8 432.137 333.197 433.757 332.102 435.147C330.988 436.546 329.423 437.707 327.407 438.629C325.392 439.552 323.5 439.974 321.732 439.894C319.946 439.824 318.325 439.221 316.872 438.087C315.408 436.98 314.159 435.296 313.124 433.035C312.098 430.794 311.64 428.748 311.75 426.898C311.841 425.056 312.443 423.436 313.557 422.037C314.653 420.647 316.208 419.491 318.224 418.568ZM319.284 420.885C318.229 421.368 317.343 421.945 316.625 422.615C315.887 423.295 315.365 424.069 315.057 424.939C314.739 425.837 314.631 426.82 314.733 427.89C314.844 428.978 315.193 430.163 315.779 431.444L316.051 432.037C316.646 433.337 317.315 434.375 318.057 435.152C318.809 435.947 319.624 436.508 320.502 436.835C321.371 437.189 322.303 437.309 323.299 437.195C324.276 437.089 325.292 436.795 326.347 436.312C327.42 435.821 328.316 435.24 329.035 434.569C329.753 433.899 330.271 433.114 330.59 432.217C330.916 431.338 331.024 430.355 330.913 429.266C330.792 428.205 330.434 427.025 329.839 425.725L329.567 425.132C328.981 423.851 328.322 422.809 327.589 422.005C326.846 421.228 326.031 420.667 325.144 420.322C324.265 419.995 323.337 419.884 322.36 419.99C321.383 420.095 320.358 420.394 319.284 420.885Z" fill="#04FCA3"/>
<path d="M306.914 423.255L313.295 443.595L310.478 444.479L307.102 433.716L300.13 447.725L296.632 448.823L301.822 438.271L289.984 428.567L293.334 427.516L303.146 435.641L306.069 430.425L304.097 424.139L306.914 423.255Z" fill="#04FCA3"/>
<path d="M288.837 428.244L292.719 449.205L276.586 452.193L276.122 449.688L289.352 447.237L288.153 440.759L276.267 442.961L275.802 440.455L287.688 438.254L286.398 431.287L272.984 433.772L272.52 431.266L288.837 428.244Z" fill="#04FCA3"/>
<path d="M268.799 431.222L270.031 452.503L267.177 452.669L256.034 439.244C255.924 439.126 255.778 438.948 255.599 438.709C255.419 438.471 255.239 438.232 255.059 437.994C254.881 437.776 254.734 437.577 254.62 437.396L254.496 437.404C254.515 437.735 254.534 438.055 254.552 438.365C254.571 438.696 254.589 439.017 254.607 439.327L255.419 453.349L252.534 453.517L251.302 432.235L254.001 432.078L265.282 445.744C265.44 445.963 265.675 446.271 265.989 446.668C266.282 447.066 266.528 447.384 266.729 447.621L266.884 447.612C266.865 447.281 266.846 446.95 266.827 446.619C266.809 446.309 266.79 445.988 266.771 445.658L265.945 431.387L268.799 431.222Z" fill="#04FCA3"/>
</svg>
