<svg width="731" height="85" viewBox="0 0 731 85" fill="none" xmlns="http://www.w3.org/2000/svg">
<path d="M0.947657 83V1.934H31.7457L41.5397 38.042C41.933 39.3007 42.405 41.0313 42.9557 43.234C43.5063 45.358 44.057 47.6 44.6077 49.96C45.1583 52.32 45.6303 54.444 46.0237 56.332H46.9677C47.2823 54.8373 47.6757 53.0673 48.1477 51.022C48.6197 48.898 49.131 46.6953 49.6817 44.414C50.2323 42.054 50.7437 39.8907 51.2157 37.924L61.1277 1.934H91.0997V83H70.5677V48.426C70.5677 45.0433 70.5677 41.6213 70.5677 38.16C70.6463 34.6987 70.725 31.552 70.8037 28.72C70.8823 25.888 70.9217 23.8427 70.9217 22.584H69.9777C69.7417 23.764 69.3483 25.4947 68.7977 27.776C68.3257 29.9787 67.775 32.2993 67.1457 34.738C66.595 37.098 66.0837 39.1433 65.6117 40.874L53.8117 83H36.8197L24.9017 40.874C24.5083 39.3007 24.0363 37.4127 23.4857 35.21C22.935 33.0073 22.3843 30.7653 21.8337 28.484C21.3617 26.2027 20.929 24.2753 20.5357 22.702H19.5917C19.6703 24.7473 19.749 27.2647 19.8277 30.254C19.9063 33.1647 19.985 36.2327 20.0637 39.458C20.1423 42.6047 20.1817 45.594 20.1817 48.426V83H0.947657ZM101.401 83L131.845 1.934H157.215L187.659 83H165.121L160.283 68.958H127.951L123.113 83H101.401ZM133.025 53.146H155.091L149.309 36.036C148.994 35.1707 148.601 34.1087 148.129 32.85C147.736 31.5127 147.303 30.136 146.831 28.72C146.438 27.2253 146.044 25.7307 145.651 24.236C145.258 22.7413 144.864 21.4433 144.471 20.342H143.645C143.33 21.8367 142.858 23.528 142.229 25.416C141.678 27.304 141.088 29.192 140.459 31.08C139.908 32.968 139.397 34.62 138.925 36.036L133.025 53.146ZM197.846 83V1.934H216.608L246.108 39.576C246.659 40.2053 247.367 41.11 248.232 42.29C249.176 43.47 250.081 44.6893 250.946 45.948C251.811 47.128 252.441 48.072 252.834 48.78L253.424 48.662C253.424 46.9313 253.424 45.2793 253.424 43.706C253.424 42.054 253.424 40.6773 253.424 39.576V1.934H273.012V83H254.368L223.098 43.352C222.075 42.0933 221.092 40.7953 220.148 39.458C219.283 38.1207 218.575 37.0193 218.024 36.154L217.434 36.272C217.434 37.5307 217.434 38.8287 217.434 40.166C217.434 41.4247 217.434 42.4867 217.434 43.352V83H197.846ZM291.225 83V1.934H312.347V83H291.225ZM330.559 83V1.934H392.745V18.454H351.681V35.918H387.789V52.084H351.681V83H330.559ZM406.889 83V1.934H473.795V18.454H428.011V33.676H468.013V49.842H428.011V66.48H474.621V83H406.889ZM523.291 84.416C518.177 84.416 513.379 83.944 508.895 83C504.411 82.1347 500.438 80.6793 496.977 78.634C493.594 76.5887 490.919 73.914 488.953 70.61C486.986 67.2273 486.003 63.0973 486.003 58.22C486.003 57.9053 486.003 57.5513 486.003 57.158C486.003 56.7647 486.042 56.45 486.121 56.214H506.535C506.535 56.45 506.495 56.7647 506.417 57.158C506.417 57.4727 506.417 57.748 506.417 57.984C506.417 60.5013 507.046 62.5467 508.305 64.12C509.642 65.6147 511.491 66.716 513.851 67.424C516.211 68.0533 518.964 68.368 522.111 68.368C523.841 68.368 525.454 68.2893 526.949 68.132C528.443 67.9747 529.781 67.6993 530.961 67.306C532.141 66.9127 533.163 66.4407 534.029 65.89C534.973 65.2607 535.641 64.5527 536.035 63.766C536.507 62.9007 536.743 61.9173 536.743 60.816C536.743 59.0067 536.035 57.512 534.619 56.332C533.281 55.152 531.433 54.1687 529.073 53.382C526.791 52.5953 524.195 51.848 521.285 51.14C518.374 50.432 515.345 49.6847 512.199 48.898C509.052 48.1113 506.023 47.128 503.113 45.948C500.202 44.768 497.567 43.2733 495.207 41.464C492.925 39.6547 491.077 37.4127 489.661 34.738C488.323 31.9847 487.655 28.6807 487.655 24.826C487.655 20.578 488.559 16.92 490.369 13.852C492.178 10.7053 494.656 8.14866 497.803 6.182C501.028 4.21533 504.725 2.79933 508.895 1.934C513.064 0.989994 517.509 0.517993 522.229 0.517993C526.87 0.517993 531.197 0.989994 535.209 1.934C539.299 2.878 542.918 4.37266 546.065 6.41799C549.211 8.38466 551.65 10.902 553.381 13.97C555.19 16.9593 556.134 20.578 556.213 24.826V26.242H535.917V25.416C535.917 23.6067 535.405 22.0333 534.383 20.696C533.439 19.28 531.983 18.1787 530.017 17.392C528.05 16.5267 525.611 16.094 522.701 16.094C519.79 16.094 517.312 16.3693 515.267 16.92C513.3 17.4707 511.766 18.2573 510.665 19.28C509.642 20.3027 509.131 21.522 509.131 22.938C509.131 24.6687 509.799 26.0847 511.137 27.186C512.553 28.2873 514.441 29.2313 516.801 30.018C519.161 30.8047 521.796 31.552 524.707 32.26C527.617 32.8893 530.607 33.5973 533.675 34.384C536.821 35.092 539.85 36.036 542.761 37.216C545.671 38.3173 548.307 39.7727 550.667 41.582C553.027 43.3127 554.875 45.476 556.213 48.072C557.629 50.668 558.337 53.8147 558.337 57.512C558.337 63.9627 556.803 69.1547 553.735 73.088C550.745 77.0213 546.576 79.8927 541.227 81.702C535.956 83.5113 529.977 84.416 523.291 84.416ZM592.734 83V19.28H566.42V1.934H640.17V19.28H613.856V83H592.734ZM688.163 84.416C679.274 84.416 671.643 82.882 665.271 79.814C658.978 76.6673 654.14 71.9867 650.757 65.772C647.374 59.5573 645.683 51.7693 645.683 42.408C645.683 33.0467 647.374 25.298 650.757 19.162C654.14 12.9473 658.978 8.306 665.271 5.238C671.643 2.09133 679.274 0.517993 688.163 0.517993C697.052 0.517993 704.644 2.09133 710.937 5.238C717.309 8.306 722.186 12.9473 725.569 19.162C728.952 25.298 730.643 33.0467 730.643 42.408C730.643 51.7693 728.952 59.5573 725.569 65.772C722.186 71.9867 717.309 76.6673 710.937 79.814C704.644 82.882 697.052 84.416 688.163 84.416ZM688.163 67.896C691.546 67.896 694.535 67.3847 697.131 66.362C699.727 65.3393 701.89 63.8447 703.621 61.878C705.43 59.9113 706.768 57.512 707.633 54.68C708.498 51.848 708.931 48.662 708.931 45.122V39.93C708.931 36.3113 708.498 33.086 707.633 30.254C706.768 27.422 705.43 25.0227 703.621 23.056C701.89 21.0893 699.727 19.5947 697.131 18.572C694.535 17.5493 691.546 17.038 688.163 17.038C684.702 17.038 681.673 17.5493 679.077 18.572C676.481 19.5947 674.318 21.0893 672.587 23.056C670.856 25.0227 669.558 27.422 668.693 30.254C667.828 33.086 667.395 36.3113 667.395 39.93V45.122C667.395 48.662 667.828 51.848 668.693 54.68C669.558 57.512 670.856 59.9113 672.587 61.878C674.318 63.8447 676.481 65.3393 679.077 66.362C681.673 67.3847 684.702 67.896 688.163 67.896Z" fill="#F1F4F8"/>
</svg>
