<svg xmlns="http://www.w3.org/2000/svg" width="24" height="24" viewBox="0 0 6.35 6.35" id="up-arrow"><path d="m 141.69141,129.9668 c -5.09227,0.15854 -9.33031,4.12809 -9.70508,9.26953 -0.39961,5.48422 3.73091,10.27891 9.21289,10.69726 5.48198,0.41833 10.29769,-3.6944 10.73437,-9.17578 0.43688,-5.48137 -3.67166,-10.31191 -9.20507,-10.77148 a 1.0001006,1.0001006 0 0 0 -0.008,0 c -0.34619,-0.0241 -0.68981,-0.0301 -1.02929,-0.0195 z m 0.0449,1.99804 c 0.27332,-0.009 0.54879,-0.003 0.82812,0.0156 0.002,2e-4 0.005,-2e-4 0.008,0 4.4677,0.37486 7.71823,4.20912 7.36718,8.61328 -0.35104,4.40647 -4.17758,7.68195 -8.58398,7.3457 -4.4064,-0.33627 -7.68845,-4.15368 -7.36719,-8.5625 0.30093,-4.12859 3.64816,-7.28346 7.74805,-7.41211 z m 0.24414,2.02344 a 1.0001006,1.0001006 0 0 0 -0.67774,0.29492 l -4,3.99414 a 1.0000006,1.0000006 0 0 0 -0.28906,0.67774 1.0000006,1.0000006 0 0 0 0.28906,0.73828 1.0000006,1.0000006 0 0 0 1.41602,0 l 3.29297,-3.29102 3.36523,3.38672 a 1.0000006,1.0000006 0 0 0 1.41797,0.008 1.0000006,1.0000006 0 0 0 0,-1.41602 l -4.07422,-4.09766 a 1.0001006,1.0001006 0 0 0 -0.74023,-0.29492 z m 0,4.91016 a 1.0001006,1.0001006 0 0 0 -0.67774,0.29297 l -4,4.00195 a 1.0000006,1.0000006 0 0 0 -0.28906,0.67187 1.0000006,1.0000006 0 0 0 0.28906,0.7461 1.0000006,1.0000006 0 0 0 1.41602,0 l 3.29297,-3.29297 3.36523,3.38867 a 1.0000006,1.0000006 0 0 0 1.41797,0 1.0000006,1.0000006 0 0 0 0,-1.41015 l -4.07422,-4.10547 a 1.0001006,1.0001006 0 0 0 -0.74023,-0.29297 z" color="#000" font-family="sans-serif" font-weight="400" overflow="visible" paint-order="stroke fill markers" transform="translate(-34.386 -33.857) scale(.26458)" style="line-height:normal;font-variant-ligatures:normal;font-variant-position:normal;font-variant-caps:normal;font-variant-numeric:normal;font-variant-alternates:normal;font-variant-east-asian:normal;font-feature-settings:normal;font-variation-settings:normal;text-indent:0;text-align:start;text-decoration-line:none;text-decoration-style:solid;text-decoration-color:#000;text-transform:none;text-orientation:mixed;shape-padding:0;shape-margin:0;inline-size:0;isolation:auto;mix-blend-mode:normal"></path></svg>