<svg width="104" height="104" viewBox="0 0 104 104" fill="none" xmlns="http://www.w3.org/2000/svg">
<path fill-rule="evenodd" clip-rule="evenodd" d="M104 51.9995C104 80.7183 80.7184 104 51.9996 104C23.2808 104 -0.000427246 80.7183 -0.000427246 51.9995C-0.000427246 23.2807 23.2808 -0.000488281 51.9996 -0.000488281C80.7184 -0.000488281 104 23.2807 104 51.9995ZM51.9996 102C79.6138 102 102 79.6137 102 51.9995C102 24.3853 79.6138 1.99951 51.9996 1.99951C24.3853 1.99951 1.99957 24.3853 1.99957 51.9995C1.99957 79.6137 24.3853 102 51.9996 102Z" fill="#F1F4F8"/>
<path fill-rule="evenodd" clip-rule="evenodd" d="M51.9996 88.0508C71.9101 88.0508 88.0509 71.9101 88.0509 51.9995C88.0509 32.0889 71.9101 15.9482 51.9996 15.9482C32.089 15.9482 15.9483 32.0889 15.9483 51.9995C15.9483 71.9101 32.089 88.0508 51.9996 88.0508ZM51.9996 88.9995C72.4341 88.9995 88.9996 72.434 88.9996 51.9995C88.9996 31.565 72.4341 14.9995 51.9996 14.9995C31.565 14.9995 14.9996 31.565 14.9996 51.9995C14.9996 72.434 31.565 88.9995 51.9996 88.9995Z" fill="#F1F4F8"/>
<path d="M65.2439 45.2984L65.2181 45.2855C64.9424 45.1415 64.6151 45.2855 64.512 45.5814C64.311 46.1629 63.8987 46.6827 63.2725 47.0095L53.1966 52.2841C52.4492 52.6778 51.555 52.6778 50.8051 52.2841L40.7292 47.0095C40.103 46.6827 39.6907 46.1629 39.4897 45.5814C39.3892 45.2881 39.0593 45.1415 38.7836 45.2855L38.7578 45.2984C37.7502 45.8259 37.7502 47.2642 38.7578 47.7917L51.3437 54.3811C51.7535 54.5947 52.2431 54.5947 52.6528 54.3811L65.2413 47.7917C66.2489 47.2642 66.2489 45.8259 65.2413 45.2984H65.2439Z" fill="#F1F4F8"/>
<path d="M65.2439 40.5718L65.2181 40.559C64.9424 40.4149 64.6151 40.559 64.512 40.8549C64.311 41.4364 63.8987 41.9561 63.2725 42.2829L53.1966 47.5576C52.4493 47.9512 51.555 47.9512 50.8051 47.5576L40.7266 42.2829C40.1004 41.9561 39.6881 41.4364 39.4871 40.8549C39.3866 40.5615 39.0568 40.4149 38.781 40.559L38.7553 40.5718C37.7477 41.0993 37.7477 42.5376 38.7553 43.0651L51.3412 49.6546C51.7509 49.8681 52.2405 49.8681 52.6503 49.6546L65.2387 43.0651C66.2463 42.5376 66.2463 41.0993 65.2387 40.5718H65.2439Z" fill="#F1F4F8"/>
<path d="M38.7572 38.2398L39.6411 38.7004L41.0507 39.4389L43.7746 40.8617L45.5063 41.77L51.6472 44.9811C51.8688 45.0969 52.1343 45.0969 52.3559 44.9811L54.2886 43.9699C55.2962 43.4425 55.2962 42.0042 54.2886 41.4767L48.4441 38.4174L48.0962 38.2347C47.1272 37.7252 47.0911 36.3744 47.9879 35.8058C48.0214 35.7826 48.0601 35.762 48.0962 35.7414L55.3838 31.9282C55.9276 31.6426 55.9276 30.8656 55.3838 30.5826L52.6548 29.1597C52.2451 28.9461 51.7555 28.9461 51.3457 29.1597L38.7572 35.7466C37.7497 36.2715 37.7497 37.7124 38.7572 38.2398Z" fill="#F1F4F8"/>
<path d="M53.6269 35.7448C53.1064 36.0175 52.8538 36.5347 52.8744 37.0442C52.8925 37.515 53.1425 37.9756 53.6192 38.2329C53.6218 38.2329 53.6243 38.2355 53.6269 38.238L58.7783 40.9346C58.7783 40.9346 58.7834 40.9346 58.786 40.9371C59.1906 41.1507 59.6751 41.1507 60.0822 40.9371C60.0822 40.9371 60.0874 40.9371 60.0899 40.9346L60.2265 40.8625L62.9504 39.4345L65.2439 38.238C65.2439 38.238 65.249 38.2355 65.2516 38.2329C66.2515 37.7029 66.2489 36.2697 65.2439 35.7448L60.0899 33.0457C60.0719 33.038 60.0564 33.0277 60.0358 33.02C60.0281 33.0148 60.0204 33.0123 60.0126 33.0071C59.6519 32.8167 59.2189 32.8167 58.8582 33.0071C58.8582 33.0071 58.8401 33.0148 58.835 33.02C58.8169 33.0277 58.7989 33.038 58.7808 33.0457L53.6295 35.7448H53.6269Z" fill="#F1F4F8"/>
<path d="M42.6956 72.9995L40.3556 66.6875H41.6636L42.7556 69.6995C42.8036 69.8435 42.8636 70.0315 42.9356 70.2635C43.0076 70.4875 43.0796 70.7195 43.1516 70.9595C43.2236 71.1995 43.2876 71.4155 43.3436 71.6075H43.4036C43.4516 71.4235 43.5076 71.2155 43.5716 70.9835C43.6436 70.7435 43.7156 70.5075 43.7876 70.2755C43.8596 70.0435 43.9236 69.8515 43.9796 69.6995L45.0596 66.6875H46.3316L43.9796 72.9995H42.6956Z" fill="#F1F4F8"/>
<path d="M47.9071 72.9995V64.7675H49.2511V71.8355H53.3551V72.9995H47.9071Z" fill="#F1F4F8"/>
<path d="M55.0282 72.9995V64.7675H60.9082V65.9195H56.3722V68.3555H60.4762V69.4955H56.3722V72.9995H55.0282Z" fill="#F1F4F8"/>
<path d="M62.6961 65.5955V64.3235H63.9441V65.5955H62.6961ZM62.6961 72.9995V66.6875H63.9441V72.9995H62.6961Z" fill="#F1F4F8"/>
<path d="M49.715 92.8759L50.9737 96.8511L50.2907 96.818L49.6725 94.8309C49.6424 94.7352 49.6086 94.6145 49.571 94.4688C49.5331 94.3281 49.4955 94.1824 49.4582 94.0318C49.4156 93.8858 49.3822 93.7552 49.3581 93.64L49.3209 93.6382C49.281 93.7454 49.2353 93.8697 49.1838 94.011C49.1321 94.1574 49.0806 94.2988 49.0294 94.4352C48.9729 94.5763 48.925 94.6955 48.8855 94.7929L48.0857 96.7113L47.425 96.6793L49.0617 92.8442L49.715 92.8759Z" fill="#F1F4F8"/>
<path d="M46.6955 92.5968L45.9611 97.6426L45.2624 97.5409L45.9079 93.1056L43.3997 92.7405L43.4886 92.13L46.6955 92.5968Z" fill="#F1F4F8"/>
<path d="M42.8297 91.9036L41.5944 96.8507L38.0896 95.9756L38.2373 95.3842L41.057 96.0883L41.4531 94.5018L38.8858 93.8607L39.0317 93.2766L41.599 93.9177L42.1446 91.7326L42.8297 91.9036Z" fill="#F1F4F8"/>
<path d="M37.2954 95.145L37.0602 95.8344L36.4411 95.6231L36.6764 94.9337L37.2954 95.145ZM38.7957 90.7483L37.533 94.4485L36.914 94.2373L38.1766 90.5371L38.7957 90.7483Z" fill="#F1F4F8"/>
<path d="M33.4014 90.3455L33.1071 90.9379L31.423 90.1013L31.7173 89.5088L33.4014 90.3455Z" fill="#F1F4F8"/>
<path d="M27.9634 85.142L26.5846 90.4069L25.9585 89.9662L26.968 86.2592C26.9836 86.1854 27.0049 86.1034 27.032 86.0134C27.059 85.9233 27.0846 85.8353 27.1088 85.7493C27.1329 85.6633 27.1534 85.5868 27.1702 85.5199L27.1338 85.4942C27.0833 85.5315 27.0217 85.576 26.9489 85.6277C26.8761 85.6795 26.8033 85.7313 26.7305 85.783C26.6549 85.8389 26.5821 85.8906 26.5121 85.9384L23.3753 88.1479L22.7675 87.7201L27.2645 84.65L27.9634 85.142Z" fill="#F1F4F8"/>
<path d="M25.6587 83.3509L22.2908 87.1793L19.3441 84.587L19.7467 84.1294L22.1632 86.2552L23.204 85.0721L21.0331 83.1623L21.4357 82.7047L23.6066 84.6145L24.726 83.3421L22.276 81.1868L22.6786 80.7292L25.6587 83.3509Z" fill="#F1F4F8"/>
<path d="M21.1183 78.7562C21.3048 78.9616 21.4645 79.1781 21.5973 79.4055C21.7268 79.6292 21.8142 79.8545 21.8593 80.0812C21.9008 80.3112 21.89 80.5352 21.8269 80.7531C21.7604 80.9674 21.6226 81.1695 21.4134 81.3593C21.3951 81.376 21.3768 81.3926 21.3584 81.4093C21.3367 81.4223 21.3167 81.4371 21.2984 81.4537L20.8188 80.9254C20.8298 80.9154 20.8498 80.9006 20.8788 80.881C20.9008 80.861 20.921 80.8426 20.9393 80.826C21.0861 80.6928 21.1709 80.5355 21.1937 80.3542C21.2165 80.1729 21.1836 79.9819 21.0951 79.7811C20.9996 79.5801 20.8619 79.3805 20.682 79.1823C20.6021 79.0943 20.5133 79.0076 20.4157 78.9222C20.3148 78.8331 20.2115 78.7562 20.1059 78.6914C19.9932 78.6264 19.8833 78.579 19.776 78.5492C19.6617 78.5191 19.5532 78.5139 19.4505 78.5335C19.3408 78.5527 19.2364 78.6073 19.1374 78.6973C19.0126 78.8105 18.9432 78.9404 18.9291 79.0871C18.908 79.2334 18.9251 79.3886 18.9803 79.5526C19.0318 79.72 19.1057 79.8972 19.2019 80.0843C19.2911 80.271 19.3871 80.4616 19.49 80.656C19.5928 80.8504 19.6869 81.0461 19.7721 81.2432C19.8503 81.4399 19.9041 81.6319 19.9336 81.8193C19.9595 82.0099 19.947 82.1953 19.8963 82.3752C19.8421 82.5515 19.7307 82.7163 19.5619 82.8695C19.4041 83.0127 19.2346 83.1097 19.0532 83.1606C18.8685 83.2078 18.6774 83.2073 18.4797 83.1592C18.2751 83.1107 18.0658 83.0129 17.8519 82.8658C17.6344 82.7219 17.4157 82.529 17.1959 82.2868C17.016 82.0887 16.8715 81.8853 16.7623 81.6765C16.6461 81.4674 16.5738 81.2587 16.5453 81.0504C16.5097 80.8417 16.5247 80.6407 16.5902 80.4474C16.6557 80.2541 16.7819 80.0726 16.9691 79.9027L17.0351 79.8427L17.5047 80.3601L17.4222 80.435C17.2974 80.5482 17.226 80.6834 17.2079 80.8403C17.1898 80.9973 17.2185 81.1653 17.294 81.3444C17.3662 81.5198 17.4789 81.6919 17.6322 81.8606C17.832 82.0808 18.0205 82.2442 18.1978 82.351C18.3714 82.4611 18.5318 82.5163 18.6792 82.5164C18.8195 82.5161 18.9392 82.471 19.0383 82.3811C19.152 82.2779 19.2158 82.1564 19.2295 82.0168C19.24 81.8734 19.2176 81.7198 19.1623 81.5557C19.1035 81.395 19.0259 81.2211 18.9297 81.0341C18.8335 80.847 18.7375 80.6564 18.6416 80.4624C18.5388 80.268 18.4483 80.0724 18.3701 79.8757C18.2849 79.6786 18.2293 79.4848 18.2035 79.2941C18.1706 79.1031 18.1831 78.9177 18.2409 78.7381C18.295 78.5618 18.4083 78.3954 18.5807 78.2389C18.8486 77.9957 19.1268 77.8636 19.4155 77.8425C19.7005 77.8247 19.9864 77.8964 20.2733 78.0576C20.5602 78.2188 20.8419 78.4516 21.1183 78.7562Z" fill="#F1F4F8"/>
<path d="M18.5988 75.6792L14.9744 78.3158L16.0019 79.7283L15.503 80.0913L13.0238 76.6832L13.5227 76.3203L14.559 77.7448L18.1834 75.1081L18.5988 75.6792Z" fill="#F1F4F8"/>
<path d="M16.923 73.1146L12.5516 75.7395L12.1881 75.1341L16.5595 72.5092L16.923 73.1146Z" fill="#F1F4F8"/>
<path d="M15.5065 70.586L10.9121 72.7975L10.6155 72.1813L12.5692 68.4939C12.5853 68.4587 12.6115 68.4104 12.6479 68.3489C12.6843 68.2873 12.7207 68.2258 12.757 68.1643C12.789 68.105 12.8196 68.0544 12.8491 68.0128L12.8362 67.986C12.7647 68.0204 12.6955 68.0537 12.6286 68.0859C12.5571 68.1203 12.4879 68.1536 12.4209 68.1859L9.39372 69.643L9.09391 69.0202L13.6883 66.8086L13.9688 67.3913L11.9744 71.1313C11.9403 71.1862 11.8937 71.2664 11.8345 71.3719C11.7731 71.4729 11.7253 71.5564 11.6911 71.6224L11.7072 71.6559C11.7787 71.6215 11.8501 71.5871 11.9215 71.5527C11.9885 71.5205 12.0577 71.4871 12.1291 71.4528L15.21 69.9698L15.5065 70.586Z" fill="#F1F4F8"/>
<path d="M12.9866 64.1937C13.255 64.9712 13.2558 65.6341 12.989 66.1823C12.7206 66.7258 12.1624 67.1439 11.3146 67.4366C10.7619 67.6274 10.2682 67.693 9.8335 67.6334C9.39879 67.5738 9.02703 67.3928 8.71822 67.0905C8.40473 66.7899 8.15743 66.3772 7.97632 65.8526C7.86312 65.5247 7.79557 65.2152 7.77366 64.9239C7.75174 64.6327 7.78024 64.366 7.85914 64.1238C7.93175 63.8786 8.05799 63.6672 8.23788 63.4898C8.41615 63.3077 8.65283 63.1657 8.94792 63.0638L9.18321 63.7453C8.97711 63.8165 8.8144 63.9146 8.69507 64.0397C8.57105 64.1664 8.48646 64.3161 8.44129 64.489C8.39451 64.6572 8.38391 64.8391 8.40951 65.0347C8.43042 65.2319 8.47645 65.4336 8.5476 65.6397C8.64462 65.9207 8.76626 66.1592 8.91252 66.3551C9.05879 66.5509 9.23273 66.698 9.43437 66.7961C9.636 66.8943 9.86766 66.9427 10.1294 66.9415C10.391 66.9403 10.6835 66.8839 11.0067 66.7723L11.1542 66.7213C11.5898 66.571 11.9208 66.3833 12.1472 66.1584C12.372 65.9287 12.504 65.6656 12.5431 65.369C12.5776 65.074 12.5334 64.7486 12.4105 64.3926C12.286 64.0319 12.1341 63.7515 11.9549 63.5512C11.771 63.3526 11.5566 63.2326 11.3117 63.1914C11.0651 63.1454 10.785 63.1766 10.4711 63.285L10.3868 63.3141L10.9738 65.0144L10.4047 65.2108L9.58486 62.8361L12.1212 61.9604L12.2959 62.4663L11.7089 62.7476C11.9165 62.8174 12.1017 62.9213 12.2646 63.059C12.4275 63.1967 12.5687 63.3629 12.6883 63.5575C12.8063 63.7474 12.9057 63.9595 12.9866 64.1937Z" fill="#F1F4F8"/>
<path d="M11.4681 57.862L7.04058 58.5589L7.31218 60.2844L6.70275 60.3803L6.04745 56.2172L6.65688 56.1212L6.93079 57.8614L11.3583 57.1645L11.4681 57.862Z" fill="#F1F4F8"/>
<path d="M11.1222 52.5927C11.1455 53.1224 11.069 53.5821 10.8927 53.9718C10.7162 54.3565 10.4369 54.6615 10.055 54.8866C9.67283 55.1067 9.18719 55.2298 8.59808 55.2557C8.00402 55.2818 7.50947 55.2018 7.11441 55.0158C6.71418 54.8251 6.40926 54.5459 6.19965 54.1781C5.98982 53.8054 5.87327 53.3542 5.84998 52.8245C5.8267 52.2948 5.90332 51.8376 6.07985 51.4529C6.25616 51.0632 6.5354 50.7583 6.91756 50.5381C7.29456 50.3132 7.78008 50.1877 8.37414 50.1616C8.96325 50.1357 9.45792 50.2181 9.85815 50.4089C10.2582 50.5946 10.5631 50.8739 10.7729 51.2466C10.9825 51.6143 11.099 52.063 11.1222 52.5927ZM10.5133 52.6195C10.5011 52.3423 10.453 52.0939 10.369 51.8744C10.2847 51.65 10.16 51.4645 9.99483 51.318C9.8245 51.1667 9.6162 51.0544 9.36993 50.9809C9.1187 50.9076 8.82478 50.8784 8.48814 50.8932L8.3322 50.9C7.99062 50.915 7.70039 50.97 7.46152 51.0648C7.21769 51.1598 7.02006 51.29 6.8686 51.4554C6.71198 51.6161 6.60155 51.8119 6.53731 52.0429C6.47284 52.2689 6.4467 52.5205 6.45889 52.7978C6.4713 53.0799 6.51952 53.3308 6.60357 53.5503C6.68762 53.7698 6.81481 53.9552 6.98514 54.1064C7.15052 54.2578 7.35883 54.3702 7.61005 54.4435C7.8561 54.512 8.14992 54.5388 8.49151 54.5238L8.64745 54.5169C8.98408 54.5021 9.27442 54.4497 9.51846 54.3596C9.75733 54.2648 9.95497 54.1346 10.1114 53.969C10.2628 53.8036 10.3708 53.6079 10.4352 53.3818C10.4997 53.1558 10.5257 52.9017 10.5133 52.6195Z" fill="#F1F4F8"/>
<path d="M11.0885 49.9388L6.0014 49.591L6.04956 48.8865L8.74142 49.0706L6.22648 46.2985L6.2863 45.4235L8.18586 47.4978L11.378 45.7045L11.3207 46.5424L8.65666 48.0217L9.56455 49.1268L11.1367 49.2343L11.0885 49.9388Z" fill="#F1F4F8"/>
<path d="M11.5164 45.7046L6.49655 44.8096L7.18541 40.9459L7.78545 41.0529L7.22053 44.2214L8.77184 44.498L9.27935 41.6515L9.87938 41.7585L9.37187 44.605L11.0403 44.9024L11.613 41.69L12.213 41.797L11.5164 45.7046Z" fill="#F1F4F8"/>
<path d="M12.4725 41.2102L7.58444 39.7588L7.77908 39.1033L11.7043 37.6868C11.7399 37.6715 11.7918 37.6533 11.8601 37.6322C11.9283 37.6112 11.9966 37.5901 12.0649 37.569C12.1285 37.5465 12.1851 37.5298 12.2349 37.5187L12.2434 37.4902C12.1674 37.4676 12.0938 37.4458 12.0225 37.4246C11.9465 37.402 11.8729 37.3802 11.8016 37.359L8.58092 36.4027L8.77768 35.7401L13.6657 37.1914L13.4817 37.8113L9.49098 39.2394C9.42885 39.2571 9.34041 39.2851 9.22566 39.3234C9.11232 39.357 9.0208 39.3867 8.9511 39.4125L8.94052 39.4481C9.01653 39.4707 9.09253 39.4933 9.16854 39.5158C9.23979 39.537 9.31342 39.5588 9.38943 39.5814L12.6671 40.5546L12.4725 41.2102Z" fill="#F1F4F8"/>
<path d="M13.3429 33.9814L12.7458 33.6967L13.5551 31.9993L14.1522 32.284L13.3429 33.9814Z" fill="#F1F4F8"/>
<path d="M18.221 28.8068L14.169 27.8232L14.5512 27.2562L16.571 27.7572C16.6684 27.7811 16.7892 27.8147 16.9333 27.858C17.0733 27.8986 17.2174 27.942 17.3656 27.9881C17.5124 28.0273 17.6414 28.0665 17.7525 28.1055L17.7733 28.0747C17.7023 27.985 17.6197 27.8815 17.5254 27.7642C17.4271 27.6441 17.3329 27.5268 17.2428 27.4123C17.1513 27.2909 17.0742 27.1881 17.0114 27.1039L15.7852 25.4257L16.1549 24.8772L18.5866 28.2644L18.221 28.8068Z" fill="#F1F4F8"/>
<path d="M20.0244 26.369L16.0896 23.1261L16.5387 22.5812L19.9975 25.4318L21.6095 23.4758L22.0856 23.8682L20.0244 26.369Z" fill="#F1F4F8"/>
<path d="M22.6205 23.4218L19.0297 19.8016L21.5945 17.2577L22.0237 17.6904L19.9603 19.737L21.1119 20.898L22.9905 19.0346L23.4145 19.4621L21.5358 21.3255L23.1219 22.9245L22.6205 23.4218Z" fill="#F1F4F8"/>
<path d="M22.7166 17.0092L22.2489 16.4508L22.7504 16.0308L23.2181 16.5892L22.7166 17.0092ZM25.6993 20.5708L23.1891 17.5734L23.6905 17.1534L26.2008 20.1508L25.6993 20.5708Z" fill="#F1F4F8"/>
<path d="M28.8392 16.166L28.485 15.6073L30.0734 14.6005L30.4275 15.1592L28.8392 16.166Z" fill="#F1F4F8"/>
<path d="M36.1076 14.2119L32.3195 10.3042L33.0208 9.99712L35.668 12.7815C35.7231 12.8332 35.7821 12.8939 35.8451 12.9636C35.9081 13.0334 35.9701 13.1009 36.0312 13.1662C36.0922 13.2314 36.147 13.2886 36.1955 13.3376L36.2363 13.3198C36.2306 13.2573 36.2245 13.1816 36.218 13.0925C36.2114 13.0034 36.2049 12.9143 36.1983 12.8252C36.1898 12.7316 36.1832 12.6425 36.1787 12.5579L35.9145 8.73011L36.5954 8.43199L36.8907 13.869L36.1076 14.2119Z" fill="#F1F4F8"/>
<path d="M38.8338 13.1689L37.305 8.30457L41.049 7.12787L41.2318 7.70932L38.1614 8.67431L38.6339 10.1776L41.3922 9.31066L41.575 9.89211L38.8166 10.759L39.3247 12.3758L42.4377 11.3974L42.6204 11.9789L38.8338 13.1689Z" fill="#F1F4F8"/>
<path d="M45.1163 11.6668C44.844 11.7198 44.5761 11.7442 44.3127 11.74C44.0543 11.7348 43.8164 11.6928 43.5991 11.6139C43.3809 11.5302 43.1949 11.4049 43.0412 11.2379C42.8924 11.07 42.791 10.8474 42.737 10.5702C42.7323 10.5459 42.7276 10.5215 42.7228 10.4972C42.723 10.4719 42.7207 10.4472 42.7159 10.4228L43.4163 10.2864C43.4192 10.301 43.4215 10.3258 43.4232 10.3608C43.4289 10.39 43.4341 10.4168 43.4389 10.4411C43.4768 10.6356 43.5673 10.7896 43.7106 10.9031C43.8538 11.0166 44.0342 11.0874 44.2518 11.1158C44.4732 11.1383 44.7153 11.1239 44.9779 11.0728C45.0947 11.0501 45.2149 11.0191 45.3385 10.9799C45.467 10.9397 45.5862 10.8912 45.6964 10.8345C45.8104 10.7719 45.9079 10.7024 45.989 10.626C46.0739 10.5438 46.1346 10.4538 46.1711 10.3558C46.2115 10.252 46.2189 10.1345 46.1933 10.0032C46.1611 9.83778 46.0859 9.71106 45.9678 9.623C45.8536 9.52912 45.712 9.4633 45.5431 9.42551C45.3733 9.38286 45.1834 9.3542 44.9736 9.33953C44.7677 9.31905 44.5549 9.30242 44.3354 9.28965C44.1158 9.27687 43.8997 9.25585 43.687 9.22659C43.4782 9.19152 43.2861 9.13807 43.1106 9.06623C42.9341 8.98954 42.782 8.88284 42.6545 8.74614C42.5317 8.60849 42.4486 8.42779 42.405 8.20405C42.3643 7.99491 42.3692 7.7996 42.4197 7.61812C42.475 7.4357 42.5745 7.27245 42.7181 7.12838C42.8656 6.9785 43.0577 6.85022 43.2943 6.74355C43.5301 6.63201 43.8085 6.54499 44.1295 6.48247C44.3921 6.43133 44.641 6.41315 44.8761 6.42795C45.1152 6.43694 45.3311 6.48322 45.5241 6.56681C45.721 6.64458 45.8851 6.76154 46.0165 6.9177C46.1479 7.07386 46.2377 7.27596 46.286 7.52402L46.3031 7.61157L45.6173 7.74512L45.596 7.63569C45.5637 7.47031 45.4852 7.3392 45.3603 7.24236C45.2355 7.14552 45.0769 7.083 44.8846 7.05482C44.6972 7.02568 44.4916 7.0329 44.2679 7.07647C43.976 7.1333 43.7385 7.20984 43.5553 7.3061C43.3712 7.39749 43.2409 7.50615 43.1645 7.6321C43.092 7.75224 43.0685 7.87797 43.0941 8.0093C43.1234 8.16008 43.1942 8.27754 43.3066 8.36169C43.4237 8.44489 43.5668 8.50538 43.7357 8.54316C43.9036 8.57609 44.0925 8.59988 44.3024 8.61455C44.5122 8.62922 44.7249 8.64585 44.9406 8.66443C45.1602 8.67721 45.3743 8.70113 45.5831 8.73621C45.7958 8.76547 45.9903 8.81845 46.1668 8.89514C46.3472 8.96603 46.4993 9.07273 46.6229 9.21524C46.7457 9.35289 46.8293 9.53601 46.8738 9.76462C46.9429 10.1197 46.9117 10.4261 46.7802 10.684C46.6477 10.9369 46.4382 11.1443 46.1517 11.3062C45.8652 11.468 45.52 11.5882 45.1163 11.6668Z" fill="#F1F4F8"/>
<path d="M49.0535 11.1066L48.6768 6.64042L46.9362 6.78722L46.8844 6.17247L51.0839 5.81827L51.1358 6.43302L49.3804 6.58107L49.7571 11.0472L49.0535 11.1066Z" fill="#F1F4F8"/>
<path d="M52.1153 11.0025L52.1358 5.90359L52.8419 5.90642L52.8214 11.0053L52.1153 11.0025Z" fill="#F1F4F8"/>
<path d="M55.0121 11.1015L55.5016 6.0261L56.1823 6.09176L58.3234 9.67356C58.3452 9.70553 58.373 9.75301 58.4068 9.81601C58.4405 9.879 58.4743 9.942 58.508 10.005C58.5422 10.0631 58.5696 10.1155 58.5899 10.1622L58.6195 10.1651C58.6271 10.0862 58.6345 10.0097 58.6416 9.93574C58.6493 9.85682 58.6566 9.78037 58.6638 9.70639L58.9863 6.36224L59.6744 6.42861L59.1848 11.504L58.5412 11.4419L56.3761 7.79809C56.3468 7.7405 56.3024 7.65906 56.2429 7.55375C56.1883 7.44891 56.1416 7.36476 56.103 7.30129L56.066 7.29772C56.0584 7.37664 56.0507 7.45556 56.0431 7.53448C56.036 7.60846 56.0286 7.68492 56.021 7.76383L55.6927 11.1672L55.0121 11.1015Z" fill="#F1F4F8"/>
<path d="M61.7849 12.2589C60.9808 12.0855 60.4135 11.7427 60.0829 11.2304C59.7572 10.7192 59.6889 10.0252 59.8779 9.14843C60.0012 8.57685 60.2009 8.1206 60.4772 7.77971C60.7535 7.43881 61.1009 7.21464 61.5194 7.10719C61.939 6.99489 62.4201 6.99723 62.9626 7.11421C63.3017 7.18732 63.6014 7.28996 63.8619 7.42215C64.1223 7.55434 64.3357 7.71693 64.5019 7.90991C64.674 8.0991 64.7893 8.31659 64.8478 8.56239C64.9112 8.80923 64.91 9.08524 64.8442 9.3904L64.1394 9.23844C64.1854 9.02531 64.1858 8.83531 64.1406 8.66843C64.0966 8.49672 64.0123 8.34675 63.8879 8.21854C63.7683 8.09138 63.6182 7.98805 63.4377 7.90857C63.2581 7.82424 63.0618 7.7591 62.8487 7.71315C62.558 7.65048 62.2911 7.63094 62.0477 7.65451C61.8044 7.67808 61.5885 7.75066 61.4001 7.87224C61.2117 7.99383 61.0502 8.16684 60.9156 8.39129C60.781 8.61573 60.6777 8.89507 60.6057 9.2293L60.5728 9.38188C60.4756 9.83237 60.4646 10.2127 60.5396 10.5229C60.6195 10.8341 60.7762 11.0834 61.0096 11.2705C61.244 11.4529 61.5453 11.5837 61.9134 11.6631C62.2864 11.7435 62.6049 11.759 62.8691 11.7095C63.1342 11.6551 63.3479 11.5339 63.5101 11.3459C63.6772 11.1588 63.7957 10.9031 63.8657 10.5785L63.8845 10.4913L62.1261 10.1122L62.253 9.52366L64.7089 10.0532L64.1434 12.6762L63.6202 12.5634L63.6838 11.9156C63.5165 12.0569 63.3317 12.1615 63.1295 12.2295C62.9273 12.2974 62.712 12.3321 62.4836 12.3335C62.26 12.336 62.0271 12.3111 61.7849 12.2589Z" fill="#F1F4F8"/>
<path d="M67.9869 14.2415L69.6854 10.0938L68.0689 9.43187L68.3027 8.86095L72.2028 10.458L71.9691 11.0289L70.3388 10.3614L68.6404 14.5091L67.9869 14.2415Z" fill="#F1F4F8"/>
<path d="M72.6727 16.6765C72.2076 16.4219 71.8541 16.1182 71.6122 15.7655C71.3747 15.4151 71.2586 15.0183 71.264 14.575C71.2738 14.134 71.4202 13.655 71.7034 13.1377C71.9889 12.6161 72.3136 12.2346 72.6774 11.9931C73.0479 11.7496 73.4447 11.6336 73.8679 11.6449C74.2953 11.6586 74.7416 11.7927 75.2067 12.0473C75.6718 12.3019 76.0231 12.6044 76.2607 12.9547C76.5026 13.3074 76.6186 13.7043 76.6089 14.1452C76.6059 14.5842 76.4616 15.0645 76.1761 15.5861C75.8929 16.1033 75.5661 16.4837 75.1955 16.7271C74.8294 16.9729 74.4325 17.089 74.005 17.0753C73.5819 17.064 73.1378 16.9311 72.6727 16.6765ZM72.9654 16.1418C73.2088 16.2751 73.4461 16.3626 73.6774 16.4045C73.913 16.4488 74.1363 16.4382 74.3472 16.3729C74.5648 16.3056 74.7689 16.1857 74.9593 16.0131C75.1522 15.8362 75.3295 15.6 75.4913 15.3044L75.5663 15.1675C75.7304 14.8676 75.8339 14.5909 75.8766 14.3375C75.9217 14.0797 75.9127 13.8432 75.8498 13.628C75.7935 13.4108 75.6833 13.2149 75.519 13.0402C75.3591 12.8679 75.1575 12.7152 74.9141 12.5819C74.6663 12.4463 74.4268 12.3576 74.1955 12.3157C73.9642 12.2738 73.7397 12.2865 73.5221 12.3538C73.3069 12.4168 73.1029 12.5367 72.91 12.7136C72.7239 12.8885 72.5487 13.1259 72.3845 13.4258L72.3096 13.5628C72.1478 13.8583 72.0422 14.1338 71.9928 14.3892C71.9501 14.6427 71.959 14.8792 72.0196 15.0987C72.0825 15.314 72.194 15.5077 72.3539 15.68C72.5138 15.8523 72.7176 16.0062 72.9654 16.1418Z" fill="#F1F4F8"/>
<path d="M74.96 18.0231L77.8937 13.8526L78.4712 14.2589L76.9188 16.4657L80.5929 15.7514L81.3103 16.2561L78.5518 16.8056L78.4313 20.465L77.7443 19.9818L77.8598 16.9368L76.4441 17.1405L75.5375 18.4294L74.96 18.0231Z" fill="#F1F4F8"/>
<path d="M78.3595 20.5831L81.7263 16.7538L84.6737 19.3452L84.2712 19.8029L81.8542 17.6777L80.8137 18.8612L82.9852 20.7703L82.5827 21.2281L80.4113 19.3189L79.2923 20.5916L81.7428 22.7462L81.3403 23.2039L78.3595 20.5831Z" fill="#F1F4F8"/>
<path d="M81.7078 23.73L85.4822 20.3017L85.942 20.8079L85.1193 24.8989C85.1139 24.9373 85.1026 24.9911 85.0852 25.0604C85.0678 25.1297 85.0505 25.1991 85.0331 25.2684C85.0194 25.3344 85.0044 25.3915 84.9881 25.4399L85.008 25.4619C85.0667 25.4086 85.1236 25.3569 85.1786 25.3069C85.2373 25.2536 85.2941 25.202 85.3492 25.152L87.8361 22.8931L88.3009 23.4048L84.5265 26.8331L84.0917 26.3545L84.9384 22.2014C84.9555 22.1391 84.9773 22.0489 85.0041 21.9309C85.0341 21.8166 85.0561 21.723 85.0702 21.65L85.0452 21.6225C84.9865 21.6758 84.9278 21.7291 84.8691 21.7824C84.8141 21.8323 84.7572 21.884 84.6986 21.9373L82.1676 24.2362L81.7078 23.73Z" fill="#F1F4F8"/>
<path d="M87.4389 28.2206L87.9919 27.8574L89.0242 29.4292L88.4713 29.7924L87.4389 28.2206Z" fill="#F1F4F8"/>
<path d="M89.3367 35.0743L92.2778 32.1186L92.5646 32.7393L91.0894 34.2071C91.0185 34.2781 90.9271 34.3639 90.8154 34.4647C90.7082 34.5634 90.5964 34.6641 90.4802 34.767C90.3705 34.8722 90.2702 34.9623 90.1792 35.0371L90.1948 35.0708C90.3083 35.0566 90.4396 35.0395 90.5888 35.0197C90.7425 34.9979 90.8916 34.9781 91.0363 34.9604C91.1875 34.9451 91.3154 34.9324 91.4199 34.9223L93.4906 34.7433L93.7681 35.3438L89.611 35.6681L89.3367 35.0743Z" fill="#F1F4F8"/>
<path d="M90.4869 37.8799L95.2995 36.1953L95.5328 36.8618L91.3025 38.3426L92.1399 40.7348L91.5576 40.9387L90.4869 37.8799Z" fill="#F1F4F8"/>
<path d="M91.6621 41.6275L96.619 40.4326L97.4656 43.9444L96.8731 44.0872L96.192 41.2619L94.6023 41.6451L95.2224 44.2175L94.6371 44.3586L94.017 41.7862L91.8275 42.3139L91.6621 41.6275Z" fill="#F1F4F8"/>
<path d="M97.0967 45.033L97.8167 44.9224L97.916 45.5689L97.196 45.6795L97.0967 45.033ZM92.505 45.7382L96.3694 45.1447L96.4687 45.7912L92.6043 46.3847L92.505 45.7382Z" fill="#F1F4F8"/>
<path d="M94.6449 50.7063L95.3063 50.6929L95.3442 52.5731L94.6828 52.5864L94.6449 50.7063Z" fill="#F1F4F8"/>
<path d="M92.5495 57.9353L97.8546 56.7206L97.7538 57.4795L94.0006 58.3005C93.9279 58.3209 93.8454 58.3399 93.7531 58.3576C93.6607 58.3753 93.5709 58.3934 93.4834 58.4118C93.396 58.4302 93.3187 58.4474 93.2516 58.4635L93.2458 58.5077C93.3021 58.5351 93.37 58.5692 93.4496 58.6097C93.5292 58.6503 93.6088 58.6909 93.6884 58.7314C93.7729 58.7727 93.8525 58.8132 93.9272 58.8531L97.3378 60.6109L97.2399 61.3478L92.4369 58.7826L92.5495 57.9353Z" fill="#F1F4F8"/>
<path d="M92.0286 60.807L96.9811 62.0204L96.0472 65.8322L95.4552 65.6872L96.2211 62.5612L94.6906 62.1862L94.0025 64.9946L93.4106 64.8495L94.0986 62.0412L92.4526 61.6379L91.6761 64.8072L91.0841 64.6622L92.0286 60.807Z" fill="#F1F4F8"/>
<path d="M90.0575 66.9586C90.1533 66.6982 90.2712 66.4564 90.4113 66.2334C90.5497 66.015 90.7089 65.8334 90.889 65.6884C91.0737 65.5451 91.2772 65.451 91.4996 65.4061C91.7204 65.3659 91.9633 65.3945 92.2284 65.492C92.2516 65.5006 92.2749 65.5091 92.2981 65.5177C92.3197 65.5309 92.3421 65.5418 92.3653 65.5503L92.119 66.22C92.105 66.2149 92.0826 66.204 92.0518 66.1874C92.0239 66.1771 91.9983 66.1677 91.9751 66.1591C91.789 66.0907 91.6104 66.0884 91.4391 66.1521C91.2678 66.2158 91.1137 66.3334 90.9768 66.5047C90.8428 66.6825 90.7296 66.8969 90.6372 67.1481C90.5961 67.2597 90.5604 67.3785 90.5298 67.5046C90.4976 67.6353 90.4772 67.7624 90.4687 67.886C90.4632 68.0159 90.4721 68.1354 90.4954 68.2442C90.5216 68.3595 90.5672 68.4581 90.6321 68.54C90.6999 68.6284 90.7966 68.6956 90.9222 68.7418C91.0803 68.7999 91.2276 68.8013 91.3642 68.746C91.5036 68.6969 91.6333 68.61 91.7531 68.4851C91.8776 68.362 92.0005 68.2144 92.1218 68.0426C92.246 67.8771 92.3705 67.7038 92.4952 67.5226C92.6199 67.3414 92.7499 67.1675 92.8851 67.0008C93.0233 66.8404 93.1686 66.7037 93.321 66.5909C93.4781 66.4797 93.6481 66.4049 93.8312 66.3667C94.0125 66.333 94.2101 66.3556 94.424 66.4342C94.624 66.5078 94.7885 66.6132 94.9176 66.7504C95.0449 66.8923 95.133 67.0619 95.1818 67.2594C95.2335 67.4632 95.2437 67.694 95.2122 67.9517C95.1855 68.2111 95.1156 68.4943 95.0027 68.8013C94.9104 69.0524 94.7969 69.2747 94.6624 69.4681C94.5309 69.6678 94.3793 69.8286 94.2079 69.9503C94.0393 70.0784 93.8542 70.1581 93.6526 70.1896C93.451 70.221 93.2316 70.1931 92.9944 70.1059L92.9107 70.0751L93.1518 69.4193L93.2565 69.4578C93.4146 69.516 93.5674 69.5168 93.715 69.4601C93.8625 69.4035 93.9982 69.3003 94.1219 69.1505C94.2439 69.0053 94.3443 68.8257 94.423 68.6118C94.5256 68.3328 94.5833 68.09 94.5959 67.8834C94.6131 67.6786 94.5877 67.5108 94.5196 67.3802C94.4544 67.2559 94.3591 67.1707 94.2335 67.1245C94.0893 67.0714 93.9522 67.0711 93.822 67.1236C93.6901 67.1807 93.5643 67.2717 93.4444 67.3965C93.3292 67.5231 93.211 67.6723 93.0897 67.8442C92.9684 68.0161 92.8439 68.1894 92.7163 68.3642C92.5916 68.5454 92.4601 68.7161 92.3219 68.8765C92.1867 69.0432 92.0406 69.1822 91.8835 69.2934C91.7294 69.4109 91.5593 69.4856 91.3734 69.5176C91.1921 69.5512 90.9921 69.5278 90.7735 69.4474C90.434 69.3225 90.1881 69.137 90.0358 68.8909C89.8881 68.6465 89.8193 68.3599 89.8294 68.031C89.8395 67.702 89.9155 67.3446 90.0575 66.9586Z" fill="#F1F4F8"/>
<path d="M88.4963 70.6161L92.5111 72.6084L93.2876 71.0437L93.8402 71.318L91.9668 75.0932L91.4142 74.8189L92.1972 73.2409L88.1824 71.2486L88.4963 70.6161Z" fill="#F1F4F8"/>
<path d="M86.9986 73.2889L91.3488 75.9488L90.9805 76.5512L86.6302 73.8913L86.9986 73.2889Z" fill="#F1F4F8"/>
<path d="M85.4127 75.7149L89.4997 78.7638L89.0908 79.312L84.9179 79.287C84.8792 79.289 84.8242 79.2882 84.7529 79.2844C84.6815 79.2806 84.6101 79.2768 84.5388 79.2731C84.4714 79.2722 84.4124 79.2684 84.3618 79.2616L84.3441 79.2855C84.4076 79.3329 84.4692 79.3788 84.5288 79.4232C84.5923 79.4706 84.6539 79.5166 84.7134 79.561L87.4063 81.5699L86.993 82.124L82.906 79.0751L83.2927 78.5567L87.531 78.5935C87.5955 78.5983 87.6881 78.6025 87.809 78.6061C87.927 78.6138 88.0231 78.6175 88.0975 78.6173L88.1197 78.5875C88.0561 78.5401 87.9926 78.4927 87.929 78.4453C87.8695 78.4008 87.8079 78.3549 87.7444 78.3075L85.0038 76.263L85.4127 75.7149Z" fill="#F1F4F8"/>
<path d="M80.9128 80.9074C81.4778 80.3095 82.065 80.002 82.6744 79.9847C83.2805 79.9711 83.9094 80.2723 84.5613 80.8884C84.9863 81.29 85.273 81.6972 85.4213 82.1102C85.5697 82.5231 85.5814 82.9364 85.4564 83.3501C85.335 83.7671 85.0837 84.1773 84.7025 84.5807C84.4642 84.8328 84.2211 85.036 83.9731 85.1902C83.7251 85.3444 83.4755 85.4426 83.2243 85.4848C82.9733 85.534 82.7275 85.5199 82.487 85.4425C82.243 85.3688 82.0076 85.2247 81.7807 85.0103L82.2759 84.4863C82.4344 84.6361 82.5967 84.7349 82.7628 84.7828C82.9325 84.834 83.1044 84.8397 83.2785 84.7997C83.4492 84.7634 83.6154 84.6886 83.7769 84.5753C83.9421 84.4655 84.0995 84.3313 84.2493 84.1729C84.4535 83.9568 84.6086 83.7386 84.7145 83.5183C84.8205 83.2979 84.8703 83.0757 84.8639 82.8515C84.8576 82.6274 84.7933 82.3996 84.6711 82.1682C84.5489 81.9368 84.3635 81.7037 84.115 81.4688L84.0016 81.3616C83.6666 81.0451 83.3471 80.8386 83.0429 80.742C82.7353 80.649 82.441 80.6539 82.16 80.7564C81.8825 80.8624 81.6145 81.0523 81.3558 81.326C81.0937 81.6033 80.9154 81.8677 80.8209 82.1193C80.73 82.3742 80.7229 82.6198 80.7997 82.856C80.873 83.0958 81.0304 83.3297 81.2717 83.5577L81.3365 83.619L82.572 82.3117L83.0096 82.7252L81.284 84.5511L79.3338 82.7082L79.7013 82.3192L80.2224 82.7093C80.1882 82.493 80.1945 82.2807 80.2412 82.0726C80.2879 81.8645 80.3698 81.6623 80.487 81.4662C80.6007 81.2737 80.7427 81.0874 80.9128 80.9074Z" fill="#F1F4F8"/>
<path d="M76.0033 85.1842L78.6704 88.7863L80.0742 87.7469L80.4413 88.2427L77.0543 90.7506L76.6872 90.2548L78.1029 89.2065L75.4358 85.6044L76.0033 85.1842Z" fill="#F1F4F8"/>
<path d="M71.4925 87.9298C71.9512 87.664 72.3941 87.5191 72.8212 87.495C73.2439 87.4734 73.6434 87.5798 74.0198 87.8141C74.3918 88.051 74.7257 88.4245 75.0213 88.9347C75.3194 89.4492 75.4775 89.9246 75.4955 90.3609C75.5117 90.8039 75.4053 91.2035 75.1763 91.5595C74.9431 91.918 74.5971 92.2302 74.1383 92.496C73.6796 92.7618 73.2388 92.9056 72.8161 92.9272C72.3891 92.9512 71.9895 92.8449 71.6175 92.608C71.2436 92.3779 70.9076 92.0056 70.6095 91.4911C70.3139 90.9809 70.1579 90.5043 70.1417 90.0612C70.1213 89.6207 70.2277 89.2211 70.4609 88.8626C70.6899 88.5066 71.0337 88.1957 71.4925 87.9298ZM71.798 88.4572C71.558 88.5963 71.3601 88.7539 71.2044 88.9301C71.0444 89.1086 70.9378 89.305 70.8843 89.5193C70.8291 89.7403 70.8259 89.9769 70.8748 90.2292C70.9261 90.4858 71.0363 90.7599 71.2052 91.0515L71.2835 91.1865C71.4549 91.4824 71.6379 91.7142 71.8325 91.8821C72.0296 92.0542 72.2365 92.1691 72.4532 92.2268C72.6681 92.2913 72.8928 92.2985 73.1273 92.2486C73.3575 92.2011 73.5927 92.1078 73.8328 91.9687C74.0771 91.827 74.2772 91.6682 74.4328 91.4921C74.5885 91.316 74.694 91.1174 74.7492 90.8964C74.8069 90.6797 74.8101 90.4431 74.7587 90.1865C74.7056 89.9366 74.5933 89.6638 74.4219 89.368L74.3436 89.2329C74.1747 88.9414 73.9938 88.7083 73.801 88.5336C73.6064 88.3658 73.3995 88.2509 73.1803 88.1889C72.9636 88.1312 72.7401 88.1261 72.5099 88.1736C72.2797 88.221 72.0424 88.3156 71.798 88.4572Z" fill="#F1F4F8"/>
<path d="M69.1556 89.1883L71.202 93.8586L70.5553 94.142L69.4724 91.6707L68.1793 95.1831L67.3759 95.5351L68.3354 92.8911L65.2682 90.8917L66.0375 90.5546L68.5819 92.2313L69.1413 90.915L68.5088 89.4717L69.1556 89.1883Z" fill="#F1F4F8"/>
<path d="M65.2042 90.7689L66.7344 95.6329L62.9908 96.8106L62.8079 96.2292L65.878 95.2634L65.4051 93.7602L62.6469 94.6279L62.464 94.0465L65.2222 93.1788L64.7136 91.5622L61.6009 92.5415L61.418 91.9601L65.2042 90.7689Z" fill="#F1F4F8"/>
<path d="M60.7777 92.0017L61.7537 97.0064L61.0826 97.1373L58.0101 94.3135C57.9801 94.2891 57.9399 94.2515 57.8896 94.2007C57.8393 94.1499 57.789 94.0991 57.7387 94.0484C57.6894 94.0025 57.6483 93.96 57.6154 93.921L57.5863 93.9266C57.6014 94.0045 57.6161 94.0798 57.6304 94.1528C57.6455 94.2306 57.6602 94.306 57.6745 94.379L58.3176 97.6765L57.6391 97.8088L56.6631 92.8041L57.2978 92.6804L60.4108 95.5568C60.4553 95.6036 60.5211 95.6691 60.6081 95.7531C60.6903 95.838 60.759 95.9054 60.8142 95.9552L60.8506 95.9481C60.8355 95.8703 60.8203 95.7925 60.8051 95.7146C60.7909 95.6417 60.7762 95.5663 60.761 95.4885L60.1065 92.1326L60.7777 92.0017Z" fill="#F1F4F8"/>
<path d="M53.9672 94.576L53.9913 95.2371L52.112 95.3055L52.088 94.6444L53.9672 94.576Z" fill="#F1F4F8"/>
</svg>
