<svg width="509" height="539" viewBox="0 0 509 539" fill="none" xmlns="http://www.w3.org/2000/svg">
<path fill-rule="evenodd" clip-rule="evenodd" d="M459 269.5C459 382.442 367.442 474 254.5 474C141.558 474 50 382.442 50 269.5C50 156.558 141.558 65 254.5 65C367.442 65 459 156.558 459 269.5ZM254.5 466.135C363.098 466.135 451.135 378.098 451.135 269.5C451.135 160.902 363.098 72.8654 254.5 72.8654C145.902 72.8654 57.8654 160.902 57.8654 269.5C57.8654 378.098 145.902 466.135 254.5 466.135Z" fill="#04FCA3"/>
<path fill-rule="evenodd" clip-rule="evenodd" d="M254.5 411.279C332.802 411.279 396.279 347.802 396.279 269.5C396.279 191.198 332.802 127.721 254.5 127.721C176.198 127.721 112.721 191.198 112.721 269.5C112.721 347.802 176.198 411.279 254.5 411.279ZM254.5 415.01C334.863 415.01 400.01 349.863 400.01 269.5C400.01 189.137 334.863 123.99 254.5 123.99C174.137 123.99 108.99 189.137 108.99 269.5C108.99 349.863 174.137 415.01 254.5 415.01Z" fill="#04FCA3"/>
<path d="M306.586 243.147L306.484 243.096C305.4 242.529 304.113 243.096 303.708 244.26C302.917 246.547 301.296 248.591 298.833 249.876L259.207 270.619C256.268 272.168 252.752 272.168 249.803 270.619L210.177 249.876C207.714 248.591 206.093 246.547 205.302 244.26C204.907 243.106 203.61 242.529 202.526 243.096L202.424 243.147C198.462 245.221 198.462 250.877 202.424 252.952L251.921 278.866C253.532 279.706 255.458 279.706 257.069 278.866L306.576 252.952C310.538 250.877 310.538 245.221 306.576 243.147H306.586Z" fill="#04FCA3"/>
<path d="M306.586 224.558L306.484 224.508C305.4 223.941 304.113 224.508 303.708 225.672C302.917 227.958 301.296 230.002 298.833 231.288L259.207 252.031C256.268 253.579 252.752 253.579 249.803 252.031L210.167 231.288C207.704 230.002 206.083 227.958 205.292 225.672C204.897 224.518 203.6 223.941 202.516 224.508L202.414 224.558C198.452 226.633 198.452 232.289 202.414 234.364L251.911 260.278C253.522 261.118 255.448 261.118 257.059 260.278L306.566 234.364C310.528 232.289 310.528 226.633 306.566 224.558H306.586Z" fill="#04FCA3"/>
<path d="M202.422 215.387L205.898 217.199L211.442 220.103L222.154 225.699L228.964 229.271L253.114 241.899C253.986 242.354 255.03 242.354 255.901 241.899L263.502 237.922C267.465 235.848 267.465 230.191 263.502 228.117L240.517 216.086L239.149 215.367C235.339 213.364 235.197 208.051 238.723 205.815C238.855 205.724 239.007 205.643 239.149 205.562L267.809 190.566C269.948 189.443 269.948 186.387 267.809 185.274L257.077 179.678C255.465 178.838 253.54 178.838 251.929 179.678L202.422 205.582C198.459 207.647 198.459 213.313 202.422 215.387Z" fill="#04FCA3"/>
<path d="M260.9 205.575C258.853 206.648 257.86 208.682 257.941 210.685C258.012 212.537 258.995 214.348 260.869 215.36C260.88 215.36 260.89 215.37 260.9 215.38L281.159 225.985C281.159 225.985 281.179 225.985 281.189 225.995C282.78 226.835 284.685 226.835 286.287 225.995C286.287 225.995 286.307 225.995 286.317 225.985L286.854 225.702L297.566 220.086L306.586 215.38C306.586 215.38 306.606 215.37 306.616 215.36C310.548 213.276 310.538 207.639 306.586 205.575L286.317 194.961C286.246 194.93 286.185 194.89 286.104 194.859C286.074 194.839 286.043 194.829 286.013 194.809C284.594 194.06 282.892 194.06 281.473 194.809C281.473 194.809 281.402 194.839 281.381 194.859C281.311 194.89 281.24 194.93 281.169 194.961L260.91 205.575H260.9Z" fill="#04FCA3"/>
<path d="M217.91 352.087L208.708 327.263H213.852L218.146 339.109C218.335 339.675 218.571 340.414 218.854 341.327C219.137 342.208 219.421 343.12 219.704 344.064C219.987 345.008 220.239 345.857 220.459 346.612H220.695C220.884 345.889 221.104 345.071 221.355 344.158C221.639 343.214 221.922 342.286 222.205 341.374C222.488 340.462 222.74 339.706 222.96 339.109L227.207 327.263H232.21L222.96 352.087H217.91Z" fill="#04FCA3"/>
<path d="M238.406 352.087V319.713H243.691V347.509H259.831V352.087H238.406Z" fill="#04FCA3"/>
<path d="M266.411 352.087V319.713H289.535V324.243H271.696V333.823H287.836V338.306H271.696V352.087H266.411Z" fill="#04FCA3"/>
<path d="M296.566 322.969V317.966H301.474V322.969H296.566ZM296.566 352.087V327.263H301.474V352.087H296.566Z" fill="#04FCA3"/>
<path d="M245.516 430.254L250.466 445.887L247.78 445.757L245.348 437.943C245.23 437.566 245.097 437.092 244.949 436.519C244.8 435.965 244.652 435.392 244.505 434.8C244.338 434.226 244.207 433.712 244.112 433.259L243.966 433.252C243.809 433.674 243.629 434.162 243.427 434.718C243.223 435.294 243.021 435.85 242.819 436.386C242.597 436.941 242.409 437.41 242.253 437.793L239.108 445.338L236.509 445.212L242.946 430.13L245.516 430.254Z" fill="#04FCA3"/>
<path d="M233.641 429.157L230.753 449L228.005 448.6L230.543 431.158L220.679 429.722L221.029 427.321L233.641 429.157Z" fill="#04FCA3"/>
<path d="M218.438 426.431L213.58 445.886L199.796 442.444L200.377 440.119L211.466 442.888L213.024 436.648L202.928 434.127L203.501 431.83L213.598 434.351L215.743 425.758L218.438 426.431Z" fill="#04FCA3"/>
<path d="M196.673 439.178L195.748 441.889L193.313 441.058L194.239 438.347L196.673 439.178ZM202.573 421.887L197.608 436.439L195.173 435.608L200.139 421.056L202.573 421.887Z" fill="#04FCA3"/>
<path d="M181.359 420.303L180.202 422.633L173.579 419.343L174.736 417.013L181.359 420.303Z" fill="#04FCA3"/>
<path d="M159.973 399.839L154.551 420.544L152.089 418.811L156.058 404.233C156.12 403.943 156.204 403.62 156.31 403.266C156.416 402.912 156.517 402.566 156.612 402.228C156.707 401.889 156.788 401.589 156.854 401.325L156.71 401.224C156.512 401.371 156.27 401.546 155.984 401.749C155.697 401.953 155.411 402.157 155.125 402.36C154.827 402.58 154.541 402.783 154.266 402.971L141.929 411.661L139.539 409.978L157.224 397.904L159.973 399.839Z" fill="#04FCA3"/>
<path d="M150.909 392.795L137.664 407.851L126.076 397.657L127.659 395.857L137.163 404.217L141.256 399.564L132.718 392.054L134.302 390.254L142.839 397.765L147.241 392.761L137.606 384.285L139.19 382.485L150.909 392.795Z" fill="#04FCA3"/>
<path d="M133.053 374.726C133.787 375.534 134.415 376.385 134.937 377.279C135.447 378.159 135.79 379.045 135.968 379.936C136.131 380.841 136.088 381.722 135.84 382.579C135.579 383.422 135.037 384.216 134.214 384.963C134.142 385.029 134.07 385.094 133.998 385.16C133.912 385.211 133.834 385.269 133.762 385.334L131.875 383.257C131.919 383.217 131.997 383.159 132.112 383.082C132.198 383.003 132.277 382.931 132.35 382.866C132.927 382.342 133.26 381.723 133.35 381.01C133.439 380.297 133.31 379.546 132.962 378.757C132.586 377.966 132.045 377.181 131.338 376.402C131.023 376.055 130.674 375.714 130.29 375.378C129.893 375.028 129.487 374.726 129.072 374.471C128.629 374.215 128.197 374.029 127.775 373.912C127.325 373.793 126.898 373.773 126.494 373.85C126.063 373.926 125.653 374.14 125.263 374.494C124.773 374.939 124.5 375.45 124.444 376.027C124.361 376.603 124.428 377.213 124.645 377.858C124.848 378.516 125.139 379.213 125.517 379.949C125.868 380.683 126.245 381.432 126.65 382.197C127.054 382.962 127.424 383.731 127.759 384.506C128.067 385.28 128.278 386.035 128.395 386.772C128.496 387.522 128.447 388.251 128.248 388.958C128.035 389.652 127.596 390.3 126.933 390.902C126.312 391.465 125.645 391.847 124.932 392.047C124.206 392.233 123.454 392.231 122.677 392.041C121.872 391.851 121.049 391.466 120.208 390.887C119.352 390.322 118.492 389.563 117.628 388.611C116.92 387.831 116.352 387.031 115.923 386.211C115.466 385.388 115.181 384.567 115.069 383.748C114.929 382.927 114.988 382.137 115.246 381.377C115.503 380.617 116 379.903 116.736 379.235L116.996 378.999L118.842 381.033L118.518 381.328C118.027 381.773 117.746 382.305 117.675 382.922C117.604 383.539 117.717 384.2 118.014 384.904C118.298 385.594 118.741 386.271 119.344 386.935C120.129 387.8 120.871 388.443 121.568 388.863C122.251 389.296 122.882 389.513 123.461 389.513C124.013 389.512 124.484 389.335 124.873 388.981C125.321 388.575 125.571 388.098 125.625 387.549C125.667 386.985 125.578 386.381 125.361 385.735C125.13 385.103 124.825 384.42 124.446 383.684C124.068 382.948 123.69 382.199 123.313 381.436C122.909 380.671 122.553 379.902 122.245 379.128C121.91 378.353 121.692 377.591 121.59 376.841C121.461 376.09 121.51 375.361 121.737 374.655C121.95 373.961 122.396 373.307 123.074 372.691C124.127 371.735 125.222 371.215 126.357 371.132C127.478 371.062 128.602 371.344 129.73 371.978C130.859 372.612 131.966 373.528 133.053 374.726Z" fill="#04FCA3"/>
<path d="M123.145 362.625L108.891 372.994L112.932 378.549L110.97 379.976L101.22 366.573L103.182 365.146L107.258 370.748L121.511 360.379L123.145 362.625Z" fill="#04FCA3"/>
<path d="M116.555 352.539L99.3634 362.862L97.9339 360.481L115.125 350.158L116.555 352.539Z" fill="#04FCA3"/>
<path d="M110.984 342.595L92.9157 351.292L91.7493 348.869L99.4326 334.368C99.4957 334.229 99.5988 334.039 99.7419 333.797C99.885 333.555 100.028 333.313 100.171 333.071C100.297 332.838 100.417 332.639 100.533 332.475L100.482 332.37C100.201 332.505 99.9293 332.636 99.6659 332.763C99.385 332.898 99.1128 333.029 98.8494 333.156L86.9443 338.886L85.7652 336.437L103.834 327.74L104.937 330.031L97.0933 344.739C96.9594 344.955 96.7759 345.271 96.5431 345.686C96.3018 346.083 96.1138 346.411 95.9792 346.671L96.0426 346.802C96.3235 346.667 96.6044 346.532 96.8854 346.397C97.1488 346.27 97.4209 346.139 97.7019 346.004L109.818 340.172L110.984 342.595Z" fill="#04FCA3"/>
<path d="M101.074 317.456C102.13 320.514 102.133 323.121 101.083 325.276C100.028 327.414 97.8328 329.058 94.4987 330.209C92.3251 330.96 90.3834 331.218 88.6738 330.983C86.9642 330.749 85.5022 330.037 84.2878 328.848C83.0549 327.666 82.0823 326.043 81.3701 323.98C80.9249 322.691 80.6593 321.473 80.5731 320.328C80.4869 319.182 80.599 318.134 80.9093 317.181C81.1948 316.217 81.6913 315.386 82.3987 314.688C83.0998 313.972 84.0306 313.413 85.1911 313.012L86.1164 315.693C85.3059 315.973 84.666 316.358 84.1967 316.85C83.709 317.348 83.3763 317.937 83.1987 318.617C83.0147 319.279 82.973 319.994 83.0737 320.763C83.1559 321.539 83.3369 322.332 83.6167 323.143C83.9983 324.248 84.4767 325.186 85.0519 325.956C85.6271 326.726 86.3112 327.305 87.1041 327.69C87.8971 328.076 88.8082 328.267 89.8373 328.262C90.8664 328.257 92.0165 328.036 93.2876 327.597L93.8678 327.396C95.5809 326.805 96.8827 326.067 97.773 325.182C98.657 324.279 99.1759 323.245 99.3299 322.078C99.4654 320.918 99.2915 319.638 98.8082 318.238C98.3185 316.82 97.7213 315.717 97.0165 314.929C96.2933 314.148 95.4501 313.676 94.487 313.514C93.5175 313.333 92.4156 313.456 91.1814 313.882L90.8499 313.997L93.1583 320.683L90.9202 321.456L87.696 312.117L97.6708 308.673L98.3576 310.663L96.0491 311.769C96.8655 312.044 97.594 312.452 98.2346 312.993C98.8751 313.535 99.4306 314.189 99.901 314.954C100.365 315.701 100.756 316.535 101.074 317.456Z" fill="#04FCA3"/>
<path d="M95.1022 292.555L77.6901 295.296L78.7582 302.082L76.3615 302.459L73.7844 286.087L76.1811 285.709L77.2583 292.553L94.6704 289.812L95.1022 292.555Z" fill="#04FCA3"/>
<path d="M93.742 271.833C93.8336 273.916 93.5327 275.724 92.8393 277.256C92.1451 278.769 91.0469 279.969 89.5449 280.854C88.0419 281.72 86.1321 282.204 83.8153 282.305C81.479 282.408 79.5341 282.094 77.9804 281.362C76.4065 280.612 75.2073 279.514 74.383 278.068C73.5578 276.602 73.0994 274.828 73.0079 272.745C72.9163 270.661 73.2176 268.863 73.9118 267.35C74.6052 265.818 75.7034 264.619 77.2063 263.753C78.6889 262.868 80.5984 262.375 82.9346 262.272C85.2514 262.17 87.1968 262.494 88.7707 263.244C90.3439 263.975 91.543 265.073 92.3682 266.539C93.1925 267.985 93.6505 269.75 93.742 271.833ZM91.3474 271.938C91.2995 270.848 91.1102 269.871 90.7797 269.008C90.4483 268.125 89.9578 267.396 89.3083 266.82C88.6384 266.225 87.8192 265.783 86.8507 265.494C85.8627 265.206 84.7068 265.091 83.3829 265.149L82.7697 265.176C81.4263 265.235 80.285 265.451 79.3455 265.824C78.3866 266.198 77.6094 266.71 77.0138 267.36C76.3979 267.992 75.9636 268.762 75.7109 269.67C75.4574 270.559 75.3546 271.549 75.4025 272.639C75.4513 273.749 75.641 274.735 75.9715 275.599C76.302 276.462 76.8022 277.191 77.4721 277.786C78.1225 278.381 78.9417 278.823 79.9297 279.111C80.8973 279.381 82.0528 279.486 83.3962 279.427L84.0094 279.4C85.3333 279.342 86.4751 279.136 87.4349 278.781C88.3743 278.409 89.1515 277.896 89.7666 277.245C90.3622 276.595 90.7868 275.825 91.0403 274.936C91.2938 274.047 91.3962 273.048 91.3474 271.938Z" fill="#04FCA3"/>
<path d="M93.6093 261.396L73.6033 260.028L73.7927 257.258L84.379 257.981L74.4885 247.08L74.7238 243.638L82.1942 251.796L94.7477 244.744L94.5224 248.039L84.0457 253.857L87.6161 258.203L93.7987 258.625L93.6093 261.396Z" fill="#04FCA3"/>
<path d="M95.2919 244.744L75.5506 241.224L78.2597 226.03L80.6194 226.45L78.3978 238.911L84.4986 239.999L86.4945 228.804L88.8543 229.225L86.8584 240.42L93.4196 241.589L95.6721 228.956L98.0318 229.377L95.2919 244.744Z" fill="#04FCA3"/>
<path d="M99.0521 227.069L79.8289 221.361L80.5944 218.783L96.0311 213.212C96.1709 213.152 96.3751 213.081 96.6436 212.998C96.9122 212.915 97.1807 212.832 97.4493 212.749C97.6992 212.661 97.922 212.595 98.1179 212.551L98.1512 212.439C97.8523 212.351 97.5627 212.265 97.2825 212.181C96.9836 212.093 96.694 212.007 96.4138 211.923L83.7478 208.163L84.5216 205.557L103.745 211.264L103.021 213.702L87.3268 219.318C87.0825 219.388 86.7347 219.498 86.2834 219.649C85.8376 219.781 85.4777 219.898 85.2036 219.999L85.162 220.139C85.4609 220.228 85.7598 220.317 86.0587 220.406C86.3389 220.489 86.6285 220.575 86.9274 220.663L99.8176 224.491L99.0521 227.069Z" fill="#04FCA3"/>
<path d="M102.475 198.64L100.127 197.521L103.31 190.845L105.658 191.965L102.475 198.64Z" fill="#04FCA3"/>
<path d="M121.659 178.29L105.724 174.422L107.227 172.192L115.17 174.163C115.554 174.256 116.028 174.389 116.595 174.559C117.146 174.719 117.712 174.889 118.295 175.07C118.873 175.225 119.38 175.379 119.817 175.532L119.899 175.411C119.619 175.058 119.294 174.651 118.924 174.19C118.537 173.718 118.167 173.256 117.812 172.806C117.452 172.328 117.149 171.924 116.902 171.593L112.08 164.993L113.534 162.836L123.097 176.157L121.659 178.29Z" fill="#04FCA3"/>
<path d="M128.752 168.703L113.277 155.95L115.043 153.807L128.646 165.017L134.985 157.325L136.857 158.868L128.752 168.703Z" fill="#04FCA3"/>
<path d="M138.961 157.113L124.84 142.875L134.926 132.871L136.614 134.573L128.499 142.622L133.028 147.187L140.416 139.859L142.084 141.54L134.696 148.869L140.933 155.157L138.961 157.113Z" fill="#04FCA3"/>
<path d="M139.339 131.894L137.5 129.698L139.472 128.046L141.311 130.242L139.339 131.894ZM151.069 145.9L141.197 134.113L143.169 132.461L153.041 144.249L151.069 145.9Z" fill="#04FCA3"/>
<path d="M163.417 128.578L162.025 126.381L168.271 122.421L169.664 124.619L163.417 128.578Z" fill="#04FCA3"/>
<path d="M192.002 120.893L177.104 105.525L179.862 104.318L190.273 115.268C190.489 115.471 190.722 115.709 190.969 115.984C191.217 116.258 191.461 116.524 191.701 116.78C191.941 117.037 192.157 117.262 192.347 117.455L192.508 117.384C192.486 117.139 192.462 116.841 192.436 116.491C192.41 116.14 192.384 115.79 192.359 115.44C192.325 115.071 192.299 114.721 192.281 114.388L191.243 99.3348L193.92 98.1624L195.081 119.545L192.002 120.893Z" fill="#04FCA3"/>
<path d="M202.723 116.791L196.711 97.6612L211.435 93.0336L212.154 95.3203L200.079 99.1153L201.937 105.027L212.785 101.618L213.503 103.905L202.656 107.314L204.654 113.672L216.896 109.824L217.615 112.111L202.723 116.791Z" fill="#04FCA3"/>
<path d="M227.43 110.884C226.359 111.092 225.306 111.188 224.27 111.172C223.254 111.151 222.318 110.986 221.464 110.676C220.605 110.347 219.874 109.854 219.27 109.197C218.684 108.537 218.286 107.661 218.073 106.571C218.055 106.476 218.036 106.38 218.017 106.284C218.018 106.185 218.009 106.087 217.99 105.992L220.745 105.455C220.756 105.513 220.765 105.61 220.772 105.748C220.794 105.863 220.815 105.968 220.833 106.063C220.982 106.829 221.339 107.434 221.902 107.88C222.465 108.327 223.175 108.605 224.03 108.717C224.901 108.805 225.853 108.749 226.886 108.548C227.345 108.458 227.818 108.337 228.304 108.182C228.809 108.024 229.278 107.834 229.711 107.61C230.16 107.364 230.543 107.091 230.862 106.791C231.196 106.468 231.435 106.113 231.578 105.728C231.737 105.32 231.766 104.858 231.666 104.341C231.539 103.691 231.243 103.193 230.779 102.846C230.33 102.477 229.773 102.218 229.109 102.07C228.441 101.902 227.694 101.789 226.869 101.731C226.059 101.651 225.223 101.585 224.359 101.535C223.496 101.485 222.646 101.402 221.809 101.287C220.988 101.149 220.233 100.939 219.542 100.657C218.848 100.355 218.25 99.9354 217.749 99.3978C217.266 98.8565 216.939 98.1458 216.768 97.2659C216.607 96.4434 216.627 95.6753 216.825 94.9617C217.043 94.2442 217.434 93.6022 217.999 93.0356C218.579 92.4462 219.334 91.9417 220.265 91.5222C221.192 91.0836 222.287 90.7413 223.549 90.4955C224.582 90.2944 225.561 90.2229 226.486 90.2811C227.426 90.3164 228.275 90.4984 229.034 90.8271C229.808 91.133 230.454 91.593 230.97 92.2071C231.487 92.8212 231.84 93.6161 232.03 94.5916L232.097 94.9359L229.4 95.4611L229.317 95.0307C229.19 94.3804 228.881 93.8648 228.39 93.4839C227.899 93.103 227.275 92.8572 226.519 92.7463C225.782 92.6318 224.974 92.6602 224.094 92.8315C222.946 93.055 222.012 93.356 221.291 93.7345C220.567 94.094 220.055 94.5213 219.754 95.0166C219.469 95.4891 219.377 95.9836 219.477 96.5C219.593 97.093 219.871 97.5549 220.313 97.8859C220.774 98.2131 221.336 98.451 222.001 98.5996C222.661 98.729 223.404 98.8226 224.229 98.8803C225.054 98.938 225.891 99.0034 226.739 99.0765C227.603 99.1267 228.445 99.2208 229.266 99.3587C230.102 99.4738 230.868 99.6822 231.562 99.9838C232.271 100.263 232.869 100.682 233.355 101.243C233.838 101.784 234.167 102.504 234.342 103.403C234.614 104.8 234.491 106.005 233.974 107.019C233.453 108.014 232.629 108.829 231.502 109.466C230.375 110.102 229.018 110.575 227.43 110.884Z" fill="#04FCA3"/>
<path d="M242.914 108.681L241.433 91.1166L234.588 91.694L234.384 89.2763L250.899 87.8834L251.103 90.301L244.2 90.8833L245.681 108.447L242.914 108.681Z" fill="#04FCA3"/>
<path d="M254.955 108.271L255.036 88.2189L257.813 88.23L257.732 108.283L254.955 108.271Z" fill="#04FCA3"/>
<path d="M266.347 108.661L268.273 88.7007L270.949 88.9589L279.37 103.045C279.456 103.171 279.565 103.358 279.698 103.605C279.83 103.853 279.963 104.101 280.096 104.348C280.23 104.577 280.338 104.783 280.418 104.967L280.534 104.978C280.564 104.668 280.593 104.367 280.621 104.076C280.651 103.766 280.68 103.465 280.708 103.174L281.977 90.0226L284.683 90.2837L282.757 110.244L280.226 110L271.712 95.6694C271.596 95.4429 271.422 95.1226 271.188 94.7085C270.973 94.2962 270.789 93.9653 270.637 93.7157L270.492 93.7016C270.462 94.012 270.432 94.3223 270.402 94.6327C270.374 94.9237 270.345 95.2243 270.315 95.5347L269.024 108.919L266.347 108.661Z" fill="#04FCA3"/>
<path d="M292.983 113.212C289.821 112.531 287.589 111.182 286.289 109.168C285.008 107.157 284.74 104.428 285.483 100.98C285.968 98.732 286.753 96.9378 287.84 95.5971C288.926 94.2565 290.293 93.3749 291.939 92.9523C293.589 92.5107 295.481 92.5199 297.614 92.9799C298.948 93.2674 300.127 93.6711 301.151 94.191C302.175 94.7108 303.014 95.3502 303.668 96.1092C304.345 96.8532 304.798 97.7085 305.028 98.6752C305.277 99.6459 305.273 100.731 305.014 101.931L302.242 101.334C302.423 100.496 302.425 99.7485 302.247 99.0922C302.074 98.4169 301.742 97.8271 301.253 97.3229C300.783 96.8228 300.193 96.4165 299.482 96.1039C298.776 95.7722 298.004 95.5161 297.166 95.3353C296.023 95.0889 294.973 95.012 294.016 95.1047C293.059 95.1974 292.21 95.4829 291.469 95.961C290.728 96.4392 290.093 97.1196 289.564 98.0023C289.035 98.8849 288.628 99.9835 288.345 101.298L288.216 101.898C287.834 103.67 287.79 105.165 288.085 106.385C288.4 107.609 289.016 108.589 289.933 109.325C290.855 110.043 292.04 110.557 293.488 110.869C294.955 111.186 296.208 111.246 297.246 111.052C298.289 110.838 299.13 110.361 299.768 109.622C300.424 108.886 300.891 107.88 301.166 106.604L301.24 106.261L294.325 104.77L294.824 102.456L304.482 104.538L302.258 114.853L300.2 114.41L300.451 111.862C299.793 112.418 299.066 112.83 298.271 113.097C297.476 113.364 296.629 113.5 295.73 113.506C294.851 113.516 293.935 113.418 292.983 113.212Z" fill="#04FCA3"/>
<path d="M317.373 121.01L324.053 104.698L317.696 102.095L318.615 99.8493L333.953 106.13L333.034 108.375L326.623 105.75L319.943 122.062L317.373 121.01Z" fill="#04FCA3"/>
<path d="M335.801 130.585C333.972 129.584 332.582 128.39 331.631 127.003C330.696 125.625 330.24 124.064 330.261 122.321C330.299 120.587 330.875 118.703 331.989 116.668C333.112 114.617 334.389 113.117 335.819 112.167C337.277 111.21 338.837 110.753 340.501 110.798C342.182 110.851 343.938 111.379 345.767 112.38C347.596 113.381 348.977 114.571 349.911 115.949C350.863 117.336 351.319 118.897 351.281 120.631C351.269 122.357 350.702 124.246 349.579 126.297C348.465 128.331 347.18 129.827 345.723 130.785C344.283 131.751 342.722 132.208 341.041 132.154C339.377 132.109 337.63 131.587 335.801 130.585ZM336.952 128.483C337.909 129.007 338.843 129.351 339.752 129.516C340.679 129.69 341.557 129.648 342.386 129.391C343.242 129.127 344.045 128.655 344.794 127.977C345.552 127.281 346.25 126.352 346.886 125.19L347.181 124.651C347.826 123.472 348.233 122.384 348.401 121.387C348.578 120.373 348.543 119.443 348.295 118.597C348.074 117.742 347.641 116.972 346.995 116.285C346.366 115.608 345.573 115.007 344.616 114.483C343.641 113.949 342.699 113.6 341.79 113.436C340.88 113.271 339.997 113.321 339.142 113.586C338.295 113.833 337.493 114.305 336.734 115.001C336.002 115.688 335.313 116.622 334.668 117.802L334.373 118.34C333.737 119.502 333.321 120.586 333.127 121.59C332.959 122.587 332.994 123.517 333.232 124.381C333.48 125.227 333.918 125.989 334.547 126.666C335.176 127.344 335.978 127.949 336.952 128.483Z" fill="#04FCA3"/>
<path d="M344.796 135.881L356.334 119.48L358.605 121.078L352.5 129.757L366.949 126.947L369.77 128.932L358.922 131.093L358.448 145.485L355.746 143.584L356.2 131.609L350.633 132.41L347.068 137.479L344.796 135.881Z" fill="#04FCA3"/>
<path d="M358.165 145.949L371.406 130.889L382.997 141.08L381.415 142.881L371.909 134.523L367.817 139.177L376.357 146.685L374.774 148.485L366.234 140.977L361.834 145.982L371.471 154.456L369.888 156.256L358.165 145.949Z" fill="#04FCA3"/>
<path d="M371.333 158.325L386.177 144.842L387.985 146.833L384.75 162.922C384.729 163.072 384.684 163.284 384.616 163.557C384.547 163.829 384.479 164.102 384.411 164.375C384.357 164.634 384.298 164.859 384.234 165.049L384.312 165.136C384.543 164.926 384.767 164.723 384.983 164.526C385.214 164.317 385.437 164.114 385.654 163.917L395.434 155.034L397.262 157.046L382.418 170.528L380.708 168.646L384.038 152.313C384.105 152.068 384.191 151.714 384.296 151.25C384.415 150.8 384.501 150.432 384.556 150.145L384.458 150.036C384.227 150.246 383.997 150.456 383.766 150.665C383.549 150.862 383.326 151.065 383.095 151.275L373.142 160.315L371.333 158.325Z" fill="#04FCA3"/>
<path d="M393.872 175.985L396.047 174.556L400.106 180.738L397.932 182.166L393.872 175.985Z" fill="#04FCA3"/>
<path d="M401.335 202.938L412.902 191.314L414.03 193.756L408.228 199.528C407.949 199.807 407.59 200.145 407.151 200.541C406.729 200.929 406.29 201.325 405.832 201.73C405.401 202.144 405.007 202.498 404.649 202.792L404.71 202.925C405.156 202.869 405.673 202.802 406.26 202.724C406.864 202.638 407.45 202.56 408.019 202.49C408.614 202.43 409.117 202.38 409.528 202.341L417.672 201.636L418.763 203.998L402.414 205.274L401.335 202.938Z" fill="#04FCA3"/>
<path d="M405.859 213.972L424.785 207.347L425.703 209.968L409.066 215.791L412.359 225.2L410.07 226.001L405.859 213.972Z" fill="#04FCA3"/>
<path d="M410.48 228.71L429.975 224.011L433.304 237.822L430.974 238.383L428.295 227.272L422.043 228.779L424.482 238.896L422.18 239.451L419.742 229.334L411.131 231.41L410.48 228.71Z" fill="#04FCA3"/>
<path d="M431.853 242.103L434.685 241.668L435.075 244.21L432.244 244.645L431.853 242.103ZM413.795 244.876L428.993 242.542L429.383 245.085L414.186 247.419L413.795 244.876Z" fill="#04FCA3"/>
<path d="M422.211 264.414L424.812 264.362L424.961 271.756L422.36 271.808L422.211 264.414Z" fill="#04FCA3"/>
<path d="M413.97 292.844L434.834 288.066L434.437 291.051L419.677 294.28C419.391 294.36 419.067 294.435 418.704 294.504C418.341 294.574 417.987 294.645 417.643 294.717C417.299 294.79 416.996 294.857 416.732 294.921L416.709 295.095C416.93 295.203 417.197 295.336 417.51 295.496C417.823 295.656 418.136 295.815 418.449 295.975C418.782 296.137 419.095 296.296 419.388 296.453L432.801 303.366L432.416 306.264L413.528 296.176L413.97 292.844Z" fill="#04FCA3"/>
<path d="M411.922 304.137L431.399 308.909L427.726 323.9L425.398 323.329L428.41 311.036L422.391 309.561L419.685 320.605L417.357 320.035L420.062 308.991L413.589 307.405L410.536 319.869L408.207 319.298L411.922 304.137Z" fill="#04FCA3"/>
<path d="M404.17 328.329C404.547 327.305 405.011 326.355 405.562 325.478C406.106 324.619 406.732 323.904 407.44 323.334C408.166 322.771 408.967 322.401 409.842 322.224C410.71 322.066 411.665 322.178 412.707 322.562C412.799 322.596 412.89 322.629 412.982 322.663C413.067 322.715 413.155 322.758 413.246 322.791L412.277 325.425C412.222 325.405 412.134 325.362 412.013 325.296C411.903 325.256 411.803 325.219 411.711 325.185C410.98 324.916 410.277 324.907 409.604 325.158C408.93 325.408 408.324 325.871 407.785 326.545C407.258 327.244 406.813 328.087 406.45 329.075C406.288 329.514 406.148 329.981 406.028 330.477C405.901 330.991 405.821 331.491 405.787 331.977C405.766 332.488 405.8 332.957 405.892 333.386C405.995 333.839 406.175 334.227 406.43 334.549C406.697 334.896 407.077 335.161 407.571 335.342C408.192 335.571 408.772 335.576 409.309 335.359C409.857 335.166 410.367 334.824 410.838 334.333C411.328 333.848 411.811 333.268 412.288 332.592C412.777 331.942 413.266 331.26 413.757 330.547C414.247 329.835 414.759 329.151 415.29 328.495C415.834 327.865 416.405 327.327 417.005 326.883C417.622 326.446 418.291 326.152 419.011 326.002C419.724 325.869 420.501 325.958 421.342 326.267C422.129 326.557 422.776 326.971 423.283 327.511C423.784 328.069 424.13 328.736 424.322 329.513C424.526 330.314 424.566 331.222 424.442 332.235C424.337 333.255 424.062 334.369 423.618 335.576C423.255 336.564 422.809 337.438 422.28 338.198C421.762 338.984 421.167 339.616 420.492 340.095C419.829 340.599 419.101 340.912 418.309 341.036C417.516 341.16 416.653 341.05 415.72 340.707L415.391 340.586L416.339 338.007L416.751 338.158C417.373 338.387 417.974 338.39 418.554 338.167C419.134 337.945 419.668 337.539 420.154 336.949C420.634 336.378 421.029 335.672 421.338 334.831C421.742 333.734 421.969 332.779 422.018 331.966C422.086 331.161 421.986 330.501 421.718 329.987C421.462 329.499 421.087 329.163 420.593 328.982C420.026 328.773 419.487 328.772 418.975 328.978C418.456 329.203 417.961 329.561 417.49 330.052C417.037 330.55 416.572 331.136 416.095 331.812C415.618 332.488 415.128 333.17 414.626 333.857C414.136 334.57 413.619 335.241 413.075 335.872C412.544 336.528 411.969 337.074 411.351 337.511C410.745 337.974 410.076 338.268 409.345 338.393C408.632 338.525 407.846 338.433 406.986 338.117C405.651 337.626 404.684 336.897 404.085 335.929C403.504 334.968 403.233 333.84 403.273 332.547C403.313 331.253 403.612 329.847 404.17 328.329Z" fill="#04FCA3"/>
<path d="M398.03 342.713L413.819 350.548L416.873 344.395L419.046 345.474L411.679 360.32L409.506 359.242L412.585 353.036L396.796 345.201L398.03 342.713Z" fill="#04FCA3"/>
<path d="M392.14 353.225L409.248 363.685L407.8 366.054L390.692 355.594L392.14 353.225Z" fill="#04FCA3"/>
<path d="M385.904 362.765L401.976 374.756L400.368 376.911L383.958 376.813C383.806 376.821 383.589 376.818 383.309 376.803C383.028 376.788 382.747 376.773 382.467 376.758C382.202 376.755 381.97 376.74 381.771 376.713L381.701 376.807C381.951 376.994 382.193 377.174 382.427 377.349C382.677 377.535 382.919 377.716 383.154 377.891L393.744 385.791L392.118 387.97L376.045 375.98L377.566 373.941L394.234 374.086C394.488 374.105 394.852 374.121 395.328 374.136C395.792 374.166 396.17 374.18 396.462 374.18L396.549 374.062C396.299 373.876 396.049 373.689 395.8 373.503C395.565 373.328 395.323 373.148 395.073 372.961L384.295 364.921L385.904 362.765Z" fill="#04FCA3"/>
<path d="M368.207 383.186C370.429 380.835 372.738 379.625 375.135 379.557C377.518 379.504 379.992 380.688 382.555 383.111C384.227 384.69 385.354 386.292 385.938 387.916C386.521 389.54 386.567 391.165 386.075 392.792C385.598 394.432 384.61 396.045 383.11 397.632C382.174 398.623 381.217 399.422 380.242 400.029C379.267 400.635 378.285 401.022 377.297 401.187C376.31 401.381 375.344 401.325 374.398 401.021C373.438 400.731 372.512 400.165 371.62 399.321L373.567 397.261C374.191 397.849 374.829 398.238 375.482 398.426C376.15 398.628 376.826 398.65 377.51 398.493C378.182 398.35 378.835 398.056 379.471 397.611C380.12 397.179 380.739 396.651 381.328 396.028C382.131 395.178 382.741 394.32 383.158 393.454C383.574 392.587 383.77 391.713 383.745 390.832C383.72 389.95 383.468 389.054 382.987 388.144C382.506 387.234 381.777 386.317 380.8 385.394L380.354 384.972C379.037 383.727 377.78 382.915 376.584 382.535C375.374 382.17 374.217 382.189 373.111 382.592C372.02 383.009 370.966 383.756 369.949 384.832C368.918 385.923 368.217 386.963 367.845 387.952C367.488 388.954 367.46 389.92 367.762 390.849C368.05 391.792 368.669 392.712 369.618 393.609L369.873 393.85L374.732 388.708L376.453 390.335L369.667 397.516L361.997 390.268L363.443 388.738L365.492 390.272C365.357 389.421 365.382 388.587 365.566 387.768C365.749 386.95 366.071 386.155 366.532 385.384C366.979 384.626 367.538 383.894 368.207 383.186Z" fill="#04FCA3"/>
<path d="M348.899 400.005L359.388 414.171L364.909 410.083L366.353 412.033L353.033 421.896L351.589 419.946L357.156 415.824L346.667 401.658L348.899 400.005Z" fill="#04FCA3"/>
<path d="M331.16 410.803C332.964 409.758 334.706 409.187 336.385 409.093C338.047 409.008 339.619 409.426 341.099 410.348C342.562 411.279 343.875 412.748 345.037 414.755C346.21 416.778 346.831 418.648 346.902 420.364C346.966 422.106 346.548 423.677 345.647 425.077C344.73 426.487 343.369 427.715 341.565 428.76C339.761 429.806 338.027 430.371 336.365 430.456C334.686 430.551 333.114 430.132 331.651 429.201C330.181 428.296 328.86 426.832 327.687 424.808C326.524 422.802 325.911 420.927 325.848 419.185C325.767 417.452 326.185 415.881 327.103 414.471C328.003 413.071 329.355 411.848 331.16 410.803ZM332.361 412.877C331.417 413.424 330.639 414.044 330.027 414.736C329.398 415.439 328.978 416.211 328.768 417.054C328.551 417.923 328.538 418.853 328.73 419.846C328.932 420.855 329.365 421.933 330.03 423.079L330.338 423.61C331.012 424.774 331.731 425.686 332.497 426.346C333.272 427.023 334.086 427.475 334.938 427.702C335.783 427.955 336.667 427.984 337.589 427.787C338.494 427.6 339.419 427.233 340.363 426.686C341.324 426.129 342.111 425.505 342.723 424.812C343.335 424.12 343.75 423.339 343.967 422.47C344.194 421.617 344.207 420.687 344.005 419.678C343.796 418.695 343.354 417.622 342.68 416.459L342.372 415.927C341.708 414.781 340.997 413.864 340.238 413.178C339.473 412.517 338.659 412.065 337.797 411.822C336.945 411.595 336.066 411.575 335.161 411.761C334.256 411.948 333.322 412.32 332.361 412.877Z" fill="#04FCA3"/>
<path d="M321.969 415.752L330.017 434.119L327.474 435.233L323.215 425.514L318.13 439.328L314.97 440.712L318.744 430.314L306.682 422.451L309.707 421.125L319.713 427.719L321.913 422.543L319.426 416.867L321.969 415.752Z" fill="#04FCA3"/>
<path d="M306.43 421.968L312.448 441.097L297.725 445.728L297.006 443.442L309.079 439.643L307.22 433.732L296.373 437.144L295.653 434.858L306.5 431.446L304.5 425.088L292.259 428.939L291.54 426.653L306.43 421.968Z" fill="#04FCA3"/>
<path d="M289.022 426.816L292.86 446.498L290.221 447.013L278.137 435.908C278.019 435.812 277.862 435.664 277.664 435.464C277.466 435.265 277.268 435.065 277.07 434.865C276.876 434.685 276.715 434.518 276.585 434.364L276.471 434.387C276.53 434.693 276.588 434.989 276.644 435.276C276.704 435.582 276.762 435.878 276.818 436.165L279.347 449.134L276.679 449.654L272.84 429.972L275.336 429.485L287.579 440.797C287.754 440.982 288.012 441.239 288.355 441.569C288.678 441.903 288.948 442.168 289.165 442.364L289.309 442.336C289.249 442.03 289.189 441.724 289.129 441.418C289.074 441.131 289.016 440.835 288.956 440.529L286.382 427.331L289.022 426.816Z" fill="#04FCA3"/>
<path d="M262.238 436.94L262.333 439.54L254.942 439.809L254.848 437.209L262.238 436.94Z" fill="#04FCA3"/>
</svg>
