<svg width="491" height="110" viewBox="0 0 491 110" fill="none" xmlns="http://www.w3.org/2000/svg">
<path d="M160.16 107.83V2.1697H204.033C215.447 2.1697 225.078 4.06657 232.925 7.8603C240.874 11.654 246.887 17.4472 250.964 25.2397C255.142 32.9297 257.231 42.8242 257.231 54.9231C257.231 66.9195 255.142 76.8652 250.964 84.7603C246.887 92.5528 240.874 98.346 232.925 102.14C225.078 105.933 215.447 107.83 204.033 107.83H160.16ZM187.524 86.2983H203.728C208.008 86.2983 211.728 85.6831 214.887 84.4527C218.046 83.2223 220.696 81.428 222.836 79.0697C224.976 76.7114 226.556 73.7892 227.575 70.3031C228.594 66.817 229.104 62.8182 229.104 58.3067V51.8471C229.104 47.2331 228.594 43.183 227.575 39.6969C226.556 36.2108 224.976 33.2886 222.836 30.9303C220.696 28.572 218.046 26.7777 214.887 25.5473C211.728 24.3169 208.008 23.7017 203.728 23.7017H187.524V86.2983Z" fill="#F1F4F8"/>
<path d="M263.27 107.83L302.71 2.1697H335.577L375.017 107.83H345.819L339.551 89.5281H297.666L291.398 107.83H263.27ZM304.239 68.9189H332.825L325.335 46.6179C324.927 45.49 324.418 44.1058 323.806 42.4653C323.296 40.7222 322.736 38.9279 322.124 37.0823C321.615 35.1342 321.105 33.186 320.596 31.2379C320.086 29.2898 319.577 27.598 319.067 26.1625H317.997C317.589 28.1106 316.978 30.3151 316.163 32.7759C315.449 35.2367 314.685 37.6975 313.87 40.1583C313.156 42.6191 312.494 44.7723 311.882 46.6179L304.239 68.9189Z" fill="#F1F4F8"/>
<path d="M435.968 109.676C424.452 109.676 414.566 107.676 406.311 103.678C398.158 99.5764 391.891 93.4756 387.509 85.3755C383.126 77.2754 380.935 67.1246 380.935 54.9231C380.935 42.7216 383.126 32.6221 387.509 24.6245C391.891 16.5244 398.158 10.4749 406.311 6.4761C414.566 2.37476 424.452 0.324097 435.968 0.324097C447.484 0.324097 457.318 2.37476 465.471 6.4761C473.726 10.4749 480.044 16.5244 484.427 24.6245C488.809 32.6221 491 42.7216 491 54.9231C491 67.1246 488.809 77.2754 484.427 85.3755C480.044 93.4756 473.726 99.5764 465.471 103.678C457.318 107.676 447.484 109.676 435.968 109.676ZM435.968 88.1439C440.35 88.1439 444.223 87.4774 447.586 86.1445C450.949 84.8116 453.751 82.8634 455.993 80.3001C458.337 77.7368 460.07 74.6095 461.191 70.9183C462.312 67.2271 462.872 63.0745 462.872 58.4605V51.6933C462.872 46.9768 462.312 42.7729 461.191 39.0817C460.07 35.3905 458.337 32.2632 455.993 29.6999C453.751 27.1366 450.949 25.1884 447.586 23.8555C444.223 22.5226 440.35 21.8561 435.968 21.8561C431.484 21.8561 427.56 22.5226 424.197 23.8555C420.834 25.1884 418.031 27.1366 415.789 29.6999C413.547 32.2632 411.866 35.3905 410.745 39.0817C409.623 42.7729 409.063 46.9768 409.063 51.6933V58.4605C409.063 63.0745 409.623 67.2271 410.745 70.9183C411.866 74.6095 413.547 77.7368 415.789 80.3001C418.031 82.8634 420.834 84.8116 424.197 86.1445C427.56 87.4774 431.484 88.1439 435.968 88.1439Z" fill="#F1F4F8"/>
<path d="M0.216858 107.83V2.16968H27.5802V85.2217H54.2556H80.931V107.83H0.216858Z" fill="#F1F4F8"/>
<path d="M98.7917 65.2062V44.7938H137.429V65.2062H98.7917Z" fill="#F1F4F8"/>
</svg>
