<svg width="93" height="35" viewBox="0 0 93 35" fill="none" xmlns="http://www.w3.org/2000/svg">
<path d="M38.0573 22.1772L38.0223 22.1597C37.6472 21.9637 37.202 22.1597 37.0618 22.5622C36.7883 23.3533 36.2274 24.0603 35.3756 24.5048L21.6688 31.6802C20.6522 32.2158 19.4357 32.2158 18.4156 31.6802L4.7088 24.5048C3.85694 24.0603 3.29605 23.3533 3.02262 22.5622C2.8859 22.1632 2.43719 21.9637 2.06209 22.1597L2.02703 22.1772C0.656353 22.8947 0.656353 24.8514 2.02703 25.5689L19.1483 34.5329C19.7057 34.8234 20.3717 34.8234 20.9291 34.5329L38.0538 25.5689C39.4245 24.8514 39.4245 22.8947 38.0538 22.1772H38.0573Z" fill="white"/>
<path d="M38.0574 15.7475L38.0224 15.73C37.6473 15.534 37.2021 15.73 37.0619 16.1325C36.7884 16.9236 36.2275 17.6306 35.3757 18.0751L21.6689 25.2506C20.6522 25.7861 19.4358 25.7861 18.4157 25.2506L4.70538 18.0751C3.85353 17.6306 3.29263 16.9236 3.0192 16.1325C2.88248 15.7335 2.43377 15.534 2.05867 15.73L2.02362 15.7475C0.652935 16.4651 0.652935 18.4217 2.02362 19.1392L19.1449 28.1032C19.7022 28.3937 20.3683 28.3937 20.9257 28.1032L38.0504 19.1392C39.4211 18.4217 39.4211 16.4651 38.0504 15.7475H38.0574Z" fill="white"/>
<path d="M2.02655 12.5752L3.22896 13.2018L5.14651 14.2063L8.8519 16.1419L11.2076 17.3775L19.5614 21.7457C19.8629 21.9032 20.224 21.9032 20.5255 21.7457L23.1547 20.3702C24.5253 19.6526 24.5253 17.696 23.1547 16.9785L15.204 12.8167L14.7308 12.5682C13.4127 11.8752 13.3636 10.0376 14.5835 9.26403C14.6291 9.23253 14.6817 9.20452 14.7308 9.17652L24.6445 3.98923C25.3842 3.60071 25.3842 2.54365 24.6445 2.15862L20.9321 0.223014C20.3747 -0.0675022 19.7087 -0.0675022 19.1513 0.223014L2.02655 9.18352C0.655865 9.89756 0.655865 11.8577 2.02655 12.5752Z" fill="white"/>
<path d="M22.2542 9.18093C21.5461 9.55195 21.2025 10.2555 21.2306 10.9485C21.2551 11.5891 21.5952 12.2156 22.2437 12.5656C22.2472 12.5656 22.2507 12.5691 22.2542 12.5726L29.2619 16.2408C29.2619 16.2408 29.2689 16.2408 29.2724 16.2443C29.8228 16.5349 30.4818 16.5349 31.0357 16.2443C31.0357 16.2443 31.0427 16.2443 31.0462 16.2408L31.232 16.1428L34.9374 14.2002L38.0574 12.5726C38.0574 12.5726 38.0644 12.5691 38.0679 12.5656C39.428 11.8446 39.4245 9.89497 38.0574 9.18093L31.0462 5.50922C31.0217 5.49871 31.0006 5.48471 30.9726 5.47421C30.9621 5.46721 30.9516 5.46371 30.941 5.45671C30.4503 5.1977 29.8613 5.1977 29.3705 5.45671C29.3705 5.45671 29.346 5.46721 29.339 5.47421C29.3144 5.48471 29.2899 5.49871 29.2654 5.50922L22.2577 9.18093H22.2542Z" fill="white"/>
<path d="M54.0845 30.7609V3.03394H58.29V27.0809H68.5636V30.7609H54.0845Z" fill="#F1F4F8"/>
<path d="M71.4126 30.7609V3.03394H86.538V6.63313H75.6181V15.2423H85.1645V18.8797H75.6181V30.7609H71.4126Z" fill="#F1F4F8"/>
<path d="M88.7407 6.63744V3H92.5423V6.63744H88.7407ZM88.7407 30.7609V9.50149H92.5423V30.7609H88.7407Z" fill="#F1F4F8"/>
</svg>
